<?xml version="1.0" encoding="iso-8859-1"?>
<!-- Generator: Adobe Illustrator 18.1.0, SVG Export Plug-In . SVG Version: 6.00 Build 0)  -->
<!DOCTYPE svg PUBLIC "-//W3C//DTD SVG 1.1//EN" "http://www.w3.org/Graphics/SVG/1.1/DTD/svg11.dtd">
<svg version="1.1" xmlns="http://www.w3.org/2000/svg" xmlns:xlink="http://www.w3.org/1999/xlink" x="0px" y="0px"
	 viewBox="0 0 140 105" style="enable-background:new 0 0 140 105;" xml:space="preserve">
<g id="yolkd">
	<g>
		<g>
			<path d="M37.864,29.376c-0.174-0.258-0.451-0.4-0.779-0.4h-5.234c-0.659,0-1.091,0.379-1.183,1.034l-1.657,10.527l-1.657-10.52
				c-0.092-0.661-0.523-1.041-1.184-1.041h-5.234c-0.329,0-0.606,0.142-0.781,0.402c-0.167,0.251-0.201,0.542-0.097,0.821
				l5.658,20.37v12.687c0,0.685,0.407,1.094,1.09,1.094h4.407c0.682,0,1.089-0.409,1.089-1.094V50.569l5.659-20.371
				C38.067,29.915,38.034,29.632,37.864,29.376z"/>
			<path d="M74.46,57.766h-5.72V35.009c0-0.687-0.409-1.097-1.095-1.097h-4.394c-0.686,0-1.095,0.41-1.095,1.097v28.247
				c0,0.685,0.409,1.094,1.095,1.094H74.46c0.685,0,1.095-0.409,1.095-1.094v-4.396C75.555,58.175,75.146,57.766,74.46,57.766z"/>
			<path d="M94.805,33.912h-4.938c-0.621,0-1.071,0.285-1.304,0.826l-3.773,7.26v-6.989c0-0.687-0.409-1.097-1.095-1.097H79.3
				c-0.686,0-1.095,0.41-1.095,1.097v28.247c0,0.685,0.41,1.094,1.095,1.094h4.395c0.685,0,1.095-0.409,1.095-1.094v-6.418
				l0.401-0.756l3.267,7.428c0.094,0.234,0.258,0.434,0.486,0.593c0.231,0.163,0.492,0.245,0.776,0.245h4.889
				c0.423,0,0.657-0.218,0.778-0.4c0.174-0.258,0.205-0.558,0.087-0.852l-6.542-15.477l6.625-12.422l0.018-0.038
				c0.109-0.267,0.107-0.54-0.004-0.785C95.439,34.082,95.161,33.912,94.805,33.912z"/>
			<path d="M102.061,29.744c-0.702-0.739-1.615-1.114-2.713-1.114c-1.033,0-1.896,0.358-2.567,1.066
				c-0.597,0.636-0.9,1.376-0.9,2.201c0,1.105,0.345,1.971,1.024,2.573c0.324,0.29,0.686,0.521,1.074,0.688
				c0.402,0.172,0.898,0.255,1.516,0.255c0.139,0,0.312-0.029,0.527-0.089c0.01-0.003,0.019-0.005,0.027-0.007
				c0.002,0.013,0.005,0.03,0.007,0.05c0.012,0.133,0.007,0.247-0.015,0.338l-0.005,0.024c-0.141,0.791-0.413,1.302-0.809,1.519
				c-0.557,0.305-0.86,0.369-1.016,0.369c-0.238,0-0.417,0.152-0.531,0.266l-0.048,0.047l-0.029,0.06
				c-0.063,0.128-0.091,0.229-0.091,0.328v0.74c0,0.316,0.152,0.572,0.416,0.704c0.121,0.064,0.25,0.097,0.381,0.097h0.041
				l0.04-0.008c0.086-0.018,0.171-0.035,0.256-0.052l0.237-0.048c0.155-0.031,0.212-0.04,0.23-0.042h0.042l0.053-0.015
				c0.248-0.069,0.499-0.171,0.75-0.304c0.211-0.114,0.424-0.241,0.647-0.388c0.809-0.529,1.442-1.191,1.883-1.967
				c0.433-0.76,0.722-1.618,0.862-2.55c0.071-0.355,0.098-0.717,0.079-1.076c-0.017-0.345-0.061-0.693-0.128-1.035
				C103.158,31.344,102.74,30.459,102.061,29.744z"/>
			<path d="M119.472,37.959c-0.347-0.799-0.824-1.505-1.419-2.1c-0.598-0.597-1.304-1.074-2.099-1.418
				c-0.81-0.351-1.678-0.53-2.581-0.53h-7.407c-0.686,0-1.096,0.41-1.096,1.097v28.247c0,0.685,0.41,1.094,1.096,1.094h7.407
				c0.909,0,1.777-0.177,2.581-0.526c0.8-0.347,1.506-0.824,2.099-1.418c0.595-0.594,1.072-1.301,1.418-2.101
				c0.35-0.806,0.528-1.674,0.528-2.581V40.539C120,39.634,119.822,38.766,119.472,37.959z M113.414,40.788v16.691
				c0,0.222-0.073,0.399-0.227,0.554c-0.154,0.153-0.335,0.228-0.554,0.228h-1.176V40.006h1.176c0.22,0,0.401,0.074,0.553,0.226
				C113.341,40.389,113.414,40.565,113.414,40.788z"/>
			<path d="M47.287,34.308l-0.026,0c-1.918,0.013-3.989,1.635-5.831,4.569c-1.792,2.854-3.181,6.636-3.911,10.647
				c-0.835,4.59,0.077,8.888,2.501,11.793c1.848,2.215,4.469,3.435,7.38,3.435l0.08,0c2.93-0.021,5.553-1.268,7.385-3.512
				c2.401-2.941,3.259-7.262,2.354-11.856C55.556,40.93,51.193,34.308,47.287,34.308z"/>
		</g>
		<g>
			<g>
				<path style="fill:#333333;" d="M28.224,68.196c1.087,0,1.652,0.708,1.652,1.668c0,0.7-0.371,1.087-0.674,1.281
					c0.362,0.185,0.851,0.573,0.851,1.407c0,1.02-0.649,1.711-1.795,1.711h-2.292v-6.067H28.224z M28.039,70.867
					c0.683,0,0.961-0.421,0.961-1.003c0-0.598-0.27-1.003-0.969-1.003h-1.205v2.006H28.039z M28.098,73.597
					c0.758,0,1.07-0.388,1.07-1.045c0-0.708-0.337-1.045-1.079-1.045h-1.264v2.09H28.098z"/>
			</g>
			<g>
				<path style="fill:#333333;" d="M33.6,69.746c1.163,0,1.871,0.632,1.871,2.301c0,1.669-0.716,2.301-1.871,2.301
					s-1.871-0.632-1.871-2.301C31.73,70.378,32.446,69.746,33.6,69.746z M33.6,70.395c-0.615,0-1.011,0.354-1.011,1.652
					c0,1.298,0.396,1.652,1.011,1.652s1.003-0.354,1.003-1.652C34.603,70.749,34.216,70.395,33.6,70.395z"/>
			</g>
			<g>
				<path style="fill:#333333;" d="M38.37,72.67c0,0.767,0.244,0.994,0.843,0.994c0.169,0,0.354-0.034,0.354-0.034
					s0.059,0.143,0.059,0.337c0,0.194-0.042,0.303-0.042,0.303c-0.152,0.042-0.379,0.076-0.607,0.076
					c-1.037,0-1.45-0.565-1.45-1.635v-2.25h-0.649c0,0-0.05-0.118-0.05-0.312c0-0.211,0.05-0.32,0.05-0.32h0.649v-0.767
					c0.219-0.135,0.531-0.194,0.843-0.169v0.935h1.096c0,0,0.051,0.11,0.051,0.312c0,0.194-0.051,0.32-0.051,0.32H38.37V72.67z"/>
			</g>
			<g>
				<path style="fill:#333333;" d="M42.364,72.67c0,0.767,0.244,0.994,0.843,0.994c0.169,0,0.354-0.034,0.354-0.034
					s0.059,0.143,0.059,0.337c0,0.194-0.042,0.303-0.042,0.303c-0.152,0.042-0.379,0.076-0.607,0.076
					c-1.037,0-1.45-0.565-1.45-1.635v-2.25h-0.649c0,0-0.05-0.118-0.05-0.312c0-0.211,0.05-0.32,0.05-0.32h0.649v-0.767
					c0.219-0.135,0.531-0.194,0.843-0.169v0.935h1.096c0,0,0.051,0.11,0.051,0.312c0,0.194-0.051,0.32-0.051,0.32h-1.096V72.67z"/>
			</g>
			<g>
				<path style="fill:#333333;" d="M46.097,74.204c0,0-0.143,0.059-0.421,0.059c-0.295,0-0.421-0.059-0.421-0.059v-6.202
					c0,0,0.126-0.059,0.421-0.059c0.278,0,0.421,0.059,0.421,0.059V74.204z"/>
			</g>
			<g>
				<path style="fill:#333333;" d="M48.827,72.308c0.067,1.003,0.472,1.323,1.171,1.323c0.598,0,0.994-0.244,0.994-0.244
					c0.152,0.135,0.261,0.362,0.27,0.607c0,0-0.48,0.354-1.399,0.354c-1.298,0-1.905-0.801-1.905-2.326
					c0-1.593,0.75-2.275,1.871-2.275c1.037,0,1.669,0.573,1.669,1.694c0,0.531-0.093,0.868-0.093,0.868H48.827z M49.83,70.412
					c-0.548,0-0.935,0.362-1.003,1.298h1.803c0.008-0.067,0.025-0.202,0.025-0.379C50.656,70.833,50.453,70.412,49.83,70.412z"/>
			</g>
			<g>
				<path style="fill:#333333;" d="M56.327,67.943c0.278,0,0.413,0.059,0.413,0.059v6.202c0,0-0.143,0.059-0.354,0.059
					s-0.379-0.059-0.379-0.059l-0.059-0.455c-0.244,0.371-0.632,0.598-1.264,0.598c-0.961,0-1.584-0.582-1.584-2.301
					c0-1.719,0.624-2.301,1.584-2.301c0.59,0,0.969,0.202,1.214,0.548v-2.292C55.897,68.002,56.04,67.943,56.327,67.943z
					 M54.979,70.437c-0.674,0-1.011,0.354-1.011,1.609c0,1.256,0.337,1.61,1.011,1.61c0.59,0,0.919-0.497,0.919-1.079V71.49
					C55.889,70.926,55.56,70.437,54.979,70.437z"/>
			</g>
			<g>
				<path style="fill:#333333;" d="M64.973,70.344c-0.177-0.784-0.194-1.239-0.194-1.239h-0.034c0,0-0.025,0.455-0.202,1.239
					l-0.969,3.859c-0.118,0.025-0.346,0.059-0.548,0.059c-0.194,0-0.379-0.034-0.489-0.059l-1.652-5.949c0,0,0.143-0.059,0.43-0.059
					c0.295,0,0.43,0.059,0.43,0.059l1.104,3.961c0.152,0.548,0.236,1.112,0.236,1.112h0.034c0,0,0.067-0.556,0.202-1.112
					l1.011-3.961c0,0,0.135-0.059,0.447-0.059c0.32,0,0.455,0.059,0.455,0.059l1.003,3.961c0.143,0.581,0.194,1.112,0.194,1.112
					h0.025c0,0,0.076-0.506,0.236-1.112l1.104-3.961c0,0,0.152-0.059,0.388-0.059c0.253,0,0.404,0.059,0.404,0.059l-1.643,5.949
					c0,0-0.194,0.059-0.489,0.059c-0.287,0-0.514-0.059-0.514-0.059L64.973,70.344z"/>
			</g>
			<g>
				<path style="fill:#333333;" d="M73.643,74.204c0,0-0.143,0.059-0.421,0.059c-0.287,0-0.421-0.059-0.421-0.059V71.17
					c0-0.472-0.244-0.742-0.784-0.742c-0.371,0-0.733,0.202-0.952,0.539v3.236c0,0-0.152,0.059-0.421,0.059
					c-0.295,0-0.421-0.059-0.421-0.059v-6.202c0,0,0.126-0.059,0.421-0.059c0.27,0,0.421,0.059,0.421,0.059v2.275
					c0.303-0.346,0.742-0.531,1.272-0.531c0.843,0,1.306,0.514,1.306,1.273V74.204z"/>
			</g>
			<g>
				<path style="fill:#333333;" d="M76.323,72.308c0.067,1.003,0.472,1.323,1.171,1.323c0.598,0,0.994-0.244,0.994-0.244
					c0.152,0.135,0.261,0.362,0.27,0.607c0,0-0.48,0.354-1.399,0.354c-1.298,0-1.904-0.801-1.904-2.326
					c0-1.593,0.75-2.275,1.871-2.275c1.037,0,1.669,0.573,1.669,1.694c0,0.531-0.093,0.868-0.093,0.868H76.323z M77.326,70.412
					c-0.548,0-0.935,0.362-1.003,1.298h1.803c0.008-0.067,0.025-0.202,0.025-0.379C78.152,70.833,77.949,70.412,77.326,70.412z"/>
			</g>
			<g>
				<path style="fill:#333333;" d="M82.719,74.912c-0.303,0.927-0.598,1.458-1.508,1.458c-0.278,0-0.463-0.084-0.463-0.084
					c0-0.008-0.059-0.143-0.059-0.312c0-0.185,0.059-0.329,0.067-0.337c0,0,0.185,0.034,0.379,0.034
					c0.379,0,0.573-0.101,0.826-0.893l0.177-0.514c-0.084-0.008-0.177-0.017-0.27-0.059l-1.601-4.315c0,0,0.16-0.059,0.438-0.059
					c0.286,0,0.438,0.059,0.438,0.059l0.961,2.562c0.211,0.582,0.295,0.986,0.295,0.986h0.034c0,0,0.084-0.396,0.27-0.978
					l0.834-2.57c0,0,0.135-0.059,0.413-0.059c0.244,0,0.396,0.059,0.396,0.059L82.719,74.912z"/>
			</g>
			<g>
				<path style="fill:#333333;" d="M89.46,74.204c0,0-0.143,0.059-0.421,0.059c-0.312,0-0.438-0.059-0.438-0.059v-6.008H90.8
					c1.112,0,1.812,0.75,1.812,1.854c0,1.096-0.699,1.845-1.812,1.845h-1.34V74.204z M90.69,71.179c0.666,0,1.028-0.421,1.028-1.129
					c0-0.716-0.362-1.138-1.028-1.138h-1.23v2.267H90.69z"/>
			</g>
			<g>
				<path style="fill:#333333;" d="M96.243,69.755c0.312,0,0.548,0.093,0.733,0.211c-0.025,0.303-0.143,0.522-0.371,0.708
					c-0.16-0.118-0.329-0.177-0.522-0.177c-0.329,0-0.649,0.253-0.868,0.641v3.067c0,0-0.143,0.059-0.421,0.059
					c-0.295,0-0.421-0.059-0.421-0.059v-4.315c0,0,0.126-0.059,0.421-0.059c0.278,0,0.421,0.059,0.421,0.059v0.582
					C95.535,69.94,95.906,69.755,96.243,69.755z"/>
			</g>
			<g>
				<path style="fill:#333333;" d="M100.043,69.746c1.163,0,1.871,0.632,1.871,2.301c0,1.669-0.716,2.301-1.871,2.301
					s-1.871-0.632-1.871-2.301C98.172,70.378,98.889,69.746,100.043,69.746z M100.043,70.395c-0.615,0-1.011,0.354-1.011,1.652
					c0,1.298,0.396,1.652,1.011,1.652c0.615,0,1.003-0.354,1.003-1.652C101.046,70.749,100.659,70.395,100.043,70.395z"/>
			</g>
			<g>
				<path style="fill:#333333;" d="M104.813,72.67c0,0.767,0.244,0.994,0.843,0.994c0.169,0,0.354-0.034,0.354-0.034
					s0.059,0.143,0.059,0.337c0,0.194-0.042,0.303-0.042,0.303c-0.152,0.042-0.379,0.076-0.607,0.076
					c-1.037,0-1.45-0.565-1.45-1.635v-2.25h-0.649c0,0-0.05-0.118-0.05-0.312c0-0.211,0.05-0.32,0.05-0.32h0.649v-0.767
					c0.219-0.135,0.531-0.194,0.843-0.169v0.935h1.096c0,0,0.051,0.11,0.051,0.312c0,0.194-0.051,0.32-0.051,0.32h-1.096V72.67z"/>
			</g>
			<g>
				<path style="fill:#333333;" d="M108.352,72.308c0.067,1.003,0.472,1.323,1.171,1.323c0.598,0,0.994-0.244,0.994-0.244
					c0.152,0.135,0.261,0.362,0.27,0.607c0,0-0.48,0.354-1.399,0.354c-1.298,0-1.905-0.801-1.905-2.326
					c0-1.593,0.75-2.275,1.871-2.275c1.037,0,1.669,0.573,1.669,1.694c0,0.531-0.093,0.868-0.093,0.868H108.352z M109.355,70.412
					c-0.548,0-0.935,0.362-1.003,1.298h1.803c0.008-0.067,0.025-0.202,0.025-0.379C110.181,70.833,109.978,70.412,109.355,70.412z"
					/>
			</g>
			<g>
				<path style="fill:#333333;" d="M113.686,68.979c0,0-0.152,0.059-0.438,0.059c-0.303,0-0.438-0.059-0.438-0.059v-0.792
					c0,0,0.135-0.059,0.438-0.059c0.286,0,0.438,0.059,0.438,0.059V68.979z M113.669,74.204c0,0-0.143,0.059-0.421,0.059
					c-0.295,0-0.421-0.059-0.421-0.059v-4.315c0,0,0.126-0.059,0.421-0.059c0.278,0,0.421,0.059,0.421,0.059V74.204z"/>
			</g>
			<g>
				<path style="fill:#333333;" d="M119.138,74.204c0,0-0.143,0.059-0.421,0.059c-0.287,0-0.421-0.059-0.421-0.059V71.17
					c0-0.472-0.245-0.742-0.784-0.742c-0.371,0-0.733,0.202-0.952,0.539v3.236c0,0-0.152,0.059-0.421,0.059
					c-0.295,0-0.421-0.059-0.421-0.059v-4.315c0,0,0.126-0.059,0.421-0.059c0.27,0,0.421,0.059,0.421,0.059v0.388
					c0.303-0.346,0.742-0.531,1.272-0.531c0.843,0,1.306,0.514,1.306,1.273V74.204z"/>
			</g>
		</g>
	</g>
</g>
<g id="Layer_1">
</g>
</svg>
