<?xml version="1.0" encoding="iso-8859-1"?>
<!-- Generator: Adobe Illustrator 18.1.0, SVG Export Plug-In . SVG Version: 6.00 Build 0)  -->
<!DOCTYPE svg PUBLIC "-//W3C//DTD SVG 1.1//EN" "http://www.w3.org/Graphics/SVG/1.1/DTD/svg11.dtd">
<svg version="1.1" xmlns="http://www.w3.org/2000/svg" xmlns:xlink="http://www.w3.org/1999/xlink" x="0px" y="0px"
	 viewBox="0 0 140 105" style="enable-background:new 0 0 140 105;" xml:space="preserve">
<g id="amlith">
	<g>
		<g id="layer3_2_">
			<g id="path3828_2_" inkscape:connector-curvature="0" sodipodi:nodetypes="ccc">
				<g style="opacity:0;">
					<g>
						<polyline style="fill:#FFA7FF;" points="21.032,53.417 27.316,39.976 33.672,53.595 						"/>
					</g>
				</g>
				<g>
					<g>
						<polygon points="33.312,53.763 27.316,40.916 21.392,53.586 20.671,53.249 27.317,39.036 34.033,53.426 						"/>
					</g>
				</g>
			</g>
			<g id="path3830_2_" inkscape:connector-curvature="0" sodipodi:nodetypes="ccccc">
				<g style="opacity:0;">
					<g>
						<polyline style="fill:#FFA7FF;" points="33.781,53.123 30.555,55.221 27.317,57.286 24.103,55.118 20.729,53.129 						"/>
					</g>
				</g>
				<g>
					<g>
						<polygon points="27.311,57.743 23.898,55.442 20.535,53.459 20.924,52.8 24.307,54.795 24.316,54.801 27.323,56.828 
							30.349,54.897 33.572,52.802 33.99,53.443 30.763,55.541 						"/>
					</g>
				</g>
			</g>
			<g id="path3832_2_" inkscape:connector-curvature="0" sodipodi:nodetypes="ccc">
				<g style="opacity:0;">
					<g>
						<polyline style="fill:#FFA7FF;" points="23.771,54.863 27.29,48.59 30.861,55.067 						"/>
					</g>
				</g>
				<g>
					<g>
						<polygon points="30.638,55.19 27.288,49.114 23.993,54.988 23.548,54.738 27.292,48.064 31.084,54.944 						"/>
					</g>
				</g>
			</g>
			<g id="path3864_2_" inkscape:connector-curvature="0">
				<g style="opacity:0.9412;">
					<g>
						<polygon style="fill:#000FFF;" points="26.846,59.903 26.846,65.709 10.585,65.709 18.695,56.98 						"/>
					</g>
				</g>
				<g>
					<g>
						<path d="M27.101,65.964H10l8.623-9.28l8.478,3.04V65.964z M11.17,65.454h15.42v-5.372l-7.823-2.805L11.17,65.454z"/>
					</g>
				</g>
			</g>
			<g id="path3864-4_2_" inkscape:connector-curvature="0">
				<g style="opacity:0.9412;">
					<g>
						<polygon style="fill:#000FFF;" points="27.806,59.903 27.806,65.709 44.066,65.709 35.956,56.98 						"/>
					</g>
				</g>
				<g>
					<g>
						<path d="M44.651,65.964H27.551v-6.24l8.478-3.04L44.651,65.964z M28.061,65.454h15.42l-7.597-8.177l-7.823,2.805V65.454z"/>
					</g>
				</g>
			</g>
			<g id="path3853_2_" inkscape:connector-curvature="0" sodipodi:nodetypes="cssscscscssscc">
				<g>
					<g>
						<path style="fill:#FFAD00;" d="M30.402,53.723c-0.26-0.476-1.087-1.927-1.806-3.24c-0.718-1.313-1.257-2.379-1.276-2.361
							c-0.018,0.018-0.853,1.43-1.809,3.144c-1.06,1.902-1.726,3.179-1.765,3.176c-0.035-0.004-0.621-0.316-1.182-0.666l-0.999-0.57
							l0.506-1.077c3.132-6.662,5.203-11.185,5.249-11.197c0.042-0.015,5.644,11.987,5.703,12.218
							c0.012,0.047-0.172,0.15-0.535,0.385c-0.297,0.193-0.782,0.509-1.077,0.702l-0.536,0.35L30.402,53.723z"/>
					</g>
				</g>
				<g style="opacity:0;">
					<g>
						<path style="fill:#1F1AB2;" d="M30.875,54.59l-0.002-0.002L30.4,53.724c-0.096-0.176-0.268-0.481-0.485-0.868
							c-0.366-0.651-0.867-1.543-1.32-2.372c-0.343-0.626-0.646-1.2-0.869-1.619c-0.223-0.421-0.385-0.727-0.404-0.74
							c-0.033,0.043-0.873,1.466-1.808,3.143c-0.456,0.817-0.846,1.532-1.13,2.055c-0.435,0.798-0.613,1.122-0.637,1.122
							c-0.037-0.003-0.632-0.323-1.183-0.666l-1.001-0.571l0.001-0.002l0.506-1.077c1.443-3.071,2.667-5.699,3.56-7.617
							c1.154-2.479,1.666-3.575,1.69-3.582h0c0.005,0,0.019,0,0.905,1.878c0.515,1.092,1.206,2.564,1.944,4.146
							c1.354,2.901,2.825,6.077,2.855,6.196c0.01,0.037-0.094,0.104-0.321,0.248c-0.063,0.04-0.134,0.086-0.215,0.139
							c-0.294,0.191-0.777,0.507-1.077,0.702L30.875,54.59z M27.321,48.119c0.015,0,0.129,0.214,0.409,0.743
							c0.222,0.419,0.526,0.993,0.868,1.619c0.454,0.829,0.955,1.721,1.32,2.371c0.217,0.388,0.389,0.693,0.485,0.868l0.472,0.862
							l0.534-0.35c0.299-0.195,0.782-0.511,1.077-0.702c0.081-0.053,0.152-0.099,0.215-0.139c0.212-0.135,0.328-0.209,0.319-0.243
							c-0.03-0.118-1.496-3.282-2.845-6.173c-1.383-2.964-2.803-5.979-2.856-6.044c-0.039,0.039-0.661,1.376-1.687,3.579
							c-0.893,1.918-2.116,4.546-3.56,7.617l-0.506,1.075l0.997,0.569c0.578,0.359,1.149,0.662,1.181,0.665
							c0.023-0.002,0.266-0.446,0.632-1.119c0.285-0.522,0.675-1.237,1.131-2.055c0.943-1.691,1.789-3.125,1.809-3.145
							C27.319,48.119,27.32,48.119,27.321,48.119z"/>
					</g>
				</g>
			</g>
			<g id="path3855_2_">
				<g>
					<path inkscape:connector-curvature="0" sodipodi:nodetypes="ccsssscc" style="fill:#007DFF;" d="M25.756,55.782
						c-0.874-0.593-1.633-1.061-1.631-1.076c0.005-0.047,3.139-5.585,3.163-5.592c0.012-0.004,0.726,1.302,1.588,2.867
						c1.29,2.343,1.596,2.852,1.571,2.875c-0.017,0.016-0.748,0.473-1.583,1.016l-1.518,0.986L25.756,55.782z"/>
				</g>
				<g>
					<path style="fill:#007DFF;" d="M27.345,56.991l-1.65-1.117c-0.495-0.336-0.954-0.632-1.258-0.828
						c-0.431-0.277-0.431-0.277-0.422-0.353c0.003-0.027,0.007-0.057,1.588-2.852c0.411-0.727,0.796-1.405,1.085-1.911
						c0.517-0.906,0.517-0.906,0.567-0.922l0.016-0.005h0.017c0.001,0,0.002,0,0.002,0c0.071,0,0.074,0.005,0.393,0.581
						c0.182,0.328,0.437,0.792,0.732,1.329c0.174,0.316,0.362,0.659,0.558,1.016c0.486,0.882,0.826,1.492,1.074,1.938
						c0.198,0.355,0.329,0.591,0.405,0.733c0.104,0.196,0.144,0.269,0.071,0.338c-0.013,0.012-0.014,0.013-0.334,0.217
						c-0.303,0.192-0.76,0.483-1.264,0.811L27.345,56.991z M24.267,54.672c0.066,0.044,0.173,0.112,0.29,0.188
						c0.305,0.197,0.765,0.493,1.262,0.831l1.528,1.035l1.456-0.946c0.505-0.328,0.963-0.619,1.266-0.812
						c0.1-0.063,0.187-0.118,0.244-0.154c-0.059-0.117-0.209-0.389-0.46-0.839c-0.248-0.445-0.588-1.056-1.074-1.938
						c-0.197-0.356-0.386-0.7-0.56-1.018c-0.406-0.739-0.77-1.4-0.932-1.688C26.808,50.157,24.598,54.064,24.267,54.672z"/>
				</g>
			</g>
		</g>
		<g style="enable-background:new    ;">
			<path d="M62.726,49.316c1.893,0,3.44,1.523,3.44,3.417v13.205h-3.625v-5.355h-9.419v5.355h-3.579V52.733
				c0-1.894,1.524-3.417,3.417-3.417H62.726z M62.541,56.981v-4.063h-9.419v4.063H62.541z"/>
			<path d="M88.214,55.896v10.042h-3.509v-9.857h-4.433v9.857h-3.556v-9.857h-4.433v9.857h-3.532v-13.39h16.114
				C86.713,52.549,88.214,54.072,88.214,55.896z"/>
			<path d="M94.84,48.139v14.269h2.701v3.531h-2.909c-1.823,0-3.348-1.523-3.348-3.347V48.139H94.84z"/>
			<path d="M103.289,48.162v3.556h-3.532v-3.556H103.289z M99.757,52.549h3.532v13.39h-3.532V52.549z"/>
			<path d="M109.06,56.081v6.326h4.964v3.531h-5.125c-1.87,0-3.371-1.523-3.371-3.347V48.578h3.532v3.971h4.964v3.532H109.06z"/>
			<path d="M130,55.896v10.042h-3.532v-9.857h-6.511v9.857h-3.532V48.162h3.532v4.387h6.695C128.477,52.549,130,54.072,130,55.896z"
				/>
		</g>
	</g>
</g>
<g id="Layer_1">
</g>
</svg>
