<?xml version="1.0" encoding="iso-8859-1"?>
<!-- Generator: Adobe Illustrator 18.1.0, SVG Export Plug-In . SVG Version: 6.00 Build 0)  -->
<!DOCTYPE svg PUBLIC "-//W3C//DTD SVG 1.1//EN" "http://www.w3.org/Graphics/SVG/1.1/DTD/svg11.dtd">
<svg version="1.1" xmlns="http://www.w3.org/2000/svg" xmlns:xlink="http://www.w3.org/1999/xlink" x="0px" y="0px"
	 viewBox="0 0 140 105" style="enable-background:new 0 0 140 105;" xml:space="preserve">
<g id="emsengage">
	<g>
		<g>
			<path style="fill:#272D37;" d="M29.649,60.359H17.293c0.253,1.652,0.924,2.897,2.009,3.736c1.083,0.84,2.314,1.258,3.692,1.258
				c0.433,0,0.905-0.036,1.415-0.115c0.51-0.074,1.028-0.183,1.55-0.322c0.523-0.14,1.039-0.307,1.549-0.497
				c0.51-0.189,0.968-0.399,1.377-0.629l0.229,4.006c-1.855,0.967-3.979,1.448-6.369,1.448c-1.679,0-3.159-0.254-4.443-0.762
				c-1.285-0.509-2.365-1.201-3.242-2.077c-0.878-0.88-1.539-1.921-1.983-3.128c-0.445-1.207-0.668-2.512-0.668-3.909
				c0-1.374,0.21-2.659,0.629-3.854c0.42-1.193,1.023-2.243,1.812-3.145c0.787-0.902,1.748-1.609,2.879-2.117
				c1.13-0.509,2.409-0.763,3.833-0.763c1.194,0,2.307,0.197,3.337,0.591c1.03,0.395,1.918,0.954,2.669,1.677
				c0.749,0.726,1.334,1.597,1.754,2.615c0.42,1.017,0.629,2.146,0.629,3.395C29.954,58.478,29.852,59.343,29.649,60.359z
				 M17.407,57.153h7.741c0-0.991-0.281-1.867-0.842-2.63c-0.563-0.763-1.433-1.144-2.608-1.144c-1.175,0-2.12,0.343-2.836,1.03
				C18.147,55.096,17.662,56.012,17.407,57.153z"/>
			<path style="fill:#272D37;" d="M50.016,68.864h-4.729v-10.26c0-1.779-0.299-3.095-0.895-3.946
				c-0.598-0.853-1.559-1.279-2.88-1.279c-1.45,0-2.646,0.546-3.585,1.639v13.846h-4.73v-19.07h4.425l0.077,1.144
				c1.348-0.965,2.746-1.448,4.196-1.448c5.415,0,8.122,3.037,8.122,9.115V68.864z"/>
			<path style="fill:#272D37;" d="M61.953,78.398c-1.475,0-2.772-0.153-3.891-0.457c-1.119-0.306-2.06-0.714-2.822-1.22
				c-0.762-0.511-1.335-1.107-1.717-1.794c-0.382-0.686-0.572-1.412-0.572-2.174c0-1.755,1.042-3.178,3.128-4.271
				c-1.144-0.711-1.716-1.626-1.716-2.746c0-1.119,0.635-1.983,1.907-2.594c-1.958-1.424-2.936-3.47-2.936-6.14
				c0-1.068,0.177-2.06,0.533-2.975c0.356-0.916,0.871-1.71,1.544-2.385c0.674-0.673,1.488-1.201,2.442-1.582
				c0.954-0.381,2.027-0.572,3.223-0.572c1.702,0,3.152,0.381,4.348,1.145c1.016-0.56,2.377-0.84,4.081-0.84h1.22l-0.303,2.976
				h-1.717c-0.205,0-0.4,0-0.592,0c-0.19,0-0.35,0.013-0.477,0.037c0.763,1.196,1.145,2.594,1.145,4.196
				c0,1.042-0.172,2.021-0.516,2.936c-0.342,0.915-0.838,1.71-1.486,2.383c-0.649,0.675-1.456,1.208-2.422,1.604
				c-0.967,0.395-2.06,0.592-3.279,0.592c-0.332,0-0.662-0.021-0.992-0.057c-0.331-0.041-0.675-0.083-1.03-0.136
				c-0.28,0.128-0.419,0.332-0.419,0.611c0,0.458,0.349,0.777,1.049,0.953c0.699,0.178,1.939,0.383,3.719,0.61
				c0.839,0.102,1.697,0.248,2.574,0.44c0.877,0.189,1.679,0.493,2.403,0.913c0.726,0.42,1.336,0.98,1.831,1.679
				c0.496,0.7,0.781,1.608,0.858,2.727c0,1.905-0.789,3.406-2.364,4.501C67.126,77.852,64.876,78.398,61.953,78.398z M61.801,70.009
				c-0.687-0.077-1.45-0.191-2.289-0.344c-1.753,0.583-2.631,1.461-2.631,2.631c0,0.84,0.426,1.507,1.277,2.003
				c0.852,0.496,2.04,0.744,3.566,0.744c1.526,0,2.766-0.229,3.719-0.687c0.954-0.457,1.43-1.096,1.43-1.907
				c0-0.814-0.476-1.386-1.43-1.716C64.489,70.403,63.275,70.16,61.801,70.009z M61.076,52.959c-1.145,0-2.016,0.363-2.613,1.086
				c-0.598,0.727-0.896,1.712-0.896,2.958c0,1.245,0.298,2.229,0.896,2.954c0.598,0.725,1.469,1.088,2.613,1.088
				c1.143,0,2.008-0.363,2.593-1.088c0.584-0.725,0.877-1.709,0.877-2.954c0-1.246-0.292-2.231-0.877-2.958
				C63.084,53.322,62.22,52.959,61.076,52.959z"/>
			<path style="fill:#272D37;" d="M89.719,65.354l-0.421,3.891h-1.716c-2.06,0-3.484-0.737-4.272-2.21
				c-1.32,1.473-3.265,2.21-5.835,2.21c-0.789,0-1.518-0.133-2.191-0.398c-0.675-0.268-1.26-0.65-1.755-1.146
				c-0.496-0.494-0.884-1.092-1.163-1.791c-0.28-0.698-0.421-1.494-0.421-2.385c0-1.297,0.383-2.376,1.145-3.241
				c0.763-0.864,1.691-1.557,2.784-2.078c1.094-0.522,2.257-0.896,3.491-1.125c1.232-0.229,2.328-0.356,3.299-0.381
				c-0.053-1.145-0.331-1.952-0.839-2.424c-0.51-0.469-1.373-0.705-2.595-0.705c-1.5,0-3.242,0.483-5.225,1.449l-0.421-3.853
				c2.366-1.118,4.679-1.677,6.942-1.677c4.602,0,6.903,2.555,6.903,7.664v5.15c0,0.688,0.02,1.234,0.057,1.642
				c0.039,0.406,0.114,0.717,0.229,0.934c0.114,0.216,0.287,0.349,0.517,0.4c0.228,0.05,0.519,0.074,0.876,0.074H89.719z
				 M82.7,64.248V59.9c-0.737,0.052-1.456,0.153-2.155,0.306c-0.7,0.153-1.315,0.376-1.849,0.668
				c-0.534,0.292-0.967,0.641-1.298,1.049c-0.33,0.406-0.496,0.877-0.496,1.411c0,1.527,0.852,2.287,2.556,2.287
				C80.652,65.621,81.733,65.164,82.7,64.248z"/>
			<path style="fill:#272D37;" d="M100.053,78.398c-1.476,0-2.771-0.153-3.89-0.457c-1.12-0.306-2.061-0.714-2.822-1.22
				c-0.764-0.511-1.334-1.107-1.716-1.794c-0.383-0.686-0.573-1.412-0.573-2.174c0-1.755,1.043-3.178,3.128-4.271
				c-1.144-0.711-1.717-1.626-1.717-2.746c0-1.119,0.635-1.983,1.907-2.594c-1.958-1.424-2.937-3.47-2.937-6.14
				c0-1.068,0.179-2.06,0.534-2.975c0.355-0.916,0.869-1.71,1.543-2.385c0.676-0.673,1.489-1.201,2.442-1.582
				c0.954-0.381,2.027-0.572,3.223-0.572c1.704,0,3.152,0.381,4.349,1.145c1.018-0.56,2.378-0.84,4.08-0.84h1.222l-0.306,2.976
				h-1.716c-0.206,0-0.402,0-0.593,0s-0.35,0.013-0.477,0.037c0.764,1.196,1.145,2.594,1.145,4.196c0,1.042-0.171,2.021-0.514,2.936
				c-0.345,0.915-0.84,1.71-1.488,2.383c-0.648,0.675-1.456,1.208-2.422,1.604c-0.967,0.395-2.06,0.592-3.28,0.592
				c-0.33,0-0.661-0.021-0.991-0.057c-0.331-0.041-0.674-0.083-1.03-0.136c-0.28,0.128-0.42,0.332-0.42,0.611
				c0,0.458,0.35,0.777,1.049,0.953c0.699,0.178,1.939,0.383,3.72,0.61c0.839,0.102,1.695,0.248,2.575,0.44
				c0.877,0.189,1.677,0.493,2.401,0.913c0.724,0.42,1.335,0.98,1.83,1.679c0.497,0.7,0.782,1.608,0.858,2.727
				c0,1.905-0.788,3.406-2.363,4.501C105.227,77.852,102.977,78.398,100.053,78.398z M99.9,70.009
				c-0.687-0.077-1.449-0.191-2.289-0.344c-1.755,0.583-2.629,1.461-2.629,2.631c0,0.84,0.424,1.507,1.275,2.003
				c0.851,0.496,2.04,0.744,3.565,0.744c1.527,0,2.766-0.229,3.721-0.687c0.952-0.457,1.43-1.096,1.43-1.907
				c0-0.814-0.478-1.386-1.43-1.716C102.589,70.403,101.374,70.16,99.9,70.009z M99.176,52.959c-1.143,0-2.016,0.363-2.613,1.086
				c-0.597,0.727-0.896,1.712-0.896,2.958c0,1.245,0.299,2.229,0.896,2.954c0.598,0.725,1.471,1.088,2.613,1.088
				c1.144,0,2.008-0.363,2.594-1.088c0.585-0.725,0.876-1.709,0.876-2.954c0-1.246-0.291-2.231-0.876-2.958
				C101.184,53.322,100.319,52.959,99.176,52.959z"/>
			<path style="fill:#272D37;" d="M127.397,60.359h-12.355c0.254,1.652,0.924,2.897,2.008,3.736c1.085,0.84,2.315,1.258,3.692,1.258
				c0.434,0,0.905-0.036,1.417-0.115c0.51-0.074,1.025-0.183,1.55-0.322c0.522-0.14,1.038-0.307,1.55-0.497
				c0.509-0.189,0.968-0.399,1.378-0.629l0.228,4.006c-1.856,0.967-3.979,1.448-6.371,1.448c-1.675,0-3.157-0.254-4.441-0.762
				c-1.282-0.509-2.366-1.201-3.24-2.077c-0.879-0.88-1.539-1.921-1.985-3.128c-0.444-1.207-0.666-2.512-0.666-3.909
				c0-1.374,0.209-2.659,0.63-3.854c0.418-1.193,1.023-2.243,1.811-3.145c0.789-0.902,1.747-1.609,2.878-2.117
				c1.133-0.509,2.41-0.763,3.834-0.763c1.195,0,2.309,0.197,3.339,0.591c1.028,0.395,1.919,0.954,2.668,1.677
				c0.751,0.726,1.336,1.597,1.756,2.615c0.419,1.017,0.628,2.146,0.628,3.395C127.703,58.478,127.602,59.343,127.397,60.359z
				 M115.156,57.153h7.742c0-0.991-0.281-1.867-0.845-2.63c-0.561-0.763-1.43-1.144-2.604-1.144c-1.176,0-2.122,0.343-2.835,1.03
				C115.896,55.096,115.411,56.012,115.156,57.153z"/>
		</g>
		<g>
			<path style="fill:#272D37;" d="M17.535,42.767h-4.18c0.086,0.559,0.312,0.98,0.679,1.264c0.368,0.285,0.783,0.426,1.248,0.426
				c0.148,0,0.307-0.013,0.48-0.039c0.173-0.026,0.347-0.062,0.524-0.109c0.176-0.047,0.351-0.103,0.524-0.167
				c0.172-0.065,0.328-0.136,0.465-0.212l0.078,1.354c-0.628,0.326-1.347,0.49-2.155,0.49c-0.567,0-1.068-0.086-1.503-0.257
				c-0.434-0.172-0.8-0.407-1.097-0.704c-0.296-0.296-0.519-0.648-0.67-1.058c-0.15-0.407-0.226-0.849-0.226-1.322
				c0-0.465,0.07-0.898,0.213-1.303c0.142-0.405,0.346-0.759,0.613-1.064c0.266-0.306,0.591-0.544,0.973-0.718
				c0.383-0.171,0.816-0.257,1.298-0.257c0.404,0,0.78,0.068,1.128,0.201c0.349,0.134,0.649,0.323,0.903,0.568
				c0.254,0.246,0.451,0.54,0.594,0.884c0.141,0.344,0.212,0.727,0.212,1.148C17.638,42.131,17.604,42.422,17.535,42.767z
				 M13.394,41.683h2.619c0-0.336-0.095-0.632-0.286-0.89c-0.19-0.258-0.483-0.388-0.881-0.388s-0.717,0.117-0.96,0.35
				C13.644,40.986,13.479,41.297,13.394,41.683z"/>
			<path style="fill:#272D37;" d="M28.475,45.644h-1.6v-3.47c0-0.618-0.09-1.068-0.27-1.349c-0.182-0.279-0.491-0.419-0.929-0.419
				c-0.483,0-0.816,0.112-1,0.336c-0.185,0.225-0.278,0.529-0.278,0.916v3.986h-1.586v-3.47c0-0.334-0.024-0.617-0.071-0.845
				c-0.048-0.228-0.122-0.411-0.226-0.548c-0.104-0.137-0.237-0.234-0.4-0.291c-0.163-0.055-0.362-0.084-0.594-0.084
				c-0.491,0-0.887,0.176-1.187,0.529v4.708h-1.6v-6.45h1.316l0.091,0.503c0.499-0.404,1.048-0.607,1.652-0.607
				c0.396,0,0.769,0.084,1.122,0.253c0.353,0.167,0.637,0.411,0.852,0.729c0.059-0.122,0.155-0.24,0.29-0.356
				c0.133-0.116,0.292-0.221,0.478-0.315c0.185-0.095,0.393-0.17,0.626-0.227c0.231-0.056,0.48-0.084,0.747-0.084
				c0.421,0,0.795,0.075,1.117,0.221s0.591,0.351,0.806,0.619c0.215,0.267,0.376,0.592,0.483,0.974
				c0.108,0.382,0.161,0.806,0.161,1.271V45.644z"/>
			<path style="fill:#272D37;" d="M31.74,45.773c-0.981,0-1.708-0.159-2.18-0.477l0.141-1.367c0.104,0.077,0.235,0.154,0.395,0.232
				c0.159,0.078,0.326,0.146,0.503,0.206c0.177,0.06,0.36,0.11,0.548,0.148c0.188,0.039,0.37,0.058,0.542,0.058
				c0.362,0,0.615-0.068,0.762-0.207c0.147-0.137,0.22-0.305,0.22-0.502c0-0.191-0.052-0.334-0.157-0.432
				c-0.103-0.1-0.25-0.185-0.444-0.259c-0.193-0.072-0.428-0.149-0.703-0.233c-0.276-0.08-0.584-0.207-0.929-0.379
				c-0.259-0.146-0.452-0.324-0.581-0.536c-0.129-0.21-0.205-0.504-0.231-0.883c0-0.266,0.045-0.522,0.135-0.769
				c0.091-0.244,0.231-0.461,0.419-0.65c0.19-0.189,0.433-0.342,0.729-0.458c0.296-0.115,0.656-0.175,1.078-0.175
				c0.396,0,0.784,0.048,1.167,0.142c0.383,0.095,0.667,0.206,0.857,0.337l-0.142,1.367c-0.095-0.086-0.209-0.171-0.341-0.258
				c-0.134-0.086-0.277-0.162-0.434-0.226c-0.153-0.064-0.317-0.116-0.489-0.155c-0.172-0.04-0.34-0.058-0.503-0.058
				c-0.309,0-0.565,0.058-0.768,0.174c-0.201,0.116-0.302,0.295-0.302,0.534c0,0.208,0.065,0.362,0.199,0.465
				c0.133,0.103,0.312,0.198,0.536,0.284l0.219,0.064c0.051,0.017,0.135,0.04,0.251,0.071c0.117,0.03,0.204,0.054,0.265,0.071
				c0.267,0.077,0.509,0.168,0.728,0.27c0.22,0.103,0.407,0.233,0.562,0.387c0.155,0.154,0.272,0.339,0.355,0.555
				c0.081,0.215,0.122,0.469,0.122,0.761C34.268,45.141,33.424,45.773,31.74,45.773z"/>
		</g>
		<g>
			<g>
				<defs>
					<rect id="SVGID_1_" x="36" y="38" width="69" height="1"/>
				</defs>
				<clipPath id="SVGID_2_">
					<use xlink:href="#SVGID_1_"  style="overflow:visible;"/>
				</clipPath>
				<path style="clip-path:url(#SVGID_2_);fill:#7AA23C;" d="M37.236,38.641v1.24V38.641z"/>
				<rect x="37.236" y="38.641" style="clip-path:url(#SVGID_2_);fill:#7AA23C;" width="1.797" height="1.24"/>
				<rect x="39.033" y="38.641" style="clip-path:url(#SVGID_2_);fill:#7BA33C;" width="1.796" height="1.24"/>
				<rect x="40.829" y="38.641" style="clip-path:url(#SVGID_2_);fill:#7CA43D;" width="1.799" height="1.24"/>
				<rect x="42.628" y="38.641" style="clip-path:url(#SVGID_2_);fill:#7CA53D;" width="1.795" height="1.24"/>
				<rect x="44.423" y="38.641" style="clip-path:url(#SVGID_2_);fill:#7DA63E;" width="1.797" height="1.24"/>
				<rect x="46.22" y="38.641" style="clip-path:url(#SVGID_2_);fill:#7EA73E;" width="1.799" height="1.24"/>
				<rect x="48.019" y="38.641" style="clip-path:url(#SVGID_2_);fill:#7FA83E;" width="1.797" height="1.24"/>
				<rect x="49.816" y="38.641" style="clip-path:url(#SVGID_2_);fill:#7FA93F;" width="1.797" height="1.24"/>
				<rect x="51.613" y="38.641" style="clip-path:url(#SVGID_2_);fill:#80AA3F;" width="1.796" height="1.24"/>
				<rect x="53.409" y="38.641" style="clip-path:url(#SVGID_2_);fill:#81AB40;" width="1.797" height="1.24"/>
				<rect x="55.206" y="38.641" style="clip-path:url(#SVGID_2_);fill:#82AC40;" width="1.796" height="1.24"/>
				<rect x="57.003" y="38.641" style="clip-path:url(#SVGID_2_);fill:#83AD40;" width="1.798" height="1.24"/>
				<rect x="58.801" y="38.641" style="clip-path:url(#SVGID_2_);fill:#83AE41;" width="1.797" height="1.24"/>
				<rect x="60.599" y="38.641" style="clip-path:url(#SVGID_2_);fill:#84AF41;" width="1.797" height="1.24"/>
				<rect x="62.396" y="38.641" style="clip-path:url(#SVGID_2_);fill:#85B041;" width="1.795" height="1.24"/>
				<rect x="64.191" y="38.641" style="clip-path:url(#SVGID_2_);fill:#86B142;" width="1.797" height="1.24"/>
				<rect x="65.988" y="38.641" style="clip-path:url(#SVGID_2_);fill:#86B242;" width="1.798" height="1.24"/>
				<rect x="67.786" y="38.641" style="clip-path:url(#SVGID_2_);fill:#87B343;" width="1.796" height="1.24"/>
				<rect x="69.582" y="38.641" style="clip-path:url(#SVGID_2_);fill:#88B543;" width="1.797" height="1.24"/>
				<rect x="71.38" y="38.641" style="clip-path:url(#SVGID_2_);fill:#89B643;" width="1.797" height="1.24"/>
				<rect x="73.177" y="38.641" style="clip-path:url(#SVGID_2_);fill:#8AB744;" width="1.797" height="1.24"/>
				<rect x="74.974" y="38.641" style="clip-path:url(#SVGID_2_);fill:#8AB844;" width="1.797" height="1.24"/>
				<rect x="76.771" y="38.641" style="clip-path:url(#SVGID_2_);fill:#8BB945;" width="1.798" height="1.24"/>
				<rect x="78.568" y="38.641" style="clip-path:url(#SVGID_2_);fill:#8CBA45;" width="1.797" height="1.24"/>
				<rect x="80.365" y="38.641" style="clip-path:url(#SVGID_2_);fill:#8DBB45;" width="1.797" height="1.24"/>
				<rect x="82.162" y="38.641" style="clip-path:url(#SVGID_2_);fill:#8DBC46;" width="1.796" height="1.24"/>
				<rect x="83.958" y="38.641" style="clip-path:url(#SVGID_2_);fill:#8EBD46;" width="1.798" height="1.24"/>
				<rect x="85.756" y="38.641" style="clip-path:url(#SVGID_2_);fill:#8FBE47;" width="1.797" height="1.24"/>
				<rect x="87.553" y="38.641" style="clip-path:url(#SVGID_2_);fill:#90BF47;" width="1.799" height="1.24"/>
				<rect x="89.352" y="38.641" style="clip-path:url(#SVGID_2_);fill:#91C047;" width="1.796" height="1.24"/>
				<rect x="91.147" y="38.641" style="clip-path:url(#SVGID_2_);fill:#91C148;" width="1.796" height="1.24"/>
				<rect x="92.943" y="38.641" style="clip-path:url(#SVGID_2_);fill:#92C248;" width="1.798" height="1.24"/>
				<rect x="94.741" y="38.641" style="clip-path:url(#SVGID_2_);fill:#93C348;" width="1.798" height="1.24"/>
				<rect x="96.539" y="38.641" style="clip-path:url(#SVGID_2_);fill:#94C449;" width="1.797" height="1.24"/>
				<rect x="98.336" y="38.641" style="clip-path:url(#SVGID_2_);fill:#94C549;" width="1.797" height="1.24"/>
				<rect x="100.133" y="38.641" style="clip-path:url(#SVGID_2_);fill:#95C64A;" width="1.797" height="1.24"/>
				<rect x="101.93" y="38.641" style="clip-path:url(#SVGID_2_);fill:#96C74A;" width="1.798" height="1.24"/>
				<path style="clip-path:url(#SVGID_2_);fill:#96C74A;" d="M103.727,39.881v-1.24V39.881z"/>
			</g>
		</g>
		<g>
			<g>
				<defs>
					<rect id="SVGID_3_" x="36" y="40" width="92" height="2"/>
				</defs>
				<clipPath id="SVGID_4_">
					<use xlink:href="#SVGID_3_"  style="overflow:visible;"/>
				</clipPath>
				<path style="clip-path:url(#SVGID_4_);fill:#7AA23C;" d="M37.236,41.618v1.24V41.618z"/>
				<rect x="37.236" y="41.618" style="clip-path:url(#SVGID_4_);fill:#7AA23C;" width="2.461" height="1.24"/>
				<rect x="39.696" y="41.618" style="clip-path:url(#SVGID_4_);fill:#7BA33C;" width="2.461" height="1.24"/>
				<rect x="42.157" y="41.618" style="clip-path:url(#SVGID_4_);fill:#7CA43D;" width="2.462" height="1.24"/>
				<rect x="44.62" y="41.618" style="clip-path:url(#SVGID_4_);fill:#7CA53D;" width="2.461" height="1.24"/>
				<rect x="47.08" y="41.618" style="clip-path:url(#SVGID_4_);fill:#7DA63E;" width="2.46" height="1.24"/>
				<rect x="49.54" y="41.618" style="clip-path:url(#SVGID_4_);fill:#7EA73E;" width="2.461" height="1.24"/>
				<rect x="52.001" y="41.618" style="clip-path:url(#SVGID_4_);fill:#7FA83E;" width="2.461" height="1.24"/>
				<rect x="54.463" y="41.618" style="clip-path:url(#SVGID_4_);fill:#7FA93F;" width="2.46" height="1.24"/>
				<rect x="56.922" y="41.618" style="clip-path:url(#SVGID_4_);fill:#80AA3F;" width="2.461" height="1.24"/>
				<rect x="59.384" y="41.618" style="clip-path:url(#SVGID_4_);fill:#81AB40;" width="2.46" height="1.24"/>
				<rect x="61.844" y="41.618" style="clip-path:url(#SVGID_4_);fill:#82AC40;" width="2.463" height="1.24"/>
				<rect x="64.307" y="41.618" style="clip-path:url(#SVGID_4_);fill:#83AD40;" width="2.459" height="1.24"/>
				<rect x="66.766" y="41.618" style="clip-path:url(#SVGID_4_);fill:#83AE41;" width="2.462" height="1.24"/>
				<rect x="69.228" y="41.618" style="clip-path:url(#SVGID_4_);fill:#84AF41;" width="2.458" height="1.24"/>
				<rect x="71.687" y="41.618" style="clip-path:url(#SVGID_4_);fill:#85B041;" width="2.464" height="1.24"/>
				<rect x="74.15" y="41.618" style="clip-path:url(#SVGID_4_);fill:#86B142;" width="2.46" height="1.24"/>
				<rect x="76.61" y="41.618" style="clip-path:url(#SVGID_4_);fill:#86B242;" width="2.461" height="1.24"/>
				<rect x="79.071" y="41.618" style="clip-path:url(#SVGID_4_);fill:#87B343;" width="2.46" height="1.24"/>
				<rect x="81.531" y="41.618" style="clip-path:url(#SVGID_4_);fill:#88B543;" width="2.462" height="1.24"/>
				<rect x="83.993" y="41.618" style="clip-path:url(#SVGID_4_);fill:#89B643;" width="2.461" height="1.24"/>
				<rect x="86.454" y="41.618" style="clip-path:url(#SVGID_4_);fill:#8AB744;" width="2.461" height="1.24"/>
				<rect x="88.915" y="41.618" style="clip-path:url(#SVGID_4_);fill:#8AB844;" width="2.46" height="1.24"/>
				<rect x="91.375" y="41.618" style="clip-path:url(#SVGID_4_);fill:#8BB945;" width="2.461" height="1.24"/>
				<rect x="93.836" y="41.618" style="clip-path:url(#SVGID_4_);fill:#8CBA45;" width="2.462" height="1.24"/>
				<rect x="96.298" y="41.618" style="clip-path:url(#SVGID_4_);fill:#8DBB45;" width="2.459" height="1.24"/>
				<rect x="98.757" y="41.618" style="clip-path:url(#SVGID_4_);fill:#8DBC46;" width="2.464" height="1.24"/>
				<rect x="101.221" y="41.618" style="clip-path:url(#SVGID_4_);fill:#8EBD46;" width="2.459" height="1.24"/>
				<rect x="103.68" y="41.618" style="clip-path:url(#SVGID_4_);fill:#8FBE47;" width="2.463" height="1.24"/>
				<rect x="106.143" y="41.618" style="clip-path:url(#SVGID_4_);fill:#90BF47;" width="2.459" height="1.24"/>
				<rect x="108.602" y="41.618" style="clip-path:url(#SVGID_4_);fill:#91C047;" width="2.461" height="1.24"/>
				<rect x="111.062" y="41.618" style="clip-path:url(#SVGID_4_);fill:#91C148;" width="2.461" height="1.24"/>
				<rect x="113.523" y="41.618" style="clip-path:url(#SVGID_4_);fill:#92C248;" width="2.461" height="1.24"/>
				<rect x="115.984" y="41.618" style="clip-path:url(#SVGID_4_);fill:#93C348;" width="2.46" height="1.24"/>
				<rect x="118.444" y="41.618" style="clip-path:url(#SVGID_4_);fill:#94C449;" width="2.462" height="1.24"/>
				<rect x="120.906" y="41.618" style="clip-path:url(#SVGID_4_);fill:#94C549;" width="2.461" height="1.24"/>
				<rect x="123.367" y="41.618" style="clip-path:url(#SVGID_4_);fill:#95C64A;" width="2.461" height="1.24"/>
				<rect x="125.828" y="41.618" style="clip-path:url(#SVGID_4_);fill:#96C74A;" width="2.46" height="1.24"/>
				<path style="clip-path:url(#SVGID_4_);fill:#96C74A;" d="M128.288,42.858v-1.24V42.858z"/>
			</g>
		</g>
		<g>
			<g>
				<defs>
					<rect id="SVGID_5_" x="36" y="44" width="85" height="1"/>
				</defs>
				<clipPath id="SVGID_6_">
					<use xlink:href="#SVGID_5_"  style="overflow:visible;"/>
				</clipPath>
				<path style="clip-path:url(#SVGID_6_);fill:#7AA23C;" d="M37.236,44.347v1.241V44.347z"/>
				<rect x="37.236" y="44.347" style="clip-path:url(#SVGID_6_);fill:#7AA23C;" width="2.24" height="1.241"/>
				<rect x="39.476" y="44.347" style="clip-path:url(#SVGID_6_);fill:#7BA33C;" width="2.239" height="1.241"/>
				<rect x="41.715" y="44.347" style="clip-path:url(#SVGID_6_);fill:#7CA43D;" width="2.239" height="1.241"/>
				<rect x="43.955" y="44.347" style="clip-path:url(#SVGID_6_);fill:#7CA53D;" width="2.241" height="1.241"/>
				<rect x="46.195" y="44.347" style="clip-path:url(#SVGID_6_);fill:#7DA63E;" width="2.239" height="1.241"/>
				<rect x="48.435" y="44.347" style="clip-path:url(#SVGID_6_);fill:#7EA73E;" width="2.239" height="1.241"/>
				<rect x="50.674" y="44.347" style="clip-path:url(#SVGID_6_);fill:#7FA83E;" width="2.24" height="1.241"/>
				<rect x="52.914" y="44.347" style="clip-path:url(#SVGID_6_);fill:#7FA93F;" width="2.24" height="1.241"/>
				<rect x="55.153" y="44.347" style="clip-path:url(#SVGID_6_);fill:#80AA3F;" width="2.239" height="1.241"/>
				<rect x="57.393" y="44.347" style="clip-path:url(#SVGID_6_);fill:#81AB40;" width="2.239" height="1.241"/>
				<rect x="59.631" y="44.347" style="clip-path:url(#SVGID_6_);fill:#82AC40;" width="2.24" height="1.241"/>
				<rect x="61.872" y="44.347" style="clip-path:url(#SVGID_6_);fill:#83AD40;" width="2.24" height="1.241"/>
				<rect x="64.112" y="44.347" style="clip-path:url(#SVGID_6_);fill:#83AE41;" width="2.239" height="1.241"/>
				<rect x="66.351" y="44.347" style="clip-path:url(#SVGID_6_);fill:#84AF41;" width="2.24" height="1.241"/>
				<rect x="68.591" y="44.347" style="clip-path:url(#SVGID_6_);fill:#85B041;" width="2.239" height="1.241"/>
				<rect x="70.83" y="44.347" style="clip-path:url(#SVGID_6_);fill:#86B142;" width="2.239" height="1.241"/>
				<rect x="73.069" y="44.347" style="clip-path:url(#SVGID_6_);fill:#86B242;" width="2.239" height="1.241"/>
				<rect x="75.309" y="44.347" style="clip-path:url(#SVGID_6_);fill:#87B343;" width="2.24" height="1.241"/>
				<rect x="77.549" y="44.347" style="clip-path:url(#SVGID_6_);fill:#88B543;" width="2.24" height="1.241"/>
				<rect x="79.789" y="44.347" style="clip-path:url(#SVGID_6_);fill:#89B643;" width="2.238" height="1.241"/>
				<rect x="82.027" y="44.347" style="clip-path:url(#SVGID_6_);fill:#8AB744;" width="2.24" height="1.241"/>
				<rect x="84.268" y="44.347" style="clip-path:url(#SVGID_6_);fill:#8AB844;" width="2.24" height="1.241"/>
				<rect x="86.508" y="44.347" style="clip-path:url(#SVGID_6_);fill:#8BB945;" width="2.238" height="1.241"/>
				<rect x="88.746" y="44.347" style="clip-path:url(#SVGID_6_);fill:#8CBA45;" width="2.241" height="1.241"/>
				<rect x="90.987" y="44.347" style="clip-path:url(#SVGID_6_);fill:#8DBB45;" width="2.239" height="1.241"/>
				<rect x="93.227" y="44.347" style="clip-path:url(#SVGID_6_);fill:#8DBC46;" width="2.239" height="1.241"/>
				<rect x="95.466" y="44.347" style="clip-path:url(#SVGID_6_);fill:#8EBD46;" width="2.241" height="1.241"/>
				<rect x="97.707" y="44.347" style="clip-path:url(#SVGID_6_);fill:#8FBE47;" width="2.239" height="1.241"/>
				<rect x="99.946" y="44.347" style="clip-path:url(#SVGID_6_);fill:#90BF47;" width="2.239" height="1.241"/>
				<rect x="102.186" y="44.347" style="clip-path:url(#SVGID_6_);fill:#91C047;" width="2.24" height="1.241"/>
				<rect x="104.426" y="44.347" style="clip-path:url(#SVGID_6_);fill:#91C148;" width="2.237" height="1.241"/>
				<rect x="106.663" y="44.347" style="clip-path:url(#SVGID_6_);fill:#92C248;" width="2.241" height="1.241"/>
				<rect x="108.904" y="44.347" style="clip-path:url(#SVGID_6_);fill:#93C348;" width="2.238" height="1.241"/>
				<rect x="111.143" y="44.347" style="clip-path:url(#SVGID_6_);fill:#94C449;" width="2.24" height="1.241"/>
				<rect x="113.383" y="44.347" style="clip-path:url(#SVGID_6_);fill:#94C549;" width="2.239" height="1.241"/>
				<rect x="115.622" y="44.347" style="clip-path:url(#SVGID_6_);fill:#95C64A;" width="2.24" height="1.241"/>
				<rect x="117.862" y="44.347" style="clip-path:url(#SVGID_6_);fill:#96C74A;" width="2.239" height="1.241"/>
				<path style="clip-path:url(#SVGID_6_);fill:#96C74A;" d="M120.102,45.587v-1.241V45.587z"/>
			</g>
		</g>
	</g>
</g>
<g id="Layer_1">
</g>
</svg>
