<?xml version="1.0" encoding="iso-8859-1"?>
<!-- Generator: Adobe Illustrator 18.1.0, SVG Export Plug-In . SVG Version: 6.00 Build 0)  -->
<!DOCTYPE svg PUBLIC "-//W3C//DTD SVG 1.1//EN" "http://www.w3.org/Graphics/SVG/1.1/DTD/svg11.dtd">
<svg version="1.1" xmlns="http://www.w3.org/2000/svg" xmlns:xlink="http://www.w3.org/1999/xlink" x="0px" y="0px"
	 viewBox="0 0 140 105" style="enable-background:new 0 0 140 105;" xml:space="preserve">
<g id="facetoaster">
	<g>
		<g>
			<g>
				<path style="fill:#39414C;" d="M70,49.335c4.566,0,8.281,3.715,8.281,8.28c0,4.567-3.715,8.281-8.281,8.281
					c-4.566,0-8.281-3.714-8.281-8.281C61.719,53.05,65.434,49.335,70,49.335 M70,45.194c-6.859,0-12.422,5.562-12.422,12.421
					c0,6.859,5.562,12.422,12.422,12.422c6.858,0,12.421-5.562,12.421-12.422C82.421,50.757,76.858,45.194,70,45.194L70,45.194z"/>
			</g>
		</g>
		<g>
			<circle style="fill:#39414C;" cx="57.579" cy="36.913" r="4.14"/>
		</g>
		<g>
			<circle style="fill:#39414C;" cx="82.422" cy="36.913" r="4.141"/>
		</g>
		<g>
			<path style="fill:#39414C;" d="M49.301,30.694c-0.535,0-1.069-0.205-1.473-0.615c-0.798-0.81-0.798-2.106,0.005-2.911
				c0.194-0.193,4.852-4.747,13.886-4.747c1.144,0,2.071,0.928,2.071,2.071c0,1.143-0.927,2.07-2.071,2.07
				c-7.228,0-10.819,3.4-10.969,3.545C50.347,30.498,49.823,30.694,49.301,30.694z"/>
		</g>
		<g>
			<path style="fill:#39414C;" d="M90.703,30.702c-0.526,0-1.052-0.199-1.455-0.597c-0.173-0.167-3.765-3.543-10.967-3.543
				c-1.143,0-2.07-0.927-2.07-2.07c0-1.143,0.928-2.071,2.07-2.071c9.034,0,13.691,4.554,13.885,4.747c0.81,0.809,0.81,2.12,0,2.928
				C91.763,30.5,91.232,30.702,90.703,30.702z"/>
		</g>
		<g>
			<path style="fill:#39414C;" d="M98.984,80.389H41.017c-3.425,0-6.211-2.786-6.211-6.211V45.194c0-3.428,0.838-7.269,3.006-9.163
				c-1.355-2.247-3.006-6.1-3.006-11.54c0-6.292,6.141-10.633,18.251-12.904C61.431,10.018,69.654,10,70,10
				c0.346,0,8.57,0.018,16.944,1.588c12.109,2.271,18.25,6.612,18.25,12.904c0,5.44-1.651,9.292-3.006,11.54
				c2.168,1.895,3.006,5.735,3.006,9.163v28.983C105.194,77.603,102.408,80.389,98.984,80.389z M70,14.14
				c-8.056,0.004-31.054,1.911-31.054,10.352c0,7.228,3.4,10.819,3.545,10.968c0.579,0.598,0.75,1.488,0.426,2.254
				c-0.324,0.766-1.069,1.269-1.9,1.269c-1.253,0-2.064,3.68-2.07,6.214v28.98c0,1.141,0.929,2.069,2.07,2.069h57.968
				c1.141,0,2.068-0.929,2.068-2.069V45.194c-0.006-2.531-0.816-6.211-2.068-6.211c-0.839,0-1.593-0.504-1.913-1.278
				c-0.321-0.774-0.144-1.665,0.449-2.256c0.133-0.138,3.532-3.729,3.532-10.958C101.053,16.051,78.056,14.144,70,14.14z"/>
		</g>
		<g>
			<path style="fill:#39414C;" d="M39.915,88.4H44v1.233h-2.624v1.5h2.246v1.231h-2.246v2.516h-1.461V88.4z"/>
			<path style="fill:#39414C;" d="M47.775,93.339h-1.977L45.4,94.881h-1.49l2.027-6.48h1.759l2.027,6.48h-1.55L47.775,93.339z
				 M47.477,92.196l-0.148-0.596c-0.093-0.324-0.183-0.669-0.269-1.033c-0.086-0.364-0.172-0.716-0.258-1.053h-0.04
				c-0.08,0.344-0.161,0.697-0.243,1.058c-0.083,0.361-0.171,0.704-0.264,1.028l-0.159,0.596H47.477z"/>
			<path style="fill:#39414C;" d="M50.021,91.68c0-0.536,0.083-1.015,0.249-1.435c0.165-0.421,0.389-0.777,0.671-1.069
				c0.282-0.291,0.609-0.513,0.983-0.665c0.374-0.153,0.77-0.228,1.188-0.228c0.404,0,0.77,0.083,1.098,0.253
				c0.328,0.169,0.601,0.366,0.82,0.591l-0.805,0.905c-0.165-0.152-0.333-0.273-0.502-0.358c-0.169-0.085-0.366-0.13-0.591-0.13
				c-0.225,0-0.436,0.049-0.631,0.146c-0.196,0.095-0.366,0.232-0.512,0.412c-0.146,0.18-0.26,0.397-0.343,0.655
				c-0.083,0.259-0.125,0.551-0.125,0.875c0,0.668,0.143,1.188,0.427,1.556c0.285,0.367,0.667,0.551,1.143,0.551
				c0.265,0,0.497-0.052,0.696-0.16c0.199-0.105,0.377-0.244,0.537-0.417l0.805,0.885c-0.271,0.319-0.581,0.557-0.93,0.717
				C53.853,94.919,53.476,95,53.072,95c-0.417,0-0.812-0.072-1.183-0.215c-0.371-0.143-0.696-0.353-0.974-0.631
				c-0.278-0.277-0.497-0.623-0.656-1.037C50.101,92.702,50.021,92.224,50.021,91.68z"/>
			<path style="fill:#39414C;" d="M56.113,88.4h4.054v1.233h-2.593v1.302h2.207v1.222h-2.207v1.491h2.693v1.232h-4.154V88.4z"/>
			<path style="fill:#39414C;" d="M62.821,89.634h-1.779V88.4h5.028v1.233h-1.779v5.247h-1.47V89.634z"/>
			<path style="fill:#39414C;" d="M69.438,95c-0.438,0-0.837-0.079-1.197-0.233c-0.362-0.157-0.671-0.38-0.929-0.671
				c-0.258-0.292-0.458-0.646-0.601-1.064c-0.143-0.417-0.214-0.89-0.214-1.421c0-0.529,0.071-1.003,0.214-1.415
				c0.143-0.414,0.343-0.762,0.601-1.044c0.258-0.281,0.567-0.496,0.929-0.646c0.36-0.148,0.76-0.223,1.197-0.223
				c0.437,0,0.837,0.074,1.197,0.223c0.36,0.15,0.671,0.366,0.929,0.651c0.259,0.285,0.459,0.635,0.602,1.049
				c0.143,0.414,0.214,0.882,0.214,1.405c0,0.531-0.071,1.004-0.214,1.421c-0.143,0.418-0.343,0.772-0.602,1.064
				c-0.258,0.291-0.568,0.514-0.929,0.671C70.275,94.921,69.875,95,69.438,95z M69.438,93.737c0.443,0,0.795-0.19,1.054-0.571
				c0.258-0.381,0.388-0.9,0.388-1.556c0-0.647-0.13-1.155-0.388-1.521c-0.259-0.364-0.61-0.547-1.054-0.547
				c-0.444,0-0.795,0.183-1.054,0.547c-0.258,0.365-0.387,0.873-0.387,1.521c0,0.655,0.129,1.175,0.387,1.556
				C68.643,93.547,68.994,93.737,69.438,93.737z"/>
			<path style="fill:#39414C;" d="M76.544,93.339h-1.979l-0.396,1.542h-1.491l2.026-6.48h1.76l2.027,6.48h-1.55L76.544,93.339z
				 M76.246,92.196l-0.149-0.596c-0.093-0.324-0.183-0.669-0.27-1.033c-0.085-0.364-0.171-0.716-0.258-1.053h-0.04
				c-0.079,0.344-0.161,0.697-0.244,1.058c-0.082,0.361-0.17,0.704-0.262,1.028l-0.159,0.596H76.246z"/>
			<path style="fill:#39414C;" d="M79.614,93.062c0.232,0.198,0.487,0.361,0.77,0.488c0.281,0.124,0.559,0.188,0.83,0.188
				c0.306,0,0.531-0.056,0.681-0.169c0.148-0.112,0.225-0.264,0.225-0.457c0-0.1-0.022-0.186-0.064-0.259
				c-0.045-0.073-0.106-0.138-0.19-0.193c-0.082-0.056-0.181-0.109-0.297-0.159c-0.116-0.05-0.244-0.104-0.384-0.164l-0.844-0.357
				c-0.166-0.066-0.327-0.152-0.482-0.259c-0.156-0.105-0.295-0.23-0.417-0.372c-0.123-0.143-0.221-0.309-0.294-0.497
				c-0.072-0.188-0.109-0.401-0.109-0.642c0-0.264,0.058-0.515,0.171-0.75c0.111-0.235,0.271-0.439,0.476-0.616
				c0.205-0.175,0.448-0.312,0.731-0.412c0.281-0.1,0.591-0.148,0.929-0.148c0.378,0,0.75,0.073,1.119,0.218
				c0.367,0.146,0.69,0.358,0.969,0.637l-0.745,0.923c-0.214-0.165-0.426-0.292-0.637-0.383c-0.212-0.088-0.446-0.134-0.706-0.134
				c-0.251,0-0.452,0.052-0.601,0.155c-0.149,0.103-0.223,0.247-0.223,0.432c0,0.1,0.024,0.185,0.073,0.254
				c0.049,0.069,0.119,0.133,0.209,0.189c0.089,0.057,0.193,0.109,0.312,0.159c0.119,0.05,0.248,0.104,0.389,0.164l0.834,0.338
				c0.398,0.159,0.71,0.377,0.94,0.656c0.228,0.278,0.341,0.646,0.341,1.103c0,0.271-0.054,0.528-0.163,0.771
				c-0.109,0.24-0.269,0.453-0.477,0.635c-0.21,0.183-0.467,0.328-0.771,0.438C81.903,94.945,81.558,95,81.175,95
				c-0.426,0-0.847-0.079-1.268-0.233c-0.422-0.157-0.797-0.39-1.127-0.7L79.614,93.062z"/>
			<path style="fill:#39414C;" d="M85.786,89.634h-1.779V88.4h5.028v1.233h-1.779v5.247h-1.47V89.634z"/>
			<path style="fill:#39414C;" d="M90.049,88.4h4.054v1.233H91.51v1.302h2.205v1.222H91.51v1.491h2.692v1.232h-4.153V88.4z"/>
			<path style="fill:#39414C;" d="M99.002,94.881l-1.242-2.336h-0.805v2.336h-1.461V88.4h2.335c0.345,0,0.667,0.033,0.97,0.1
				c0.301,0.066,0.564,0.177,0.789,0.334c0.226,0.155,0.405,0.361,0.537,0.621c0.133,0.258,0.199,0.579,0.199,0.964
				c0,0.477-0.105,0.869-0.313,1.177c-0.209,0.309-0.489,0.538-0.841,0.691l1.472,2.594H99.002z M96.955,91.382h0.755
				c0.384,0,0.678-0.08,0.879-0.243c0.202-0.162,0.304-0.402,0.304-0.72c0-0.318-0.102-0.54-0.304-0.666
				c-0.201-0.127-0.495-0.19-0.879-0.19h-0.755V91.382z"/>
		</g>
	</g>
</g>
<g id="Layer_1">
</g>
</svg>
