<?xml version="1.0" encoding="iso-8859-1"?>
<!-- Generator: Adobe Illustrator 18.1.0, SVG Export Plug-In . SVG Version: 6.00 Build 0)  -->
<!DOCTYPE svg PUBLIC "-//W3C//DTD SVG 1.1//EN" "http://www.w3.org/Graphics/SVG/1.1/DTD/svg11.dtd">
<svg version="1.1" xmlns="http://www.w3.org/2000/svg" xmlns:xlink="http://www.w3.org/1999/xlink" x="0px" y="0px"
	 viewBox="0 0 140 105" style="enable-background:new 0 0 140 105;" xml:space="preserve">
<g id="blissic">
	<g>
		<path style="fill-rule:evenodd;clip-rule:evenodd;fill:none;" d="M71.919,54.182c-0.062-0.057-0.128-0.112-0.193-0.169
			c0.189-1.373,0.463-2.742,0.548-4.125c0.251-4.151-0.335-8.236-1.128-12.299c-0.498-2.547-1.014-5.093-1.435-7.653
			c-0.378-2.311-1.466-4.249-2.955-5.977c-0.732-0.851-1.841-1.083-2.313-0.666c-0.516,0.456-0.271,1.553,0.558,2.425
			c0.477,0.502,0.973,0.968,1.267,1.634c3.524,7.999,4.841,16.342,3.934,25.035c-0.087,0.831-0.479,1.569-0.786,2.332
			c-0.094,0.233-0.229,0.329-0.467,0.375c-1.171,0.229-1.996,1-2.798,1.805c-0.646,0.65-1.27,1.323-1.938,1.948
			c-0.648,0.607-1.405,1.006-2.336,0.989c-0.482-0.008-0.77-0.079-0.859-0.686c-0.292-1.969-0.664-3.926-1.027-5.885
			c-0.608-3.276-1.26-6.535-2.543-9.642c-0.854-2.066-2.119-3.888-3.215-5.81c-2.841-4.982-5.618-10.006-9.385-14.389
			c-2.034-2.366-4.335-4.407-7.042-5.963c-2.799-1.609-5.829-2.049-9.039-1.947c-1.754,0.055-3.245,0.547-4.599,1.525
			c-1.096,0.791-2.106,1.726-2.388,3.15c-0.186,0.937-0.304,1.881-0.294,2.847c0.024,2.375,0.666,4.625,1.343,6.863
			c0.287,0.95,0.282,1.861,0.092,2.817c-0.221,1.119-0.677,2.137-1.112,3.177c-0.635,1.514-1.323,2.997-1.699,4.627
			c-0.31,1.336,0.052,2.372,0.933,3.19c0.916,0.852,1.806,1.748,2.874,2.448c2.212,1.45,2.309,2.685,0.475,4.636
			c-0.954,1.015-1.897,2.042-2.851,3.057c-0.545,0.582-0.936,1.255-1.175,2.007c-0.351,1.104-0.306,2.083,0.654,2.958
			c1.077,0.982,2.233,1.805,3.579,2.352c0.546,0.223,0.897,0.574,1.146,1.125c0.655,1.45,0.915,2.976,0.989,4.542
			c0.132,2.783-0.2,5.576,0.245,8.354c0.268,1.669,0.838,3.187,1.967,4.459c1.373,1.55,2.424,1.746,4.255,0.803
			c0.619-0.321,1.226-0.681,1.717-1.176c2.359-2.375,5.212-4.044,8.098-5.66c1.017-0.571,2.094-1.037,3.241-1.319
			c0.342-0.085,0.774-0.312,0.983-0.07c0.319,0.366-0.179,0.677-0.348,0.975c-0.732,1.279-1.677,2.438-2.286,3.788
			c-0.425,0.942-0.902,1.939-0.601,2.985c0.296,1.022,0.098,1.957-0.146,2.92c-0.104,0.42-0.217,0.84-0.297,1.263
			c-0.394,2.09,0.935,3.655,3.063,3.695c1.192,0.021,2.325-0.225,3.475-0.471c0.454-0.097,0.789-0.271,1.113-0.586
			c1.426-1.393,3.121-2.325,5.029-2.889c4.699-1.389,9.376-0.847,14.029,0.206c2.579,0.58,5.069,0.548,7.504-0.554
			c2.664-1.206,4.785-3.143,6.893-5.093c2.176-2.014,4.119-4.266,6.416-6.161c0.638-0.528,1.32-0.789,2.095-0.946
			c5.605-1.146,10.563-3.582,14.777-7.481c0.735-0.679,1.448-1.382,2.188-2.061c1.798-1.648,3.704-3.185,5.342-5.003
			c0.989-1.101,1.934-2.233,2.718-3.498c0.813-1.305,1.314-2.73,1.688-4.203c0.314-1.238-0.023-1.841-1.226-2.347
			c-1.172-0.492-2.417-0.421-3.609-0.237c-4.078,0.63-7.949,2.02-11.831,3.361c-0.448,0.155-0.854,0.409-1.337,0.493
			c-1.671,0.288-3.274,0.821-4.873,1.357c-4.276,1.428-8.356,3.358-12.56,4.979c-3.114,1.198-6.252,2.305-9.558,2.89
			c-0.719,0.127-0.745-0.067-0.792-0.644c-0.057-0.729-0.056-1.583-0.529-2.114c-0.893-0.998-0.333-1.628,0.321-2.325
			c0.18-0.188,0.35-0.39,0.527-0.579c5.192-5.58,11.049-10.347,17.466-14.458c1.465-0.937,2.979-1.342,4.637-1.377
			c1.701-0.035,3.372-0.295,5.042-0.556c0.857-0.134,1.162-0.488,1.105-1.167c-0.07-0.847-0.451-1.177-1.353-1.201
			c-1.36-0.035-2.665,0.318-3.989,0.54c-2.235,0.373-4.365,0.983-6.337,2.18c-2.606,1.581-5.154,3.238-7.547,5.126
			c-2.632,2.081-5.091,4.354-7.402,6.788C74.669,51.275,73.295,52.727,71.919,54.182z"/>
		<path style="fill-rule:evenodd;clip-rule:evenodd;fill:#1CA0E1;" d="M71.919,54.182c1.376-1.454,2.75-2.906,4.127-4.358
			c2.312-2.434,4.771-4.707,7.402-6.788c2.393-1.889,4.94-3.545,7.547-5.126c1.972-1.197,4.102-1.807,6.337-2.18
			c1.324-0.221,2.629-0.575,3.989-0.54c0.901,0.023,1.282,0.354,1.353,1.201c0.057,0.679-0.248,1.033-1.105,1.167
			c-1.67,0.261-3.341,0.521-5.042,0.556c-1.657,0.035-3.172,0.44-4.637,1.377c-6.417,4.112-12.273,8.879-17.466,14.458
			c-0.178,0.189-0.348,0.391-0.527,0.579c-0.654,0.697-1.214,1.327-0.321,2.325c0.474,0.531,0.473,1.385,0.529,2.114
			c0.047,0.577,0.073,0.771,0.792,0.644c3.306-0.585,6.443-1.692,9.558-2.89c4.203-1.621,8.283-3.551,12.56-4.979
			c1.599-0.536,3.202-1.069,4.873-1.357c0.482-0.084,0.889-0.338,1.337-0.493c3.882-1.342,7.753-2.731,11.831-3.361
			c1.192-0.184,2.438-0.255,3.609,0.237c1.202,0.505,1.54,1.109,1.226,2.347c-0.374,1.473-0.875,2.897-1.688,4.203
			c-0.784,1.264-1.729,2.397-2.718,3.498c-1.638,1.818-3.544,3.354-5.342,5.003c-0.739,0.679-1.452,1.382-2.188,2.061
			c-4.214,3.899-9.172,6.335-14.777,7.481c-0.774,0.157-1.457,0.418-2.095,0.946c-2.297,1.896-4.24,4.147-6.416,6.161
			c-2.107,1.95-4.229,3.887-6.893,5.093c-2.436,1.102-4.926,1.134-7.504,0.554c-4.653-1.053-9.331-1.595-14.029-0.206
			c-1.908,0.563-3.603,1.496-5.029,2.889c-0.324,0.314-0.659,0.489-1.113,0.586c-1.149,0.246-2.283,0.492-3.475,0.471
			c-2.128-0.04-3.458-1.605-3.063-3.695c0.08-0.423,0.193-0.843,0.297-1.263c0.244-0.963,0.442-1.897,0.146-2.92
			c-0.302-1.047,0.175-2.043,0.601-2.985c0.609-1.351,1.553-2.509,2.286-3.788c0.17-0.298,0.667-0.608,0.348-0.975
			c-0.208-0.241-0.641-0.015-0.983,0.07c-1.148,0.282-2.224,0.748-3.241,1.319c-2.885,1.616-5.738,3.285-8.098,5.66
			c-0.491,0.495-1.099,0.854-1.717,1.176c-1.83,0.943-2.882,0.747-4.255-0.803c-1.128-1.272-1.699-2.79-1.967-4.459
			c-0.444-2.778-0.112-5.571-0.245-8.354c-0.074-1.566-0.334-3.092-0.989-4.542c-0.248-0.551-0.599-0.902-1.146-1.125
			c-1.346-0.547-2.502-1.37-3.579-2.352c-0.96-0.875-1.004-1.854-0.654-2.958c0.239-0.752,0.629-1.425,1.175-2.007
			c0.954-1.014,1.896-2.042,2.851-3.057c1.834-1.951,1.736-3.186-0.475-4.636c-1.068-0.7-1.958-1.596-2.874-2.448
			c-0.88-0.818-1.242-1.854-0.933-3.19c0.376-1.63,1.064-3.113,1.699-4.627c0.436-1.04,0.891-2.058,1.112-3.177
			c0.19-0.957,0.195-1.867-0.092-2.817c-0.677-2.239-1.318-4.488-1.343-6.863c-0.009-0.966,0.108-1.91,0.294-2.847
			c0.282-1.425,1.292-2.359,2.388-3.15c1.354-0.978,2.844-1.47,4.599-1.525c3.21-0.102,6.24,0.338,9.039,1.947
			c2.707,1.556,5.008,3.597,7.042,5.963c3.767,4.382,6.544,9.407,9.385,14.389c1.096,1.922,2.361,3.744,3.215,5.81
			c1.283,3.107,1.935,6.367,2.543,9.642c0.363,1.96,0.735,3.917,1.027,5.885c0.089,0.606,0.376,0.678,0.859,0.686
			c0.931,0.017,1.688-0.382,2.336-0.989c0.668-0.625,1.292-1.298,1.938-1.948c0.802-0.805,1.627-1.576,2.798-1.805
			c0.238-0.046,0.373-0.142,0.467-0.375c0.307-0.763,0.699-1.501,0.786-2.332c0.908-8.693-0.409-17.037-3.934-25.035
			c-0.294-0.666-0.79-1.131-1.267-1.634c-0.829-0.872-1.074-1.969-0.558-2.425c0.472-0.417,1.58-0.185,2.313,0.666
			c1.489,1.728,2.577,3.667,2.955,5.977c0.421,2.56,0.937,5.105,1.435,7.653c0.793,4.063,1.379,8.148,1.128,12.299
			c-0.085,1.383-0.359,2.752-0.548,4.125c-0.185,0.131-0.246,0.286-0.099,0.485C71.725,54.394,71.82,54.287,71.919,54.182z"/>
		<path style="fill-rule:evenodd;clip-rule:evenodd;fill:none;" d="M71.919,54.182c-0.099,0.106-0.194,0.212-0.292,0.316
			c-0.147-0.199-0.086-0.354,0.099-0.485C71.791,54.069,71.856,54.125,71.919,54.182z"/>
	</g>
</g>
<g id="Layer_1">
</g>
</svg>
