<?xml version="1.0" encoding="iso-8859-1"?>
<!-- Generator: Adobe Illustrator 18.1.0, SVG Export Plug-In . SVG Version: 6.00 Build 0)  -->
<!DOCTYPE svg PUBLIC "-//W3C//DTD SVG 1.1//EN" "http://www.w3.org/Graphics/SVG/1.1/DTD/svg11.dtd">
<svg version="1.1" xmlns="http://www.w3.org/2000/svg" xmlns:xlink="http://www.w3.org/1999/xlink" x="0px" y="0px"
	 viewBox="0 0 140 105" style="enable-background:new 0 0 140 105;" xml:space="preserve">
<g id="jhilmediadesign">
	<g>
		<path style="fill:#26A9E0;" d="M40.479,68.147c-0.843,4.896-3.301,8.266-7.981,9.832H122.5v-9.832H40.479z"/>
		<g>
			<path style="fill:#FFFFFF;" d="M54.122,71.336c-0.089,0.499-0.245,1.23-0.322,1.484l-1.165,4.313h-2.317l-1.243-4.423
				c-0.055-0.188-0.2-0.82-0.233-1.375h-0.044v4.368h0.632v1.43h-3.005v-1.43h0.599v-4.889h-0.588v-1.43h4.204l1.12,4.146
				l1.065-4.146h4.226v1.43h-0.61v4.877h0.61v1.441h-3.504v-1.441h0.621v-3.701v-0.655H54.122z"/>
			<path style="fill:#FFFFFF;" d="M63.173,76.368c-0.82,0.71-1.708,0.965-2.861,0.965c-1.376,0-2.929-0.875-2.929-3.003
				c0-1.82,1.309-2.894,2.984-2.894c1.32,0,2.329,0.676,2.651,1.606c0.133,0.388,0.255,1.242,0.022,1.875h-3.494
				c0.067,0.298,0.211,0.908,1.143,0.908c0.377,0,0.953-0.034,1.553-0.531L63.173,76.368z M61.254,73.818
				c-0.011-0.421-0.11-0.886-0.82-0.886c-0.677,0-0.832,0.609-0.855,0.886H61.254z"/>
			<path style="fill:#FFFFFF;" d="M66.912,70.261v-1.441h2.762v6.873h0.532v1.441h-2.595l-0.189-0.41
				c-0.145,0.133-0.632,0.51-1.397,0.51c-1.564,0-2.573-1.385-2.573-2.926c0-1.729,1.208-2.827,2.573-2.827
				c0.787,0,1.187,0.288,1.397,0.422v-1.642H66.912z M66.635,75.671c0.432,0,0.832-0.543,0.787-1.42c0-0.754-0.378-1.33-0.798-1.33
				c-0.466,0-0.788,0.544-0.788,1.387C65.835,74.973,66.146,75.671,66.635,75.671z"/>
			<path style="fill:#FFFFFF;" d="M70.65,77.134v-1.451h0.467v-2.65H70.65v-1.441h2.574v4.092h0.531v1.451H70.65z M72.159,68.842
				c0.765,0,1.22,0.621,1.22,1.13c0,0.61-0.434,1.12-1.22,1.12c-0.698,0-1.198-0.587-1.198-1.12
				C70.961,69.463,71.383,68.842,72.159,68.842z"/>
			<path style="fill:#FFFFFF;" d="M74.434,72.057c0.442-0.267,1.398-0.787,2.418-0.787c1.33,0,3.006,0.499,3.006,2.283v2.162h0.665
				v1.419h-2.373l-0.267-0.5c-0.411,0.567-1.099,0.711-1.496,0.711c-1.056,0-2.187-0.565-2.187-1.853
				c0-1.251,1.054-2.038,2.308-2.038c0.653,0,1.041,0.321,1.098,0.388v-0.388c0-0.499-0.455-0.62-1.053-0.62
				c-0.655,0-1.231,0.275-1.654,0.509L74.434,72.057z M77.605,75.115c-0.033-0.054-0.188-0.32-0.654-0.32
				c-0.443,0-0.645,0.243-0.645,0.588c0,0.31,0.256,0.521,0.589,0.521s0.609-0.199,0.71-0.365V75.115z"/>
			<path style="fill:#FFFFFF;" d="M83.74,75.66h0.688v-4.812H83.74v-1.463h3.383c2.686,0,4.215,1.651,4.215,3.769
				c0,2.528-1.529,3.979-4.26,3.979H83.74V75.66z M87.123,75.66c1.177-0.022,1.664-1.121,1.664-2.506
				c0-1.187-0.487-2.306-1.664-2.306h-0.421v4.812H87.123z"/>
			<path style="fill:#FFFFFF;" d="M97.295,76.368c-0.821,0.71-1.708,0.965-2.86,0.965c-1.376,0-2.93-0.875-2.93-3.003
				c0-1.82,1.309-2.894,2.984-2.894c1.319,0,2.328,0.676,2.65,1.606c0.132,0.388,0.255,1.242,0.022,1.875h-3.493
				c0.066,0.298,0.21,0.908,1.142,0.908c0.377,0,0.955-0.034,1.553-0.531L97.295,76.368z M95.377,73.818
				c-0.012-0.421-0.112-0.886-0.821-0.886c-0.677,0-0.833,0.609-0.854,0.886H95.377z"/>
			<path style="fill:#FFFFFF;" d="M97.629,75.139h1.485c0,0.587,0.843,0.741,1.176,0.741c0.221,0,0.488-0.065,0.488-0.377
				c0-0.331-0.831-0.388-1.629-0.664c-0.756-0.266-1.477-0.731-1.477-1.773c0-1.131,1.165-1.606,1.952-1.606
				c0.755,0,1.419,0.387,1.653,0.862l0.089-0.73h1.363v1.995h-1.441c0-0.465-0.578-0.841-1.133-0.841
				c-0.231,0-0.431,0.12-0.431,0.397c0,0.312,0.654,0.443,1.364,0.688c0.843,0.287,1.785,0.61,1.785,1.772
				c0,1.042-0.987,1.662-2.064,1.662c-0.798,0-1.432-0.387-1.697-0.808l-0.1,0.676h-1.386V75.139z"/>
			<path style="fill:#FFFFFF;" d="M103.376,77.134v-1.451h0.464v-2.65h-0.464v-1.441h2.571v4.092h0.533v1.451H103.376z
				 M104.883,68.842c0.766,0,1.221,0.621,1.221,1.13c0,0.61-0.434,1.12-1.221,1.12c-0.698,0-1.198-0.587-1.198-1.12
				C103.685,69.463,104.106,68.842,104.883,68.842z"/>
			<path style="fill:#FFFFFF;" d="M107.611,77.201c0.256,0.221,1.088,0.709,1.931,0.709c0.997,0,1.287-0.577,1.287-1.042V76.49
				c-0.156,0.2-0.588,0.609-1.3,0.609c-1.907,0-2.661-1.374-2.661-2.77c0-1.719,0.954-2.85,2.784-2.85
				c0.489,0,0.954,0.232,1.177,0.454l0.221-0.344h2.641v1.452h-0.666v3.314c0,1.84-1.132,3.038-3.46,3.049
				c-1.222-0.011-2.118-0.587-2.541-0.975L107.611,77.201z M110.03,75.671c0.432,0,0.831-0.543,0.787-1.42
				c0-0.754-0.377-1.33-0.798-1.33c-0.468,0-0.788,0.544-0.788,1.387C109.231,74.973,109.542,75.671,110.03,75.671z"/>
			<path style="fill:#FFFFFF;" d="M114.136,77.134v-1.451h0.465v-2.65h-0.465v-1.441h2.362l0.254,0.688
				c0.377-0.521,0.888-0.887,1.587-0.887c1.719,0,2.007,1.274,2.007,2.439v1.852h0.522v1.451h-2.796v-3.026
				c0-0.377,0.032-1.03-0.621-1.03c-0.565,0-0.699,0.554-0.699,1.03v1.575h0.798v1.451H114.136z"/>
		</g>
		<g>
			<g>
				<polygon style="fill:#37B34A;" points="64.114,28.385 64.114,35.608 60.72,35.608 60.72,43.872 71.124,43.872 71.124,35.608 
					67.893,35.608 67.893,28.385 85.689,28.385 85.689,35.608 82.515,35.608 82.515,59.415 85.689,59.415 85.689,66.639 
					67.893,66.639 67.893,59.415 71.124,59.415 71.124,51.151 60.72,51.151 60.72,59.415 64.114,59.415 64.114,66.639 
					46.373,66.639 46.373,59.415 49.384,59.415 49.384,35.608 46.373,35.608 46.373,28.385 				"/>
			</g>
			<g>
				<polygon style="fill:#37B34A;" points="88.426,66.639 88.426,59.469 90.727,59.469 90.727,46.389 88.426,46.389 88.426,39.275 
					101.13,39.275 101.13,59.469 103.76,59.469 103.76,66.639 				"/>
				<path style="fill:#37B34A;" d="M95.874,25.702c3.777,0,6.022,3.065,6.022,5.583c0,3.01-2.135,5.528-6.022,5.528
					c-3.45,0-5.914-2.9-5.914-5.528C89.96,28.767,92.04,25.702,95.874,25.702z"/>
			</g>
			<g>
				<polygon style="fill:#37B34A;" points="106.495,66.639 106.495,59.469 108.85,59.469 108.85,32.653 106.55,32.653 
					106.55,25.594 119.254,25.594 119.254,59.469 122.485,59.469 122.485,66.639 				"/>
			</g>
		</g>
		<path style="fill:#37B34A;" d="M23.38,28.447v7.155h4.709v25.214c-0.336,6.192-2.925,7.312-5.961,7.312
			c-1.458,0-2.572-0.172-3.687-0.428L17.5,77.123c1.286,0.512,3.343,0.856,5.657,0.856c1.749,0,3.489-0.114,5.146-0.45
			c8.041-1.305,11.122-6.56,11.122-14.893v-2.525c0.01-0.403,0.016-0.812,0.016-1.234V35.602h4.529v-7.155H23.38z"/>
	</g>
</g>
<g id="Layer_1">
</g>
</svg>
