<?xml version="1.0" encoding="iso-8859-1"?>
<!-- Generator: Adobe Illustrator 18.1.0, SVG Export Plug-In . SVG Version: 6.00 Build 0)  -->
<!DOCTYPE svg PUBLIC "-//W3C//DTD SVG 1.1//EN" "http://www.w3.org/Graphics/SVG/1.1/DTD/svg11.dtd">
<svg version="1.1" xmlns="http://www.w3.org/2000/svg" xmlns:xlink="http://www.w3.org/1999/xlink" x="0px" y="0px"
	 viewBox="0 0 140 105" style="enable-background:new 0 0 140 105;" xml:space="preserve">
<g id="arcadeglass">
	<g>
		<g>
			<path style="fill:#3EA8F4;" d="M79.09,71.817H51.817c-0.627,0-1.136-0.509-1.136-1.136V34.318c0-0.489,0.312-0.923,0.777-1.077
				c0.463-0.156,0.974,0.003,1.269,0.396l27.271,36.361c0.261,0.346,0.301,0.807,0.109,1.19
				C79.914,71.575,79.521,71.817,79.09,71.817z M52.953,69.544h23.865L52.953,37.727V69.544z"/>
		</g>
		<g>
			<path style="fill:#3EA8F4;" d="M88.182,71.817H79.09c-0.357,0-0.693-0.168-0.908-0.455L64.546,53.182
				c-0.148-0.196-0.228-0.436-0.228-0.682V34.318c0-0.627,0.508-1.136,1.136-1.136h22.728c0.627,0,1.136,0.509,1.136,1.136
				c0,0.628-0.509,1.136-1.136,1.136H66.591v16.668l13.068,17.422h7.385V52.5c0-0.627,0.511-1.136,1.138-1.136
				c0.627,0,1.136,0.509,1.136,1.136v18.182C89.317,71.309,88.809,71.817,88.182,71.817z"/>
		</g>
		<g>
			<path style="fill:none;stroke:#3EA8F4;stroke-width:5;stroke-linecap:round;stroke-linejoin:round;stroke-miterlimit:10;" d="
				M65.454,52.5"/>
		</g>
		<g>
			<path style="fill:#3EA8F4;" d="M106.364,90H33.636c-0.627,0-1.136-0.509-1.136-1.136V16.136c0-0.627,0.509-1.136,1.136-1.136
				h72.729c0.627,0,1.136,0.509,1.136,1.136v72.728C107.5,89.491,106.991,90,106.364,90z M34.773,87.727h70.453V17.273H34.773
				V87.727z"/>
		</g>
	</g>
</g>
<g id="Layer_1">
</g>
</svg>
