<?xml version="1.0" encoding="iso-8859-1"?>
<!-- Generator: Adobe Illustrator 18.1.0, SVG Export Plug-In . SVG Version: 6.00 Build 0)  -->
<!DOCTYPE svg PUBLIC "-//W3C//DTD SVG 1.1//EN" "http://www.w3.org/Graphics/SVG/1.1/DTD/svg11.dtd">
<svg version="1.1" xmlns="http://www.w3.org/2000/svg" xmlns:xlink="http://www.w3.org/1999/xlink" x="0px" y="0px"
	 viewBox="0 0 140 105" style="enable-background:new 0 0 140 105;" xml:space="preserve">
<g id="daocloud">
	<path style="fill:#009ABF;" d="M34.055,70.504h1.694c0.462,0,0.861,0.174,1.192,0.521c0.332,0.35,0.498,0.74,0.498,1.168v9.703
		c0,2.357-0.679,3.949-2.042,4.777c-1.358,0.828-2.835,1.244-4.427,1.244c-0.862,0-1.707-0.141-2.535-0.424
		c-0.832-0.281-1.495-0.734-1.991-1.369C25.479,84.9,25,83.227,25,81.105c0-2.096,0.479-3.768,1.443-5.027
		c0.993-1.295,2.271-1.939,3.829-1.939c0.832,0,1.561,0.164,2.19,0.496c0.663,0.398,1.193,0.914,1.592,1.539V70.504L34.055,70.504z
		 M51.068,86.473c-0.696-0.596-1.192-1.398-1.494-2.416c-0.297-1.008-0.446-2.061-0.446-3.156c0-0.896,0.124-1.791,0.375-2.688
		c0.246-0.896,0.637-1.639,1.167-2.236c0.861-0.996,1.973-1.584,3.332-1.766c1.363-0.182,2.59-0.076,3.685,0.322
		c1.256,0.496,2.186,1.363,2.784,2.588c0.565,1.092,0.845,2.371,0.845,3.828c0,1.064-0.114,1.977-0.348,2.736
		c-0.232,0.764-0.53,1.412-0.896,1.943c-0.794,1.092-1.808,1.771-3.035,2.039c-1.095,0.297-2.195,0.322-3.307,0.076
		C52.618,87.494,51.731,87.068,51.068,86.473L51.068,86.473z M53.454,77.717c-0.695,0.764-1.009,1.902-0.94,3.408
		c0.062,1.506,0.347,2.561,0.843,3.158c0.2,0.268,0.548,0.488,1.045,0.67c0.497,0.184,1.002,0.201,1.516,0.051
		c0.513-0.148,0.972-0.521,1.371-1.119c0.395-0.594,0.611-1.557,0.645-2.883c0-1.197-0.191-2.092-0.573-2.688
		c-0.383-0.598-0.82-0.98-1.317-1.145c-0.496-0.166-0.998-0.174-1.494-0.027C54.052,77.295,53.688,77.488,53.454,77.717
		L53.454,77.717z M45.694,81.002c-0.462,0.234-1.112,0.445-1.939,0.645c-0.764,0.166-1.143,0.25-1.143,0.25
		c-0.597,0.166-1.031,0.383-1.294,0.646c-0.233,0.365-0.348,0.73-0.348,1.096c0,0.496,0.148,0.895,0.446,1.193
		c0.301,0.266,0.73,0.398,1.294,0.398c0.93,0,1.66-0.27,2.19-0.797c0.532-0.533,0.794-1.258,0.794-2.188V81.002L45.694,81.002z
		 M46.488,87.119c-0.697,0.365-1.435,0.588-2.211,0.676c-0.782,0.078-1.47,0.123-2.068,0.123c-1.193,0-2.237-0.322-3.132-0.973
		c-0.897-0.645-1.343-1.715-1.343-3.209c0-1.392,0.408-2.385,1.22-2.986c0.81-0.592,1.851-0.992,3.107-1.191
		c0.166,0,0.365-0.025,0.599-0.078c0.232-0.045,0.496-0.088,0.794-0.121c1.46-0.199,2.189-0.627,2.189-1.295
		c0-0.496-0.259-0.818-0.772-0.967c-0.514-0.148-0.986-0.227-1.417-0.227c-0.463,0-0.88,0.068-1.245,0.199
		c-0.364,0.133-0.628,0.379-0.793,0.744h-3.333c0.131-1.027,0.595-1.873,1.392-2.539c0.896-0.758,2.174-1.141,3.83-1.141
		c1.859,0,3.252,0.312,4.176,0.947c0.965,0.66,1.444,1.592,1.444,2.781v4.531c0,1.324-0.242,2.365-0.722,3.107
		C47.725,86.248,47.15,86.787,46.488,87.119L46.488,87.119z M28.383,80.949c0,1.33,0.251,2.342,0.747,3.035
		c0.497,0.699,1.21,1.047,2.139,1.047c0.897,0,1.592-0.348,2.089-1.047c0.463-0.693,0.696-1.705,0.696-3.035
		c0-1.191-0.25-2.139-0.748-2.832c-0.53-0.664-1.244-0.996-2.139-0.996c-0.862,0-1.541,0.35-2.038,1.045
		C28.634,78.828,28.383,79.758,28.383,80.949z"/>
	<path style="fill:#003056;" d="M71.066,83.586h2.488c-0.365,1.395-1.062,2.455-2.089,3.186c-1.026,0.764-2.322,1.146-3.879,1.146
		c-1.894,0-3.367-0.617-4.428-1.844c-1.062-1.193-1.592-2.898-1.592-5.125c0-2.121,0.514-3.779,1.541-4.973
		c1.062-1.227,2.539-1.842,4.428-1.842c1.991,0,3.531,0.596,4.627,1.789c0.595,0.73,1.027,1.576,1.29,2.541h-3.48
		c-0.166-0.332-0.331-0.582-0.497-0.748c-0.433-0.463-1.044-0.695-1.842-0.695c-0.726,0-1.324,0.232-1.788,0.695
		c-0.598,0.662-0.896,1.756-0.896,3.285c0,1.525,0.298,2.604,0.896,3.232c0.429,0.529,1.074,0.797,1.941,0.797
		c0.56,0,1.044-0.115,1.438-0.348c0.102-0.033,0.191-0.094,0.276-0.176c0.081-0.084,0.175-0.172,0.272-0.273
		c0.068-0.1,0.2-0.23,0.399-0.398C70.371,83.672,70.668,83.586,71.066,83.586L71.066,83.586z M111.615,70.504h1.695
		c0.463,0,0.861,0.174,1.193,0.521c0.33,0.35,0.496,0.74,0.496,1.168v9.703c0,2.357-0.68,3.949-2.042,4.777
		c-1.359,0.828-2.836,1.244-4.429,1.244c-0.86,0-1.705-0.141-2.533-0.424c-0.832-0.281-1.494-0.734-1.992-1.369
		c-0.962-1.225-1.443-2.898-1.443-5.02c0-2.096,0.482-3.768,1.443-5.027c0.995-1.295,2.271-1.939,3.829-1.939
		c0.833,0,1.563,0.164,2.191,0.496c0.663,0.398,1.192,0.914,1.591,1.539V70.504L111.615,70.504z M105.946,80.949
		c0,1.33,0.249,2.342,0.745,3.035c0.498,0.699,1.21,1.047,2.14,1.047c0.896,0,1.593-0.348,2.089-1.047
		c0.463-0.693,0.695-1.705,0.695-3.035c0-1.191-0.249-2.139-0.746-2.832c-0.53-0.664-1.243-0.996-2.14-0.996
		c-0.862,0-1.54,0.35-2.038,1.045C106.195,78.828,105.946,79.758,105.946,80.949L105.946,80.949z M102.31,74.436v7.76
		c0,2.355-0.615,3.895-1.842,4.627c-1.227,0.73-2.568,1.096-4.028,1.096c-1.427-0.068-2.729-0.465-3.906-1.195
		c-1.175-0.729-1.766-2.24-1.766-4.527v-7.76h3.481v8.455c0,0.795,0.233,1.377,0.695,1.74c0.463,0.367,0.994,0.549,1.593,0.549
		c0.599,0,1.138-0.182,1.617-0.549c0.479-0.363,0.722-0.945,0.722-1.74v-6.766l0,0c0-0.463,0.157-0.861,0.472-1.193
		c0.317-0.33,0.722-0.496,1.222-0.496H102.31L102.31,74.436z M79.973,86.473c-0.696-0.596-1.192-1.398-1.494-2.416
		c-0.297-1.008-0.445-2.061-0.445-3.156c0-0.896,0.123-1.791,0.374-2.688c0.245-0.896,0.636-1.639,1.167-2.236
		c0.861-0.996,1.975-1.584,3.333-1.766c1.362-0.182,2.59-0.076,3.685,0.322c1.256,0.496,2.187,1.363,2.784,2.588
		c0.564,1.092,0.845,2.371,0.845,3.828c0,1.064-0.114,1.977-0.348,2.736c-0.233,0.764-0.53,1.412-0.896,1.943
		c-0.793,1.092-1.808,1.771-3.034,2.039c-1.097,0.297-2.195,0.322-3.308,0.076C81.522,87.494,80.636,87.068,79.973,86.473
		L79.973,86.473z M82.358,77.717c-0.696,0.764-1.01,1.902-0.942,3.408c0.065,1.506,0.35,2.561,0.846,3.158
		c0.199,0.268,0.548,0.488,1.044,0.67c0.496,0.184,1.002,0.201,1.516,0.051c0.514-0.148,0.972-0.521,1.371-1.119
		c0.396-0.594,0.612-1.557,0.646-2.883c0-1.197-0.192-2.092-0.573-2.688c-0.383-0.598-0.819-0.98-1.315-1.145
		c-0.498-0.166-0.998-0.174-1.494-0.027C82.957,77.295,82.593,77.488,82.358,77.717L82.358,77.717z M74.251,70.557h1.791
		c0.463,0,0.862,0.154,1.193,0.469c0.331,0.318,0.497,0.705,0.497,1.172v15.471h-3.481V70.557z"/>
	<path style="fill:#DFE45A;" d="M69.541,33.937c0.222,0.38,0.423,0.761,0.628,1.142c0.204-0.381,0.406-0.762,0.628-1.142
		c1.554-2.657,4.053-5.172,6.781-7.391C74.734,18.909,69.983,12,69.983,12s-4.655,6.769-7.508,14.314
		C65.314,28.588,67.933,31.188,69.541,33.937z"/>
	<path style="fill:#C4D600;" d="M60.378,38.395c-0.043-0.706-0.071-1.421-0.071-2.149c0-3.118,0.91-6.6,2.169-9.931
		c-6.234-4.994-13.53-8.419-13.53-8.419s-0.636,8.667,0.865,16.825c3.234,0.503,6.389,1.344,8.907,2.713
		C59.287,37.742,59.84,38.063,60.378,38.395z"/>
	<path style="fill:#DFE45A;" d="M60.378,38.395c2.638,1.625,4.884,3.494,6.618,5.428c0.506-2.756,1.573-5.76,3.173-8.743
		c-0.204-0.381-0.406-0.762-0.628-1.142c-1.608-2.75-4.227-5.349-7.065-7.623c-1.26,3.331-2.169,6.813-2.169,9.931
		C60.307,36.973,60.335,37.688,60.378,38.395z"/>
	<path style="fill:#4EC1E0;" d="M53.664,45.048c-0.283-0.438-0.563-0.88-0.832-1.339c-1.473-2.518-2.419-5.713-3.021-8.99
		c-8.252-1.283-17.017-0.362-17.017-0.362s3.553,6.983,8.624,13C44.897,46.002,48.569,45,51.84,45
		C52.456,45,53.064,45.017,53.664,45.048z"/>
	<path style="fill:#C4D600;" d="M53.664,45.048c3.053,0.157,5.883,0.708,8.314,1.551c-0.854-2.392-1.416-5.188-1.6-8.204
		c-0.537-0.331-1.09-0.653-1.659-0.962c-2.518-1.368-5.673-2.21-8.907-2.713c0.603,3.277,1.549,6.472,3.021,8.99
		C53.101,44.169,53.381,44.611,53.664,45.048z"/>
	<path style="fill:#DFE45A;" d="M66.996,43.822c-1.734-1.933-3.98-3.803-6.618-5.428c0.184,3.017,0.746,5.813,1.6,8.204
		c1.851,0.641,3.457,1.456,4.76,2.396C66.568,47.443,66.652,45.693,66.996,43.822z"/>
	<path style="fill:#C4D600;" d="M66.996,43.822c-1.734-1.933-3.98-3.803-6.618-5.428c0.184,3.017,0.746,5.813,1.6,8.204
		c1.851,0.641,3.457,1.456,4.76,2.396C66.568,47.443,66.652,45.693,66.996,43.822z"/>
	<path style="fill:#DFE45A;" d="M69.732,54.653c-1.722-1.07-2.711-3.086-2.993-5.658c-1.303-0.94-2.91-1.755-4.76-2.396
		C63.675,51.35,66.508,54.495,69.732,54.653z"/>
	<path style="fill:#C4D600;" d="M69.732,54.653c-1.722-1.07-2.711-3.086-2.993-5.658c-1.303-0.94-2.91-1.755-4.76-2.396
		C63.675,51.35,66.508,54.495,69.732,54.653z"/>
	<path style="fill:#009ABF;" d="M69.732,54.653c-1.722-1.07-2.711-3.086-2.993-5.658c-1.303-0.94-2.91-1.755-4.76-2.396
		C63.675,51.35,66.508,54.495,69.732,54.653z"/>
	<path style="fill:#C4D600;" d="M79.57,38.649c0.661-0.42,1.338-0.83,2.049-1.216c2.518-1.368,5.674-2.21,8.908-2.713
		c1.501-8.159,0.866-16.825,0.866-16.825s-7.52,3.533-13.814,8.652c1.214,3.26,2.083,6.653,2.083,9.699
		C79.661,37.062,79.624,37.86,79.57,38.649z"/>
	<path style="fill:#DFE45A;" d="M70.796,33.937c-0.222,0.38-0.423,0.761-0.628,1.142c1.6,2.983,2.666,5.987,3.172,8.743
		c1.646-1.835,3.763-3.608,6.228-5.174c0.054-0.789,0.091-1.587,0.091-2.404c0-3.046-0.869-6.438-2.083-9.699
		C74.85,28.765,72.351,31.28,70.796,33.937z"/>
	<path style="fill:#DFE45A;" d="M73.341,43.822c-0.506-2.756-1.573-5.76-3.172-8.743c-1.6,2.983-2.666,5.987-3.173,8.743
		c1.432,1.597,2.507,3.236,3.172,4.818C70.834,47.058,71.909,45.419,73.341,43.822z"/>
	<path style="fill:#C4D600;" d="M73.341,43.822c-0.506-2.756-1.573-5.76-3.172-8.743c-1.6,2.983-2.666,5.987-3.173,8.743
		c1.432,1.597,2.507,3.236,3.172,4.818C70.834,47.058,71.909,45.419,73.341,43.822z"/>
	<path style="fill:#DFE45A;" d="M66.738,48.995c1.149,0.829,2.065,1.752,2.669,2.751c0.046-0.987,0.31-2.034,0.761-3.107
		c-0.665-1.582-1.74-3.221-3.172-4.818C66.652,45.693,66.568,47.443,66.738,48.995z"/>
	<path style="fill:#C4D600;" d="M66.738,48.995c1.149,0.829,2.065,1.752,2.669,2.751c0.046-0.987,0.31-2.034,0.761-3.107
		c-0.665-1.582-1.74-3.221-3.172-4.818C66.652,45.693,66.568,47.443,66.738,48.995z"/>
	<path style="fill:#4EC1E0;" d="M66.738,48.995c1.149,0.829,2.065,1.752,2.669,2.751c0.046-0.987,0.31-2.034,0.761-3.107
		c-0.665-1.582-1.74-3.221-3.172-4.818C66.652,45.693,66.568,47.443,66.738,48.995z"/>
	<path style="fill:#003700;" d="M70.017,54.674c-0.011,0-0.023,0.003-0.034,0.003c-0.085,0-0.167-0.02-0.252-0.024
		c0.039,0.024,0.072,0.057,0.112,0.081c0.092,0.054,0.193,0.085,0.287,0.133c-0.026-0.044-0.061-0.082-0.086-0.127
		C70.034,54.719,70.029,54.696,70.017,54.674z"/>
	<path style="fill:#003700;" d="M70.017,54.674c-0.011,0-0.023,0.003-0.034,0.003c-0.085,0-0.167-0.02-0.252-0.024
		c0.039,0.024,0.072,0.057,0.112,0.081c0.092,0.054,0.193,0.085,0.287,0.133c-0.026-0.044-0.061-0.082-0.086-0.127
		C70.034,54.719,70.029,54.696,70.017,54.674z"/>
	<path style="fill:#003700;" d="M70.017,54.674c-0.011,0-0.023,0.003-0.034,0.003c-0.085,0-0.167-0.02-0.252-0.024
		c0.039,0.024,0.072,0.057,0.112,0.081c0.092,0.054,0.193,0.085,0.287,0.133c-0.026-0.044-0.061-0.082-0.086-0.127
		C70.034,54.719,70.029,54.696,70.017,54.674z"/>
	<path style="fill:#003700;" d="M70.017,54.674c-0.011,0-0.023,0.003-0.034,0.003c-0.085,0-0.167-0.02-0.252-0.024
		c0.039,0.024,0.072,0.057,0.112,0.081c0.092,0.054,0.193,0.085,0.287,0.133c-0.026-0.044-0.061-0.082-0.086-0.127
		C70.034,54.719,70.029,54.696,70.017,54.674z"/>
	<path style="fill:#DFE45A;" d="M70.017,54.674c-0.464-0.883-0.66-1.872-0.61-2.928c-0.604-0.999-1.52-1.922-2.669-2.751
		c0.282,2.573,1.272,4.589,2.993,5.658c0.084,0.004,0.167,0.024,0.252,0.024C69.995,54.678,70.006,54.674,70.017,54.674z"/>
	<path style="fill:#C4D600;" d="M70.017,54.674c-0.464-0.883-0.66-1.872-0.61-2.928c-0.604-0.999-1.52-1.922-2.669-2.751
		c0.282,2.573,1.272,4.589,2.993,5.658c0.084,0.004,0.167,0.024,0.252,0.024C69.995,54.678,70.006,54.674,70.017,54.674z"/>
	<path style="fill:#009ABF;" d="M70.017,54.674c-0.464-0.883-0.66-1.872-0.61-2.928c-0.604-0.999-1.52-1.922-2.669-2.751
		c0.282,2.573,1.272,4.589,2.993,5.658c0.084,0.004,0.167,0.024,0.252,0.024C69.995,54.678,70.006,54.674,70.017,54.674z"/>
	<path style="fill:#4EC1E0;" d="M70.017,54.674c-0.464-0.883-0.66-1.872-0.61-2.928c-0.604-0.999-1.52-1.922-2.669-2.751
		c0.282,2.573,1.272,4.589,2.993,5.658c0.084,0.004,0.167,0.024,0.252,0.024C69.995,54.678,70.006,54.674,70.017,54.674z"/>
	<path style="fill:#4EC1E0;" d="M86.668,45.055C87.31,45.02,87.96,45,88.619,45c3.243,0,6.879,0.984,10.33,2.322
		c5.055-6.009,8.594-12.964,8.594-12.964s-8.765-0.922-17.017,0.362c-0.603,3.277-1.549,6.472-3.022,8.99
		C87.234,44.171,86.952,44.616,86.668,45.055z"/>
	<path style="fill:#003700;" d="M70.187,54.893c-0.006,0.01-0.013,0.019-0.019,0.029c0.015,0.025,0.034,0.048,0.05,0.073
		c-0.002-0.031-0.008-0.061-0.009-0.092C70.202,54.9,70.194,54.897,70.187,54.893z"/>
	<path style="fill:#003700;" d="M70.187,54.893c-0.006,0.01-0.013,0.019-0.019,0.029c0.015,0.025,0.034,0.048,0.05,0.073
		c-0.002-0.031-0.008-0.061-0.009-0.092C70.202,54.9,70.194,54.897,70.187,54.893z"/>
	<path style="fill:#003700;" d="M70.169,54.885c-0.006,0.003-0.013,0.006-0.02,0.009c0.006,0.01,0.013,0.018,0.019,0.028
		c0.006-0.01,0.013-0.019,0.019-0.029C70.181,54.89,70.175,54.888,70.169,54.885z"/>
	<path style="fill:#003700;" d="M70.169,54.885c-0.006,0.003-0.013,0.006-0.02,0.009c0.006,0.01,0.013,0.018,0.019,0.028
		c0.006-0.01,0.013-0.019,0.019-0.029C70.181,54.89,70.175,54.888,70.169,54.885z"/>
	<path style="fill:#003700;" d="M70.169,54.885c-0.006,0.003-0.013,0.006-0.02,0.009c0.006,0.01,0.013,0.018,0.019,0.028
		c0.006-0.01,0.013-0.019,0.019-0.029C70.181,54.89,70.175,54.888,70.169,54.885z"/>
	<path style="fill:#003700;" d="M70.131,54.867c0.005,0.009,0.012,0.017,0.018,0.026c0.006-0.003,0.013-0.006,0.02-0.009
		C70.156,54.878,70.144,54.874,70.131,54.867z"/>
	<path style="fill:#003700;" d="M70.131,54.867c0.005,0.009,0.012,0.017,0.018,0.026c0.006-0.003,0.013-0.006,0.02-0.009
		C70.156,54.878,70.144,54.874,70.131,54.867z"/>
	<path style="fill:#003700;" d="M70.131,54.867c0.005,0.009,0.012,0.017,0.018,0.026c0.006-0.003,0.013-0.006,0.02-0.009
		C70.156,54.878,70.144,54.874,70.131,54.867z"/>
	<path style="fill:#003700;" d="M70.131,54.867c0.005,0.009,0.012,0.017,0.018,0.026c0.006-0.003,0.013-0.006,0.02-0.009
		C70.156,54.878,70.144,54.874,70.131,54.867z"/>
	<path style="fill:#C4D600;" d="M79.57,38.649c-0.206,3.011-0.79,5.792-1.664,8.164c2.523-0.949,5.512-1.578,8.762-1.758
		c0.284-0.44,0.566-0.884,0.836-1.346c1.473-2.518,2.419-5.713,3.022-8.99c-3.234,0.503-6.389,1.344-8.908,2.713
		C80.908,37.819,80.231,38.229,79.57,38.649z"/>
	<path style="fill:#DFE45A;" d="M73.591,49.087c1.188-0.879,2.647-1.646,4.315-2.274c0.874-2.372,1.458-5.153,1.664-8.164
		c-2.466,1.566-4.582,3.338-6.228,5.174C73.692,45.729,73.775,47.512,73.591,49.087z"/>
	<path style="fill:#C4D600;" d="M73.591,49.087c1.188-0.879,2.647-1.646,4.315-2.274c0.874-2.372,1.458-5.153,1.664-8.164
		c-2.466,1.566-4.582,3.338-6.228,5.174C73.692,45.729,73.775,47.512,73.591,49.087z"/>
	<path style="fill:#279100;" d="M73.591,49.087c1.188-0.879,2.647-1.646,4.315-2.274c0.874-2.372,1.458-5.153,1.664-8.164
		c-2.466,1.566-4.582,3.338-6.228,5.174C73.692,45.729,73.775,47.512,73.591,49.087z"/>
	<path style="fill:#DFE45A;" d="M70.93,51.974c0.58-1.048,1.487-2.02,2.661-2.888c0.184-1.575,0.1-3.358-0.25-5.264
		c-1.432,1.597-2.507,3.236-3.173,4.818C70.655,49.796,70.916,50.92,70.93,51.974z"/>
	<path style="fill:#C4D600;" d="M70.93,51.974c0.58-1.048,1.487-2.02,2.661-2.888c0.184-1.575,0.1-3.358-0.25-5.264
		c-1.432,1.597-2.507,3.236-3.173,4.818C70.655,49.796,70.916,50.92,70.93,51.974z"/>
	<path style="fill:#003700;" d="M70.204,54.868c-0.005,0.009-0.012,0.016-0.017,0.025c0.007,0.003,0.014,0.007,0.021,0.01
		c-0.001-0.012-0.003-0.024-0.003-0.036C70.205,54.868,70.205,54.868,70.204,54.868z"/>
	<path style="fill:#003700;" d="M70.204,54.868c-0.005,0.009-0.012,0.016-0.017,0.025c0.007,0.003,0.014,0.007,0.021,0.01
		c-0.001-0.012-0.003-0.024-0.003-0.036C70.205,54.868,70.205,54.868,70.204,54.868z"/>
	<path style="fill:#003700;" d="M70.204,54.868c-0.005,0.009-0.012,0.016-0.017,0.025c0.007,0.003,0.014,0.007,0.021,0.01
		c-0.001-0.012-0.003-0.024-0.003-0.036C70.205,54.868,70.205,54.868,70.204,54.868z"/>
	<polygon style="fill:#003700;" points="70.204,54.868 70.205,54.868 70.205,54.867 	"/>
	<polygon style="fill:#003700;" points="70.204,54.868 70.205,54.868 70.205,54.867 	"/>
	<polygon style="fill:#003700;" points="70.204,54.868 70.205,54.868 70.205,54.867 	"/>
	<polygon style="fill:#003700;" points="70.204,54.868 70.205,54.868 70.205,54.867 	"/>
	<path style="fill:#DFE45A;" d="M70.93,51.974c-0.014-1.055-0.275-2.178-0.762-3.335c-0.451,1.073-0.715,2.119-0.761,3.107
		c0.477,0.789,0.748,1.623,0.823,2.485C70.298,53.451,70.531,52.695,70.93,51.974z"/>
	<path style="fill:#C4D600;" d="M70.93,51.974c-0.014-1.055-0.275-2.178-0.762-3.335c-0.451,1.073-0.715,2.119-0.761,3.107
		c0.477,0.789,0.748,1.623,0.823,2.485C70.298,53.451,70.531,52.695,70.93,51.974z"/>
	<path style="fill:#4EC1E0;" d="M70.93,51.974c-0.014-1.055-0.275-2.178-0.762-3.335c-0.451,1.073-0.715,2.119-0.761,3.107
		c0.477,0.789,0.748,1.623,0.823,2.485C70.298,53.451,70.531,52.695,70.93,51.974z"/>
	<path style="fill:#C4D600;" d="M70.93,51.974c-0.014-1.055-0.275-2.178-0.762-3.335c-0.451,1.073-0.715,2.119-0.761,3.107
		c0.477,0.789,0.748,1.623,0.823,2.485C70.298,53.451,70.531,52.695,70.93,51.974z"/>
	<path style="fill:#003700;" d="M70.169,54.885c0.006,0.003,0.013,0.006,0.019,0.009c0.005-0.009,0.012-0.016,0.017-0.025
		C70.192,54.874,70.18,54.879,70.169,54.885z"/>
	<path style="fill:#003700;" d="M70.169,54.885c0.006,0.003,0.013,0.006,0.019,0.009c0.005-0.009,0.012-0.016,0.017-0.025
		C70.192,54.874,70.18,54.879,70.169,54.885z"/>
	<path style="fill:#003700;" d="M70.169,54.885c0.006,0.003,0.013,0.006,0.019,0.009c0.005-0.009,0.012-0.016,0.017-0.025
		C70.192,54.874,70.18,54.879,70.169,54.885z"/>
	<path style="fill:#003700;" d="M70.169,54.885c0.006,0.003,0.013,0.006,0.019,0.009c0.005-0.009,0.012-0.016,0.017-0.025
		C70.192,54.874,70.18,54.879,70.169,54.885z"/>
	<path style="fill:#003700;" d="M70.205,54.867c-0.002-0.063-0.018-0.125-0.018-0.189c0-0.007,0.002-0.013,0.002-0.02
		c-0.058,0.002-0.114,0.016-0.171,0.016c0.011,0.021,0.016,0.045,0.028,0.066c0.025,0.045,0.06,0.083,0.086,0.127
		c0.012,0.006,0.025,0.011,0.037,0.017c0.012-0.006,0.024-0.011,0.036-0.016C70.204,54.868,70.205,54.867,70.205,54.867z"/>
	<path style="fill:#003700;" d="M70.205,54.867c-0.002-0.063-0.018-0.125-0.018-0.189c0-0.007,0.002-0.013,0.002-0.02
		c-0.058,0.002-0.114,0.016-0.171,0.016c0.011,0.021,0.016,0.045,0.028,0.066c0.025,0.045,0.06,0.083,0.086,0.127
		c0.012,0.006,0.025,0.011,0.037,0.017c0.012-0.006,0.024-0.011,0.036-0.016C70.204,54.868,70.205,54.867,70.205,54.867z"/>
	<path style="fill:#003700;" d="M70.205,54.867c-0.002-0.063-0.018-0.125-0.018-0.189c0-0.007,0.002-0.013,0.002-0.02
		c-0.058,0.002-0.114,0.016-0.171,0.016c0.011,0.021,0.016,0.045,0.028,0.066c0.025,0.045,0.06,0.083,0.086,0.127
		c0.012,0.006,0.025,0.011,0.037,0.017c0.012-0.006,0.024-0.011,0.036-0.016C70.204,54.868,70.205,54.867,70.205,54.867z"/>
	<path style="fill:#003700;" d="M70.205,54.867c-0.002-0.063-0.018-0.125-0.018-0.189c0-0.007,0.002-0.013,0.002-0.02
		c-0.058,0.002-0.114,0.016-0.171,0.016c0.011,0.021,0.016,0.045,0.028,0.066c0.025,0.045,0.06,0.083,0.086,0.127
		c0.012,0.006,0.025,0.011,0.037,0.017c0.012-0.006,0.024-0.011,0.036-0.016C70.204,54.868,70.205,54.867,70.205,54.867z"/>
	<path style="fill:#003700;" d="M70.205,54.867c-0.002-0.063-0.018-0.125-0.018-0.189c0-0.007,0.002-0.013,0.002-0.02
		c-0.058,0.002-0.114,0.016-0.171,0.016c0.011,0.021,0.016,0.045,0.028,0.066c0.025,0.045,0.06,0.083,0.086,0.127
		c0.012,0.006,0.025,0.011,0.037,0.017c0.012-0.006,0.024-0.011,0.036-0.016C70.204,54.868,70.205,54.867,70.205,54.867z"/>
	<path style="fill:#DFE45A;" d="M70.017,54.674c0.058,0,0.114-0.014,0.171-0.016c0.001-0.144,0.029-0.284,0.041-0.427
		c-0.075-0.862-0.346-1.696-0.823-2.485C69.358,52.803,69.553,53.791,70.017,54.674z"/>
	<path style="fill:#C4D600;" d="M70.017,54.674c0.058,0,0.114-0.014,0.171-0.016c0.001-0.144,0.029-0.284,0.041-0.427
		c-0.075-0.862-0.346-1.696-0.823-2.485C69.358,52.803,69.553,53.791,70.017,54.674z"/>
	<path style="fill:#009ABF;" d="M70.017,54.674c0.058,0,0.114-0.014,0.171-0.016c0.001-0.144,0.029-0.284,0.041-0.427
		c-0.075-0.862-0.346-1.696-0.823-2.485C69.358,52.803,69.553,53.791,70.017,54.674z"/>
	<path style="fill:#4EC1E0;" d="M70.017,54.674c0.058,0,0.114-0.014,0.171-0.016c0.001-0.144,0.029-0.284,0.041-0.427
		c-0.075-0.862-0.346-1.696-0.823-2.485C69.358,52.803,69.553,53.791,70.017,54.674z"/>
	<path style="fill:#C4D600;" d="M70.017,54.674c0.058,0,0.114-0.014,0.171-0.016c0.001-0.144,0.029-0.284,0.041-0.427
		c-0.075-0.862-0.346-1.696-0.823-2.485C69.358,52.803,69.553,53.791,70.017,54.674z"/>
	<path style="fill:#003700;" d="M70.017,54.674c0.058,0,0.114-0.014,0.171-0.016c0.001-0.144,0.029-0.284,0.041-0.427
		c-0.075-0.862-0.346-1.696-0.823-2.485C69.358,52.803,69.553,53.791,70.017,54.674z"/>
	<path style="fill:#003700;" d="M70.218,54.995c0.003,0.043,0.009,0.086,0.012,0.129c0.003-0.032,0.007-0.064,0.009-0.097
		C70.232,55.016,70.224,55.006,70.218,54.995z"/>
	<path style="fill:#003700;" d="M70.218,54.995c0.003,0.043,0.009,0.086,0.012,0.129c0.003-0.032,0.007-0.064,0.009-0.097
		C70.232,55.016,70.224,55.006,70.218,54.995z"/>
	<path style="fill:#003700;" d="M70.209,54.903c0.001,0.031,0.007,0.061,0.009,0.092c0.007,0.011,0.015,0.021,0.022,0.032
		c0.002-0.035,0.008-0.07,0.01-0.105C70.236,54.916,70.222,54.91,70.209,54.903z"/>
	<path style="fill:#003700;" d="M70.209,54.903c0.001,0.031,0.007,0.061,0.009,0.092c0.007,0.011,0.015,0.021,0.022,0.032
		c0.002-0.035,0.008-0.07,0.01-0.105C70.236,54.916,70.222,54.91,70.209,54.903z"/>
	<path style="fill:#003700;" d="M70.209,54.903c0.001,0.031,0.007,0.061,0.009,0.092c0.007,0.011,0.015,0.021,0.022,0.032
		c0.002-0.035,0.008-0.07,0.01-0.105C70.236,54.916,70.222,54.91,70.209,54.903z"/>
	<path style="fill:#DFE45A;" d="M70.662,54.612c2.997-0.397,5.615-3.38,7.243-7.8c-1.668,0.627-3.127,1.395-4.315,2.274
		C73.3,51.587,72.328,53.546,70.662,54.612z"/>
	<path style="fill:#C4D600;" d="M70.662,54.612c2.997-0.397,5.615-3.38,7.243-7.8c-1.668,0.627-3.127,1.395-4.315,2.274
		C73.3,51.587,72.328,53.546,70.662,54.612z"/>
	<path style="fill:#4EC1E0;" d="M70.662,54.612c2.997-0.397,5.615-3.38,7.243-7.8c-1.668,0.627-3.127,1.395-4.315,2.274
		C73.3,51.587,72.328,53.546,70.662,54.612z"/>
	<path style="fill:#003700;" d="M70.291,54.74c-0.008,0.015-0.02,0.026-0.028,0.041c0,0.021-0.005,0.042-0.006,0.063
		c0.077-0.04,0.161-0.065,0.236-0.109c0.06-0.035,0.11-0.084,0.169-0.122c-0.11,0.015-0.22,0.024-0.331,0.032
		C70.315,54.675,70.307,54.709,70.291,54.74z"/>
	<path style="fill:#003700;" d="M70.291,54.74c-0.008,0.015-0.02,0.026-0.028,0.041c0,0.021-0.005,0.042-0.006,0.063
		c0.077-0.04,0.161-0.065,0.236-0.109c0.06-0.035,0.11-0.084,0.169-0.122c-0.11,0.015-0.22,0.024-0.331,0.032
		C70.315,54.675,70.307,54.709,70.291,54.74z"/>
	<path style="fill:#003700;" d="M70.291,54.74c-0.008,0.015-0.02,0.026-0.028,0.041c0,0.021-0.005,0.042-0.006,0.063
		c0.077-0.04,0.161-0.065,0.236-0.109c0.06-0.035,0.11-0.084,0.169-0.122c-0.11,0.015-0.22,0.024-0.331,0.032
		C70.315,54.675,70.307,54.709,70.291,54.74z"/>
	<path style="fill:#003700;" d="M70.291,54.74c-0.008,0.015-0.02,0.026-0.028,0.041c0,0.021-0.005,0.042-0.006,0.063
		c0.077-0.04,0.161-0.065,0.236-0.109c0.06-0.035,0.11-0.084,0.169-0.122c-0.11,0.015-0.22,0.024-0.331,0.032
		C70.315,54.675,70.307,54.709,70.291,54.74z"/>
	<path style="fill:#DFE45A;" d="M70.662,54.612c1.665-1.066,2.637-3.026,2.929-5.526c-1.174,0.868-2.081,1.84-2.661,2.888
		c0.013,0.958-0.179,1.858-0.599,2.67C70.442,54.637,70.553,54.627,70.662,54.612z"/>
	<path style="fill:#C4D600;" d="M70.662,54.612c1.665-1.066,2.637-3.026,2.929-5.526c-1.174,0.868-2.081,1.84-2.661,2.888
		c0.013,0.958-0.179,1.858-0.599,2.67C70.442,54.637,70.553,54.627,70.662,54.612z"/>
	<path style="fill:#C4D600;" d="M70.662,54.612c1.665-1.066,2.637-3.026,2.929-5.526c-1.174,0.868-2.081,1.84-2.661,2.888
		c0.013,0.958-0.179,1.858-0.599,2.67C70.442,54.637,70.553,54.627,70.662,54.612z"/>
	<path style="fill:#4EC1E0;" d="M70.662,54.612c1.665-1.066,2.637-3.026,2.929-5.526c-1.174,0.868-2.081,1.84-2.661,2.888
		c0.013,0.958-0.179,1.858-0.599,2.67C70.442,54.637,70.553,54.627,70.662,54.612z"/>
	<path style="fill:#024A00;" d="M70.662,54.612c1.665-1.066,2.637-3.026,2.929-5.526c-1.174,0.868-2.081,1.84-2.661,2.888
		c0.013,0.958-0.179,1.858-0.599,2.67C70.442,54.637,70.553,54.627,70.662,54.612z"/>
	<path style="fill:#003700;" d="M70.205,54.868c0,0.012,0.003,0.024,0.003,0.036c0.013,0.007,0.027,0.012,0.041,0.019
		c0.001-0.026,0.007-0.052,0.008-0.078C70.24,54.852,70.222,54.859,70.205,54.868z"/>
	<path style="fill:#003700;" d="M70.205,54.868c0,0.012,0.003,0.024,0.003,0.036c0.013,0.007,0.027,0.012,0.041,0.019
		c0.001-0.026,0.007-0.052,0.008-0.078C70.24,54.852,70.222,54.859,70.205,54.868z"/>
	<path style="fill:#003700;" d="M70.205,54.868c0,0.012,0.003,0.024,0.003,0.036c0.013,0.007,0.027,0.012,0.041,0.019
		c0.001-0.026,0.007-0.052,0.008-0.078C70.24,54.852,70.222,54.859,70.205,54.868z"/>
	<path style="fill:#003700;" d="M70.205,54.868c0,0.012,0.003,0.024,0.003,0.036c0.013,0.007,0.027,0.012,0.041,0.019
		c0.001-0.026,0.007-0.052,0.008-0.078C70.24,54.852,70.222,54.859,70.205,54.868z"/>
	<path style="fill:#003700;" d="M70.205,54.867C70.205,54.867,70.205,54.867,70.205,54.867c0.017-0.008,0.035-0.014,0.052-0.023
		c0.001-0.021,0.006-0.042,0.006-0.063C70.246,54.811,70.223,54.837,70.205,54.867z"/>
	<path style="fill:#003700;" d="M70.205,54.867C70.205,54.867,70.205,54.867,70.205,54.867c0.017-0.008,0.035-0.014,0.052-0.023
		c0.001-0.021,0.006-0.042,0.006-0.063C70.246,54.811,70.223,54.837,70.205,54.867z"/>
	<path style="fill:#003700;" d="M70.205,54.867C70.205,54.867,70.205,54.867,70.205,54.867c0.017-0.008,0.035-0.014,0.052-0.023
		c0.001-0.021,0.006-0.042,0.006-0.063C70.246,54.811,70.223,54.837,70.205,54.867z"/>
	<path style="fill:#003700;" d="M70.205,54.867C70.205,54.867,70.205,54.867,70.205,54.867c0.017-0.008,0.035-0.014,0.052-0.023
		c0.001-0.021,0.006-0.042,0.006-0.063C70.246,54.811,70.223,54.837,70.205,54.867z"/>
	<path style="fill:#003700;" d="M70.205,54.867C70.205,54.867,70.205,54.867,70.205,54.867c0.017-0.008,0.035-0.014,0.052-0.023
		c0.001-0.021,0.006-0.042,0.006-0.063C70.246,54.811,70.223,54.837,70.205,54.867z"/>
	<path style="fill:#003700;" d="M70.263,54.781c0.008-0.014,0.02-0.026,0.028-0.041c0.017-0.031,0.025-0.065,0.041-0.096
		c-0.02,0.001-0.041,0.005-0.061,0.006c0,0.009,0.003,0.018,0.003,0.028C70.273,54.713,70.264,54.746,70.263,54.781z"/>
	<path style="fill:#003700;" d="M70.263,54.781c0.008-0.014,0.02-0.026,0.028-0.041c0.017-0.031,0.025-0.065,0.041-0.096
		c-0.02,0.001-0.041,0.005-0.061,0.006c0,0.009,0.003,0.018,0.003,0.028C70.273,54.713,70.264,54.746,70.263,54.781z"/>
	<path style="fill:#003700;" d="M70.263,54.781c0.008-0.014,0.02-0.026,0.028-0.041c0.017-0.031,0.025-0.065,0.041-0.096
		c-0.02,0.001-0.041,0.005-0.061,0.006c0,0.009,0.003,0.018,0.003,0.028C70.273,54.713,70.264,54.746,70.263,54.781z"/>
	<path style="fill:#003700;" d="M70.263,54.781c0.008-0.014,0.02-0.026,0.028-0.041c0.017-0.031,0.025-0.065,0.041-0.096
		c-0.02,0.001-0.041,0.005-0.061,0.006c0,0.009,0.003,0.018,0.003,0.028C70.273,54.713,70.264,54.746,70.263,54.781z"/>
	<path style="fill:#003700;" d="M70.263,54.781c0.008-0.014,0.02-0.026,0.028-0.041c0.017-0.031,0.025-0.065,0.041-0.096
		c-0.02,0.001-0.041,0.005-0.061,0.006c0,0.009,0.003,0.018,0.003,0.028C70.273,54.713,70.264,54.746,70.263,54.781z"/>
	<path style="fill:#DFE45A;" d="M70.27,54.65c0.021-0.001,0.041-0.005,0.061-0.006c0.42-0.811,0.611-1.711,0.599-2.67
		c-0.399,0.721-0.632,1.477-0.7,2.257C70.242,54.371,70.27,54.509,70.27,54.65z"/>
	<path style="fill:#C4D600;" d="M70.27,54.65c0.021-0.001,0.041-0.005,0.061-0.006c0.42-0.811,0.611-1.711,0.599-2.67
		c-0.399,0.721-0.632,1.477-0.7,2.257C70.242,54.371,70.27,54.509,70.27,54.65z"/>
	<path style="fill:#4EC1E0;" d="M70.27,54.65c0.021-0.001,0.041-0.005,0.061-0.006c0.42-0.811,0.611-1.711,0.599-2.67
		c-0.399,0.721-0.632,1.477-0.7,2.257C70.242,54.371,70.27,54.509,70.27,54.65z"/>
	<path style="fill:#C4D600;" d="M70.27,54.65c0.021-0.001,0.041-0.005,0.061-0.006c0.42-0.811,0.611-1.711,0.599-2.67
		c-0.399,0.721-0.632,1.477-0.7,2.257C70.242,54.371,70.27,54.509,70.27,54.65z"/>
	<path style="fill:#4EC1E0;" d="M70.27,54.65c0.021-0.001,0.041-0.005,0.061-0.006c0.42-0.811,0.611-1.711,0.599-2.67
		c-0.399,0.721-0.632,1.477-0.7,2.257C70.242,54.371,70.27,54.509,70.27,54.65z"/>
	<path style="fill:#003700;" d="M70.27,54.65c0.021-0.001,0.041-0.005,0.061-0.006c0.42-0.811,0.611-1.711,0.599-2.67
		c-0.399,0.721-0.632,1.477-0.7,2.257C70.242,54.371,70.27,54.509,70.27,54.65z"/>
	<path style="fill:#003700;" d="M70.273,54.678c0-0.009-0.003-0.018-0.003-0.028c-0.027,0.002-0.054,0.007-0.081,0.008
		c0,0.007-0.002,0.013-0.002,0.02c0,0.064,0.016,0.125,0.018,0.189c0.017-0.03,0.041-0.055,0.058-0.086
		C70.264,54.746,70.273,54.713,70.273,54.678z"/>
	<path style="fill:#003700;" d="M70.273,54.678c0-0.009-0.003-0.018-0.003-0.028c-0.027,0.002-0.054,0.007-0.081,0.008
		c0,0.007-0.002,0.013-0.002,0.02c0,0.064,0.016,0.125,0.018,0.189c0.017-0.03,0.041-0.055,0.058-0.086
		C70.264,54.746,70.273,54.713,70.273,54.678z"/>
	<path style="fill:#003700;" d="M70.273,54.678c0-0.009-0.003-0.018-0.003-0.028c-0.027,0.002-0.054,0.007-0.081,0.008
		c0,0.007-0.002,0.013-0.002,0.02c0,0.064,0.016,0.125,0.018,0.189c0.017-0.03,0.041-0.055,0.058-0.086
		C70.264,54.746,70.273,54.713,70.273,54.678z"/>
	<path style="fill:#003700;" d="M70.273,54.678c0-0.009-0.003-0.018-0.003-0.028c-0.027,0.002-0.054,0.007-0.081,0.008
		c0,0.007-0.002,0.013-0.002,0.02c0,0.064,0.016,0.125,0.018,0.189c0.017-0.03,0.041-0.055,0.058-0.086
		C70.264,54.746,70.273,54.713,70.273,54.678z"/>
	<path style="fill:#003700;" d="M70.273,54.678c0-0.009-0.003-0.018-0.003-0.028c-0.027,0.002-0.054,0.007-0.081,0.008
		c0,0.007-0.002,0.013-0.002,0.02c0,0.064,0.016,0.125,0.018,0.189c0.017-0.03,0.041-0.055,0.058-0.086
		C70.264,54.746,70.273,54.713,70.273,54.678z"/>
	<path style="fill:#003700;" d="M70.273,54.678c0-0.009-0.003-0.018-0.003-0.028c-0.027,0.002-0.054,0.007-0.081,0.008
		c0,0.007-0.002,0.013-0.002,0.02c0,0.064,0.016,0.125,0.018,0.189c0.017-0.03,0.041-0.055,0.058-0.086
		C70.264,54.746,70.273,54.713,70.273,54.678z"/>
	<path style="fill:#DFE45A;" d="M70.23,54.231c-0.012,0.143-0.04,0.283-0.041,0.427c0.027-0.001,0.054-0.006,0.081-0.008
		C70.27,54.509,70.242,54.371,70.23,54.231z"/>
	<path style="fill:#C4D600;" d="M70.23,54.231c-0.012,0.143-0.04,0.283-0.041,0.427c0.027-0.001,0.054-0.006,0.081-0.008
		C70.27,54.509,70.242,54.371,70.23,54.231z"/>
	<path style="fill:#009ABF;" d="M70.23,54.231c-0.012,0.143-0.04,0.283-0.041,0.427c0.027-0.001,0.054-0.006,0.081-0.008
		C70.27,54.509,70.242,54.371,70.23,54.231z"/>
	<path style="fill:#4EC1E0;" d="M70.23,54.231c-0.012,0.143-0.04,0.283-0.041,0.427c0.027-0.001,0.054-0.006,0.081-0.008
		C70.27,54.509,70.242,54.371,70.23,54.231z"/>
	<path style="fill:#C4D600;" d="M70.23,54.231c-0.012,0.143-0.04,0.283-0.041,0.427c0.027-0.001,0.054-0.006,0.081-0.008
		C70.27,54.509,70.242,54.371,70.23,54.231z"/>
	<path style="fill:#4EC1E0;" d="M70.23,54.231c-0.012,0.143-0.04,0.283-0.041,0.427c0.027-0.001,0.054-0.006,0.081-0.008
		C70.27,54.509,70.242,54.371,70.23,54.231z"/>
	<path style="fill:#003700;" d="M70.23,54.231c-0.012,0.143-0.04,0.283-0.041,0.427c0.027-0.001,0.054-0.006,0.081-0.008
		C70.27,54.509,70.242,54.371,70.23,54.231z"/>
	<path style="fill:#009ABF;" d="M70.168,54.922c-2.699,4.498-11.872,4.312-20.693-0.484c-2.885-1.568-5.642-4.214-8.057-7.079
		c-7.345,2.865-13.823,7.319-13.823,7.319s14.065,9.678,24.245,9.678c9.893,0,17.942-4.096,18.39-9.231
		c-0.004-0.043-0.01-0.086-0.012-0.129C70.202,54.97,70.183,54.947,70.168,54.922z"/>
	<path style="fill:#009ABF;" d="M49.475,54.438c8.821,4.796,17.994,4.982,20.693,0.484c-0.006-0.01-0.013-0.018-0.019-0.028
		c-4.404,2.158-11.484-2.109-16.485-9.845C53.064,45.017,52.456,45,51.84,45c-3.272,0-6.943,1.002-10.422,2.358
		C43.833,50.223,46.59,52.87,49.475,54.438z"/>
	<path style="fill:#C4D600;" d="M69.844,54.734c-0.04-0.023-0.073-0.056-0.112-0.081c-3.224-0.158-6.057-3.304-7.754-8.055
		c-2.431-0.843-5.261-1.393-8.314-1.551c5.001,7.737,12.081,12.003,16.485,9.845c-0.005-0.009-0.012-0.017-0.018-0.026
		C70.037,54.82,69.936,54.788,69.844,54.734z"/>
	<path style="fill:#009ABF;" d="M69.844,54.734c-0.04-0.023-0.073-0.056-0.112-0.081c-3.224-0.158-6.057-3.304-7.754-8.055
		c-2.431-0.843-5.261-1.393-8.314-1.551c5.001,7.737,12.081,12.003,16.485,9.845c-0.005-0.009-0.012-0.017-0.018-0.026
		C70.037,54.82,69.936,54.788,69.844,54.734z"/>
	<path style="fill:#009ABF;" d="M98.949,47.322c-2.422,2.879-5.19,5.541-8.087,7.116c-8.749,4.757-17.84,4.975-20.623,0.59
		c-0.002,0.032-0.006,0.065-0.009,0.097c0.447,5.135,8.497,9.231,18.389,9.231c10.181,0,24.246-9.678,24.246-9.678
		S106.333,50.185,98.949,47.322z"/>
	<path style="fill:#4EC1E0;" d="M86.668,45.055c-4.977,7.697-12.011,11.955-16.419,9.867c-0.002,0.035-0.008,0.07-0.01,0.105
		c2.783,4.386,11.874,4.168,20.623-0.59c2.897-1.574,5.665-4.237,8.087-7.116C95.498,45.984,91.862,45,88.619,45
		C87.96,45,87.31,45.02,86.668,45.055z"/>
	<path style="fill:#C4D600;" d="M70.662,54.612c-0.059,0.038-0.109,0.087-0.169,0.122c-0.076,0.044-0.159,0.069-0.236,0.109
		c-0.001,0.026-0.006,0.052-0.008,0.078c4.408,2.088,11.442-2.17,16.419-9.867c-3.25,0.18-6.239,0.808-8.762,1.758
		C76.278,51.232,73.659,54.215,70.662,54.612z"/>
	<path style="fill:#4EC1E0;" d="M70.662,54.612c-0.059,0.038-0.109,0.087-0.169,0.122c-0.076,0.044-0.159,0.069-0.236,0.109
		c-0.001,0.026-0.006,0.052-0.008,0.078c4.408,2.088,11.442-2.17,16.419-9.867c-3.25,0.18-6.239,0.808-8.762,1.758
		C76.278,51.232,73.659,54.215,70.662,54.612z"/>
	<path style="fill:#AABF02;" d="M60.378,38.395c2.638,1.625,4.884,3.494,6.618,5.428c0.506-2.756,1.573-5.76,3.173-8.743
		c-0.204-0.381-0.406-0.762-0.628-1.142c-1.608-2.75-4.227-5.349-7.065-7.623c-1.26,3.331-2.169,6.813-2.169,9.931
		C60.307,36.973,60.335,37.688,60.378,38.395z"/>
	<path style="fill:#2BA200;" d="M53.664,45.048c3.053,0.157,5.883,0.708,8.314,1.551c-0.854-2.392-1.416-5.188-1.6-8.204
		c-0.537-0.331-1.09-0.653-1.659-0.962c-2.518-1.368-5.673-2.21-8.907-2.713c0.603,3.277,1.549,6.472,3.021,8.99
		C53.101,44.169,53.381,44.611,53.664,45.048z"/>
	<path style="fill:#279100;" d="M66.996,43.822c-1.734-1.933-3.98-3.803-6.618-5.428c0.184,3.017,0.746,5.813,1.6,8.204
		c1.851,0.641,3.457,1.456,4.76,2.396C66.568,47.443,66.652,45.693,66.996,43.822z"/>
	<path style="fill:#025800;" d="M69.732,54.653c-1.722-1.07-2.711-3.086-2.993-5.658c-1.303-0.94-2.91-1.755-4.76-2.396
		C63.675,51.35,66.508,54.495,69.732,54.653z"/>
	<path style="fill:#AABF02;" d="M70.796,33.937c-0.222,0.38-0.423,0.761-0.628,1.142c1.6,2.983,2.666,5.987,3.172,8.743
		c1.646-1.835,3.763-3.608,6.228-5.174c0.054-0.789,0.091-1.587,0.091-2.404c0-3.046-0.869-6.438-2.083-9.699
		C74.85,28.765,72.351,31.28,70.796,33.937z"/>
	<path style="fill:#82A000;" d="M73.341,43.822c-0.506-2.756-1.573-5.76-3.172-8.743c-1.6,2.983-2.666,5.987-3.173,8.743
		c1.432,1.597,2.507,3.236,3.172,4.818C70.834,47.058,71.909,45.419,73.341,43.822z"/>
	<path style="fill:#1E7900;" d="M66.738,48.995c1.149,0.829,2.065,1.752,2.669,2.751c0.046-0.987,0.31-2.034,0.761-3.107
		c-0.665-1.582-1.74-3.221-3.172-4.818C66.652,45.693,66.568,47.443,66.738,48.995z"/>
	<path style="fill:#024A00;" d="M70.017,54.674c-0.464-0.883-0.66-1.872-0.61-2.928c-0.604-0.999-1.52-1.922-2.669-2.751
		c0.282,2.573,1.272,4.589,2.993,5.658c0.084,0.004,0.167,0.024,0.252,0.024C69.995,54.678,70.006,54.674,70.017,54.674z"/>
	<path style="fill:#2BA200;" d="M79.57,38.649c-0.206,3.011-0.79,5.792-1.664,8.164c2.523-0.949,5.512-1.578,8.762-1.758
		c0.284-0.44,0.566-0.884,0.836-1.346c1.473-2.518,2.419-5.713,3.022-8.99c-3.234,0.503-6.389,1.344-8.908,2.713
		C80.908,37.819,80.231,38.229,79.57,38.649z"/>
	<path style="fill:#1E7900;" d="M70.93,51.974c0.58-1.048,1.487-2.02,2.661-2.888c0.184-1.575,0.1-3.358-0.25-5.264
		c-1.432,1.597-2.507,3.236-3.173,4.818C70.655,49.796,70.916,50.92,70.93,51.974z"/>
	<path style="fill:#055C00;" d="M70.93,51.974c-0.014-1.055-0.275-2.178-0.762-3.335c-0.451,1.073-0.715,2.119-0.761,3.107
		c0.477,0.789,0.748,1.623,0.823,2.485C70.298,53.451,70.531,52.695,70.93,51.974z"/>
	<path style="fill:#025800;" d="M70.662,54.612c2.997-0.397,5.615-3.38,7.243-7.8c-1.668,0.627-3.127,1.395-4.315,2.274
		C73.3,51.587,72.328,53.546,70.662,54.612z"/>
	<path style="fill:#0575A9;" d="M49.475,54.438c8.821,4.796,17.994,4.982,20.693,0.484c-0.006-0.01-0.013-0.018-0.019-0.028
		c-4.404,2.158-11.484-2.109-16.485-9.845C53.064,45.017,52.456,45,51.84,45c-3.272,0-6.943,1.002-10.422,2.358
		C43.833,50.223,46.59,52.87,49.475,54.438z"/>
	<path style="fill:#046200;" d="M69.844,54.734c-0.04-0.023-0.073-0.056-0.112-0.081c-3.224-0.158-6.057-3.304-7.754-8.055
		c-2.431-0.843-5.261-1.393-8.314-1.551c5.001,7.737,12.081,12.003,16.485,9.845c-0.005-0.009-0.012-0.017-0.018-0.026
		C70.037,54.82,69.936,54.788,69.844,54.734z"/>
	<path style="fill:#0575A9;" d="M86.668,45.055c-4.977,7.697-12.011,11.955-16.419,9.867c-0.002,0.035-0.008,0.07-0.01,0.105
		c2.783,4.386,11.874,4.168,20.623-0.59c2.897-1.574,5.665-4.237,8.087-7.116C95.498,45.984,91.862,45,88.619,45
		C87.96,45,87.31,45.02,86.668,45.055z"/>
	<path style="fill:#046200;" d="M70.662,54.612c-0.059,0.038-0.109,0.087-0.169,0.122c-0.076,0.044-0.159,0.069-0.236,0.109
		c-0.001,0.026-0.006,0.052-0.008,0.078c4.408,2.088,11.442-2.17,16.419-9.867c-3.25,0.18-6.239,0.808-8.762,1.758
		C76.278,51.232,73.659,54.215,70.662,54.612z"/>
</g>
<g id="Layer_1">
</g>
</svg>
