<?xml version="1.0" encoding="iso-8859-1"?>
<!-- Generator: Adobe Illustrator 18.1.0, SVG Export Plug-In . SVG Version: 6.00 Build 0)  -->
<!DOCTYPE svg PUBLIC "-//W3C//DTD SVG 1.1//EN" "http://www.w3.org/Graphics/SVG/1.1/DTD/svg11.dtd">
<svg version="1.1" xmlns="http://www.w3.org/2000/svg" xmlns:xlink="http://www.w3.org/1999/xlink" x="0px" y="0px"
	 viewBox="0 0 140 105" style="enable-background:new 0 0 140 105;" xml:space="preserve">
<g id="globoclub">
	<g>
		<path style="fill:#5BA9DD;" d="M35.44,47.523c1.037,0,1.881-0.84,1.881-1.877V27.657c0-1.037-0.844-1.877-1.881-1.877
			c-1.037,0-1.881,0.84-1.881,1.877v17.989C33.559,46.683,34.403,47.523,35.44,47.523z"/>
		<path style="fill:#5BA9DD;" d="M41.905,52.764c1.598,0,2.939-1.296,2.939-2.894V23.433c0-1.598-1.341-2.894-2.939-2.894
			c-1.598,0-2.939,1.296-2.939,2.894V49.87C38.966,51.468,40.307,52.764,41.905,52.764z"/>
		<path style="fill:#5BA9DD;" d="M49.252,56.049c1.598,0,2.88-1.296,2.88-2.894V20.148c0-1.598-1.282-2.894-2.88-2.894
			s-2.88,1.296-2.88,2.894v33.006C46.372,54.753,47.654,56.049,49.252,56.049z"/>
		<path style="fill:#5BA9DD;" d="M104.56,47.523c1.037,0,1.881-0.84,1.881-1.877V27.657c0-1.037-0.844-1.877-1.881-1.877
			c-1.037,0-1.881,0.84-1.881,1.877v17.989C102.679,46.683,103.523,47.523,104.56,47.523z"/>
		<path style="fill:#5BA9DD;" d="M101.033,23.433c0-1.598-1.341-2.894-2.939-2.894c-1.598,0-2.939,1.296-2.939,2.894V49.87
			c0,1.598,1.341,2.894,2.939,2.894c1.598,0,2.939-1.296,2.939-2.894V23.433z"/>
		<path style="fill:#5BA9DD;" d="M93.627,53.155V20.148c0-1.598-1.282-2.894-2.88-2.894c-1.598,0-2.88,1.296-2.88,2.894v33.006
			c0,1.598,1.282,2.894,2.88,2.894C92.346,56.049,93.627,54.753,93.627,53.155z"/>
		<path style="fill:#5BA9DD;" d="M70,47.08c4.502,0,8.339-2.897,9.748-6.923c5.731-0.168,6.827-0.455,6.827-0.455v-5.788
			c0,0-1.34-0.329-6.816-0.528c-1.4-4.043-5.246-6.954-9.759-6.954s-8.359,2.911-9.759,6.954c-5.476,0.2-6.816,0.528-6.816,0.528
			v5.788c0,0,1.095,0.287,6.827,0.455C61.661,44.184,65.498,47.08,70,47.08z M63.345,40.226c0.01,0,0.02,0,0.03,0.001
			c-0.544-1.038-0.857-2.218-0.857-3.471c0-0.791,0.125-1.553,0.354-2.269l4.402,3.178l-1.684,5.162
			C64.656,42.147,63.884,41.257,63.345,40.226z M65.591,42.828L70,39.627l4.403,3.205c-1.238,0.9-2.759,1.432-4.403,1.432
			C68.353,44.264,66.83,43.73,65.591,42.828z M74.408,42.829l-1.682-5.165l4.402-3.176c0.228,0.715,0.353,1.477,0.353,2.268
			c0,1.253-0.312,2.433-0.857,3.471c0.01,0,0.021,0,0.031-0.001C76.115,41.257,75.343,42.148,74.408,42.829z M70,29.247
			c2.894,0,5.409,1.647,6.662,4.052c-0.01,0-0.02,0-0.03-0.001c0.197,0.377,0.362,0.772,0.494,1.183h-5.441L70,29.296l-1.685,5.185
			h-5.442c0.132-0.411,0.298-0.806,0.494-1.183c-0.01,0-0.02,0-0.03,0.001C64.591,30.894,67.106,29.247,70,29.247z"/>
		<path style="fill:#5BA9DD;" d="M26.302,72.729h2.464v1.531c-0.634,0.634-1.619,0.898-2.517,0.898c-2.024,0-3.714-1.69-3.714-3.925
			c0-2.2,1.62-3.908,3.714-3.908c1.144,0,2.183,0.581,2.869,1.391l1.866-1.62c-1.197-1.391-2.746-2.183-4.718-2.183
			c-3.485,0-6.267,2.852-6.267,6.32c0,3.503,2.746,6.319,6.267,6.319c2.112,0,3.661-0.898,4.841-2.306v-4.647h-4.806V72.729z"/>
		<polygon style="fill:#5BA9DD;" points="35.895,65.071 33.395,65.071 33.395,77.394 40.243,77.394 40.243,75.105 35.895,75.105 		
			"/>
		<path style="fill:#5BA9DD;" d="M46.791,64.913c-3.503,0-6.337,2.852-6.337,6.32c0,3.503,2.834,6.337,6.337,6.337
			c3.468,0,6.32-2.834,6.32-6.337C53.111,67.765,50.259,64.913,46.791,64.913z M46.791,75.211c-2.148,0-3.732-1.637-3.732-3.978
			c0-2.306,1.584-3.961,3.732-3.961c2.13,0,3.714,1.637,3.714,3.961C50.506,73.556,48.921,75.211,46.791,75.211z"/>
		<path style="fill:#5BA9DD;" d="M63.479,73.591c0-1.637-0.986-2.817-2.552-3.345c0.81-0.458,1.338-1.179,1.338-2.306
			c0-1.619-1.091-2.869-3.204-2.869h-3.837v12.322h3.609C62.088,77.394,63.479,75.739,63.479,73.591z M57.722,66.867h0.986
			c1.76,0,1.461,2.623,0,2.623h-0.986V66.867z M59.148,75.334h-1.426v-3.573h1.443C61.507,71.761,61.63,75.334,59.148,75.334z"/>
		<path style="fill:#5BA9DD;" d="M77.719,71.233c0-3.468-2.852-6.32-6.319-6.32c-3.503,0-6.337,2.852-6.337,6.32
			c0,3.503,2.834,6.337,6.337,6.337C74.867,77.57,77.719,74.736,77.719,71.233z M71.4,75.211c-2.148,0-3.732-1.637-3.732-3.978
			c0-2.306,1.584-3.961,3.732-3.961c2.13,0,3.714,1.637,3.714,3.961C75.114,73.556,73.53,75.211,71.4,75.211z"/>
		<path style="fill:#5BA9DD;" d="M85.376,75.158c-2.095,0-3.714-1.69-3.714-3.925c0-2.2,1.62-3.908,3.714-3.908
			c1.144,0,2.095,0.581,2.869,1.391l1.866-1.62c-1.197-1.391-2.746-2.183-4.718-2.183c-3.485,0-6.267,2.852-6.267,6.32
			c0,3.503,2.746,6.337,6.267,6.337c2.112,0,3.662-0.915,4.841-2.324l-1.936-1.549C87.506,74.56,86.538,75.158,85.376,75.158z"/>
		<polygon style="fill:#5BA9DD;" points="94.494,65.071 91.994,65.071 91.994,77.394 98.842,77.394 98.842,75.105 94.494,75.105 		
			"/>
		<path style="fill:#5BA9DD;" d="M106.499,73.169c0,1.303-0.739,2.077-1.743,2.077c-0.986,0-1.725-0.775-1.725-2.077v-8.097h-2.535
			v7.939c0,3.204,2.042,4.559,4.26,4.559c2.236,0,4.278-1.355,4.278-4.559v-7.939h-2.535V73.169z"/>
		<path style="fill:#5BA9DD;" d="M117.448,70.247c0.81-0.458,1.338-1.179,1.338-2.306c0-1.619-1.091-2.869-3.204-2.869h-3.838
			v12.322h3.609c3.257,0,4.647-1.655,4.647-3.802C120,71.954,119.014,70.775,117.448,70.247z M114.244,66.867h0.986
			c1.76,0,1.461,2.623,0,2.623h-0.986V66.867z M115.67,75.334h-1.426v-3.573h1.444C118.028,71.761,118.152,75.334,115.67,75.334z"/>
		<polygon style="fill:#5BA9DD;" points="54.255,87.656 54.715,87.656 54.715,84.713 57.689,84.713 57.689,84.285 54.715,84.285 
			54.715,81.491 57.865,81.491 57.865,81.067 54.255,81.067 		"/>
		<rect x="58.888" y="81.067" style="fill:#5BA9DD;" width="0.46" height="6.588"/>
		<polygon style="fill:#5BA9DD;" points="60.326,81.5 62.466,81.5 62.466,87.656 62.93,87.656 62.93,81.5 65.071,81.5 
			65.071,81.067 60.326,81.067 		"/>
		<path style="fill:#5BA9DD;" d="M70.393,85.366c0,0.487,0.014,1,0.041,1.541h-0.027l-3.898-5.84h-0.46v6.588h0.442v-4.272
			c0-0.354-0.018-0.88-0.054-1.577h0.036l3.903,5.849h0.464v-6.588h-0.446V85.366z"/>
		<polygon style="fill:#5BA9DD;" points="72.705,87.656 76.306,87.656 76.306,87.232 73.165,87.232 73.165,84.406 76.13,84.406 
			76.13,83.983 73.165,83.983 73.165,81.491 76.306,81.491 76.306,81.067 72.705,81.067 		"/>
		<path style="fill:#5BA9DD;" d="M80.69,84.62c-0.258-0.167-0.644-0.339-1.158-0.516c-0.49-0.174-0.835-0.324-1.036-0.448
			c-0.201-0.125-0.346-0.265-0.435-0.421c-0.089-0.156-0.133-0.356-0.133-0.599c0-0.388,0.144-0.694,0.433-0.919
			c0.288-0.225,0.676-0.338,1.163-0.338c0.499,0,1.021,0.114,1.568,0.342l0.167-0.397c-0.544-0.234-1.125-0.352-1.744-0.352
			c-0.607,0-1.103,0.156-1.489,0.467c-0.386,0.311-0.579,0.713-0.579,1.205c0,0.448,0.128,0.806,0.385,1.075
			c0.257,0.269,0.722,0.519,1.395,0.75c0.46,0.156,0.808,0.302,1.046,0.437c0.237,0.135,0.409,0.285,0.514,0.449
			c0.105,0.164,0.158,0.37,0.158,0.62c0,0.403-0.159,0.728-0.475,0.976c-0.317,0.248-0.746,0.372-1.287,0.372
			c-0.736,0-1.341-0.101-1.816-0.302v0.46c0.43,0.177,1.047,0.266,1.852,0.266c0.67,0,1.207-0.161,1.611-0.482
			s0.606-0.757,0.606-1.307c0-0.3-0.059-0.557-0.178-0.768C81.137,84.976,80.949,84.787,80.69,84.62z"/>
		<path style="fill:#5BA9DD;" d="M85.72,84.62c-0.258-0.167-0.644-0.339-1.158-0.516c-0.49-0.174-0.835-0.324-1.036-0.448
			c-0.201-0.125-0.346-0.265-0.435-0.421c-0.089-0.156-0.133-0.356-0.133-0.599c0-0.388,0.144-0.694,0.433-0.919
			c0.288-0.225,0.676-0.338,1.163-0.338c0.499,0,1.021,0.114,1.568,0.342l0.167-0.397c-0.544-0.234-1.125-0.352-1.744-0.352
			c-0.607,0-1.103,0.156-1.489,0.467c-0.386,0.311-0.579,0.713-0.579,1.205c0,0.448,0.128,0.806,0.385,1.075
			c0.257,0.269,0.722,0.519,1.395,0.75c0.46,0.156,0.808,0.302,1.046,0.437c0.237,0.135,0.409,0.285,0.514,0.449
			c0.105,0.164,0.158,0.37,0.158,0.62c0,0.403-0.159,0.728-0.475,0.976c-0.317,0.248-0.746,0.372-1.287,0.372
			c-0.736,0-1.341-0.101-1.816-0.302v0.46c0.43,0.177,1.047,0.266,1.852,0.266c0.67,0,1.207-0.161,1.611-0.482
			c0.404-0.321,0.606-0.757,0.606-1.307c0-0.3-0.059-0.557-0.178-0.768C86.166,84.976,85.978,84.787,85.72,84.62z"/>
	</g>
</g>
<g id="Layer_1">
</g>
</svg>
