<?xml version="1.0" encoding="iso-8859-1"?>
<!-- Generator: Adobe Illustrator 18.1.0, SVG Export Plug-In . SVG Version: 6.00 Build 0)  -->
<!DOCTYPE svg PUBLIC "-//W3C//DTD SVG 1.1//EN" "http://www.w3.org/Graphics/SVG/1.1/DTD/svg11.dtd">
<svg version="1.1" xmlns="http://www.w3.org/2000/svg" xmlns:xlink="http://www.w3.org/1999/xlink" x="0px" y="0px"
	 viewBox="0 0 140 105" style="enable-background:new 0 0 140 105;" xml:space="preserve">
<g id="cribbit">
	<g>
		<path d="M42.063,62.872c-0.627,0.279-1.235,0.646-1.823,1.104c-0.59,0.457-1.185,0.958-1.786,1.501
			c-0.602,0.545-1.226,1.119-1.872,1.721c-0.647,0.603-1.345,1.166-2.092,1.685c-0.75,0.516-1.566,1.013-2.449,1.485
			c-0.883,0.474-1.859,0.887-2.928,1.243c-1.069,0.354-2.246,0.639-3.533,0.849c-1.286,0.209-2.712,0.315-4.272,0.315
			c-1.728,0-3.287-0.344-4.675-1.034c-1.389-0.687-2.577-1.614-3.562-2.783c-0.986-1.167-1.744-2.524-2.275-4.073
			C10.265,63.34,10,61.713,10,60.009c0-1.186,0.127-2.459,0.383-3.818c0.256-1.358,0.624-2.746,1.105-4.157
			c0.479-1.41,1.065-2.819,1.757-4.223c0.691-1.405,1.474-2.752,2.352-4.041c0.876-1.289,1.839-2.484,2.89-3.586
			c1.049-1.103,2.17-2.063,3.36-2.881c1.19-0.818,2.445-1.459,3.763-1.923c1.318-0.464,2.688-0.696,4.109-0.696
			c0.922,0,1.855,0.163,2.804,0.49c0.946,0.326,1.798,0.829,2.554,1.507c0.754,0.679,1.373,1.536,1.853,2.573
			c0.48,1.037,0.72,2.26,0.72,3.667c0,0.947-0.151,1.904-0.452,2.87c-0.301,0.967-0.714,1.895-1.238,2.784
			c-0.525,0.89-1.143,1.725-1.853,2.506c-0.71,0.78-1.476,1.455-2.295,2.025c-0.82,0.569-1.67,1.022-2.553,1.352
			c-0.883,0.335-1.767,0.501-2.65,0.501c-1.166,0-2.036-0.158-2.611-0.47c-0.577-0.313-0.865-0.765-0.865-1.354
			c0-0.103-0.003-0.224-0.009-0.366c-0.006-0.141-0.009-0.288-0.009-0.442c0-0.23,0.012-0.47,0.038-0.719
			c0.025-0.25,0.077-0.478,0.153-0.683c0.077-0.205,0.188-0.37,0.336-0.5c0.147-0.127,0.349-0.191,0.604-0.191
			c0.154,0,0.288,0.022,0.403,0.067c0.115,0.044,0.243,0.093,0.384,0.144c0.14,0.052,0.31,0.099,0.509,0.144
			c0.197,0.045,0.451,0.066,0.757,0.066c0.819,0,1.648-0.179,2.486-0.537c0.839-0.358,1.594-0.865,2.267-1.517
			c0.672-0.653,1.222-1.431,1.651-2.333c0.429-0.902,0.644-1.897,0.644-2.986c0-0.575-0.077-1.124-0.231-1.642
			c-0.153-0.518-0.404-0.972-0.748-1.363c-0.347-0.39-0.793-0.704-1.335-0.94c-0.545-0.237-1.207-0.355-1.987-0.355
			c-0.921,0-1.821,0.203-2.698,0.609C25.471,40,24.63,40.552,23.824,41.25c-0.807,0.697-1.572,1.523-2.294,2.479
			c-0.725,0.955-1.393,1.978-2.007,3.069c-0.615,1.091-1.168,2.227-1.662,3.408c-0.492,1.182-0.912,2.359-1.257,3.534
			c-0.345,1.174-0.611,2.314-0.797,3.417c-0.186,1.104-0.277,2.121-0.277,3.052c0,1.365,0.163,2.555,0.488,3.568
			c0.328,1.016,0.79,1.86,1.392,2.537c0.601,0.674,1.338,1.179,2.208,1.511c0.87,0.331,1.849,0.496,2.938,0.496
			c1.357,0,2.621-0.175,3.792-0.526c1.171-0.351,2.288-0.812,3.35-1.383c1.062-0.569,2.089-1.211,3.083-1.931
			c0.991-0.715,1.982-1.433,2.976-2.156c0.992-0.722,2.003-1.41,3.034-2.068c1.029-0.654,2.121-1.208,3.272-1.66V62.872z"/>
		<path d="M39.588,65.077c0-0.563,0.031-1.221,0.095-1.969c0.063-0.75,0.15-1.538,0.259-2.371c0.109-0.833,0.236-1.68,0.384-2.545
			c0.147-0.864,0.337-1.785,0.566-2.765c0.231-0.979,0.428-1.795,0.596-2.448c0.166-0.653,0.332-1.189,0.499-1.612
			c0.102-0.281,0.205-0.506,0.307-0.672c0.102-0.165,0.221-0.298,0.354-0.393c0.135-0.096,0.301-0.159,0.5-0.193
			c0.198-0.031,0.445-0.047,0.74-0.047c0.332,0,0.591,0.016,0.776,0.047c0.187,0.034,0.323,0.11,0.414,0.231
			c0.088,0.122,0.143,0.298,0.164,0.529c0.019,0.23,0.029,0.544,0.029,0.94c0,0.475-0.033,1.147-0.096,2.016
			c-0.065,0.87-0.083,1.632-0.058,2.286h0.211c0.256-0.513,0.576-1.186,0.961-2.018c0.384-0.831,0.788-1.522,1.209-2.072
			c0.422-0.551,0.902-1.015,1.439-1.393c0.537-0.377,1.158-0.565,1.863-0.565c0.243,0,0.479,0.042,0.71,0.125
			c0.231,0.083,0.433,0.202,0.605,0.355c0.172,0.153,0.31,0.343,0.413,0.566c0.101,0.225,0.153,0.478,0.153,0.758
			c0,0.219-0.032,0.522-0.096,0.914c-0.065,0.39-0.167,0.898-0.308,1.525c-0.141,0.629-0.243,1.143-0.306,1.546
			c-0.065,0.403-0.097,0.739-0.097,1.007c0,0.461,0.044,0.846,0.135,1.153c0.089,0.306,0.207,0.556,0.355,0.739
			c0.147,0.186,0.313,0.316,0.499,0.393c0.186,0.077,0.381,0.116,0.586,0.116c0.577,0,1.171-0.128,1.786-0.384
			c0.614-0.257,1.177-0.543,1.689-0.864c0.601-0.37,1.19-0.792,1.767-1.269l-0.288,4.493c-0.333,0.219-0.71,0.462-1.132,0.731
			c-0.424,0.268-0.875,0.521-1.354,0.756c-0.479,0.239-0.979,0.438-1.498,0.597c-0.519,0.159-1.047,0.241-1.585,0.241
			c-0.959,0-1.733-0.197-2.322-0.586c-0.59-0.392-1.056-0.903-1.402-1.536c-0.346-0.634-0.603-1.344-0.768-2.132
			c-0.167-0.786-0.302-1.584-0.404-2.392h-0.308l-3.436,9.582c-0.18,0.498-0.35,0.911-0.509,1.238
			c-0.161,0.327-0.323,0.592-0.49,0.798c-0.167,0.204-0.346,0.35-0.537,0.431c-0.193,0.083-0.404,0.125-0.634,0.125
			c-0.525,0-0.947-0.112-1.267-0.337c-0.32-0.222-0.566-0.524-0.739-0.901c-0.172-0.377-0.288-0.808-0.345-1.286
			C39.617,66.084,39.588,65.588,39.588,65.077z"/>
		<path d="M67.81,64.999c-0.459,0.424-1.033,0.873-1.717,1.353c-0.686,0.482-1.424,0.923-2.218,1.326
			c-0.794,0.404-1.604,0.739-2.429,1.007c-0.826,0.27-1.61,0.404-2.352,0.404c-0.667,0-1.226-0.091-1.681-0.279
			c-0.455-0.185-0.822-0.442-1.103-0.777c-0.283-0.333-0.485-0.739-0.606-1.22c-0.121-0.479-0.182-1.008-0.182-1.584
			c0-0.807,0.089-1.747,0.269-2.822c0.369-2.223,0.606-3.473,0.711-3.747c0.174-0.546,0.523-1.758,1.046-3.635
			c0.486-1.527,0.786-2.522,0.901-2.984c0.062-0.324,0.239-0.615,0.528-0.875c0.264-0.231,0.562-0.423,0.895-0.572
			c0.334-0.148,0.681-0.259,1.039-0.33c0.358-0.071,0.682-0.106,0.971-0.106c0.528,0,0.887,0.099,1.076,0.297
			c0.188,0.199,0.283,0.464,0.283,0.796c0,0.282-0.066,0.681-0.197,1.194c-0.133,0.514-0.282,1.1-0.45,1.757
			c-0.167,0.658-0.417,1.504-0.747,2.537c-0.331,1.034-0.555,1.915-0.676,2.646c-0.121,0.728-0.273,1.453-0.457,2.173
			c-0.185,0.719-0.276,1.374-0.276,1.961c0,0.577,0.063,1.035,0.191,1.374c0.128,0.339,0.392,0.508,0.788,0.508
			c0.461,0,0.972-0.16,1.535-0.479c0.565-0.319,1.133-0.707,1.709-1.162c0.576-0.455,1.14-0.926,1.689-1.412
			c0.551-0.484,1.038-0.901,1.459-1.247V64.999z M59.229,44.85c0-0.296,0.062-0.633,0.192-1.008
			c0.127-0.374,0.335-0.726,0.624-1.056c0.288-0.329,0.672-0.606,1.153-0.833c0.479-0.226,1.078-0.34,1.794-0.34
			c0.448,0,0.872,0.052,1.268,0.155c0.397,0.104,0.742,0.262,1.036,0.475c0.296,0.213,0.528,0.495,0.701,0.843
			c0.173,0.349,0.26,0.763,0.26,1.24c0,0.439-0.07,0.866-0.211,1.28c-0.141,0.413-0.365,0.781-0.672,1.104
			c-0.307,0.323-0.695,0.585-1.163,0.785c-0.467,0.201-1.027,0.3-1.679,0.3c-1.125,0-1.959-0.267-2.496-0.804
			C59.498,46.456,59.229,45.742,59.229,44.85z"/>
		<path d="M72.688,53.581c0.715-0.88,1.372-1.587,1.967-2.122c0.597-0.535,1.188-0.802,1.777-0.802c0.754,0,1.426,0.165,2.016,0.495
			c0.587,0.329,1.088,0.766,1.498,1.31c0.409,0.544,0.722,1.171,0.94,1.879c0.219,0.711,0.325,1.451,0.325,2.223
			c0,0.659-0.025,1.281-0.076,1.866c-0.052,0.587-0.143,1.162-0.278,1.724c-0.134,0.56-0.32,1.117-0.557,1.671
			c-0.237,0.556-0.548,1.128-0.931,1.724c0.461-0.271,0.928-0.538,1.401-0.794c0.472-0.258,0.95-0.541,1.429-0.853
			c0.48-0.309,0.963-0.654,1.451-1.033c0.484-0.381,0.985-0.829,1.498-1.345l1.479,3.192c-0.704,0.641-1.405,1.201-2.104,1.677
			c-0.698,0.476-1.414,0.89-2.15,1.244c-0.736,0.353-1.503,0.657-2.304,0.916c-0.801,0.257-1.648,0.488-2.545,0.694
			c-0.217,0.217-0.515,0.435-0.894,0.652c-0.377,0.219-0.753,0.418-1.125,0.595c-0.422,0.205-0.878,0.403-1.365,0.596H73.66
			c-1.999,0-3.082-0.025-3.25-0.077c-1.537-0.421-2.506-0.754-2.902-0.997c-0.73-0.475-1.436-0.962-2.115-1.46
			c0.038-1.037,0.115-2.209,0.23-3.516c0.089-1.14,0.226-2.526,0.405-4.165c0.26-2.417,0.507-4.193,0.74-5.318
			c0.116-1.267,0.272-2.668,0.467-4.204c0.208-1.175,0.468-2.643,0.778-4.404c0.312-1.762,0.728-3.387,1.247-4.879
			c0.518-1.49,1.094-2.819,1.728-3.984c0.633-1.164,1.324-2.099,2.073-2.803c0.75-0.704,1.558-1.056,2.431-1.056
			c0.971,0,1.753,0.167,2.342,0.499c0.588,0.333,1.041,0.785,1.363,1.354c0.317,0.57,0.529,1.238,0.634,2.006
			c0.102,0.768,0.152,1.587,0.152,2.458c0,1.212-0.229,2.462-0.68,3.751c-0.456,1.289-1.047,2.573-1.778,3.855
			c-0.729,1.282-1.545,2.537-2.447,3.761c-0.903,1.224-1.802,2.379-2.696,3.463L72.688,53.581z M74.414,54.958
			c-0.449,0-0.897,0.095-1.347,0.283c-0.445,0.188-0.862,0.48-1.247,0.878c-0.383,0.396-0.723,0.905-1.018,1.53
			c-0.578,1.211-0.795,1.951-0.654,2.224c0,0.023-0.089,0.794-0.266,2.306c-0.07,0.572-0.128,1.082-0.177,1.524
			c-0.063,0.517-0.118,0.997-0.168,1.449c0.422,0.129,0.845,0.237,1.269,0.328c0.369,0.075,0.76,0.082,1.171,0.018
			c0.409-0.062,0.797-0.096,1.171-0.096c0.434,0,0.831-0.129,1.189-0.386c0.357-0.26,0.679-0.604,0.959-1.036
			c0.28-0.431,0.524-0.924,0.73-1.479c0.203-0.556,0.37-1.132,0.499-1.731c0.128-0.599,0.223-1.191,0.289-1.778
			c0.062-0.586,0.096-1.125,0.096-1.616c0-0.32-0.036-0.629-0.105-0.917c-0.071-0.29-0.199-0.547-0.383-0.767
			c-0.188-0.217-0.445-0.393-0.772-0.531C75.327,55.023,74.913,54.958,74.414,54.958z M76.297,37.447
			c0-0.051-0.009-0.159-0.028-0.327c-0.019-0.167-0.062-0.339-0.131-0.519c-0.071-0.179-0.17-0.338-0.297-0.479
			c-0.126-0.141-0.297-0.211-0.514-0.211c-0.254,0-0.519,0.183-0.791,0.547c-0.271,0.366-0.541,0.859-0.807,1.48
			c-0.269,0.622-0.527,1.338-0.78,2.151c-0.254,0.814-0.5,1.666-0.741,2.557c-0.241,0.891-0.459,1.799-0.65,2.726
			c-0.195,0.927-0.375,1.801-0.546,2.621c-0.171,0.821-0.328,1.572-0.471,2.255c-0.141,0.682-0.256,1.236-0.345,1.663
			c0.343-0.667,0.729-1.359,1.154-2.079c0.427-0.718,0.855-1.464,1.286-2.238c0.432-0.774,0.857-1.568,1.27-2.382
			c0.413-0.811,0.786-1.644,1.123-2.496c0.339-0.851,0.616-1.714,0.839-2.591C76.09,39.249,76.233,38.356,76.297,37.447z"/>
		<path d="M91.312,53.581c0.716-0.88,1.372-1.587,1.968-2.122c0.594-0.535,1.188-0.802,1.776-0.802c0.752,0,1.426,0.165,2.016,0.495
			c0.587,0.329,1.088,0.766,1.498,1.31c0.409,0.544,0.723,1.171,0.94,1.879c0.217,0.711,0.325,1.451,0.325,2.223
			c0,0.659-0.025,1.281-0.075,1.866c-0.053,0.587-0.146,1.162-0.279,1.724c-0.134,0.56-0.32,1.117-0.557,1.671
			c-0.237,0.556-0.547,1.128-0.931,1.724c0.461-0.271,0.928-0.538,1.401-0.794c0.473-0.258,0.951-0.541,1.429-0.853
			c0.48-0.309,0.961-0.654,1.451-1.033c0.485-0.381,0.985-0.829,1.496-1.345l1.48,3.192c-0.704,0.641-1.405,1.201-2.103,1.677
			c-0.699,0.476-1.415,0.89-2.151,1.244c-0.738,0.353-1.505,0.657-2.303,0.916c-0.802,0.257-1.649,0.488-2.545,0.694
			c-0.218,0.217-0.518,0.435-0.895,0.652c-0.378,0.219-0.753,0.418-1.125,0.595c-0.422,0.205-0.878,0.403-1.364,0.596h-0.481
			c-2,0-3.082-0.025-3.25-0.077c-1.537-0.421-2.507-0.754-2.903-0.997c-0.731-0.475-1.437-0.962-2.116-1.46
			c0.039-1.037,0.115-2.209,0.23-3.516c0.091-1.14,0.227-2.526,0.406-4.165c0.262-2.417,0.506-4.193,0.74-5.318
			c0.115-1.267,0.272-2.668,0.467-4.204c0.207-1.175,0.468-2.643,0.779-4.404c0.311-1.762,0.727-3.387,1.245-4.879
			c0.519-1.49,1.097-2.819,1.73-3.984c0.633-1.164,1.323-2.099,2.072-2.803c0.75-0.704,1.557-1.056,2.43-1.056
			c0.971,0,1.751,0.167,2.343,0.499c0.587,0.333,1.041,0.785,1.361,1.354c0.318,0.57,0.53,1.238,0.635,2.006
			c0.101,0.768,0.152,1.587,0.152,2.458c0,1.212-0.228,2.462-0.68,3.751c-0.456,1.289-1.047,2.573-1.777,3.855
			c-0.729,1.282-1.545,2.537-2.447,3.761c-0.903,1.224-1.803,2.379-2.699,3.463L91.312,53.581z M93.038,54.958
			c-0.448,0-0.896,0.095-1.347,0.283c-0.445,0.188-0.864,0.48-1.246,0.878c-0.386,0.396-0.724,0.905-1.018,1.53
			c-0.579,1.211-0.796,1.951-0.657,2.224c0,0.023-0.087,0.794-0.264,2.306c-0.07,0.572-0.13,1.082-0.177,1.524
			c-0.062,0.517-0.119,0.997-0.167,1.449c0.423,0.129,0.844,0.237,1.269,0.328c0.369,0.075,0.76,0.082,1.171,0.018
			c0.409-0.062,0.797-0.096,1.171-0.096c0.434,0,0.832-0.129,1.19-0.386c0.356-0.26,0.676-0.604,0.958-1.036
			c0.281-0.431,0.524-0.924,0.731-1.479c0.202-0.556,0.37-1.132,0.498-1.731c0.126-0.599,0.224-1.191,0.289-1.778
			c0.062-0.586,0.096-1.125,0.096-1.616c0-0.32-0.036-0.629-0.105-0.917c-0.071-0.29-0.199-0.547-0.385-0.767
			c-0.187-0.217-0.443-0.393-0.77-0.531C93.951,55.023,93.537,54.958,93.038,54.958z M94.922,37.447c0-0.051-0.01-0.159-0.029-0.327
			c-0.018-0.167-0.062-0.339-0.131-0.519c-0.073-0.179-0.17-0.338-0.296-0.479c-0.129-0.141-0.3-0.211-0.515-0.211
			c-0.256,0-0.518,0.183-0.791,0.547c-0.271,0.366-0.541,0.859-0.809,1.48c-0.266,0.622-0.527,1.338-0.778,2.151
			c-0.254,0.814-0.5,1.666-0.74,2.557c-0.244,0.891-0.46,1.799-0.653,2.726c-0.192,0.927-0.373,1.801-0.544,2.621
			c-0.171,0.821-0.327,1.572-0.472,2.255c-0.141,0.682-0.256,1.236-0.344,1.663c0.343-0.667,0.729-1.359,1.153-2.079
			c0.427-0.718,0.854-1.464,1.286-2.238c0.432-0.774,0.855-1.568,1.268-2.382c0.416-0.811,0.789-1.644,1.125-2.496
			c0.337-0.851,0.616-1.714,0.839-2.591C94.715,39.249,94.857,38.356,94.922,37.447z"/>
		<path d="M115.39,64.999c-0.461,0.424-1.036,0.873-1.72,1.353c-0.684,0.482-1.424,0.923-2.218,1.326
			c-0.793,0.404-1.604,0.739-2.428,1.007c-0.825,0.27-1.61,0.404-2.353,0.404c-0.668,0-1.227-0.091-1.68-0.279
			c-0.456-0.185-0.824-0.442-1.104-0.777c-0.281-0.333-0.484-0.739-0.604-1.22c-0.123-0.479-0.182-1.008-0.182-1.584
			c0-0.807,0.087-1.747,0.27-2.822c0.367-2.223,0.604-3.473,0.71-3.747c0.175-0.546,0.524-1.758,1.048-3.635
			c0.485-1.527,0.785-2.522,0.898-2.984c0.062-0.324,0.239-0.615,0.527-0.875c0.265-0.231,0.562-0.423,0.896-0.572
			c0.334-0.148,0.681-0.259,1.037-0.33c0.359-0.071,0.685-0.106,0.971-0.106c0.528,0,0.889,0.099,1.076,0.297
			c0.19,0.199,0.284,0.464,0.284,0.796c0,0.282-0.064,0.681-0.199,1.194c-0.129,0.514-0.28,1.1-0.447,1.757
			c-0.169,0.658-0.419,1.504-0.748,2.537c-0.331,1.034-0.556,1.915-0.676,2.646c-0.121,0.728-0.273,1.453-0.455,2.173
			c-0.187,0.719-0.278,1.374-0.278,1.961c0,0.577,0.063,1.035,0.191,1.374c0.127,0.339,0.392,0.508,0.789,0.508
			c0.459,0,0.97-0.16,1.536-0.479c0.562-0.319,1.132-0.707,1.709-1.162c0.576-0.455,1.138-0.926,1.689-1.412
			c0.547-0.484,1.035-0.901,1.459-1.247V64.999z M106.807,44.85c0-0.296,0.062-0.633,0.19-1.008
			c0.129-0.374,0.337-0.726,0.624-1.056c0.289-0.329,0.674-0.606,1.154-0.833c0.479-0.226,1.076-0.34,1.793-0.34
			c0.448,0,0.87,0.052,1.269,0.155c0.396,0.104,0.741,0.262,1.038,0.475c0.293,0.213,0.527,0.495,0.699,0.843
			c0.174,0.349,0.259,0.763,0.259,1.24c0,0.439-0.07,0.866-0.212,1.28c-0.141,0.413-0.364,0.781-0.671,1.104
			c-0.306,0.323-0.695,0.585-1.161,0.785c-0.469,0.201-1.027,0.3-1.68,0.3c-1.129,0-1.96-0.267-2.496-0.804
			C107.076,46.456,106.807,45.742,106.807,44.85z"/>
		<path d="M130,64.789c-1.23,0.716-2.328,1.343-3.289,1.881c-0.961,0.537-1.816,0.985-2.566,1.345
			c-0.75,0.359-1.415,0.626-1.999,0.807c-0.584,0.18-1.112,0.268-1.586,0.268c-0.969,0-1.82-0.295-2.56-0.883
			c-0.736-0.589-1.356-1.436-1.852-2.544c-0.497-1.106-0.868-2.448-1.116-4.023c-0.251-1.576-0.373-3.347-0.373-5.319
			c0-0.769,0.03-1.586,0.095-2.457c0.062-0.871,0.152-1.735,0.267-2.593c-0.386-0.058-0.685-0.111-0.898-0.16
			c-0.215-0.05-0.438-0.1-0.678-0.151c-0.239-0.048-0.541-0.103-0.908-0.159c-0.367-0.057-0.898-0.128-1.593-0.213
			c-0.312-0.044-0.55-0.125-0.717-0.246c-0.168-0.121-0.288-0.264-0.368-0.427c-0.076-0.164-0.12-0.335-0.134-0.514
			c-0.013-0.177-0.019-0.33-0.019-0.458c0-0.203,0.125-0.357,0.376-0.462c0.249-0.106,0.572-0.186,0.965-0.239
			c0.392-0.053,0.823-0.083,1.294-0.089c0.469-0.007,0.919-0.004,1.351,0.009c0.431,0.013,0.817,0.023,1.157,0.029
			c0.34,0.006,0.575-0.002,0.704-0.028c0.345-1.724,0.783-3.393,1.312-5.007c0.533-1.615,1.125-3.05,1.783-4.308
			c0.656-1.257,1.378-2.265,2.156-3.024c0.779-0.76,1.598-1.14,2.454-1.14c0.549,0,1.054,0.153,1.507,0.461
			c0.454,0.307,0.844,0.716,1.16,1.227c0.322,0.512,0.57,1.11,0.743,1.794c0.172,0.684,0.26,1.397,0.26,2.139
			c0,0.614-0.091,1.262-0.27,1.944c-0.18,0.683-0.423,1.378-0.733,2.085c-0.307,0.708-0.667,1.424-1.083,2.151
			c-0.414,0.726-0.855,1.446-1.314,2.159c0.116-0.042,0.308-0.049,0.576-0.025c0.27,0.026,0.578,0.045,0.933,0.055
			c0.35,0.011,0.732,0.021,1.143,0.03c0.409,0.011,0.807,0.022,1.188,0.036c0.386,0.013,0.743,0.025,1.075,0.038
			c0.334,0.013,0.608,0.026,0.828,0.038c0.255,0.015,0.439,0.158,0.556,0.428c0.115,0.27,0.173,0.612,0.173,1.026
			c0,0.477-0.129,0.866-0.387,1.167c-0.255,0.301-0.538,0.451-0.844,0.451h-7.381c-0.372,0.513-0.75,1.015-1.128,1.506
			c-0.379,0.494-0.73,0.938-1.051,1.335c-0.052,0.795-0.097,1.574-0.134,2.342c-0.015,0.333-0.029,0.677-0.038,1.028
			c-0.015,0.353-0.029,0.699-0.041,1.045c-0.012,0.346-0.021,0.68-0.026,0.998c-0.008,0.321-0.01,0.616-0.01,0.883
			c0,0.691,0.062,1.275,0.191,1.749c0.128,0.473,0.313,0.86,0.558,1.161c0.247,0.301,0.544,0.519,0.897,0.651
			c0.354,0.137,0.748,0.204,1.187,0.204c0.27,0,0.604-0.063,1.008-0.194c0.403-0.127,0.846-0.303,1.327-0.527
			c0.479-0.222,0.987-0.489,1.517-0.796c0.533-0.307,1.059-0.644,1.577-1.007c0.519-0.367,1.016-0.75,1.489-1.153
			c0.473-0.404,0.901-0.816,1.288-1.238V64.789z M123.856,40.475c0-0.14-0.01-0.297-0.029-0.469
			c-0.02-0.172-0.061-0.335-0.128-0.487c-0.063-0.154-0.162-0.281-0.297-0.383c-0.134-0.103-0.324-0.152-0.566-0.152
			c-0.336,0-0.675,0.292-1.015,0.877c-0.34,0.583-0.667,1.331-0.981,2.238c-0.318,0.909-0.611,1.91-0.886,3.003
			c-0.278,1.094-0.532,2.154-0.763,3.184c0.193,0.02,0.384,0.036,0.576,0.05c0.194,0.015,0.393,0.032,0.601,0.05
			c0.383-0.645,0.786-1.344,1.203-2.097c0.419-0.753,0.793-1.492,1.126-2.22c0.334-0.727,0.611-1.407,0.831-2.038
			C123.745,41.397,123.856,40.879,123.856,40.475z"/>
	</g>
</g>
<g id="Layer_1">
</g>
</svg>
