<?xml version="1.0" encoding="iso-8859-1"?>
<!-- Generator: Adobe Illustrator 18.1.0, SVG Export Plug-In . SVG Version: 6.00 Build 0)  -->
<!DOCTYPE svg PUBLIC "-//W3C//DTD SVG 1.1//EN" "http://www.w3.org/Graphics/SVG/1.1/DTD/svg11.dtd">
<svg version="1.1" xmlns="http://www.w3.org/2000/svg" xmlns:xlink="http://www.w3.org/1999/xlink" x="0px" y="0px"
	 viewBox="0 0 140 105" style="enable-background:new 0 0 140 105;" xml:space="preserve">
<g id="trainertracker">
	<g>
		<g>
			<g>
				<path style="fill:#FA5B05;" d="M43.303,49.028v9.628h-1.335v-9.628h-3.424v-1.272h8.183v1.272H43.303z"/>
				<path style="fill:#FA5B05;" d="M48.548,51.698c-1.398-0.078-2.592,0.66-2.592,2.278v4.681h-1.334v-8.089h1.288v0.911
					c0.613-0.864,1.712-1.209,2.639-1.099V51.698z"/>
				<path style="fill:#FA5B05;" d="M54.756,57.729c-0.581,0.707-1.523,1.115-2.78,1.115c-1.665,0-3.157-0.754-3.157-2.497
					c0-1.665,1.209-2.419,3.298-2.529c1.979-0.094,2.623-0.455,2.623-1.1c0-0.644-0.612-1.13-1.979-1.13
					c-0.848,0-1.963,0.267-2.104,1.445h-1.382c0.094-1.618,1.429-2.67,3.502-2.67c2.167,0,3.267,1.005,3.267,2.513v4.46
					c0,0.408,0.11,1.005,0.236,1.319h-1.32C54.851,58.42,54.772,58.106,54.756,57.729z M54.74,54.306
					c-0.533,0.471-1.492,0.581-2.45,0.644c-1.759,0.11-2.152,0.723-2.152,1.398c0,0.88,0.848,1.256,1.885,1.256
					c1.382,0,2.686-0.597,2.717-2.058V54.306z"/>
				<path style="fill:#FA5B05;" d="M58.91,49.342h-1.335v-1.586h1.335V49.342z M58.91,58.656h-1.335v-8.089h1.335V58.656z"/>
				<path style="fill:#FA5B05;" d="M67.193,58.656h-1.32V53.74c0-1.241-0.691-2.152-1.979-2.152c-1.225,0-2.121,0.911-2.121,2.12
					v4.948h-1.334v-8.089h1.288v0.879c0.549-0.675,1.382-1.083,2.356-1.083c1.979,0,3.11,1.414,3.11,3.424V58.656z"/>
				<path style="fill:#FA5B05;" d="M76.101,56.143c-0.565,1.729-1.947,2.702-3.816,2.702c-2.325,0-4.146-1.854-4.146-4.225
					c0-2.341,1.822-4.257,4.067-4.257c2.09,0,4.1,1.727,4.084,4.602h-6.801c0.172,1.681,1.461,2.67,2.796,2.67
					c1.146,0,1.963-0.549,2.403-1.492H76.101z M74.812,53.771c-0.329-1.32-1.429-2.199-2.607-2.199
					c-1.115,0-2.292,0.817-2.638,2.199H74.812z"/>
				<path style="fill:#FA5B05;" d="M81.187,51.698c-1.397-0.078-2.592,0.66-2.592,2.278v4.681H77.26v-8.089h1.288v0.911
					c0.612-0.864,1.712-1.209,2.639-1.099V51.698z"/>
				<path style="fill:#000826;" d="M85.144,49.688v8.969h-2.073v-8.969H80.15v-1.932h7.915v1.932H85.144z"/>
				<path style="fill:#000826;" d="M91.352,52.42c-0.832-0.094-1.523,0-1.994,0.503c-0.44,0.456-0.519,1.115-0.519,1.76v3.974
					h-2.073v-8.089h1.979v0.801c0.66-0.817,1.634-1.115,2.607-0.958V52.42z"/>
				<path style="fill:#000826;" d="M97.669,57.902c-0.534,0.565-1.351,0.91-2.482,0.91c-1.712,0-3.282-0.863-3.282-2.622
					c0-1.822,1.523-2.293,3.313-2.45c1.352-0.126,2.31-0.283,2.31-0.942c0-0.424-0.55-0.77-1.477-0.77
					c-0.738,0-1.587,0.33-1.774,1.021h-2.074c0.204-1.539,1.681-2.686,3.801-2.686c3.283,0,3.534,2.121,3.534,2.764v4.21
					c0,0.393,0.126,1.005,0.236,1.319h-1.901C97.778,58.451,97.716,58.2,97.669,57.902z M97.605,54.761
					c-0.439,0.283-1.115,0.425-1.964,0.519c-1.021,0.109-1.648,0.33-1.648,0.927c0,0.455,0.534,0.77,1.366,0.77
					c1.241,0,2.246-0.424,2.246-1.461V54.761z"/>
				<path style="fill:#000826;" d="M104.487,58.845c-2.435,0-4.179-1.885-4.179-4.225c0-2.341,1.744-4.257,4.179-4.257
					c1.947,0,3.424,1.1,3.895,2.921h-2.214c-0.283-0.549-0.927-1.021-1.681-1.021c-1.147,0-2.073,1.068-2.073,2.371
					c0,1.272,0.926,2.325,2.073,2.325c0.769,0,1.429-0.472,1.696-1.037h2.214C107.927,57.761,106.45,58.845,104.487,58.845z"/>
				<path style="fill:#000826;" d="M111.192,56.332v2.324h-2.073V46.971h2.073v6.534l2.654-2.938h2.858l-3.016,3.157l3.188,4.932
					h-2.639l-2.011-3.408L111.192,56.332z"/>
				<path style="fill:#000826;" d="M118.474,55.42c0.267,0.99,1.052,1.603,2.025,1.603c0.691,0,1.367-0.298,1.712-0.942h2.215
					c-0.472,1.649-1.9,2.765-3.911,2.765c-2.277,0-4.146-1.885-4.146-4.225c0-2.341,1.869-4.257,4.146-4.257
					c2.388,0,4.366,1.854,4.068,5.057H118.474z M122.525,53.725c-0.252-0.943-1.037-1.54-2.026-1.54
					c-0.942,0-1.696,0.597-1.994,1.54H122.525z"/>
				<path style="fill:#000826;" d="M130,52.42c-0.832-0.094-1.523,0-1.994,0.503c-0.44,0.456-0.519,1.115-0.519,1.76v3.974h-2.073
					v-8.089h1.979v0.801c0.659-0.817,1.633-1.115,2.606-0.958V52.42z"/>
			</g>
		</g>
		<g>
			<g>
				<path style="fill:#FA5B05;" d="M26.87,50.939v-2.85h2.248c0.416,0,0.756,0.34,0.756,0.756v7.309c0,0.416-0.34,0.756-0.756,0.756
					H26.87v-2.85h-4.055v-3.121H26.87z"/>
			</g>
			<g>
				<g>
					<g>
						<g>
							<g>
								<path style="fill:#000826;" d="M17.876,50.939v-2.85h-2.247c-0.416,0-0.756,0.34-0.756,0.756v7.309
									c0,0.416,0.34,0.756,0.756,0.756h2.247v-2.85h4.056v-3.121H17.876z"/>
							</g>
						</g>
						<rect x="17.877" y="51.446" style="opacity:0.6;fill:#FFFFFF;" width="3.411" height="0.652"/>
						<rect x="23.459" y="51.446" style="opacity:0.6;fill:#FFFFFF;" width="3.411" height="0.652"/>
					</g>
				</g>
			</g>
			<g>
				<g>
					<path style="fill:#FA5B05;" d="M22.282,64.782C15.509,64.782,10,59.272,10,52.5c0-6.772,5.509-12.282,12.282-12.282
						c6.772,0,12.282,5.51,12.282,12.282C34.563,59.272,29.054,64.782,22.282,64.782z M22.282,42.651
						c-5.431,0-9.849,4.418-9.849,9.849s4.418,9.85,9.849,9.85c5.431,0,9.849-4.419,9.849-9.85S27.712,42.651,22.282,42.651z"/>
				</g>
			</g>
		</g>
	</g>
</g>
<g id="Layer_1">
</g>
</svg>
