<?xml version="1.0" encoding="iso-8859-1"?>
<!-- Generator: Adobe Illustrator 18.1.0, SVG Export Plug-In . SVG Version: 6.00 Build 0)  -->
<!DOCTYPE svg PUBLIC "-//W3C//DTD SVG 1.1//EN" "http://www.w3.org/Graphics/SVG/1.1/DTD/svg11.dtd">
<svg version="1.1" xmlns="http://www.w3.org/2000/svg" xmlns:xlink="http://www.w3.org/1999/xlink" x="0px" y="0px"
	 viewBox="0 0 140 105" style="enable-background:new 0 0 140 105;" xml:space="preserve">
<g id="ampvita">
	<g>
		<g>
			<path style="fill:#FF6633;" d="M23.913,38.587C16.229,38.587,10,44.816,10,52.5c0,7.684,6.229,13.913,13.913,13.913
				S37.826,60.184,37.826,52.5C37.826,44.816,31.597,38.587,23.913,38.587z M16.568,44.766c0.429-0.215,0.952-0.04,1.167,0.389
				l1.739,3.478c0.214,0.43,0.041,0.952-0.389,1.167c-0.125,0.062-0.257,0.092-0.388,0.092c-0.319,0-0.626-0.176-0.778-0.481
				l-1.739-3.479C15.964,45.503,16.138,44.98,16.568,44.766z M26.43,56.367l-1.739,3.479c-0.147,0.295-0.449,0.48-0.778,0.48
				c-0.33,0-0.63-0.186-0.778-0.48l-1.739-3.479c-0.214-0.43-0.041-0.952,0.389-1.166c0.429-0.216,0.952-0.041,1.167,0.389
				l0.961,1.922l0.961-1.922c0.215-0.43,0.737-0.604,1.167-0.389C26.471,55.415,26.645,55.938,26.43,56.367z M31.258,60.234
				c-0.125,0.062-0.257,0.092-0.388,0.092c-0.319,0-0.626-0.176-0.778-0.48l-3.238-6.476h-5.882l-3.238,6.476
				c-0.215,0.43-0.737,0.604-1.167,0.389c-0.43-0.215-0.604-0.737-0.389-1.167l6.957-13.913c0.147-0.295,0.448-0.481,0.778-0.481
				c0.329,0,0.63,0.186,0.778,0.481l6.957,13.913C31.862,59.497,31.688,60.02,31.258,60.234z M31.647,45.932l-1.739,3.479
				c-0.152,0.305-0.459,0.481-0.778,0.481c-0.131,0-0.264-0.03-0.388-0.092c-0.43-0.215-0.604-0.737-0.389-1.167l1.739-3.478
				c0.215-0.43,0.737-0.604,1.167-0.389C31.688,44.98,31.862,45.503,31.647,45.932z"/>
			<polygon style="fill:#FF6633;" points="21.842,51.63 25.984,51.63 23.913,47.488 			"/>
		</g>
		<g>
			<path style="fill:#FF6633;" d="M55.062,60.326h-2.974l-1.342-3.779h-5.21l-1.341,3.779h-2.974l5.568-15.652h2.705L55.062,60.326z
				 M49.763,53.774l-1.632-4.584l-1.61,4.584H49.763z"/>
			<path style="fill:#FF6633;" d="M72.685,60.326h-2.974l-1.342-10.487l-4.002,7.2l-4.025-7.178L59,60.326h-2.974l2.169-15.652
				h2.348l3.823,7.133l3.801-7.133h2.348L72.685,60.326z"/>
			<path style="fill:#FF6633;" d="M80.455,55.184H77.66v5.143h-2.863V44.674h4.428c1.133,0,2.121,0.063,2.963,0.19
				c0.842,0.127,1.539,0.373,2.091,0.738c0.552,0.365,0.965,0.871,1.241,1.52c0.275,0.648,0.414,1.487,0.414,2.516
				c0,1.088-0.172,1.987-0.516,2.695c-0.342,0.708-0.781,1.274-1.318,1.699c-0.537,0.426-1.129,0.724-1.777,0.895
				C81.674,55.098,81.051,55.184,80.455,55.184z M80.008,47.066H77.66V52.5h2.414c1.059,0,1.814-0.212,2.27-0.637
				c0.455-0.425,0.683-1.159,0.683-2.203c0-0.462-0.049-0.857-0.146-1.185c-0.098-0.328-0.262-0.596-0.492-0.805
				c-0.23-0.208-0.541-0.361-0.928-0.458C81.073,47.115,80.589,47.066,80.008,47.066z"/>
			<path style="fill:#FF6633;" d="M100.633,44.674l-5.501,15.652h-3.488l-5.635-15.652h2.974l4.383,11.873l4.316-11.873H100.633z"/>
			<path style="fill:#FF6633;" d="M104.789,60.326h-2.861V44.674h2.861V60.326z"/>
			<path style="fill:#FF6633;" d="M117.922,47.446h-4.428v12.88h-2.862v-12.88h-4.427v-2.772h11.717V47.446z"/>
			<path style="fill:#FF6633;" d="M130,60.326h-2.975l-1.341-3.779h-5.21l-1.342,3.779h-2.974l5.567-15.652h2.705L130,60.326z
				 M124.701,53.774l-1.633-4.584l-1.61,4.584H124.701z"/>
		</g>
	</g>
</g>
<g id="Layer_1">
</g>
</svg>
