<?xml version="1.0" encoding="iso-8859-1"?>
<!-- Generator: Adobe Illustrator 18.1.0, SVG Export Plug-In . SVG Version: 6.00 Build 0)  -->
<!DOCTYPE svg PUBLIC "-//W3C//DTD SVG 1.1//EN" "http://www.w3.org/Graphics/SVG/1.1/DTD/svg11.dtd">
<svg version="1.1" xmlns="http://www.w3.org/2000/svg" xmlns:xlink="http://www.w3.org/1999/xlink" x="0px" y="0px"
	 viewBox="0 0 140 105" style="enable-background:new 0 0 140 105;" xml:space="preserve">
<g id="parallel">
	<path style="fill:#7ECDC3;" d="M86.875,19.688h-2.5v28.438h-3.75V27.5h-2.5v20.625h-3.75V33.75h-2.5v14.375h-3.75v-9.688h-2.5
		v9.688h-3.75v-6.562h-2.5v6.562h-3.75v-5h-2.5v5H20v2.5h33.125v3.75H20v2.5h33.125v5h2.5v-5h3.75v6.562h2.5v-6.562h3.75v9.688h2.5
		v-9.688h3.75V71.25h2.5V56.875h3.75V77.5h2.5V56.875h3.75v28.438h2.5V56.875H120v-2.5H86.875v-3.75H120v-2.5H86.875V19.688z
		 M59.375,54.375h-3.75v-3.75h3.75V54.375z M65.625,54.375h-3.75v-3.75h3.75V54.375z M71.875,54.375h-3.75v-3.75h3.75V54.375z
		 M78.125,54.375h-3.75v-3.75h3.75V54.375z M84.375,54.375h-3.75v-3.75h3.75V54.375z"/>
</g>
<g id="Layer_1">
</g>
</svg>
