<?xml version="1.0" encoding="iso-8859-1"?>
<!-- Generator: Adobe Illustrator 18.1.0, SVG Export Plug-In . SVG Version: 6.00 Build 0)  -->
<!DOCTYPE svg PUBLIC "-//W3C//DTD SVG 1.1//EN" "http://www.w3.org/Graphics/SVG/1.1/DTD/svg11.dtd">
<svg version="1.1" xmlns="http://www.w3.org/2000/svg" xmlns:xlink="http://www.w3.org/1999/xlink" x="0px" y="0px"
	 viewBox="0 0 140 105" style="enable-background:new 0 0 140 105;" xml:space="preserve">
<g id="terpgear">
	<g>
		<g>
			<g>
				<path style="fill:#DC452A;" d="M53.108,61.306c-1.252,0.564-2.65,1.016-4.194,1.354c-1.866,0.41-3.651,0.523-5.358,0.342
					c-1.706-0.182-3.254-0.662-4.644-1.443c-1.392-0.781-2.584-1.871-3.58-3.271c-0.995-1.4-1.712-3.101-2.152-5.106
					c-0.4-1.82-0.498-3.562-0.295-5.224c0.203-1.662,0.735-3.173,1.595-4.534c0.861-1.36,2.057-2.54,3.588-3.54
					c1.531-1,3.425-1.748,5.683-2.243c1.59-0.349,2.929-0.521,4.015-0.518c1.087,0.003,1.904,0.041,2.452,0.114l0.785,5.225
					c-0.708-0.255-1.539-0.411-2.494-0.468c-0.954-0.056-1.984,0.038-3.089,0.28c-1.244,0.273-2.286,0.701-3.124,1.283
					c-0.838,0.582-1.475,1.283-1.911,2.103c-0.435,0.82-0.691,1.746-0.767,2.776c-0.076,1.031,0.016,2.134,0.273,3.308
					c0.258,1.176,0.627,2.194,1.106,3.054c0.478,0.861,1.034,1.547,1.665,2.061c0.632,0.516,1.313,0.866,2.043,1.057
					c0.73,0.188,1.475,0.199,2.235,0.034c0.416-0.091,0.8-0.206,1.156-0.345c0.356-0.139,0.643-0.315,0.861-0.533l-1.001-4.562
					l-3.283,0.721l-0.985-4.493l9.365-2.054l1.433,6.531V32.258H14v12.346l14.396-3.158l1.077,4.907l-5.184,1.137l4.215,19.213
					l-6.53,1.433l-4.215-19.213L14,49.747v22.995h40.484V60.627C54.079,60.848,53.622,61.072,53.108,61.306z"/>
			</g>
		</g>
		<g>
			<path style="fill:#333333;" d="M67.241,34.905h-2.003c-0.539,0-0.591,0.36-0.591,0.796v1.207l-2.619-0.179v-4.365h13.427v4.365
				l-2.619,0.179v-1.207c0-0.488-0.052-0.796-0.744-0.796h-1.746v12.271l2.029,0.077v2.183h-7.241v-2.08l1.361-0.077
				c0.488-0.051,0.745-0.206,0.745-0.719V34.905z"/>
			<path style="fill:#333333;" d="M78.587,49.436v-2.08l0.847-0.077c0.436-0.051,0.744-0.206,0.744-0.719V34.623l-1.462-0.077
				v-2.183h11.757v4.262l-2.619,0.18v-1.027c0-0.488-0.051-0.795-0.745-0.795H83.31v4.39h5.93v2.619h-5.93v4.801h4.132
				c0.669,0,0.72-0.309,0.72-0.821v-1.285l2.618,0.181v4.569H78.587z"/>
			<path style="fill:#333333;" d="M94.502,47.356l0.848-0.077c0.437-0.051,0.745-0.206,0.745-0.719V34.623l-1.465-0.077v-2.183
				h7.009c3.774,0,6.162,1.232,6.162,4.724c0,2.567-1.67,3.954-3.082,4.519c0.694,0.257,1.078,0.693,1.465,1.566l1.849,4.03
				l1.462,0.051v2.183h-6.341v-2.08l0.745-0.077c0.59-0.078,0.72-0.309,0.486-0.821l-1.206-2.567
				c-0.359-0.796-0.718-1.182-1.616-1.182h-2.337v4.467l1.668,0.077v2.183h-6.392V47.356z M101.46,40.271
				c2.182,0,3.158-1.002,3.158-2.824c0-2.311-1.337-2.594-3.519-2.594h-1.874v5.418H101.46z"/>
			<path style="fill:#333333;" d="M112.445,47.356l0.848-0.077c0.437-0.051,0.745-0.206,0.745-0.719V34.623l-1.465-0.077v-2.183
				h7.342c3.774,0,6.085,1.797,6.085,5.238c0,3.901-2.772,5.853-6.649,5.853h-2.183v3.722l2.466,0.077v2.183h-7.188V47.356z
				 M119.017,40.963c2.235,0,3.748-0.77,3.748-3.055c0-2.644-1.513-3.055-4.029-3.055h-1.567v6.11H119.017z"/>
			<path style="fill:#333333;" d="M76.123,70.918c-1.412,0.975-3.517,1.643-5.904,1.643c-4.646,0-7.548-2.85-7.548-8.805
				c0-6.65,4.492-8.882,8.189-8.882c1.721,0,3.492,0.333,5.032,1.052v4.363l-2.619,0.182v-2.003c0-0.488-0.077-0.694-0.539-0.847
				c-0.487-0.156-1.155-0.206-1.899-0.206c-3.44,0-4.955,2.31-4.955,6.136c0,4.031,1.334,6.469,4.466,6.469
				c1.001,0,2.208-0.281,2.722-0.615v-3.825h-0.025l-1.977-0.077v-2.183h6.392v2.054l-0.59,0.051
				c-0.539,0.053-0.745,0.23-0.745,0.848V70.918z"/>
			<path style="fill:#333333;" d="M78.972,72.254v-2.079l0.848-0.077c0.437-0.051,0.745-0.206,0.745-0.721V57.439L79.1,57.364
				v-2.183h11.759v4.262l-2.618,0.18v-1.027c0-0.488-0.053-0.795-0.745-0.795h-3.801v4.39h5.931v2.619h-5.931v4.8h4.134
				c0.667,0,0.72-0.308,0.72-0.821v-1.284l2.619,0.18v4.57H78.972z"/>
			<path style="fill:#333333;" d="M98.071,57.415l-1.618-0.153v-2.08h5.88l5.235,14.813h0.026l1.463,0.078v2.182h-6.622v-2.079
				l0.974-0.077c0.539-0.051,0.797-0.206,0.617-0.771l-0.54-1.593h-6.007l-0.771,2.26l1.54,0.078v2.182h-5.93v-2.079l0.848-0.077
				c0.437-0.051,0.59-0.231,0.771-0.721L98.071,57.415z M98.097,65.373h4.775l-2.312-7.316h-0.075L98.097,65.373z"/>
			<path style="fill:#333333;" d="M110.007,70.175l0.848-0.077c0.437-0.051,0.743-0.206,0.743-0.721V57.439l-1.463-0.075v-2.183
				h7.009c3.774,0,6.16,1.233,6.16,4.725c0,2.566-1.668,3.953-3.08,4.517c0.694,0.256,1.078,0.691,1.465,1.564l1.847,4.031
				l1.464,0.053v2.182h-6.341v-2.079l0.745-0.077c0.59-0.078,0.718-0.309,0.486-0.823l-1.206-2.566
				c-0.359-0.795-0.718-1.181-1.618-1.181h-2.335v4.467l1.668,0.078v2.182h-6.392V70.175z M116.963,63.089
				c2.182,0,3.158-1.001,3.158-2.825c0-2.31-1.335-2.593-3.517-2.593h-1.874v5.418H116.963z"/>
		</g>
	</g>
</g>
<g id="Layer_1">
</g>
</svg>
