<?xml version="1.0" encoding="iso-8859-1"?>
<!-- Generator: Adobe Illustrator 18.1.0, SVG Export Plug-In . SVG Version: 6.00 Build 0)  -->
<!DOCTYPE svg PUBLIC "-//W3C//DTD SVG 1.1//EN" "http://www.w3.org/Graphics/SVG/1.1/DTD/svg11.dtd">
<svg version="1.1" xmlns="http://www.w3.org/2000/svg" xmlns:xlink="http://www.w3.org/1999/xlink" x="0px" y="0px"
	 viewBox="0 0 140 105" style="enable-background:new 0 0 140 105;" xml:space="preserve">
<g id="viip">
	<g>
		<path style="fill:#2DA44A;" d="M41.017,82.164l18.371-45.491h-6.826c-0.714,0-1.312,0.199-1.792,0.598
			c-0.485,0.399-0.819,0.839-1.008,1.323L39.099,66.34c-0.713,1.846-1.311,3.975-1.794,6.385c-0.293-1.193-0.604-2.33-0.928-3.41
			c-0.326-1.082-0.667-2.072-1.023-2.975L24.658,38.594c-0.231-0.568-0.578-1.029-1.039-1.386c-0.461-0.357-1.059-0.535-1.792-0.535
			H15l18.373,45.491H41.017z"/>
		<rect x="62.457" y="36.673" style="fill:#2DA44A;" width="8.495" height="45.491"/>
		<rect x="79.733" y="36.673" style="fill:#2DA44A;" width="8.493" height="45.491"/>
		<path style="fill:#2DA44A;" d="M123.961,45.325c-0.692-1.783-1.763-3.313-3.209-4.593c-1.447-1.278-3.284-2.276-5.506-2.989
			c-2.224-0.712-4.855-1.069-7.895-1.069H92.533v45.491h8.462V66.15h6.356c2.955,0,5.534-0.365,7.737-1.1
			c2.202-0.734,4.037-1.762,5.505-3.082c1.469-1.322,2.569-2.9,3.304-4.736c0.733-1.836,1.103-3.854,1.103-6.055
			C125,49.057,124.655,47.107,123.961,45.325z M115.97,54.652c-0.378,1.037-0.942,1.918-1.697,2.643
			c-0.756,0.725-1.71,1.279-2.862,1.668c-1.155,0.389-2.506,0.582-4.059,0.582h-6.356V43.218h6.356c1.553,0,2.903,0.183,4.059,0.55
			c1.152,0.367,2.106,0.896,2.862,1.587c0.755,0.694,1.319,1.531,1.697,2.517c0.379,0.986,0.567,2.087,0.567,3.305
			C116.537,52.456,116.349,53.615,115.97,54.652z"/>
		<path style="fill:#2DA44A;" d="M70.612,30.122c0.229,0.57,0.556,1.089,0.956,1.541l-10.942,0.563l12.497,0.642
			c0.723,0.371,1.541,0.583,2.409,0.583c2.933,0,5.307-2.376,5.307-5.306c0-2.931-2.374-5.307-5.307-5.307
			c-0.859,0-1.668,0.209-2.387,0.571l-12.55,0.646l10.98,0.565c-0.431,0.484-0.774,1.045-1.006,1.664l-13.228,0.557l12.946,0.545
			c-0.035,0.249-0.06,0.501-0.06,0.76c0,0.298,0.031,0.589,0.078,0.874l-12.963,0.545L70.612,30.122z"/>
	</g>
</g>
<g id="Layer_1">
</g>
</svg>
