<?xml version="1.0" encoding="iso-8859-1"?>
<!-- Generator: Adobe Illustrator 18.1.0, SVG Export Plug-In . SVG Version: 6.00 Build 0)  -->
<!DOCTYPE svg PUBLIC "-//W3C//DTD SVG 1.1//EN" "http://www.w3.org/Graphics/SVG/1.1/DTD/svg11.dtd">
<svg version="1.1" xmlns="http://www.w3.org/2000/svg" xmlns:xlink="http://www.w3.org/1999/xlink" x="0px" y="0px"
	 viewBox="0 0 140 105" style="enable-background:new 0 0 140 105;" xml:space="preserve">
<g id="towardsthesun">
	<g>
		<path style="fill:#FF4E00;" d="M12.692,49.67h-2.016c-0.38,0-0.676-0.308-0.676-0.676c0-0.367,0.296-0.676,0.676-0.676h5.515
			c0.368,0,0.664,0.309,0.664,0.676c0,0.368-0.296,0.676-0.664,0.676h-2.028v6.286c0,0.404-0.332,0.723-0.735,0.723
			s-0.735-0.32-0.735-0.723V49.67z"/>
		<path style="fill:#FF4E00;" d="M17.523,52.493v-0.024c0-2.336,1.803-4.293,4.353-4.293s4.329,1.933,4.329,4.269v0.024
			c0,2.336-1.803,4.293-4.352,4.293C19.302,56.762,17.523,54.83,17.523,52.493z M24.674,52.493v-0.024
			c0-1.613-1.174-2.953-2.822-2.953c-1.649,0-2.799,1.317-2.799,2.929v0.024c0,1.613,1.174,2.941,2.823,2.941
			C23.524,55.41,24.674,54.106,24.674,52.493z"/>
		<path style="fill:#FF4E00;" d="M27.17,49.255c-0.035-0.083-0.059-0.19-0.059-0.285c0-0.403,0.344-0.712,0.747-0.712
			c0.356,0,0.629,0.225,0.723,0.534l1.91,5.705l1.874-5.681c0.118-0.344,0.367-0.581,0.735-0.581h0.107
			c0.367,0,0.629,0.238,0.735,0.581l1.873,5.681l1.91-5.717c0.107-0.296,0.356-0.522,0.712-0.522c0.391,0,0.723,0.309,0.723,0.7
			c0,0.095-0.036,0.213-0.071,0.296l-2.455,6.878c-0.13,0.368-0.403,0.605-0.759,0.605h-0.142c-0.356,0-0.617-0.226-0.747-0.605
			l-1.85-5.419l-1.85,5.419c-0.131,0.38-0.404,0.605-0.759,0.605h-0.142c-0.356,0-0.617-0.226-0.759-0.605L27.17,49.255z"/>
		<path style="fill:#FF4E00;" d="M39.429,55.671l3.083-6.878c0.166-0.368,0.463-0.593,0.878-0.593h0.071
			c0.415,0,0.7,0.225,0.866,0.593l3.084,6.878c0.059,0.107,0.083,0.214,0.083,0.309c0,0.391-0.296,0.699-0.688,0.699
			c-0.344,0-0.581-0.201-0.712-0.51l-0.676-1.554h-4.032l-0.7,1.601c-0.119,0.296-0.368,0.463-0.676,0.463
			c-0.38,0-0.676-0.296-0.676-0.676C39.334,55.897,39.369,55.79,39.429,55.671z M44.861,53.323l-1.459-3.357l-1.459,3.357H44.861z"
			/>
		<path style="fill:#FF4E00;" d="M49.076,49.054c0-0.415,0.32-0.735,0.735-0.735h2.966c1.043,0,1.862,0.309,2.395,0.83
			c0.439,0.45,0.689,1.067,0.689,1.791v0.024c0,1.328-0.772,2.135-1.886,2.478l1.59,2.004c0.142,0.178,0.237,0.332,0.237,0.557
			c0,0.404-0.344,0.676-0.699,0.676c-0.332,0-0.546-0.154-0.712-0.38l-2.016-2.573h-1.839v2.229c0,0.404-0.32,0.723-0.723,0.723
			c-0.415,0-0.735-0.32-0.735-0.723V49.054z M52.669,52.434c1.044,0,1.708-0.545,1.708-1.387v-0.024c0-0.889-0.641-1.376-1.72-1.376
			h-2.124v2.787H52.669z"/>
		<path style="fill:#FF4E00;" d="M57.655,49.054c0-0.415,0.321-0.735,0.736-0.735h2.36c2.609,0,4.411,1.791,4.411,4.127v0.024
			c0,2.336-1.802,4.151-4.411,4.151h-2.36c-0.415,0-0.736-0.321-0.736-0.735V49.054z M60.751,55.292c1.743,0,2.882-1.174,2.882-2.8
			v-0.024c0-1.625-1.139-2.823-2.882-2.823h-1.637v5.646H60.751z"/>
		<path style="fill:#FF4E00;" d="M66.602,55.695c-0.166-0.119-0.285-0.321-0.285-0.557c0-0.38,0.309-0.676,0.689-0.676
			c0.202,0,0.332,0.059,0.427,0.13c0.688,0.546,1.423,0.854,2.324,0.854s1.471-0.427,1.471-1.044v-0.023
			c0-0.593-0.332-0.914-1.874-1.269c-1.766-0.427-2.763-0.949-2.763-2.479v-0.024c0-1.423,1.186-2.407,2.834-2.407
			c1.044,0,1.886,0.273,2.633,0.771c0.166,0.095,0.32,0.296,0.32,0.581c0,0.38-0.308,0.676-0.688,0.676
			c-0.142,0-0.261-0.036-0.38-0.107c-0.64-0.415-1.257-0.629-1.909-0.629c-0.855,0-1.352,0.439-1.352,0.985v0.024
			c0,0.64,0.38,0.925,1.981,1.305c1.755,0.427,2.657,1.056,2.657,2.431v0.024c0,1.554-1.222,2.479-2.966,2.479
			C68.594,56.739,67.527,56.383,66.602,55.695z"/>
		<path style="fill:#FF4E00;" d="M80.011,49.67h-2.016c-0.38,0-0.676-0.308-0.676-0.676c0-0.367,0.296-0.676,0.676-0.676h5.515
			c0.367,0,0.663,0.309,0.663,0.676c0,0.368-0.296,0.676-0.663,0.676h-2.028v6.286c0,0.404-0.332,0.723-0.736,0.723
			c-0.403,0-0.735-0.32-0.735-0.723V49.67z"/>
		<path style="fill:#FF4E00;" d="M85.659,48.983c0-0.403,0.321-0.724,0.736-0.724c0.403,0,0.723,0.321,0.723,0.724v2.787h3.961
			v-2.787c0-0.403,0.32-0.724,0.723-0.724c0.415,0,0.735,0.321,0.735,0.724v6.973c0,0.404-0.32,0.723-0.735,0.723
			c-0.404,0-0.723-0.32-0.723-0.723v-2.834h-3.961v2.834c0,0.404-0.321,0.723-0.723,0.723c-0.415,0-0.736-0.32-0.736-0.723V48.983z"
			/>
		<path style="fill:#FF4E00;" d="M94.678,55.885v-6.832c0-0.415,0.321-0.735,0.736-0.735h4.827c0.356,0,0.653,0.296,0.653,0.652
			c0,0.368-0.296,0.652-0.653,0.652h-4.103v2.158h3.57c0.355,0,0.652,0.297,0.652,0.664c0,0.356-0.296,0.64-0.652,0.64h-3.57v2.23
			h4.163c0.355,0,0.652,0.296,0.652,0.653c0,0.367-0.296,0.652-0.652,0.652h-4.886C94.998,56.62,94.678,56.3,94.678,55.885z"/>
		<path style="fill:#FF4E00;" d="M105.975,55.695c-0.166-0.119-0.284-0.321-0.284-0.557c0-0.38,0.308-0.676,0.688-0.676
			c0.202,0,0.332,0.059,0.427,0.13c0.688,0.546,1.423,0.854,2.324,0.854s1.471-0.427,1.471-1.044v-0.023
			c0-0.593-0.332-0.914-1.873-1.269c-1.767-0.427-2.764-0.949-2.764-2.479v-0.024c0-1.423,1.186-2.407,2.834-2.407
			c1.044,0,1.886,0.273,2.633,0.771c0.166,0.095,0.32,0.296,0.32,0.581c0,0.38-0.308,0.676-0.688,0.676
			c-0.142,0-0.261-0.036-0.38-0.107c-0.64-0.415-1.257-0.629-1.909-0.629c-0.855,0-1.352,0.439-1.352,0.985v0.024
			c0,0.64,0.38,0.925,1.981,1.305c1.755,0.427,2.657,1.056,2.657,2.431v0.024c0,1.554-1.222,2.479-2.966,2.479
			C107.968,56.739,106.9,56.383,105.975,55.695z"/>
		<path style="fill:#FF4E00;" d="M113.653,53.098v-4.115c0-0.403,0.321-0.724,0.736-0.724c0.403,0,0.723,0.321,0.723,0.724v4.056
			c0,1.542,0.795,2.36,2.099,2.36c1.292,0,2.087-0.771,2.087-2.301v-4.115c0-0.403,0.321-0.724,0.736-0.724
			c0.403,0,0.723,0.321,0.723,0.724v4.044c0,2.479-1.4,3.724-3.57,3.724C115.029,56.751,113.653,55.506,113.653,53.098z"/>
		<path style="fill:#FF4E00;" d="M122.765,49.006c0-0.403,0.321-0.735,0.736-0.735h0.154c0.356,0,0.558,0.178,0.759,0.427
			l4.152,5.373v-5.1c0-0.391,0.32-0.712,0.712-0.712c0.403,0,0.723,0.321,0.723,0.712v6.974c0,0.404-0.308,0.723-0.712,0.723h-0.059
			c-0.345,0-0.558-0.178-0.759-0.438l-4.27-5.527v5.266c0,0.391-0.32,0.711-0.712,0.711c-0.403,0-0.723-0.32-0.723-0.711V49.006z"/>
	</g>
</g>
<g id="Layer_1">
</g>
</svg>
