<?xml version="1.0" encoding="iso-8859-1"?>
<!-- Generator: Adobe Illustrator 18.1.0, SVG Export Plug-In . SVG Version: 6.00 Build 0)  -->
<!DOCTYPE svg PUBLIC "-//W3C//DTD SVG 1.1//EN" "http://www.w3.org/Graphics/SVG/1.1/DTD/svg11.dtd">
<svg version="1.1" xmlns="http://www.w3.org/2000/svg" xmlns:xlink="http://www.w3.org/1999/xlink" x="0px" y="0px"
	 viewBox="0 0 140 105" style="enable-background:new 0 0 140 105;" xml:space="preserve">
<g id="hotdrop">
	<g>
		<g>
			<polyline style="fill:#FF6666;" points="34.472,40.657 34.472,88.028 58.157,88.028 58.157,64.343 81.843,64.343 81.843,88.028 
				105.528,88.028 105.528,40.657 			"/>
			<polygon style="fill:#BF4C4C;" points="107.5,90 79.87,90 79.87,66.315 60.129,66.315 60.129,90 32.5,90 32.5,40.657 
				36.444,40.657 36.444,86.057 56.185,86.057 56.185,62.37 83.815,62.37 83.815,86.057 103.557,86.057 103.557,40.657 
				107.5,40.657 			"/>
		</g>
		<g>
			<polygon style="fill:#FF6666;" points="34.472,16.972 34.472,52.5 70,76.186 105.528,52.5 105.528,16.972 81.843,16.972 
				81.843,40.657 58.157,40.657 58.157,16.972 			"/>
			<path style="fill:#BF4C4C;" d="M70,78.556L32.5,53.555V15h27.629v23.685H79.87V15h27.63v38.555L70,78.556z M36.444,51.445
				L70,73.816l33.557-22.371V18.944H83.815v23.685h-27.63V18.944H36.444V51.445z"/>
		</g>
	</g>
</g>
<g id="Layer_1">
</g>
</svg>
