<?xml version="1.0" encoding="utf-8"?>
<!-- Generator: Adobe Illustrator 17.1.0, SVG Export Plug-In . SVG Version: 6.00 Build 0)  -->
<!DOCTYPE svg PUBLIC "-//W3C//DTD SVG 1.1//EN" "http://www.w3.org/Graphics/SVG/1.1/DTD/svg11.dtd">
<svg version="1.1" id="Capa_1" xmlns="http://www.w3.org/2000/svg" xmlns:xlink="http://www.w3.org/1999/xlink" x="0px" y="0px"
	 viewBox="0 0 16 16" enable-background="new 0 0 16 16" xml:space="preserve">
<g>
	<path fill="#FFFFFF" d="M8.5,1.1c-4.1,0-7.5,3.3-7.5,7.5S4.4,16,8.5,16S16,12.7,16,8.5S12.7,1.1,8.5,1.1z M8.5,15
		C5,15,2.1,12.1,2.1,8.5S5,2.1,8.5,2.1C12.1,2.1,15,5,15,8.5S12.1,15,8.5,15z"/>
	<path fill="#FFFFFF" d="M11.5,8.7l-3,2.7l-3-2.6C5.3,8.5,5,8.5,4.8,8.7s-0.2,0.5,0,0.7l3.3,3c0.1,0.1,0.2,0.1,0.4,0.1
		c0.1,0,0.3,0,0.4-0.1l3.3-3c0.2-0.2,0.2-0.5,0-0.7C12,8.5,11.7,8.5,11.5,8.7z"/>
	<path fill="#FFFFFF" d="M8.1,8.8c0.1,0.1,0.2,0.1,0.4,0.1c0.1,0,0.3,0,0.4-0.1l3.3-3c0.2-0.2,0.2-0.5,0-0.7c-0.2-0.2-0.5-0.2-0.7,0
		l-3,2.7l-3-2.7C5.3,4.9,5,4.9,4.8,5.1c-0.2,0.2-0.2,0.5,0,0.7L8.1,8.8z"/>
</g>
</svg>
