<?xml version="1.0" encoding="utf-8"?>
<!-- Generator: Adobe Illustrator 18.1.0, SVG Export Plug-In . SVG Version: 6.00 Build 0)  -->
<svg version="1.1" id="Layer_1" xmlns="http://www.w3.org/2000/svg" xmlns:xlink="http://www.w3.org/1999/xlink" x="0px" y="0px"
	 viewBox="0 0 2138.2 1000" enable-background="new 0 0 2138.2 1000" xml:space="preserve">
<rect x="669.1" y="100" display="none" fill="#DD6666" width="800" height="800"/>
<g display="none">
	<defs>
		<rect id="SVGID_1_" x="669.1" y="100" width="800" height="800"/>
	</defs>
	<clipPath id="SVGID_2_" display="inline">
		<use xlink:href="#SVGID_1_"  display="none" overflow="visible"/>
	</clipPath>
</g>
<g display="none">
	<path display="inline" fill="#FFFFFF" d="M1149.1,327.2C1149.1,327.2,1149.1,327.2,1149.1,327.2
		C1149.1,327.1,1149.1,327.1,1149.1,327.2c0-0.1,0-0.1,0-0.2c0,0,0,0,0-0.1c0,0,0-0.1,0-0.1c0,0,0,0,0-0.1c0,0,0,0,0,0
		c0,0,0,0,0-0.1c0,0,0,0,0,0c0,0,0-0.1-0.1-0.1c0,0,0,0,0,0c0,0-0.1-0.1-0.1-0.1c0,0,0,0,0,0c0,0-0.1,0-0.1-0.1c0,0,0,0-0.1,0
		c0,0-0.1,0-0.1,0c0,0,0,0-0.1,0c0,0-0.1,0-0.1,0c0,0,0,0,0,0h-32.1l-13.4-7.3l-4-12.2c0,0,0,0,0-0.1c0,0,0,0,0,0c0,0,0,0,0,0
		c0-0.1-0.1-0.1-0.1-0.2c0,0,0,0,0,0c0-0.1-0.1-0.1-0.1-0.1c0,0,0,0,0,0c-0.1,0-0.1-0.1-0.2-0.1c0,0,0,0,0,0c-0.1,0-0.1,0-0.2-0.1
		c0,0,0,0,0,0l0,0l-16-2.4c0,0,0,0,0,0c-0.1,0-0.1,0-0.2,0c0,0,0,0,0,0c-0.1,0-0.1,0-0.2,0c0,0,0,0,0,0c-0.1,0-0.1,0-0.2,0.1
		c0,0,0,0,0,0c0,0-0.1,0-0.1,0.1l-11.3,9.2l-8.1,0.5l-14.7-10.8c-0.2-0.2-0.5-0.2-0.7-0.2c-0.3,0.1-0.5,0.2-0.6,0.5l-8.5,16.4
		l-15.9-2.4c0,0,0,0,0,0c0,0,0,0,0,0c0,0,0,0,0,0c0,0,0,0,0,0c0,0,0,0-0.1,0c0,0,0,0-0.1,0c0,0-0.1,0-0.1,0l0,0c0,0,0,0,0,0
		c0,0,0,0,0,0l-31.3,6c-0.3,0.1-0.6,0.3-0.7,0.6c-0.1,0.3-0.1,0.6,0.1,0.9l7.5,9.5l-2.2,7.1c0,0,0,0,0,0c0,0.1,0,0.1,0,0.2
		c0,0,0,0,0,0c0,0.1,0,0.1,0,0.2c0,0,0,0,0,0c0,0.1,0,0.1,0,0.2c0,0,0,0,0,0c0,0.1,0.1,0.1,0.1,0.2c0,0,0,0,0,0c0,0,0,0,0,0
		c0,0,0,0,0,0l5.9,7.3l-4.2,13.1c-0.1,0.3,0,0.7,0.3,1c0.2,0.2,0.4,0.2,0.6,0.2c0.1,0,0.3,0,0.4-0.1l19.4-9l8.6-3.7l3.9,10.4
		l-2.2,14.1c0,0,0,0,0,0c0,0,0,0,0,0.1c0,0,0,0.1,0,0.1c0,0,0,0,0,0.1c0,0,0,0.1,0,0.1c0,0,0,0,0,0.1c0,0,0,0.1,0,0.1c0,0,0,0,0,0.1
		c0,0,0,0.1,0,0.1c0,0,0,0,0,0c0,0,0,0,0,0c0,0.1,0.1,0.1,0.1,0.2c0,0,0,0,0,0c0,0,0.1,0.1,0.1,0.1c0,0,0,0,0,0c0,0,0,0,0,0
		c0,0,0.1,0,0.1,0c0,0,0,0,0.1,0c0.1,0,0.1,0,0.2,0l0,0l0,0c0.1,0,0.1,0,0.2,0c0,0,0,0,0.1,0c0,0,0.1,0,0.1,0l25.2-8.9l14,9.8
		c0,0,0,0,0,0c0,0,0,0,0,0c0,0,0.1,0,0.1,0c0,0,0,0,0.1,0c0,0,0.1,0,0.1,0c0,0,0,0,0.1,0c0.1,0,0.1,0,0.2,0c0,0,0,0,0,0h27.7h0
		c0,0,0,0,0,0c0,0,0,0,0,0c0,0,0,0,0,0c0,0,0.1,0,0.1,0c0,0,0,0,0,0c0,0,0,0,0,0c0,0,0,0,0,0c0,0,0,0,0,0c0,0,0,0,0.1,0
		c0,0,0,0,0.1,0c0,0,0,0,0.1,0c0,0,0,0,0,0c0,0,0,0,0,0c0,0,0,0,0,0c0,0,0,0,0,0c0,0,0,0,0,0c0,0,0,0,0.1,0l31.8-25l0,0l0,0
		c0,0,0,0,0,0c0,0,0,0,0.1-0.1c0,0,0,0,0,0l20.2-24.3c0,0,0,0,0,0c0,0,0,0,0,0c0,0,0-0.1,0-0.1c0,0,0,0,0-0.1c0,0,0-0.1,0-0.1
		c0,0,0,0,0-0.1c0,0,0-0.1,0-0.1c0,0,0,0,0,0C1149.1,327.3,1149.1,327.2,1149.1,327.2z M1115.8,334.8l0.8-6.4l8,2.4l2.4,0.7l-12,9.2
		L1115.8,334.8z M1114.9,327.8l-0.7,5.3l-0.9,6.7l-9.2-17.9L1114.9,327.8z M1112.2,341.6l-16.8-2.4l6.6-17.3L1112.2,341.6z
		 M1085.2,327.9l-0.2-0.3l15.4-6.3l-6.5,16.9L1085.2,327.9z M1092.8,339.8l-9.5,6.6l0.9-16.8l0.5,0.6L1092.8,339.8z M1100.8,319.1
		l-10.4,4.3l-4.4,1.8l11.5-16.1L1100.8,319.1z M1096.2,307.8l-3.5,4.9l-8.6,12l-0.8-12.5l-0.4-6.4L1096.2,307.8z M1081.1,306.5
		l1.2,18.4l-5.8-5.9l-4.9-4.9L1081.1,306.5z M1082.4,329.3l-0.9,17.2l-10.4-7.9L1082.4,329.3z M1071.2,316.1l6,6.1l4.8,4.9
		l-11.5,9.5L1071.2,316.1z M1070.3,340.3l10.3,7.8l-11.9,6.5l1-9.3L1070.3,340.3z M1047,304.9l12.6,9.3l-20,5L1047,304.9z
		 M1038.7,321.2l19.5-4.9l-5.3,4.6l-14.9,13L1038.7,321.2z M1037.5,336.7l22.4-19.4l1.3-1.1l1.8,5.6l5.3,16.1l-33.4,1.2l0.3-0.3
		L1037.5,336.7z M1034.4,340.8l18.2-0.6l14.1-0.5l-3.3,2.5l-16.1,12.2L1034.4,340.8z M1041.8,351.2l-8.1-4.9l-0.3-3.9L1041.8,351.2z
		 M1034.1,337.3l0.1-0.3l2.3-8.1l-0.1,2.5l-0.2,4.2L1034.1,337.3z M1036.7,321.2l-4.6,16.2l-0.8-1.6l-8.4-16.7L1036.7,321.2z
		 M1031.9,345.7l-20.1-3.5l6.5-0.4l13.3-0.9L1031.9,345.7z M1021.2,319.7l9.8,19.4l-25,1.7L1021.2,319.7z M991.7,324.6l27.5-5.3
		l-15.2,21.1l-1.2-1.5l-4.3-5.5c0,0,0,0,0,0L991.7,324.6z M998.1,335.8l4,5l-5.4-0.3L998.1,335.8z M997.5,342.4l5.4,0.3l-1.5,4.5
		L997.5,342.4z M998.8,361l3.7-11.6l0,0l0.5-1.5l1.4-4.4l10.7,10L998.8,361z M1025.9,348.8l-8.9,3.9l-10.1-9.4l22.8,3.9
		L1025.9,348.8C1025.9,348.8,1025.9,348.8,1025.9,348.8z M1027.4,350.1l4.2-1.8l-0.2,1.1l-1.3,8.1L1027.4,350.1z M1033.4,349
		l0.1-0.7l12.2,7.4l-9.9,10.6l-6,6.4L1033.4,349z M1031.7,373.4l9.8-10.4l5.6-6l5.7,9L1031.7,373.4z M1048.9,356.5l16.1,0.6l-10.7,8
		L1048.9,356.5z M1055.6,366.4l11.2-8.4l0.4,11l0.2,5.6L1055.6,366.4z M1066.8,355.4l-17-0.7l10.5-7.9l8.1-6.1L1066.8,355.4z
		 M1062.9,315.4l6.5-0.4l-0.6,18.5L1062.9,315.4z M1069.3,375.6l-0.3-7.3l-0.4-10.2l7.8,5.5l16.8,11.9H1069.3z M1069.4,356.4
		l12.5-6.9l11.8,24.2L1069.4,356.4z M1089,359.9l-5.6-11.4l9.9-6.9l1.3,25l0.3,5.5L1089,359.9z M1096.5,367.1l-1.4-26.1l17.3,2.5
		l-15.6,29.6L1096.5,367.1z M1098.9,373.1l2.3-4.4l13-24.7l12.1,7.5L1098.9,373.1z M1127.8,336.3l-0.7,13.6l-11.6-7.2l12.5-9.6
		L1127.8,336.3z M1122,328.2h17.3l-10.3,2.1L1122,328.2z M1129,348.9l0.8-16.9l16-3.3L1129,348.9z"/>
</g>
<text transform="matrix(1 0 0 1 732.005 531.7399)" display="none" fill="#FFFFFF" font-family="'TitilliumWeb-Bold'" font-size="144">DEMO DAY</text>
<text transform="matrix(1 0 0 1 818.639 610.4551)" display="none"><tspan x="0" y="0" display="inline" fill="#FFFFFF" font-family="'TitilliumWeb-Regular'" font-size="36">Startup Shell  ·  December 5, 2014</tspan><tspan x="120.1" y="57.6" display="inline" fill="#FFFFFF" font-family="'TitilliumWeb-Regular'" font-size="24">startupshell.org/demoday</tspan></text>
<g>
	<path fill="#FFFFFF" d="M2138.2,328.5c0-0.1,0-0.1,0-0.1c0-0.2-0.1-0.3-0.1-0.5c-0.1-0.5-0.2-1-0.3-1.5c-0.1-0.3-0.2-0.5-0.2-0.8
		c-0.1-0.4-0.3-0.8-0.5-1.2c-0.1-0.3-0.2-0.5-0.4-0.7c-0.1-0.1-0.1-0.3-0.2-0.4c-0.2-0.3-0.3-0.5-0.5-0.7c-0.1-0.2-0.3-0.4-0.4-0.6
		c-0.3-0.4-0.7-0.8-1-1.1c-0.1-0.1-0.2-0.3-0.4-0.4c-0.5-0.5-1.1-0.9-1.6-1.2c-0.1-0.1-0.3-0.1-0.4-0.2c-0.5-0.3-0.9-0.5-1.4-0.7
		c-0.2-0.1-0.4-0.2-0.7-0.2c-0.4-0.2-0.9-0.3-1.3-0.4c-0.2-0.1-0.5-0.1-0.7-0.1c-0.5-0.1-1-0.1-1.5-0.1c-0.1,0-0.3,0-0.4,0h-429.1
		l-178.7-97.7l-53.4-163.6c-0.1-0.2-0.2-0.5-0.3-0.7c0-0.1,0-0.2-0.1-0.2c0-0.1-0.1-0.1-0.1-0.2c-0.4-0.8-0.8-1.6-1.4-2.3
		c-0.1-0.1-0.2-0.2-0.3-0.4c-0.6-0.7-1.2-1.3-1.9-1.9c-0.1-0.1-0.2-0.2-0.3-0.2c-0.7-0.5-1.5-1-2.3-1.4c-0.1,0-0.2-0.1-0.3-0.1
		c-0.9-0.4-1.8-0.7-2.8-0.8c0,0,0,0,0,0c0,0,0,0,0,0l-213.4-32.6c0,0,0,0-0.1,0c-0.8-0.1-1.6-0.1-2.4-0.1c-0.2,0-0.3,0-0.5,0
		c-0.8,0.1-1.5,0.2-2.3,0.4c-0.1,0-0.2,0.1-0.3,0.1c-0.7,0.2-1.4,0.5-2,0.9c-0.1,0.1-0.2,0.1-0.3,0.1c-0.5,0.3-1.1,0.7-1.6,1.1
		l-151.3,122.4l-107.8,7L776.3,2.4c-2.9-2.1-6.5-2.9-10-2.1c-3.5,0.8-6.4,3.1-8.1,6.2l-114,219.1L432,193.4c-0.1,0-0.2,0-0.2,0
		c-0.2,0-0.3,0-0.5-0.1c0,0-0.1,0-0.1,0c-0.1,0-0.2,0-0.2,0c-0.3,0-0.6,0-0.9,0c-0.3,0-0.5,0-0.8,0c-0.3,0-0.7,0.1-1,0.1
		c0,0,0,0,0,0c-0.1,0-0.2,0-0.3,0c0,0,0,0,0,0L9.9,273.9c-4.2,0.8-7.6,3.7-9.1,7.7c-1.5,4-0.8,8.5,1.8,11.8l99.8,127.3l-29.2,94.6
		c0,0.1,0,0.2-0.1,0.3c-0.2,0.7-0.3,1.4-0.4,2.2c0,0.2,0,0.3,0,0.5c0,0.8,0,1.6,0.1,2.4c0,0.2,0.1,0.3,0.1,0.5
		c0.1,0.8,0.3,1.5,0.6,2.2c0,0.1,0,0.1,0.1,0.2c0.3,0.8,0.7,1.5,1.2,2.2c0.1,0.1,0.1,0.2,0.1,0.2c0.1,0.1,0.1,0.1,0.2,0.2
		c0.1,0.2,0.2,0.3,0.4,0.5l79.5,97.9L98.4,799.9c-1.5,4.6-0.1,9.7,3.5,12.9c2.3,2,5.2,3.1,8.1,3.1c1.7,0,3.5-0.4,5.1-1.1l259.8-120
		L490,645.1L542.6,784l-29,188.4c0,0.1,0,0.3,0,0.4c0,0.3-0.1,0.7-0.1,1c0,0.3,0,0.7,0,1c0,0.3,0,0.6,0.1,0.9c0,0.3,0.1,0.7,0.2,1
		c0.1,0.3,0.1,0.6,0.2,0.9c0.1,0.3,0.2,0.7,0.3,1c0.1,0.3,0.2,0.6,0.4,0.8c0.2,0.3,0.3,0.7,0.5,1c0.1,0.1,0.1,0.3,0.2,0.5
		c0,0.1,0.1,0.1,0.2,0.2c0.5,0.7,1.1,1.4,1.7,2.1c0.1,0.1,0.3,0.2,0.4,0.3c0.6,0.5,1.2,0.9,1.9,1.3c0.2,0.1,0.3,0.2,0.5,0.3
		c0.1,0,0.2,0.1,0.3,0.2c0.5,0.2,1,0.4,1.6,0.6c0.3,0.1,0.6,0.2,0.9,0.3c0.9,0.2,1.9,0.4,2.8,0.4c0,0,0,0,0,0c0,0,0,0,0,0
		c0.8,0,1.5-0.1,2.3-0.2c0.2,0,0.5-0.1,0.7-0.2c0.4-0.1,0.7-0.2,1.1-0.3l336.9-118.6l186.9,130.7c0.1,0,0.1,0.1,0.2,0.1
		c0.2,0.1,0.4,0.2,0.6,0.4c0.4,0.2,0.8,0.5,1.2,0.7c0.2,0.1,0.5,0.2,0.7,0.3c0.4,0.2,0.9,0.3,1.4,0.4c0.2,0.1,0.5,0.1,0.7,0.2
		c0.7,0.1,1.4,0.2,2.1,0.2c0,0,0,0,0.1,0h369.6h0c0,0,0.1,0,0.1,0c0.1,0,0.1,0,0.2,0c0.2,0,0.4-0.1,0.6-0.1c0.4,0,0.9-0.1,1.3-0.1
		c0.1,0,0.3,0,0.4-0.1c0.2,0,0.4-0.1,0.6-0.2c0.1,0,0.2-0.1,0.3-0.1c0,0,0,0,0,0c0.2-0.1,0.4-0.1,0.7-0.2c0.2-0.1,0.5-0.1,0.7-0.2
		c0.3-0.1,0.5-0.3,0.8-0.4c0.1-0.1,0.2-0.1,0.3-0.2c0,0,0.1,0,0.1,0c0.1,0,0.1-0.1,0.2-0.1c0,0,0,0,0.1,0c0.2-0.1,0.4-0.2,0.6-0.4
		c0.2-0.2,0.4-0.4,0.7-0.6l425.2-333.5c0,0,0,0,0,0l0.1-0.1c0.1-0.1,0.2-0.2,0.4-0.4c0.3-0.3,0.6-0.5,0.8-0.8
		c0.2-0.2,0.5-0.4,0.7-0.6l270.5-324.5c0.1-0.1,0.2-0.2,0.2-0.4c0.2-0.2,0.3-0.4,0.5-0.7c0.2-0.4,0.5-0.7,0.7-1.1
		c0.1-0.2,0.2-0.5,0.4-0.7c0.2-0.4,0.3-0.8,0.5-1.2c0.1-0.2,0.2-0.5,0.2-0.7c0.1-0.5,0.2-1,0.3-1.5c0-0.2,0.1-0.3,0.1-0.5
		C2138.2,329.9,2138.2,329.2,2138.2,328.5z M1693.2,430.5l10.8-85l106.5,32.3l32.3,9.8L1683.1,510L1693.2,430.5z M1680.7,336.4
		l-9,70.5l-11.5,90.1l-123.1-239L1680.7,336.4z M1645.6,522l-224.5-32.4l88.6-231.6L1645.6,522z M1283.7,338.5l-3.3-3.9l206.2-84.4
		l-86.4,225.8L1283.7,338.5z M1386.3,497.1l-127.5,88.7l12-224.9l6.8,8L1386.3,497.1z M1493,221.2l-139.6,57.2l-58.6,24l154.3-215.6
		L1493,221.2z M1431.8,69.1l-47.1,65.9l-114.5,160l-11.3-167.3l-5.8-85.8L1431.8,69.1z M1229.3,51.7l16.6,245.9l-77.2-78.4l-65-66
		L1229.3,51.7z M1246.6,356.7l-12.3,229.8l-139.2-105.1L1246.6,356.7z M1096.9,181.1l80.6,81.9l64.7,65.7l-153.8,126.6L1096.9,181.1
		z M1085.2,504.5l137.7,103.9l-158.7,87.4l13.7-124.9L1085.2,504.5z M773.3,30.5l168,123.8l-267,66.5L773.3,30.5z M662.7,248.7
		l260.4-64.8L852.6,245L652.9,418.3L662.7,248.7z M647.1,455.7l299.1-259.5l17.5-15.1l24.6,74.7l70.6,214.6L612,486.1l4.1-3.5
		L647.1,455.7z M605.6,510.7l243.7-8.6l187.8-6.7l-43.6,32.8L777.7,690.8L605.6,510.7z M704.1,649.1l-107.8-65.2l-3.7-51.5
		L704.1,649.1z M600.7,463.6l1.2-4.1l30.5-108.9l-1.9,33.3l-3.3,56.7L600.7,463.6z M635.5,249l-60.8,216.9L564,444.6L451.6,221.1
		L635.5,249z M571.3,576.4l-268.6-46.2l86.7-5.8l177.3-11.9L571.3,576.4z M428.3,228.9l130.5,259.6l-334,22.5L428.3,228.9z
		 M34.1,294.1l368.2-70.8L199.3,504.6l-16-20.4l-57.8-73.6c0,0,0,0-0.1-0.1L34.1,294.1z M120.8,444l52.8,67.3l-72.4-3.8L120.8,444z
		 M111.7,532.5l71.6,3.8l-19.4,60.4L111.7,532.5z M130.2,781l50-155.4l0,0l6.5-20.2l18.8-58.5l142.9,133.3L130.2,781z M492.1,617.7
		l-119.6,51.6L238,543.9l304,52.2L492.1,617.7C492.1,617.7,492.1,617.7,492.1,617.7z M512.5,635.5l56.7-24.5l-2.3,15.1L550.1,735
		L512.5,635.5z M592.4,620.2l1.4-9.3l163.3,98.8L624.4,851.2l-80.7,86L592.4,620.2z M568.7,946.1l130.9-139.5l74.8-79.7L850,847.1
		L568.7,946.1z M799,720.1l215.8,8.6l-143,107.1L799,720.1z M889.3,853.2l149.1-111.6l5.9,147.2l3,74.9L889.3,853.2z M1038.7,705.2
		l-227.7-9L952,590.1l108.3-81.5L1038.7,705.2z M986,170.9l87-5.7l-7.6,247L986,170.9z M1072.2,975.6l-3.9-97.1l-5.5-136.3l104.4,74
		l224.7,159.4H1072.2z M1072.5,719.2l167.5-92.3l158.2,323.3L1072.5,719.2z M1335.3,766.2l-74.5-152.2l132.4-92.1l17.7,333.8
		l3.9,72.9L1335.3,766.2z M1435.7,862.7l-18.5-349.1l231.2,33.4L1440,943L1435.7,862.7z M1467.5,943l30.9-58.7L1672,554.7
		l162.3,100.6L1467.5,943z M1853.5,450.6l-9.1,182.2l-155.7-96.5l166.9-127.9L1853.5,450.6z M1776,341.8H2007l-137.2,28.4
		L1776,341.8z M1869.6,618.3l11.3-225.4l213.4-44.2L1869.6,618.3z"/>
</g>
</svg>
