<?xml version="1.0" encoding="utf-8"?>
<!-- Generator: Adobe Illustrator 17.1.0, SVG Export Plug-In . SVG Version: 6.00 Build 0)  -->
<!DOCTYPE svg PUBLIC "-//W3C//DTD SVG 1.1//EN" "http://www.w3.org/Graphics/SVG/1.1/DTD/svg11.dtd">
<svg version="1.1" id="Layer_1" xmlns="http://www.w3.org/2000/svg" xmlns:xlink="http://www.w3.org/1999/xlink" x="0px" y="0px"
	 viewBox="0 0 64 30" enable-background="new 0 0 64 30" xml:space="preserve">
<path fill="#FFFFFF" d="M63.9,10.3c0,0,0-0.1,0.1-0.1c0,0,0,0,0-0.1c0,0,0-0.1,0-0.1c0,0,0,0,0,0c0,0,0,0,0,0c0,0,0-0.1,0-0.1
	c0,0,0,0,0-0.1c0,0,0,0,0,0c0,0-0.1-0.1-0.1-0.1c0,0,0,0,0,0c-0.1,0-0.1-0.1-0.2-0.1c0,0,0,0-0.1,0c0,0-0.1,0-0.1,0c0,0,0,0,0,0
	H50.7l-5.2-2.8L44,1.8c0,0,0,0,0,0c0,0,0,0,0,0c0-0.1-0.1-0.1-0.1-0.1c0,0,0-0.1-0.1-0.1c-0.1-0.1-0.2-0.1-0.3-0.1l-6.3-1
	c0,0-0.1,0-0.1,0c0,0-0.1,0-0.1,0c-0.1,0-0.1,0-0.2,0.1c0,0,0,0-0.1,0l-4.4,3.6l-3,0.2l-5.8-4.2C23.3,0,23.1,0,23,0
	c-0.2,0-0.3,0.2-0.4,0.3l-3.3,6.3l-6.1-0.9c0,0,0,0,0,0c0,0,0,0,0,0c0,0-0.1,0-0.1,0c0,0,0,0-0.1,0L0.5,8.1C0.3,8.1,0.1,8.3,0,8.5
	C0,8.7,0,8.9,0.1,9L3,12.7l-0.8,2.7c0,0.1,0,0.1,0,0.2c0,0,0,0,0,0.1c0,0.1,0,0.2,0.1,0.3c0,0,0,0,0,0c0,0,0,0,0,0l2.3,2.8l-1.6,5.1
	c-0.1,0.2,0,0.5,0.2,0.6c0.1,0.1,0.3,0.1,0.4,0.1c0.1,0,0.2,0,0.3-0.1l7.7-3.5l3.2-1.4l1.4,3.8l-0.9,5.5c0,0,0,0,0,0
	c0,0,0,0.1,0,0.1c0,0,0,0.1,0,0.1c0,0,0,0.1,0,0.1c0,0,0,0.1,0,0.1c0,0,0,0,0,0c0,0,0,0,0,0c0,0.1,0.1,0.1,0.2,0.2c0,0,0,0,0,0
	c0,0,0,0,0,0c0.1,0,0.2,0.1,0.3,0.1c0.1,0,0.1,0,0.2,0l9.9-3.5l5.4,3.8c0,0,0,0,0,0c0.1,0.1,0.2,0.1,0.3,0.1c0,0,0,0,0,0h11
	c0,0,0,0,0,0c0,0,0,0,0,0c0,0,0,0,0,0c0,0,0,0,0,0c0.2,0,0.3-0.1,0.4-0.2L55.7,20c0,0,0,0,0,0c0,0,0,0,0.1,0L63.9,10.3
	C63.9,10.3,63.9,10.3,63.9,10.3C63.9,10.3,63.9,10.3,63.9,10.3z M11.4,19.7l-2.3-2.1l-1-0.9L9.8,17l5.7,1l-0.7,0.3c0,0,0,0,0,0
	L11.4,19.7z M36.7,5.3L37,8.4l-0.5-0.5l-3.1-3.1l3.1-2.5L36.7,5.3z M50.6,14.7l0.5-4l3.4,1l-2.8,2.2L50.6,14.7z M54.8,18.5l-4-2.4
	l4.2-3.2L54.8,18.5z M12.9,7.5l3.5,7l-9,0.6L12.9,7.5z M45.1,8.5l3.6,6.9l-5.9-0.8l0.8-2.2L45.1,8.5z M38.1,14.2l0.1-2.7l2.9,3.3
	L37.9,17L38.1,14.2z M37,11.3l-0.3,5.8l-0.6-0.5l-2.9-2.2l3.6-3L37,11.3z M19.7,18.2l-1.5-0.9l-0.1-0.7L19.7,18.2z M18.8,15.5
	l11.5-0.4l-6.9,5.2L18.8,15.5z M32.2,20.3l0.5-4.8l1.7,1.3l1.7,1.3l-2.4,1.3L32.2,20.3z M25,20.6l2.1-1.6l4.3-3.2l-0.6,5l-4.3-0.2
	L25,20.6z M38,18.4l0.9-0.6l2.5-1.7l0.2,3.3l0.4,7.1l-2.8-5.6L38,18.4z M44,8.1l-2.2,5.7l-3.1-3.6l0.6-0.3L44,8.1z M36.8,9.9
	l-3.9,3.2l0-1.4l0.2-5.6l1.9,2L36.8,9.9z M31.4,13.9l-8.9,0.3l-3.4,0.1L28.7,6l2.5,7.4L31.4,13.9z M19.9,12l0.2-4.2l6.6-1.6L19.9,12
	z M11.3,16l5.6-0.4l0.1,1.3l-1.4-0.2L11.3,16z M29.7,22l-3.5,2.6l-1.8-2.8L29.7,22z M32.6,21.5l4.1-2.2l0.3-0.2l4.2,8.4L32.6,21.5z
	 M43.2,27.2l-0.5-9.9l-0.1-1.6l5.9,0.8l0.3,0l-3.5,6.5L43.2,27.2z M31.8,7.2L31.7,11l-1.8-5.5l2-0.1L31.8,7.2z M17.3,23.4
	C17.3,23.4,17.3,23.4,17.3,23.4l0.7-4.8l4.3,2.6l-5.6,5.9L17.3,23.4z M23.2,22.1l1.8,2.8l0.1,0.2L18,27.6L23.2,22.1z M32.3,28.8
	l-0.2-6.2l8.7,6.2H32.3z M55.8,10.9l-0.9-0.3l-0.3-0.1h2.9L55.8,10.9z M49.4,14.1l-2.9-5.6l3.4,1.8L49.4,14.1z M39.4,8.6l0.1-0.2
	l3.7-5.1l1.1,3.3L39.4,8.6z M38.2,8.2l-0.4-6.5l4.6,0.7L38.2,8.2z M23.3,1.5l4.3,3.2l-6.9,1.7L23.3,1.5z M18.8,7.8l-1.6,5.5
	l-3.2-6.2L18.8,7.8z M11.6,7.2l-5.5,7.5L1.7,9.1L11.6,7.2z M4.9,15.1L3.6,15l0.4-1.1L4.9,15.1z M5.4,16.3L5,17.3l-0.9-1.1L5.4,16.3z
	 M6.5,16.8l3.7,3.4l-5.6,2.6L6.5,16.8z M16.8,18.7L16.5,21l-0.7-1.8L16.8,18.7z M27.1,25.4l3.8-2.8l0.2,5.6L27.1,25.4z M44.6,27.2
	L50,17l2,1.2l2.3,1.4L44.6,27.2z M56.4,12l1.5-0.3l3.9-0.8l-5.7,6.9L56.4,12z"/>
</svg>
