<?xml version="1.0" encoding="utf-8"?>
<!-- Generator: Adobe Illustrator 16.0.3, SVG Export Plug-In . SVG Version: 6.00 Build 0)  -->
<!DOCTYPE svg PUBLIC "-//W3C//DTD SVG 1.1//EN" "http://www.w3.org/Graphics/SVG/1.1/DTD/svg11.dtd">
<svg version="1.1" id="Layer_1" xmlns="http://www.w3.org/2000/svg" xmlns:xlink="http://www.w3.org/1999/xlink" x="0px" y="0px"
	 width="64px" height="30px" viewBox="0 0 64 30" enable-background="new 0 0 64 30" xml:space="preserve">
<path fill="#666666" d="M63.909,10.279c0.024-0.04,0.046-0.08,0.061-0.124c0.008-0.022,0.011-0.045,0.016-0.069
	c0.009-0.046,0.013-0.091,0.011-0.138c0-0.014,0.005-0.026,0.003-0.04c-0.001-0.011-0.007-0.02-0.009-0.03
	c-0.007-0.046-0.022-0.09-0.04-0.133c-0.01-0.022-0.016-0.045-0.028-0.065c-0.003-0.006-0.004-0.014-0.008-0.02
	c-0.024-0.039-0.056-0.069-0.087-0.101c-0.011-0.012-0.019-0.026-0.032-0.037c-0.051-0.044-0.109-0.079-0.171-0.104
	c-0.02-0.008-0.042-0.01-0.063-0.017c-0.046-0.013-0.092-0.023-0.141-0.025c-0.011-0.001-0.02-0.006-0.031-0.006H50.713
	l-5.164-2.804l-1.556-4.739c-0.003-0.009-0.012-0.014-0.015-0.022c-0.003-0.009,0-0.019-0.004-0.028
	c-0.025-0.057-0.072-0.097-0.112-0.144c-0.024-0.027-0.038-0.062-0.066-0.084c-0.083-0.066-0.182-0.114-0.292-0.131l-6.337-0.961
	c-0.039-0.006-0.075,0.006-0.113,0.008c-0.036,0.001-0.068,0-0.103,0.007c-0.079,0.016-0.149,0.048-0.216,0.092
	c-0.016,0.011-0.037,0.01-0.052,0.022l-4.43,3.562l-3.025,0.194L23.458,0.12c-0.145-0.107-0.328-0.144-0.506-0.104
	c-0.175,0.04-0.324,0.154-0.406,0.311l-3.305,6.312l-6.123-0.925c-0.007-0.001-0.015,0.003-0.022,0.002
	c-0.008-0.001-0.015-0.007-0.023-0.008c-0.036-0.004-0.065,0.014-0.099,0.017c-0.023,0.002-0.044-0.011-0.067-0.007L0.496,8.09
	C0.287,8.13,0.114,8.272,0.039,8.467c-0.075,0.194-0.041,0.414,0.089,0.578l2.889,3.66l-0.831,2.677
	C2.167,15.44,2.173,15.5,2.173,15.559c0,0.025-0.008,0.047-0.005,0.072c0.012,0.096,0.043,0.188,0.102,0.27
	c0.004,0.006,0.012,0.008,0.016,0.014c0.004,0.005,0.003,0.012,0.007,0.016l2.28,2.791l-1.638,5.062
	c-0.074,0.227-0.003,0.476,0.18,0.632c0.114,0.098,0.259,0.148,0.404,0.148c0.089,0,0.178-0.019,0.261-0.057l7.718-3.542
	l3.163-1.356l1.446,3.799l-0.852,5.502c-0.001,0.007,0.001,0.014,0,0.021c-0.004,0.031,0,0.062,0,0.092
	c0.001,0.035,0.001,0.068,0.009,0.102c0.006,0.027,0.018,0.053,0.028,0.08c0.013,0.035,0.026,0.068,0.045,0.1
	c0.005,0.008,0.006,0.018,0.012,0.026c0.007,0.01,0.019,0.014,0.026,0.023c0.048,0.064,0.108,0.118,0.18,0.16
	c0.009,0.005,0.016,0.013,0.026,0.018c0.005,0.002,0.008,0.007,0.014,0.009c0.085,0.04,0.176,0.059,0.266,0.059
	c0.069,0,0.139-0.011,0.207-0.035l9.881-3.459l5.441,3.783c0.011,0.007,0.025,0.004,0.036,0.011c0.094,0.058,0.199,0.1,0.318,0.1
	c0.003,0,0.007,0,0.01,0h10.97c0.003,0,0.006,0,0.01,0c0.001,0,0.001,0,0.002,0c0.002,0,0.005,0,0.007,0
	c0.011,0,0.02-0.005,0.031-0.006c0.19-0.003,0.341-0.084,0.442-0.21l12.523-9.764c0.016-0.013,0.022-0.033,0.037-0.047
	c0.017-0.016,0.04-0.023,0.055-0.042l8.032-9.578c0.004-0.005,0.006-0.012,0.01-0.017C63.889,10.318,63.897,10.298,63.909,10.279z
	 M11.366,19.711L9.1,17.612l-1.017-0.943l1.71,0.292l5.709,0.976l-0.74,0.317c-0.001,0-0.001,0.001-0.003,0.002L11.366,19.711z
	 M36.745,5.258l0.212,3.122L36.481,7.9l-3.086-3.116l3.145-2.529L36.745,5.258z M50.561,14.742l0.512-3.986l3.383,1.02l-2.83,2.155
	L50.561,14.742z M54.798,18.495l-3.963-2.441l4.249-3.236L54.798,18.495z M12.931,7.473l3.527,6.974l-9.027,0.604L12.931,7.473z
	 M45.123,8.464l3.563,6.88L42.799,14.5l0.837-2.176L45.123,8.464z M38.063,14.247l0.146-2.718l2.851,3.341l-3.147,2.175
	L38.063,14.247z M36.993,11.315l-0.31,5.764l-0.613-0.46l-2.9-2.175l3.625-2.967L36.993,11.315z M19.707,18.242l-1.506-0.905
	l-0.052-0.714L19.707,18.242z M18.788,15.537l11.499-0.405l-6.912,5.174L18.788,15.537z M32.159,20.341l0.523-4.75l1.694,1.271
	l1.746,1.309l-2.44,1.337L32.159,20.341z M25.029,20.579l2.087-1.563l4.31-3.226l-0.552,5.019l-4.272-0.169L25.029,20.579z
	 M38.013,18.446l0.924-0.639l2.465-1.704l0.174,3.257l0.377,7.091l-2.764-5.613L38.013,18.446z M43.966,8.063l-2.212,5.748
	l-3.07-3.598l0.626-0.255L43.966,8.063z M36.779,9.925l-3.937,3.222l0.043-1.388l0.174-5.588l1.942,1.96L36.779,9.925z
	 M31.355,13.894l-8.889,0.313l-3.359,0.118l9.639-8.313l2.459,7.431L31.355,13.894z M19.926,12.02l0.246-4.249l6.563-1.624
	L19.926,12.02z M11.277,15.997l5.569-0.373l0.098,1.341l-1.395-0.238L11.277,15.997z M29.694,21.964l-3.485,2.593l-1.772-2.801
	L29.694,21.964z M32.562,21.496l4.069-2.229l0.335-0.184l4.159,8.449L32.562,21.496z M43.22,27.161l-0.529-9.923l-0.083-1.553
	l5.906,0.848l0.313,0.045l-3.458,6.527L43.22,27.161z M31.801,7.222l-0.117,3.769l-1.815-5.486l1.99-0.127L31.801,7.222z
	 M17.341,23.438c0-0.001,0.001-0.002,0.001-0.004l0.736-4.76l4.272,2.567l-5.585,5.916L17.341,23.438z M23.211,22.098l1.769,2.797
	l0.143,0.225l-7.116,2.49L23.211,22.098z M32.334,28.8l-0.25-6.161l8.739,6.161H32.334z M55.791,10.921l-0.868-0.262l-0.293-0.088
	h2.863L55.791,10.921z M49.409,14.086L46.491,8.45l3.405,1.849L49.409,14.086z M39.402,8.62l0.141-0.195l3.661-5.083l1.08,3.292
	L39.402,8.62z M38.176,8.24l-0.44-6.481l4.604,0.698L38.176,8.24z M23.306,1.506l4.34,3.177L20.749,6.39L23.306,1.506z M18.81,7.787
	l-1.559,5.522l-3.153-6.234L18.81,7.787z M11.637,7.183l-5.475,7.545L1.705,9.081L11.637,7.183z M4.88,15.066l-1.294-0.068
	l0.351-1.128L4.88,15.066z M5.358,16.293l-0.34,1.051l-0.913-1.117L5.358,16.293z M6.471,16.829l3.693,3.422l-5.638,2.588
	L6.471,16.829z M16.839,18.674l-0.354,2.289l-0.699-1.837L16.839,18.674z M27.078,25.419l3.778-2.812l0.227,5.596L27.078,25.419z
	 M44.593,27.175l5.412-10.214l2.028,1.25l2.268,1.397L44.593,27.175z M56.351,12.033l1.537-0.316l3.922-0.807l-5.748,6.855
	L56.351,12.033z"/>
</svg>
