<?xml version="1.0" encoding="iso-8859-1"?>
<!-- Generator: Adobe Illustrator 18.1.0, SVG Export Plug-In . SVG Version: 6.00 Build 0)  -->
<!DOCTYPE svg PUBLIC "-//W3C//DTD SVG 1.1//EN" "http://www.w3.org/Graphics/SVG/1.1/DTD/svg11.dtd">
<svg version="1.1" xmlns="http://www.w3.org/2000/svg" xmlns:xlink="http://www.w3.org/1999/xlink" x="0px" y="0px"
	 viewBox="0 0 140 105" style="enable-background:new 0 0 140 105;" xml:space="preserve">
<g id="essential">
	<g>
		<g>
			<g>
				<circle style="fill:#3D505D;" cx="70" cy="37.692" r="27.692"/>
			</g>
			<g>
				<circle style="fill:#478288;" cx="70" cy="37.692" r="21.095"/>
			</g>
			<g>
				<ellipse style="fill:#5EADB4;" cx="70" cy="37.692" rx="14.999" ry="14.677"/>
			</g>
		</g>
		<g>
			<path style="fill:#231F20;" d="M24.02,79.376H20V72.02h4.02v0.473h-3.507v2.782h3.311v0.473h-3.311v3.155h3.507V79.376z"/>
			<path style="fill:#231F20;" d="M28.95,77.952c0,0.49-0.186,0.866-0.558,1.13s-0.901,0.395-1.585,0.395
				c-0.731,0-1.311-0.112-1.741-0.337v-0.538c0.55,0.275,1.13,0.413,1.741,0.413c0.54,0,0.95-0.09,1.23-0.269
				c0.28-0.179,0.42-0.418,0.42-0.717c0-0.275-0.112-0.506-0.335-0.694c-0.223-0.188-0.589-0.372-1.099-0.553
				c-0.547-0.198-0.931-0.368-1.152-0.511c-0.221-0.143-0.388-0.304-0.501-0.483c-0.112-0.179-0.169-0.398-0.169-0.657
				c0-0.409,0.172-0.733,0.516-0.971c0.344-0.238,0.824-0.357,1.441-0.357c0.59,0,1.15,0.111,1.68,0.332l-0.186,0.453
				c-0.537-0.221-1.035-0.332-1.494-0.332c-0.446,0-0.8,0.074-1.062,0.221c-0.262,0.148-0.392,0.352-0.392,0.614
				c0,0.285,0.101,0.513,0.304,0.684c0.203,0.171,0.6,0.362,1.19,0.574c0.493,0.178,0.852,0.338,1.077,0.48
				c0.225,0.143,0.393,0.304,0.506,0.486S28.95,77.707,28.95,77.952z"/>
			<path style="fill:#231F20;" d="M33.75,77.952c0,0.49-0.186,0.866-0.558,1.13c-0.372,0.263-0.901,0.395-1.585,0.395
				c-0.731,0-1.311-0.112-1.741-0.337v-0.538c0.55,0.275,1.13,0.413,1.741,0.413c0.54,0,0.95-0.09,1.23-0.269
				c0.28-0.179,0.42-0.418,0.42-0.717c0-0.275-0.112-0.506-0.335-0.694c-0.223-0.188-0.589-0.372-1.099-0.553
				c-0.547-0.198-0.931-0.368-1.152-0.511c-0.221-0.143-0.388-0.304-0.501-0.483c-0.112-0.179-0.169-0.398-0.169-0.657
				c0-0.409,0.172-0.733,0.516-0.971s0.824-0.357,1.441-0.357c0.59,0,1.15,0.111,1.68,0.332l-0.186,0.453
				c-0.537-0.221-1.035-0.332-1.494-0.332c-0.446,0-0.8,0.074-1.062,0.221c-0.262,0.148-0.392,0.352-0.392,0.614
				c0,0.285,0.101,0.513,0.304,0.684c0.203,0.171,0.6,0.362,1.19,0.574c0.493,0.178,0.852,0.338,1.077,0.48
				c0.225,0.143,0.393,0.304,0.506,0.486S33.75,77.707,33.75,77.952z"/>
			<path style="fill:#231F20;" d="M37.368,79.476c-0.795,0-1.415-0.245-1.859-0.735c-0.444-0.49-0.667-1.176-0.667-2.058
				c0-0.872,0.215-1.571,0.644-2.095c0.429-0.525,1.008-0.787,1.736-0.787c0.644,0,1.152,0.225,1.524,0.674
				c0.372,0.449,0.558,1.06,0.558,1.831v0.402h-3.939c0.007,0.751,0.182,1.325,0.526,1.721c0.344,0.396,0.836,0.594,1.477,0.594
				c0.312,0,0.586-0.022,0.823-0.065c0.236-0.044,0.536-0.138,0.898-0.282v0.453c-0.309,0.134-0.594,0.226-0.855,0.274
				C37.971,79.452,37.683,79.476,37.368,79.476z M37.222,74.244c-0.527,0-0.949,0.174-1.268,0.521s-0.505,0.848-0.558,1.502h3.381
				c0-0.634-0.138-1.13-0.413-1.487C38.089,74.422,37.708,74.244,37.222,74.244z"/>
			<path style="fill:#231F20;" d="M44.628,79.376v-3.547c0-0.55-0.116-0.95-0.347-1.2c-0.231-0.25-0.59-0.375-1.077-0.375
				c-0.654,0-1.133,0.165-1.436,0.496c-0.304,0.33-0.455,0.866-0.455,1.607v3.019h-0.498v-5.469h0.423l0.096,0.75h0.03
				c0.356-0.57,0.988-0.855,1.897-0.855c1.241,0,1.862,0.666,1.862,1.997v3.577H44.628z"/>
			<path style="fill:#231F20;" d="M48.336,79.034c0.315,0,0.59-0.027,0.825-0.08v0.402c-0.241,0.08-0.52,0.121-0.835,0.121
				c-0.483,0-0.839-0.129-1.069-0.387c-0.23-0.258-0.345-0.664-0.345-1.218v-3.532h-0.81v-0.292l0.81-0.226l0.252-1.238h0.257v1.323
				h1.605v0.433H47.42v3.461c0,0.419,0.074,0.73,0.221,0.931S48.02,79.034,48.336,79.034z"/>
			<path style="fill:#231F20;" d="M50.273,72.387c0-0.322,0.106-0.483,0.317-0.483c0.104,0,0.185,0.042,0.244,0.126
				s0.088,0.203,0.088,0.357c0,0.151-0.029,0.27-0.088,0.357c-0.059,0.087-0.14,0.131-0.244,0.131
				C50.378,72.875,50.273,72.713,50.273,72.387z M50.841,79.376h-0.498v-5.469h0.498V79.376z"/>
			<path style="fill:#231F20;" d="M55.993,79.376l-0.126-0.865h-0.04c-0.275,0.352-0.558,0.601-0.848,0.747
				c-0.29,0.146-0.633,0.219-1.029,0.219c-0.537,0-0.954-0.138-1.253-0.413c-0.299-0.275-0.448-0.656-0.448-1.142
				c0-0.533,0.222-0.948,0.667-1.243c0.444-0.295,1.088-0.451,1.929-0.468l1.041-0.03v-0.362c0-0.52-0.106-0.912-0.317-1.177
				s-0.552-0.397-1.021-0.397c-0.506,0-1.031,0.141-1.575,0.423l-0.186-0.433c0.6-0.282,1.194-0.423,1.781-0.423
				c0.6,0,1.049,0.156,1.346,0.468c0.297,0.312,0.445,0.798,0.445,1.459v3.638H55.993z M53.981,79.023
				c0.584,0,1.044-0.167,1.381-0.501c0.337-0.334,0.506-0.797,0.506-1.391v-0.538l-0.956,0.04c-0.768,0.037-1.316,0.157-1.643,0.36
				c-0.327,0.203-0.491,0.519-0.491,0.948c0,0.342,0.105,0.608,0.314,0.797C53.302,78.929,53.598,79.023,53.981,79.023z"/>
			<path style="fill:#231F20;" d="M58.63,79.376h-0.498v-7.829h0.498V79.376z"/>
			<path style="fill:#231F20;" d="M67.323,77.479c0,0.614-0.226,1.1-0.677,1.459c-0.451,0.359-1.051,0.538-1.799,0.538
				c-0.899,0-1.588-0.099-2.068-0.297v-0.513c0.53,0.225,1.206,0.337,2.028,0.337c0.604,0,1.083-0.138,1.436-0.415
				c0.354-0.277,0.531-0.64,0.531-1.089c0-0.278-0.059-0.509-0.176-0.692s-0.309-0.35-0.574-0.501
				c-0.265-0.151-0.654-0.314-1.167-0.488c-0.751-0.258-1.27-0.537-1.557-0.838c-0.287-0.3-0.43-0.7-0.43-1.2
				c0-0.55,0.215-0.999,0.647-1.346c0.431-0.347,0.985-0.521,1.663-0.521c0.691,0,1.34,0.131,1.947,0.392l-0.186,0.443
				c-0.61-0.255-1.194-0.382-1.751-0.382c-0.543,0-0.976,0.126-1.298,0.377c-0.322,0.252-0.483,0.594-0.483,1.026
				c0,0.272,0.049,0.495,0.148,0.669s0.261,0.331,0.486,0.47c0.225,0.139,0.61,0.306,1.157,0.501
				c0.574,0.198,1.005,0.39,1.293,0.576c0.288,0.186,0.499,0.397,0.631,0.634C67.257,76.858,67.323,77.143,67.323,77.479z"/>
			<path style="fill:#231F20;" d="M70.936,79.476c-0.782,0-1.394-0.247-1.836-0.74c-0.443-0.493-0.664-1.181-0.664-2.063
				c0-0.906,0.23-1.611,0.689-2.116c0.46-0.505,1.088-0.757,1.887-0.757c0.473,0,0.926,0.082,1.358,0.247l-0.136,0.443
				c-0.473-0.158-0.884-0.236-1.233-0.236c-0.671,0-1.179,0.207-1.524,0.621s-0.518,1.01-0.518,1.789
				c0,0.738,0.173,1.316,0.518,1.733s0.828,0.626,1.449,0.626c0.496,0,0.958-0.089,1.384-0.267v0.463
				C71.96,79.391,71.503,79.476,70.936,79.476z"/>
			<path style="fill:#231F20;" d="M77.461,79.376v-3.547c0-0.55-0.116-0.95-0.347-1.2c-0.231-0.25-0.59-0.375-1.077-0.375
				c-0.654,0-1.133,0.165-1.436,0.496c-0.304,0.33-0.455,0.866-0.455,1.607v3.019h-0.498v-7.829h0.498v2.49l-0.025,0.699h0.035
				c0.205-0.329,0.463-0.567,0.775-0.714c0.312-0.148,0.699-0.221,1.162-0.221c1.241,0,1.862,0.666,1.862,1.997v3.577H77.461z"/>
			<path style="fill:#231F20;" d="M84.248,76.634c0,0.892-0.216,1.589-0.649,2.09c-0.433,0.501-1.03,0.752-1.791,0.752
				c-0.48,0-0.902-0.116-1.268-0.347c-0.366-0.231-0.646-0.563-0.84-0.996s-0.292-0.932-0.292-1.499
				c0-0.892,0.216-1.587,0.649-2.085c0.433-0.498,1.026-0.747,1.781-0.747c0.751,0,1.341,0.252,1.768,0.757
				C84.035,75.063,84.248,75.755,84.248,76.634z M79.932,76.634c0,0.751,0.165,1.337,0.496,1.758
				c0.33,0.421,0.797,0.631,1.401,0.631c0.604,0,1.071-0.21,1.401-0.631c0.33-0.421,0.496-1.007,0.496-1.758
				c0-0.755-0.167-1.34-0.501-1.756c-0.334-0.416-0.802-0.624-1.406-0.624s-1.069,0.207-1.396,0.621S79.932,75.876,79.932,76.634z"
				/>
			<path style="fill:#231F20;" d="M90.286,76.634c0,0.892-0.216,1.589-0.649,2.09c-0.433,0.501-1.03,0.752-1.791,0.752
				c-0.48,0-0.902-0.116-1.268-0.347c-0.366-0.231-0.646-0.563-0.84-0.996s-0.292-0.932-0.292-1.499
				c0-0.892,0.216-1.587,0.649-2.085s1.026-0.747,1.781-0.747c0.751,0,1.341,0.252,1.768,0.757
				C90.072,75.063,90.286,75.755,90.286,76.634z M85.969,76.634c0,0.751,0.165,1.337,0.496,1.758
				c0.33,0.421,0.797,0.631,1.401,0.631s1.071-0.21,1.401-0.631c0.33-0.421,0.496-1.007,0.496-1.758c0-0.755-0.167-1.34-0.501-1.756
				c-0.334-0.416-0.802-0.624-1.406-0.624s-1.069,0.207-1.396,0.621S85.969,75.876,85.969,76.634z"/>
			<path style="fill:#231F20;" d="M92.298,79.376H91.8v-7.829h0.498V79.376z"/>
			<path style="fill:#231F20;" d="M98.849,79.376h-0.518v-6.873h-2.39V72.02h5.298v0.483h-2.39V79.376z"/>
			<path style="fill:#231F20;" d="M106.728,76.634c0,0.892-0.216,1.589-0.649,2.09c-0.433,0.501-1.03,0.752-1.791,0.752
				c-0.48,0-0.902-0.116-1.268-0.347c-0.366-0.231-0.646-0.563-0.84-0.996s-0.292-0.932-0.292-1.499
				c0-0.892,0.216-1.587,0.649-2.085s1.026-0.747,1.781-0.747c0.751,0,1.341,0.252,1.768,0.757
				C106.514,75.063,106.728,75.755,106.728,76.634z M102.411,76.634c0,0.751,0.165,1.337,0.496,1.758
				c0.33,0.421,0.797,0.631,1.401,0.631s1.071-0.21,1.401-0.631c0.33-0.421,0.496-1.007,0.496-1.758c0-0.755-0.167-1.34-0.501-1.756
				c-0.334-0.416-0.802-0.624-1.406-0.624s-1.069,0.207-1.396,0.621S102.411,75.876,102.411,76.634z"/>
			<path style="fill:#231F20;" d="M112.765,76.634c0,0.892-0.216,1.589-0.649,2.09s-1.03,0.752-1.791,0.752
				c-0.48,0-0.902-0.116-1.268-0.347c-0.366-0.231-0.646-0.563-0.84-0.996c-0.195-0.433-0.292-0.932-0.292-1.499
				c0-0.892,0.216-1.587,0.649-2.085c0.433-0.498,1.026-0.747,1.781-0.747c0.751,0,1.341,0.252,1.768,0.757
				C112.551,75.063,112.765,75.755,112.765,76.634z M108.448,76.634c0,0.751,0.165,1.337,0.496,1.758
				c0.33,0.421,0.797,0.631,1.401,0.631s1.071-0.21,1.401-0.631c0.33-0.421,0.496-1.007,0.496-1.758c0-0.755-0.167-1.34-0.501-1.756
				c-0.334-0.416-0.802-0.624-1.406-0.624s-1.069,0.207-1.396,0.621S108.448,75.876,108.448,76.634z"/>
			<path style="fill:#231F20;" d="M114.778,79.376h-0.498v-7.829h0.498V79.376z"/>
			<path style="fill:#231F20;" d="M120,77.952c0,0.49-0.186,0.866-0.558,1.13s-0.901,0.395-1.585,0.395
				c-0.731,0-1.311-0.112-1.741-0.337v-0.538c0.55,0.275,1.13,0.413,1.741,0.413c0.54,0,0.95-0.09,1.23-0.269s0.42-0.418,0.42-0.717
				c0-0.275-0.112-0.506-0.335-0.694c-0.223-0.188-0.589-0.372-1.099-0.553c-0.547-0.198-0.931-0.368-1.152-0.511
				c-0.221-0.143-0.388-0.304-0.501-0.483c-0.112-0.179-0.169-0.398-0.169-0.657c0-0.409,0.172-0.733,0.516-0.971
				c0.344-0.238,0.824-0.357,1.441-0.357c0.59,0,1.15,0.111,1.68,0.332l-0.186,0.453c-0.537-0.221-1.035-0.332-1.494-0.332
				c-0.446,0-0.8,0.074-1.062,0.221c-0.262,0.148-0.392,0.352-0.392,0.614c0,0.285,0.101,0.513,0.304,0.684
				c0.203,0.171,0.6,0.362,1.19,0.574c0.493,0.178,0.852,0.338,1.077,0.48s0.393,0.304,0.506,0.486
				C119.944,77.494,120,77.707,120,77.952z"/>
		</g>
	</g>
</g>
<g id="Layer_1">
</g>
</svg>
