<?xml version="1.0" encoding="iso-8859-1"?>
<!-- Generator: Adobe Illustrator 18.1.0, SVG Export Plug-In . SVG Version: 6.00 Build 0)  -->
<!DOCTYPE svg PUBLIC "-//W3C//DTD SVG 1.1//EN" "http://www.w3.org/Graphics/SVG/1.1/DTD/svg11.dtd">
<svg version="1.1" xmlns="http://www.w3.org/2000/svg" xmlns:xlink="http://www.w3.org/1999/xlink" x="0px" y="0px"
	 viewBox="0 0 140 105" style="enable-background:new 0 0 140 105;" xml:space="preserve">
<g id="vumble">
	<g>
		<path style="fill:#636363;" d="M56.568,46.875h-4.376c-0.117,0-0.211,0.095-0.211,0.212v7.558c0,0.828-0.219,1.55-0.658,2.167
			c-0.439,0.616-1.078,0.924-1.916,0.924c-0.449,0-0.809-0.082-1.082-0.245c-0.273-0.164-0.492-0.39-0.658-0.679
			s-0.278-0.616-0.336-0.982c-0.058-0.366-0.088-0.751-0.088-1.155v-7.589c0-0.116-0.094-0.211-0.211-0.211h-4.406
			c-0.116,0-0.211,0.095-0.211,0.211v8.686c0,0.732,0.093,1.449,0.278,2.152c0.185,0.703,0.488,1.329,0.907,1.878
			c0.419,0.549,0.965,0.997,1.638,1.343c0.673,0.347,1.497,0.52,2.472,0.52c0.507,0,0.99-0.067,1.448-0.202
			c0.458-0.135,0.878-0.308,1.258-0.52c0.38-0.212,0.712-0.462,0.995-0.751c0.283-0.289,0.512-0.597,0.688-0.924h0.058v1.467
			c0,0.29,0.236,0.526,0.528,0.526h3.566c0.292,0,0.528-0.236,0.528-0.527V47.087C56.779,46.969,56.685,46.875,56.568,46.875z"/>
		<path style="fill:#636363;" d="M82.756,48.392c-0.41-0.568-0.951-1.03-1.624-1.387c-0.673-0.356-1.507-0.534-2.501-0.534
			c-1.092,0-2.018,0.221-2.779,0.664c-0.761,0.443-1.385,1.04-1.872,1.791c-0.41-0.79-0.98-1.396-1.711-1.82
			c-0.731-0.424-1.624-0.635-2.677-0.635c-0.546,0-1.048,0.067-1.507,0.202c-0.458,0.135-0.873,0.313-1.243,0.534
			c-0.371,0.221-0.687,0.477-0.951,0.766c-0.263,0.289-0.483,0.587-0.717,0.895v-1.782c0-0.118-0.095-0.211-0.212-0.211h-4.227
			c-0.117,0-0.212,0.095-0.212,0.212v13.962c0,0.118,0.094,0.212,0.211,0.212h4.406c0.116,0,0.211-0.094,0.211-0.211v-7.589
			c0-0.867,0.21-1.598,0.629-2.195c0.419-0.597,1.009-0.896,1.77-0.896c0.722,0,1.248,0.241,1.58,0.722s0.497,1.136,0.497,1.964
			v7.993c0,0.116,0.094,0.211,0.211,0.211h4.376c0.117,0,0.211-0.095,0.211-0.212V53.49c0-0.404,0.049-0.794,0.146-1.17
			c0.097-0.376,0.249-0.708,0.453-0.997s0.458-0.52,0.761-0.693c0.302-0.173,0.658-0.26,1.068-0.26c0.429,0,0.775,0.082,1.038,0.246
			c0.263,0.164,0.473,0.38,0.629,0.65c0.156,0.27,0.263,0.592,0.322,0.968c0.059,0.376,0.088,0.766,0.088,1.17v7.647
			c0,0.116,0.094,0.21,0.211,0.21h4.376c0.117,0,0.211-0.095,0.211-0.211v-8.686c0-0.674-0.093-1.362-0.278-2.065
			C83.463,49.595,83.166,48.96,82.756,48.392z"/>
		<path style="fill:#636363;" d="M129.459,50.948c-0.361-0.963-0.863-1.781-1.507-2.455c-0.644-0.674-1.414-1.189-2.311-1.545
			c-0.897-0.356-1.882-0.534-2.955-0.534c-1.112,0-2.145,0.183-3.101,0.549c-0.956,0.366-1.784,0.881-2.487,1.545
			s-1.258,1.473-1.667,2.426s-0.614,2.017-0.614,3.192c0,1.213,0.21,2.292,0.629,3.235c0.419,0.944,0.995,1.738,1.726,2.383
			c0.731,0.645,1.585,1.136,2.56,1.473c0.975,0.337,2.009,0.505,3.101,0.505c1.482,0,2.784-0.265,3.905-0.794
			c1.121-0.53,2.561-2.113,2.561-2.113c0.081-0.085,0.063-0.202-0.037-0.261l-3.1-1.824c-0.05-0.029-0.124-0.021-0.166,0.019
			c0,0-0.648,0.635-1.175,0.914c-0.527,0.279-1.17,0.419-1.931,0.419c-0.429,0-0.844-0.067-1.243-0.202
			c-0.4-0.135-0.761-0.323-1.082-0.563c-0.322-0.241-0.585-0.525-0.79-0.852c-0.205-0.327-0.327-0.693-0.366-1.098h10.378
			c0.117,0,0.212-0.094,0.212-0.21c0,0,0-0.724,0-0.916C130,53.009,129.82,51.911,129.459,50.948z M119.41,52.421
			c0.019-0.366,0.117-0.717,0.293-1.054c0.175-0.337,0.41-0.631,0.702-0.881c0.293-0.25,0.634-0.448,1.024-0.592
			c0.39-0.144,0.819-0.217,1.287-0.217c0.956,0,1.672,0.27,2.15,0.809c0.478,0.539,0.717,1.184,0.717,1.935H119.41z"/>
		<path style="fill:#636363;" d="M101.932,48.724c-0.595-0.693-1.316-1.242-2.165-1.647s-1.799-0.607-2.852-0.607
			c-1.073,0-1.979,0.202-2.721,0.607s-1.316,0.847-1.726,1.329H92.41v-7.235c0-0.117-0.082-0.258-0.184-0.316l-4.43-2.527
			c-0.102-0.058-0.184-0.01-0.184,0.107v22.614c0,0.116,0.094,0.212,0.21,0.212h3.997c0.116,0,0.21-0.095,0.21-0.212v-1.666h0.058
			c0.468,0.732,1.136,1.295,2.004,1.69c0.868,0.395,1.789,0.592,2.764,0.592c1.092,0,2.067-0.212,2.925-0.635
			c0.858-0.424,1.585-0.987,2.179-1.69c0.595-0.703,1.048-1.517,1.36-2.441c0.312-0.924,0.468-1.887,0.468-2.889
			c0-1.001-0.161-1.959-0.483-2.874S102.526,49.417,101.932,48.724z M98.948,55.382c-0.146,0.453-0.366,0.852-0.658,1.199
			c-0.293,0.347-0.653,0.626-1.082,0.838c-0.429,0.212-0.926,0.318-1.492,0.318c-0.546,0-1.034-0.106-1.463-0.318
			c-0.429-0.212-0.795-0.491-1.097-0.838c-0.302-0.347-0.536-0.741-0.702-1.184c-0.166-0.443-0.249-0.895-0.249-1.358
			c0-0.462,0.083-0.915,0.249-1.358c0.166-0.443,0.4-0.838,0.702-1.184c0.302-0.347,0.668-0.626,1.097-0.838
			c0.429-0.212,0.917-0.318,1.463-0.318c0.566,0,1.063,0.106,1.492,0.318c0.429,0.212,0.79,0.486,1.082,0.823
			c0.293,0.337,0.512,0.727,0.658,1.17c0.146,0.443,0.219,0.895,0.219,1.358C99.167,54.472,99.094,54.93,98.948,55.382z"/>
		<path style="fill:#636363;" d="M107.074,38.328c-0.102-0.058-0.184-0.009-0.184,0.108v22.614c0,0.116,0.095,0.212,0.212,0.212
			h4.432c0.117,0,0.212-0.094,0.212-0.211V41.171c0-0.116-0.083-0.257-0.184-0.315L107.074,38.328z"/>
		<path style="fill:#636363;" d="M10,44.116v16.768l14.383,8.384l14.383-8.384V44.116l-14.383-8.384L10,44.116z M29.969,45.063
			c0.155-0.269,0.286-0.361,0.553-0.206l4.015,2.237c0.267,0.155,0.359,0.286,0.204,0.555L24.598,65.16
			c-0.045,0.077-0.104,0.115-0.162,0.114c-0.059,0.002-0.118-0.036-0.162-0.114L14.129,47.648c-0.155-0.269-0.063-0.399,0.204-0.555
			l4.015-2.237c0.267-0.155,0.398-0.063,0.553,0.206l5.534,9.591L29.969,45.063z"/>
	</g>
</g>
<g id="Layer_1">
</g>
</svg>
