<?xml version="1.0" encoding="iso-8859-1"?>
<!-- Generator: Adobe Illustrator 18.1.0, SVG Export Plug-In . SVG Version: 6.00 Build 0)  -->
<!DOCTYPE svg PUBLIC "-//W3C//DTD SVG 1.1//EN" "http://www.w3.org/Graphics/SVG/1.1/DTD/svg11.dtd">
<svg version="1.1" xmlns="http://www.w3.org/2000/svg" xmlns:xlink="http://www.w3.org/1999/xlink" x="0px" y="0px"
	 viewBox="0 0 140 105" style="enable-background:new 0 0 140 105;" xml:space="preserve">
<g id="imaginex">
	<g>
		<path style="fill:#78FFFF;" d="M111.123,62.413v-2.699l3.372-6.74l-3.372-6.742v-2.695h2.696v2.695l2.697,5.393l2.695-5.393
			v-2.695h2.698v2.695l-3.372,6.742l3.372,6.74v2.699h-2.698v-2.699l-2.695-5.394l-2.697,5.394v2.699H111.123z"/>
		<g>
			<path style="fill:#78FFFF;" d="M130,35.446V70.5h-8.09v-2.693h5.393V38.143h-5.393v-2.696H130z"/>
		</g>
		<path style="fill:#111111;" d="M111.123,61.468V58.77l3.372-6.741l-3.372-6.742V42.59h2.696v2.696l2.697,5.393l2.695-5.393V42.59
			h2.698v2.696l-3.372,6.742l3.372,6.741v2.698h-2.698V58.77l-2.695-5.394l-2.697,5.394v2.698H111.123z"/>
		<g>
			<path style="fill:#78FFFF;" d="M18.09,62.413v-2.699h2.697V46.231H18.09v-2.695h8.09v2.695h-2.696v13.483h2.696v2.699H18.09z"/>
			<path style="fill:#78FFFF;" d="M28.876,62.413V43.536h2.697l4.045,8.088l4.045-8.088h2.697v18.877h-2.697V48.929l-2.696,5.392
				H34.27l-2.696-5.392v13.484H28.876z"/>
			<path style="fill:#78FFFF;" d="M45.056,62.413V46.231c0-0.744,0.26-1.376,0.78-1.896c0.52-0.533,1.158-0.8,1.916-0.8h5.395
				c0.743,0,1.376,0.267,1.896,0.8c0.533,0.52,0.801,1.151,0.801,1.896v16.182h-2.696V54.32h-5.395v8.093H45.056z M53.146,51.624
				v-5.393h-5.395v5.393H53.146z"/>
			<path style="fill:#78FFFF;" d="M61.236,62.413c-0.759,0-1.397-0.26-1.918-0.78c-0.52-0.52-0.778-1.159-0.778-1.919V46.231
				c0-0.744,0.259-1.376,0.778-1.896c0.521-0.533,1.159-0.8,1.918-0.8h5.394c0.744,0,1.376,0.267,1.896,0.8
				c0.534,0.52,0.801,1.151,0.801,1.896v2.697H66.63v-2.697h-5.394v13.483h5.394V54.32h-2.697v-2.696h4.045
				c0.365,0,0.681,0.136,0.948,0.401c0.267,0.268,0.4,0.583,0.4,0.948v6.74c0,0.76-0.267,1.399-0.801,1.919
				c-0.52,0.521-1.151,0.78-1.896,0.78H61.236z"/>
			<path style="fill:#78FFFF;" d="M72.022,62.413v-2.699h2.697V46.231h-2.697v-2.695h8.09v2.695h-2.696v13.483h2.696v2.699H72.022z"
				/>
			<path style="fill:#78FFFF;" d="M82.809,62.413V43.536h2.695l6.743,13.483V43.536h2.697v18.877h-2.697l-6.743-13.484v13.484
				H82.809z"/>
			<path style="fill:#78FFFF;" d="M97.64,62.413V43.536h10.786v2.695h-8.089v5.393h5.395v2.696h-5.395v5.394h8.089v2.699H97.64z"/>
			<g>
				<path style="fill:#78FFFF;" d="M10,70.5V35.446h8.09v2.696h-5.392v29.664h5.392V70.5H10z"/>
			</g>
			<path style="fill:#111111;" d="M18.09,61.468V58.77h2.697V45.286H18.09V42.59h8.09v2.696h-2.696V58.77h2.696v2.698H18.09z"/>
			<path style="fill:#111111;" d="M28.876,61.468V42.59h2.697l4.045,8.089l4.045-8.089h2.697v18.878h-2.697V47.983l-2.696,5.393
				H34.27l-2.696-5.393v13.484H28.876z"/>
			<path style="fill:#111111;" d="M45.056,61.468V45.286c0-0.744,0.26-1.376,0.78-1.896c0.52-0.533,1.158-0.801,1.916-0.801h5.395
				c0.743,0,1.376,0.268,1.896,0.801c0.533,0.52,0.801,1.151,0.801,1.896v16.182h-2.696v-8.092h-5.395v8.092H45.056z M53.146,50.679
				v-5.393h-5.395v5.393H53.146z"/>
			<path style="fill:#111111;" d="M61.236,61.468c-0.759,0-1.397-0.26-1.918-0.78c-0.52-0.52-0.778-1.159-0.778-1.918V45.286
				c0-0.744,0.259-1.376,0.778-1.896c0.521-0.533,1.159-0.801,1.918-0.801h5.394c0.744,0,1.376,0.268,1.896,0.801
				c0.534,0.52,0.801,1.151,0.801,1.896v2.697H66.63v-2.697h-5.394V58.77h5.394v-5.394h-2.697v-2.697h4.045
				c0.365,0,0.681,0.136,0.948,0.401c0.267,0.268,0.4,0.583,0.4,0.948v6.741c0,0.759-0.267,1.398-0.801,1.918
				c-0.52,0.521-1.151,0.78-1.896,0.78H61.236z"/>
			<path style="fill:#111111;" d="M72.022,61.468V58.77h2.697V45.286h-2.697V42.59h8.09v2.696h-2.696V58.77h2.696v2.698H72.022z"/>
			<path style="fill:#111111;" d="M82.809,61.468V42.59h2.695l6.743,13.483V42.59h2.697v18.878h-2.697l-6.743-13.484v13.484H82.809z
				"/>
			<path style="fill:#111111;" d="M97.64,61.468V42.59h10.786v2.696h-8.089v5.393h5.395v2.697h-5.395v5.394h8.089v2.698H97.64z"/>
			<g>
				<path style="fill:#111111;" d="M10,69.556V34.5h8.09v2.697h-5.392v29.664h5.392v2.694H10z"/>
			</g>
		</g>
		<g>
			<path style="fill:#111111;" d="M130,34.5v35.056h-8.09v-2.694h5.393V37.197h-5.393V34.5H130z"/>
		</g>
	</g>
</g>
<g id="Layer_1">
</g>
</svg>
