<?xml version="1.0" encoding="iso-8859-1"?>
<!-- Generator: Adobe Illustrator 18.1.0, SVG Export Plug-In . SVG Version: 6.00 Build 0)  -->
<!DOCTYPE svg PUBLIC "-//W3C//DTD SVG 1.1//EN" "http://www.w3.org/Graphics/SVG/1.1/DTD/svg11.dtd">
<svg version="1.1" xmlns="http://www.w3.org/2000/svg" xmlns:xlink="http://www.w3.org/1999/xlink" x="0px" y="0px"
	 viewBox="0 0 140 105" style="enable-background:new 0 0 140 105;" xml:space="preserve">
<g id="mindforge">
	<path style="fill:#550000;" d="M105.817,46.728c-0.731-2.228-1.586-3.67-3.074-5.184c-2.582-2.626-6.936-3.549-11.302-2.397
		c-0.465,0.122-5.028,2.239-10.142,4.704c-5.112,2.465-9.682,4.652-10.154,4.861l-0.857,0.379l-6.421-3.55
		c-3.531-1.953-6.443-3.528-6.471-3.5c-0.027,0.027-1.31,6.029-2.852,13.336c-1.541,7.309-2.824,13.316-2.851,13.352
		c-0.027,0.035-0.091,0.021-0.142-0.029c-0.083-0.083-5.744-32.982-5.745-33.388c0-0.089,3.036-1.655,6.748-3.479l6.749-3.316
		l6.225,3.454l6.225,3.454l4.482-1.992c3.077-1.368,4.417-2.034,4.274-2.125c-0.114-0.074-2.832-1.594-6.04-3.379
		c-3.207-1.785-5.852-3.306-5.876-3.381c-0.045-0.138,5.428-3.18,5.727-3.182c0.09,0,3.513,1.833,7.606,4.075
		c4.093,2.242,7.663,4.189,7.933,4.328l0.492,0.252l4.615-2.184c2.538-1.202,4.559-2.241,4.49-2.309
		C99.332,25.404,71.384,10.065,71.167,10c-0.062-0.018-8.623,4.151-19.027,9.264L33.225,28.56l-0.095,1.076
		c-0.052,0.591-0.074,10.846-0.049,22.789l0.046,21.713l4.61,2.524c2.536,1.389,4.662,2.525,4.727,2.526
		c0.064,0.002,0.07-6.739,0.013-14.979c-0.065-9.288-0.049-14.982,0.04-14.982c0.079,0,1.351,7.523,2.825,16.719l2.682,16.718
		l3.511,1.971c1.931,1.084,3.562,1.91,3.625,1.836c0.064-0.074,1.279-6.116,2.702-13.426c1.422-7.31,2.618-13.378,2.656-13.484
		c0.038-0.105,0.131-0.191,0.206-0.191c0.079,0,0.153,6.516,0.176,15.298l0.039,15.299l4.763,2.509
		c2.62,1.379,4.811,2.516,4.868,2.525c0.058,0.01,4.898-2.341,10.756-5.225c5.858-2.884,11.412-5.604,12.342-6.045
		c2.058-0.978,3.746-2.217,5.381-3.948c3.222-3.413,5.483-8.044,6.742-13.806C107.298,59.084,107.309,51.279,105.817,46.728z
		 M95.405,61.893c-0.279,5.263-1.578,9.143-3.867,11.553l-1.096,1.153l-3.236,1.432c-1.78,0.787-3.379,1.477-3.554,1.532
		c-0.314,0.1-0.319,0.056-0.412-4.014c-0.052-2.264-0.138-7.538-0.191-11.723l-0.097-7.607l2.362-1.143
		c3.879-1.877,4.206-1.996,5.502-2.001c1.809-0.007,2.756,0.593,3.618,2.295C95.279,55.035,95.613,57.972,95.405,61.893z"/>
</g>
<g id="Layer_1">
</g>
</svg>
