<?xml version="1.0" encoding="iso-8859-1"?>
<!-- Generator: Adobe Illustrator 18.1.0, SVG Export Plug-In . SVG Version: 6.00 Build 0)  -->
<!DOCTYPE svg PUBLIC "-//W3C//DTD SVG 1.1//EN" "http://www.w3.org/Graphics/SVG/1.1/DTD/svg11.dtd">
<svg version="1.1" xmlns="http://www.w3.org/2000/svg" xmlns:xlink="http://www.w3.org/1999/xlink" x="0px" y="0px"
	 viewBox="0 0 140 105" style="enable-background:new 0 0 140 105;" xml:space="preserve">
<g id="hiddenumd">
	<g>
		<g>
			<path d="M18.788,54.254h-2.784v-4.18h-3.22v4.18H10V44h2.784v3.802h3.22V44h2.784V54.254z"/>
			<path d="M23.877,54.254V44h2.784v10.254H23.877z"/>
			<path d="M40.455,48.91c0,1.711-0.472,3.03-1.413,3.956c-0.942,0.926-2.267,1.389-3.974,1.389h-3.317V44H35.3
				c1.646,0,2.917,0.421,3.812,1.263C40.007,46.104,40.455,47.32,40.455,48.91z M37.579,49.008c0-0.94-0.186-1.637-0.558-2.09
				c-0.372-0.454-0.937-0.681-1.693-0.681h-0.807v5.744h0.617c0.842,0,1.459-0.244,1.852-0.733
				C37.383,50.76,37.579,50.013,37.579,49.008z"/>
			<path d="M53.869,48.91c0,1.711-0.472,3.03-1.413,3.956c-0.942,0.926-2.267,1.389-3.974,1.389h-3.317V44h3.549
				c1.646,0,2.917,0.421,3.811,1.263C53.421,46.104,53.869,47.32,53.869,48.91z M50.993,49.008c0-0.94-0.186-1.637-0.558-2.09
				c-0.372-0.454-0.937-0.681-1.693-0.681h-0.807v5.744h0.617c0.842,0,1.459-0.244,1.852-0.733
				C50.797,50.76,50.993,50.013,50.993,49.008z"/>
			<path d="M64.667,54.254h-6.088V44h6.088v2.224H61.35v1.613h3.072v2.224H61.35v1.936h3.317V54.254z"/>
			<path d="M79.098,54.254h-3.633L71.72,47.03h-0.062c0.089,1.136,0.133,2.003,0.133,2.602v4.622h-2.454V44h3.618l3.731,7.126h0.043
				c-0.065-1.034-0.099-1.863-0.099-2.49V44h2.469V54.254z"/>
			<path d="M99.51,44v6.172c0,1.341-0.38,2.38-1.141,3.117c-0.76,0.737-1.854,1.105-3.285,1.105c-1.398,0-2.472-0.357-3.224-1.073
				c-0.749-0.716-1.125-1.743-1.125-3.086V44h2.784v6.018c0,0.725,0.137,1.251,0.407,1.578c0.271,0.327,0.671,0.491,1.199,0.491
				c0.566,0,0.976-0.162,1.231-0.487c0.254-0.325,0.382-0.857,0.382-1.596V44H99.51z"/>
			<path d="M109.003,54.254l-2.097-7.385h-0.063c0.098,1.258,0.147,2.235,0.147,2.932v4.454h-2.455V44h3.689l2.139,7.28h0.057
				l2.097-7.28h3.696v10.254h-2.546v-4.496c0-0.234,0.004-0.493,0.01-0.778c0.008-0.285,0.039-0.984,0.096-2.097h-0.063
				l-2.069,7.371H109.003z"/>
			<path d="M130,48.91c0,1.711-0.471,3.03-1.415,3.956c-0.941,0.926-2.267,1.389-3.972,1.389h-3.317V44h3.548
				c1.647,0,2.918,0.421,3.811,1.263C129.551,46.104,130,47.32,130,48.91z M127.124,49.008c0-0.94-0.187-1.637-0.559-2.09
				c-0.371-0.454-0.937-0.681-1.693-0.681h-0.806v5.744h0.617c0.842,0,1.459-0.244,1.852-0.733
				C126.928,50.76,127.124,50.013,127.124,49.008z"/>
		</g>
		<rect x="50" y="61.742" width="40" height="3"/>
	</g>
</g>
<g id="Layer_1">
</g>
</svg>
