<?xml version="1.0" encoding="iso-8859-1"?>
<!-- Generator: Adobe Illustrator 18.1.0, SVG Export Plug-In . SVG Version: 6.00 Build 0)  -->
<!DOCTYPE svg PUBLIC "-//W3C//DTD SVG 1.1//EN" "http://www.w3.org/Graphics/SVG/1.1/DTD/svg11.dtd">
<svg version="1.1" xmlns="http://www.w3.org/2000/svg" xmlns:xlink="http://www.w3.org/1999/xlink" x="0px" y="0px"
	 viewBox="0 0 140 105" style="enable-background:new 0 0 140 105;" xml:space="preserve">
<g id="grandy">
	<g>
		<path style="fill:#28C785;" d="M23.766,34.344c3.22,0,6.749,1.342,9.356,3.605c0.345,0.268,0.384,0.729,0.076,1.035l-3.03,3.221
			c-0.306,0.268-0.729,0.268-1.034,0.038c-1.457-1.342-3.145-1.84-5.023-1.84c-4.179,0-7.554,3.527-7.554,7.745
			c0,4.179,3.413,7.63,7.593,7.63c1.111,0,2.262-0.153,3.412-0.613v-2.224h-2.415c-0.423,0-0.729-0.307-0.729-0.69v-3.796
			c0-0.422,0.306-0.729,0.729-0.729h7.707c0.384,0,0.69,0.345,0.69,0.729l0.039,10.314c0,0.346-0.153,0.499-0.307,0.615
			c0,0-3.948,2.491-9.509,2.491C16.136,61.874,10,55.817,10,48.147C10,40.479,16.136,34.344,23.766,34.344z"/>
		<path style="fill:#28C785;" d="M38.108,44.658c0-0.498,0.384-0.843,0.844-0.843h1.841c0.46,0,0.69,0.23,0.805,0.537l0.805,1.956
			c0.766-1.419,2.109-2.876,4.409-2.876c1.612,0,2.8,0.422,3.451,0.92c0.307,0.23,0.307,0.613,0.115,0.959L48.614,48.8
			c-0.192,0.346-0.499,0.614-0.997,0.422c-0.307-0.115-0.959-0.268-1.343-0.268c-1.342,0-2.339,0.959-2.339,2.454v9.278
			c0,0.537-0.307,0.844-0.958,0.844h-4.027c-0.46,0-0.844-0.384-0.844-0.844V44.658z"/>
		<path style="fill:#28C785;" d="M57.822,50.218c1.994,0,3.488,0.767,3.488,0.767c0-1.725-0.382-2.722-2.454-2.722
			c-1.226,0-3.296,0.268-4.448,0.613c-0.69,0.23-0.997-0.268-1.073-0.92l-0.421-2.722c-0.115-0.768,0.306-1.112,0.69-1.227
			c0.423-0.154,3.527-0.576,5.905-0.576c5.484,0,7.401,2.224,7.401,7.477v9.777c0,0.46-0.423,0.844-0.844,0.844h-1.878
			c-0.268,0-0.576-0.076-0.805-0.576l-0.576-1.189c-1.073,0.92-2.569,2.186-5.368,2.186c-3.49,0-6.134-2.3-6.134-5.828
			C51.304,52.711,53.795,50.218,57.822,50.218z M58.972,57.658c1.073,0,1.994-0.883,1.994-1.956c0-1.034-0.92-1.955-1.994-1.955
			c-1.073,0-1.955,0.92-1.955,1.955C57.017,56.775,57.898,57.658,58.972,57.658z"/>
		<path style="fill:#28C785;" d="M70.972,44.658c0-0.498,0.384-0.843,0.844-0.843h1.725c0.268,0,0.613,0.192,0.805,0.537
			l0.652,1.764c0.958-1.073,2.301-2.684,5.521-2.684c5.521,0,7.401,3.911,7.401,8.781v8.473c0,0.46-0.384,0.844-0.805,0.844h-4.179
			c-0.499,0-0.844-0.384-0.844-0.844v-8.55c0-1.687-0.576-3.26-2.569-3.26c-1.764,0-2.683,1.227-2.683,3.03v8.78
			c0,0.384-0.192,0.844-0.807,0.844h-4.217c-0.46,0-0.844-0.384-0.844-0.844V44.658z"/>
		<path style="fill:#28C785;" d="M99.728,43.431c1.725,0,3.527,0.537,4.101,0.997v-8.895c0-0.422,0.384-0.843,0.844-0.843h4.142
			c0.46,0,0.842,0.421,0.842,0.843v25.153c0,0.46-0.382,0.844-0.842,0.844h-1.725c-0.423,0-0.768-0.384-0.92-0.881l-0.499-1.457
			c0,0-2.07,2.76-5.981,2.76c-4.984,0-8.743-4.217-8.743-9.278C90.947,46.422,95.01,43.431,99.728,43.431z M100.571,56.469
			c2.186,0,3.758-1.649,3.758-3.835c0-2.147-1.573-3.758-3.758-3.758c-2.109,0-3.757,1.611-3.757,3.758
			C96.814,54.82,98.461,56.469,100.571,56.469z"/>
		<path style="fill:#28C785;" d="M112.118,44.965c-0.192-0.575,0.076-1.15,0.729-1.15h4.562c0.307,0,0.615,0.192,0.691,0.498
			l2.415,9.394h0.076l3.413-9.394c0.115-0.307,0.421-0.498,0.766-0.498h4.371c0.691,0,1.036,0.537,0.768,1.15l-10.468,25.154
			c-0.115,0.268-0.421,0.537-0.729,0.537h-4.295c-0.651,0-0.997-0.576-0.729-1.189l3.682-9.279L112.118,44.965z"/>
	</g>
</g>
<g id="Layer_1">
</g>
</svg>
