<?xml version="1.0" encoding="iso-8859-1"?>
<!-- Generator: Adobe Illustrator 18.1.0, SVG Export Plug-In . SVG Version: 6.00 Build 0)  -->
<!DOCTYPE svg PUBLIC "-//W3C//DTD SVG 1.1//EN" "http://www.w3.org/Graphics/SVG/1.1/DTD/svg11.dtd">
<svg version="1.1" xmlns="http://www.w3.org/2000/svg" xmlns:xlink="http://www.w3.org/1999/xlink" x="0px" y="0px"
	 viewBox="0 0 140 105" style="enable-background:new 0 0 140 105;" xml:space="preserve">
<g id="sambition">
	<g>
		<path style="fill:#DE2833;" d="M42.615,26.426c0-1.467,0.021-2.78-0.008-4.091c-0.015-0.698,0.217-1.029,0.964-1.01
			c1.371,0.035,2.746-0.037,4.114,0.039c0.395,0.022,0.931,0.299,1.13,0.625c2.767,4.541,5.489,9.11,8.215,13.676
			c0.464,0.778,0.481,0.786,0.929,0.04c2.723-4.535,5.457-9.064,8.163-13.61c0.329-0.552,0.718-0.784,1.351-0.77
			c1.343,0.03,2.688,0.026,4.031,0.003c0.641-0.011,0.91,0.231,0.885,0.891c-0.037,0.947-0.009,1.897-0.009,3.063
			c2.82-3.403,6.385-4.67,10.508-4.477c4.149,0.194,7.425,2.027,9.89,5.719c0-1.562,0.037-2.867-0.014-4.168
			c-0.03-0.769,0.241-1.055,1.007-1.032c1.315,0.039,2.635-0.041,3.945,0.04c0.432,0.027,0.988,0.288,1.241,0.627
			c4.489,6.011,8.939,12.05,13.398,18.083c0.208,0.282,0.419,0.561,0.798,0.779c0-0.296,0-0.593,0-0.889
			c-0.007-5.823-0.015-11.646-0.02-17.47c-0.001-1.132,0.027-1.156,1.19-1.159c1.344-0.003,2.688,0.026,4.031-0.01
			c0.754-0.02,1.053,0.253,1.039,1.024c-0.035,1.875-0.011,3.751-0.01,5.627c0,7.531,0.001,15.062-0.001,22.593
			c0,1.335-0.01,1.343-1.368,1.345c-1.176,0.002-2.353-0.03-3.527,0.012c-0.657,0.023-1.09-0.203-1.477-0.736
			c-4.116-5.66-8.252-11.305-12.38-16.955c-0.509-0.697-1.01-1.4-1.721-2.074c0,0.311,0,0.622,0,0.933
			c0.006,5.879,0.013,11.758,0.017,17.638c0.001,1.162-0.016,1.178-1.166,1.181c-1.372,0.004-2.744-0.016-4.115,0.006
			c-0.648,0.011-0.902-0.247-0.876-0.899c0.037-0.948,0.009-1.899,0.009-3.102c-2.711,3.358-6.197,4.483-10.161,4.542
			c-3.983,0.059-7.39-1.225-10.237-4.425c0,1.155-0.037,2.042,0.011,2.924c0.041,0.751-0.275,0.982-0.985,0.964
			c-1.371-0.034-2.745-0.046-4.115,0.004c-0.824,0.03-1.053-0.297-1.042-1.083c0.072-5.485,0.11-10.971,0.156-16.456
			c0.006-0.72,0.001-1.441-0.151-2.222c-0.487,0.827-0.978,1.65-1.459,2.48c-1.727,2.978-3.462,5.952-5.166,8.943
			c-0.331,0.581-0.73,0.825-1.408,0.802c-2.805-0.094-2.02,0.43-3.42-1.944c-1.849-3.134-3.68-6.279-5.52-9.418
			c-0.138-0.236-0.292-0.463-0.623-0.672c0,0.287-0.002,0.574,0,0.861c0.055,5.822,0.113,11.643,0.163,17.465
			c0.01,1.185-0.044,1.227-1.227,1.23c-1.344,0.004-2.688-0.02-4.031,0.008c-0.68,0.014-0.973-0.247-0.951-0.934
			c0.028-0.888,0.007-1.778,0.007-2.735c-0.176,0.068-0.269,0.075-0.311,0.126c-2.362,2.826-5.519,3.885-9.062,4.067
			c-3.226,0.165-6.241-0.466-8.868-2.462c-2.045-1.554-3.419-3.59-4.285-5.994c-0.196-0.544-0.085-0.824,0.495-0.97
			c1.492-0.378,2.979-0.777,4.459-1.2c0.574-0.164,0.844-0.023,1.051,0.562c1.394,3.936,5.38,5.266,8.985,4.127
			c1.773-0.56,2.722-2.121,2.257-3.768c-0.183-0.647-0.645-1.356-1.19-1.728c-0.933-0.638-2.005-1.1-3.066-1.516
			c-2.265-0.887-4.594-1.618-6.83-2.57c-1.086-0.463-2.13-1.16-3.002-1.96c-2.98-2.732-3.086-7.437-0.276-10.416
			c3.235-3.43,7.296-4.293,11.773-3.505C38.077,21.632,40.679,23.428,42.615,26.426z M72.383,34.005c0,2.777,0.002,5.32-0.002,7.863
			c-0.001,0.501,0.225,0.645,0.691,0.512c0.591-0.169,1.205-0.275,1.778-0.49c0.763-0.285,1.1-0.084,1.401,0.705
			c1.613,4.229,6.15,5.028,9.256,3.767c1.199-0.487,1.913-1.43,1.999-2.768c0.08-1.244-0.478-2.157-1.518-2.787
			c-0.5-0.303-1.007-0.622-1.551-0.822c-1.678-0.619-3.383-1.165-5.066-1.775C76.841,37.292,74.333,36.326,72.383,34.005z
			 M92.773,38.734c0-3.053-0.005-5.874,0.005-8.694c0.002-0.518-0.249-0.532-0.644-0.42c-1.184,0.337-2.377,0.641-3.555,0.996
			c-0.551,0.166-0.805,0.001-0.992-0.532c-0.806-2.303-2.535-3.501-4.877-3.803c-1.521-0.196-3.044-0.073-4.291,0.99
			c-1.375,1.172-1.359,2.857,0.083,3.935c0.684,0.511,1.482,0.906,2.282,1.218c1.51,0.59,3.064,1.066,4.589,1.619
			C88.103,35.033,90.713,36.227,92.773,38.734z M42.603,38.579c0-2.909,0.003-5.664-0.003-8.419
			c-0.001-0.512-0.303-0.597-0.738-0.475c-1.103,0.309-2.213,0.596-3.312,0.92c-0.511,0.151-0.832,0.095-1.016-0.483
			c-1.089-3.432-5.05-4.642-8.142-3.482c-1.08,0.405-1.876,1.153-2.016,2.363c-0.141,1.222,0.599,1.976,1.549,2.57
			c0.26,0.163,0.525,0.332,0.809,0.439c1.463,0.552,2.926,1.107,4.404,1.62C37.24,34.709,40.283,35.877,42.603,38.579z"/>
		<path style="fill:#DE2833;" d="M42.715,59.322c0-1.81,0.024-3.395-0.011-4.979c-0.015-0.69,0.238-0.954,0.926-0.938
			c1.343,0.03,2.691-0.046,4.029,0.038c0.465,0.029,1.044,0.289,1.342,0.638c5.257,6.183,10.478,12.395,15.705,18.604
			c0.107,0.127,0.179,0.284,0.268,0.426c0.078-0.035,0.156-0.071,0.234-0.107c0-0.789,0.004-1.579-0.001-2.368
			c-0.031-5.458-0.061-10.915-0.1-16.373c-0.004-0.604,0.252-0.881,0.855-0.851c0.279,0.014,0.56-0.001,0.84-0.001
			c10.218,0,20.437,0,30.655,0c1.431,0,1.432,0.002,1.433,1.448c0.003,5.459-0.031,10.919,0.025,16.377
			c0.029,2.792,1.091,5.094,3.741,6.359c1.681,0.802,3.5,1.009,5.335,0.744c3.601-0.52,5.568-2.744,5.629-6.58
			c0.09-5.598,0.041-11.198,0.052-16.797c0.001-0.336,0.015-0.672,0-1.008c-0.027-0.596,0.231-0.871,0.842-0.865
			c1.54,0.015,3.08,0.016,4.619,0c0.622-0.006,0.816,0.279,0.814,0.875c-0.022,6.047,0.181,12.103-0.09,18.139
			c-0.322,7.185-4.904,11.865-12.315,12.106c-3.199,0.104-6.256-0.38-9.033-2.063c-3.402-2.061-5.21-5.175-5.681-9.05
			c-0.212-1.741-0.165-3.517-0.185-5.278c-0.027-2.519-0.029-5.039,0.006-7.559c0.01-0.739-0.244-0.979-0.973-0.965
			c-1.903,0.038-3.808,0.04-5.711-0.001c-0.76-0.016-1.034,0.226-1.018,1.007c0.043,2.183,0.015,4.367,0.015,6.551
			c0,5.291,0.001,10.582-0.001,15.874c0,1.225-0.032,1.255-1.283,1.259c-1.26,0.004-2.52,0.005-3.779-0.001
			c-1.126-0.005-1.188-0.064-1.188-1.186c-0.002-7.335-0.001-14.67-0.001-22.005c0-1.486-0.001-1.486-1.526-1.486
			c-1.596,0-3.193,0.036-4.787-0.015c-0.807-0.026-1.058,0.247-1.055,1.054c0.025,7.419,0.015,14.838,0.014,22.257
			c0,1.378-0.002,1.379-1.412,1.381c-1.176,0.002-2.356,0.059-3.525-0.03c-0.471-0.036-1.059-0.276-1.354-0.625
			c-4.331-5.134-8.621-10.301-12.921-15.461c-0.932-1.118-1.863-2.236-2.8-3.349c-0.099-0.117-0.232-0.205-0.497-0.433
			c0,0.493,0,0.817,0,1.14c0.006,5.851,0.012,11.702,0.017,17.553c0.001,1.195-0.007,1.201-1.229,1.204
			c-1.316,0.003-2.632-0.023-3.947,0.009c-0.708,0.017-1.033-0.216-0.984-0.967c0.048-0.75,0.011-1.506,0.011-2.391
			c-0.215,0.157-0.35,0.23-0.453,0.335c-1.838,1.889-4.152,2.786-6.709,2.864c-4.474,0.138-8.954,0.092-13.431,0.163
			c-0.916,0.015-1.046-0.422-1.045-1.188c0.017-8.567,0.01-17.133,0.011-25.7c0-0.98,0.007-1.96,0.005-2.939
			c-0.001-0.467,0.188-0.751,0.689-0.749c4.283,0.012,8.572-0.117,12.846,0.078C38.37,53.672,41.218,55.459,42.715,59.322z
			 M27.346,74.436c0,1.119,0.015,2.238-0.007,3.356c-0.011,0.549,0.157,0.829,0.759,0.822c1.986-0.024,3.973,0.034,5.956-0.039
			c1.299-0.048,2.467-0.542,3.26-1.642c0.931-1.291,1.03-2.727,0.393-4.14c-0.68-1.509-1.999-2.275-3.607-2.356
			c-1.981-0.099-3.97-0.027-5.956-0.057c-0.638-0.01-0.823,0.279-0.808,0.868C27.365,72.31,27.345,73.373,27.346,74.436z
			 M27.347,62.097c0,0.893,0.005,1.787-0.002,2.68c-0.003,0.414,0.095,0.718,0.593,0.715c1.814-0.012,3.636,0.08,5.441-0.054
			c1.973-0.146,3.372-1.727,3.297-3.47c-0.073-1.701-1.568-3.077-3.524-3.146c-1.673-0.059-3.35-0.014-5.025-0.037
			c-0.573-0.008-0.805,0.225-0.787,0.798C27.365,60.421,27.346,61.259,27.347,62.097z M39.23,67.31
			c1.163,0.779,2.283,1.528,3.423,2.292c0-2.014,0-4.058,0-6.34C41.918,65.194,40.76,66.464,39.23,67.31z"/>
	</g>
</g>
<g id="Layer_1">
</g>
</svg>
