<?xml version="1.0" encoding="iso-8859-1"?>
<!-- Generator: Adobe Illustrator 18.1.0, SVG Export Plug-In . SVG Version: 6.00 Build 0)  -->
<!DOCTYPE svg PUBLIC "-//W3C//DTD SVG 1.1//EN" "http://www.w3.org/Graphics/SVG/1.1/DTD/svg11.dtd">
<svg version="1.1" xmlns="http://www.w3.org/2000/svg" xmlns:xlink="http://www.w3.org/1999/xlink" x="0px" y="0px"
	 viewBox="0 0 140 105" style="enable-background:new 0 0 140 105;" xml:space="preserve">
<g id="bitcamp">
	<g>
		<g>
			<polygon style="fill:#FF7040;" points="67.057,33.831 67.057,30.875 64.112,30.875 64.112,33.831 61.168,33.831 58.224,33.831 
				58.224,36.775 58.224,39.72 58.224,42.665 58.224,45.607 61.168,45.607 61.168,42.665 61.168,39.72 61.168,36.775 64.112,36.775 
				67.057,36.775 70.001,36.775 70.001,33.831 			"/>
			<polygon style="fill:#FF4046;" points="64.112,24.983 64.112,27.927 61.168,27.927 61.168,30.875 58.224,30.875 58.224,33.831 
				61.168,33.831 64.112,33.831 64.112,30.875 67.057,30.875 67.057,27.927 67.057,24.983 			"/>
			<g>
				<g>
					<rect x="67.057" y="22.039" style="fill:#FF4046;" width="2.944" height="2.944"/>
				</g>
			</g>
			<g>
				<g>
					<rect x="75.888" y="30.875" style="fill:#FF4046;" width="2.943" height="2.955"/>
				</g>
			</g>
			<g>
				<g>
					<rect x="72.945" y="27.927" style="fill:#FF4046;" width="2.942" height="2.948"/>
				</g>
			</g>
			<polygon style="fill:#FF7040;" points="78.831,36.775 78.831,33.831 75.888,33.831 72.945,33.831 72.945,36.775 75.888,36.775 
				75.888,39.72 78.831,39.72 78.831,42.665 78.831,45.607 81.776,45.607 81.776,42.665 81.776,39.72 81.776,36.775 			"/>
			<polygon style="fill:#FFAF40;" points="75.888,39.72 75.888,36.775 72.945,36.775 70.001,36.775 67.057,36.775 64.112,36.775 
				61.168,36.775 61.168,39.72 61.168,42.665 61.168,45.607 61.168,48.552 64.112,48.552 64.112,45.607 64.112,42.665 64.112,39.72 
				67.057,39.72 70.001,39.72 72.945,39.72 72.945,42.665 75.888,42.665 75.888,45.607 75.888,48.552 78.831,48.552 78.831,45.607 
				78.831,42.665 78.831,39.72 			"/>
			<path style="fill:#FFEF40;" d="M72.945,42.665V39.72h-2.944h-2.944h-2.945v2.945v2.942v2.945v2.945h2.945h2.944h2.944h2.942
				v-2.945v-2.945v-2.942H72.945z M72.945,48.552h-2.944h-2.944v-2.945v-2.942h2.944v2.942h2.944V48.552z"/>
			<polygon style="fill:#FFFFFF;" points="70.001,45.607 70.001,42.665 67.057,42.665 67.057,45.607 67.057,48.552 70.001,48.552 
				72.945,48.552 72.945,45.607 			"/>
			<g>
				<g>
					<path style="fill:#806D60;" d="M93.568,55.912c0,2.443-1.977,4.427-4.417,4.427l0,0c-2.439,0-4.422-1.983-4.422-4.427l0,0
						c0-2.439,1.982-4.415,4.422-4.415l0,0C91.592,51.498,93.568,53.473,93.568,55.912L93.568,55.912z"/>
				</g>
			</g>
			<path style="fill:#A68E7C;" d="M88.006,69.03l2.374-8.52l-38.384-8.865l-0.002,0.003c-0.368-0.088-0.74-0.151-1.144-0.151
				c-2.441,0-4.312,1.975-4.312,4.415c0,2.017,1.515,3.72,3.288,4.252l0,0l-0.018,0.014c0.117,0.036,0.174,0.069,0.294,0.079
				L88.006,69.03z"/>
			<g>
				<g>
					<polygon style="fill:#806D60;" points="49.619,60.511 88.006,51.646 90.316,60.184 51.996,69.03 					"/>
				</g>
			</g>
			<g>
				<g>
					<path style="fill:#A68E7C;" d="M55.27,64.764c0,2.438-1.979,4.415-4.42,4.415l0,0c-2.441,0-4.415-1.977-4.415-4.415l0,0
						c0-2.443,1.974-4.425,4.415-4.425l0,0C53.291,60.339,55.27,62.32,55.27,64.764L55.27,64.764z"/>
				</g>
			</g>
			<g>
				<g>
					<path style="fill:#806D60;" d="M93.568,64.764c0,2.438-1.977,4.415-4.417,4.415l0,0c-2.439,0-4.422-1.977-4.422-4.415l0,0
						c0-2.443,1.982-4.425,4.422-4.425l0,0C91.592,60.339,93.568,62.32,93.568,64.764L93.568,64.764z"/>
				</g>
			</g>
		</g>
		<g>
			<path style="fill:#806D60;" d="M107.759,31.223c-0.258-0.547-0.517-1.087-0.784-1.618l-0.524,0.272
				c0.271,0.523,0.528,1.053,0.772,1.59L107.759,31.223z"/>
			<path style="fill:#806D60;" d="M107.727,65.952c0.247-0.544,0.48-1.091,0.716-1.633l-0.549-0.233
				c-0.223,0.549-0.461,1.088-0.704,1.621L107.727,65.952z"/>
			<path style="fill:#806D60;" d="M110.169,37.947c-0.147-0.572-0.318-1.154-0.492-1.714l-0.565,0.175
				c0.175,0.552,0.334,1.123,0.481,1.685L110.169,37.947z"/>
			<path style="fill:#806D60;" d="M109.106,34.527c-0.206-0.557-0.412-1.122-0.646-1.662l-0.534,0.216
				c0.213,0.547,0.432,1.098,0.62,1.647L109.106,34.527z"/>
			<path style="fill:#806D60;" d="M110.35,41.544l0.575-0.101c-0.105-0.587-0.207-1.181-0.34-1.757l-0.569,0.132
				C110.131,40.382,110.247,40.958,110.35,41.544z"/>
			<path style="fill:#806D60;" d="M104.211,25.001c-0.337-0.486-0.686-0.979-1.049-1.445l-0.459,0.357
				c0.356,0.459,0.697,0.942,1.028,1.421L104.211,25.001z"/>
			<path style="fill:#806D60;" d="M99.68,19.49c-0.43-0.432-0.854-0.845-1.288-1.246l-0.395,0.429
				c0.424,0.395,0.842,0.816,1.25,1.233L99.68,19.49z"/>
			<path style="fill:#806D60;" d="M102.06,22.149c-0.38-0.464-0.764-0.919-1.163-1.354l-0.434,0.394
				c0.387,0.437,0.779,0.884,1.139,1.341L102.06,22.149z"/>
			<path style="fill:#806D60;" d="M97.071,17.054c-0.452-0.395-0.917-0.778-1.39-1.136l-0.354,0.452
				c0.45,0.366,0.907,0.744,1.355,1.123L97.071,17.054z"/>
			<path style="fill:#806D60;" d="M106.111,28.028c-0.284-0.518-0.602-1.029-0.912-1.529l-0.491,0.307
				c0.302,0.506,0.612,1.01,0.892,1.521L106.111,28.028z"/>
			<path style="fill:#806D60;" d="M104.197,72.146c0.339-0.5,0.662-0.992,0.974-1.492l-0.494-0.32
				c-0.307,0.504-0.643,0.988-0.972,1.476L104.197,72.146z"/>
			<path style="fill:#806D60;" d="M110.799,45.042l0.584-0.059c-0.056-0.594-0.118-1.182-0.191-1.768l-0.578,0.073
				C110.684,43.863,110.743,44.442,110.799,45.042z"/>
			<path style="fill:#806D60;" d="M28.803,53.859c0.073,0.591,0.161,1.178,0.264,1.773l0.577-0.103
				c-0.099-0.581-0.187-1.162-0.261-1.742L28.803,53.859z"/>
			<path style="fill:#806D60;" d="M94.267,14.837c-0.49-0.348-0.977-0.683-1.471-1.006l-0.33,0.485
				c0.494,0.319,0.972,0.656,1.455,1.003L94.267,14.837z"/>
			<path style="fill:#806D60;" d="M28.503,50.299c0.024,0.596,0.067,1.188,0.11,1.783l0.584-0.05
				c-0.045-0.578-0.087-1.166-0.1-1.761L28.503,50.299z"/>
			<path style="fill:#806D60;" d="M32.064,63.988l-0.541,0.225c0.219,0.56,0.455,1.095,0.714,1.642l0.522-0.243
				C32.518,65.076,32.288,64.532,32.064,63.988z"/>
			<path style="fill:#806D60;" d="M110.94,48.552v-0.005h0.59v0.005c0-0.596-0.015-1.189-0.034-1.777l-0.597,0.013
				C110.927,47.383,110.94,47.966,110.94,48.552z"/>
			<path style="fill:#806D60;" d="M33.541,67.203l-0.523,0.261c0.263,0.529,0.548,1.052,0.846,1.57l0.512-0.279
				C34.08,68.247,33.802,67.727,33.541,67.203z"/>
			<path style="fill:#806D60;" d="M29.406,57.383c0.135,0.587,0.267,1.161,0.413,1.739l0.577-0.155
				c-0.156-0.558-0.288-1.14-0.418-1.71L29.406,57.383z"/>
			<path style="fill:#806D60;" d="M31.44,62.339c-0.203-0.55-0.391-1.115-0.565-1.671l-0.555,0.174
				c0.176,0.562,0.354,1.142,0.56,1.692L31.44,62.339z"/>
			<path style="fill:#806D60;" d="M109.582,59.088l0.562,0.148c0.149-0.568,0.298-1.155,0.419-1.737l-0.568-0.116
				C109.858,57.95,109.728,58.515,109.582,59.088z"/>
			<path style="fill:#806D60;" d="M108.531,62.444l0.545,0.206c0.208-0.567,0.401-1.124,0.579-1.702l-0.571-0.173
				C108.909,61.342,108.722,61.902,108.531,62.444z"/>
			<path style="fill:#806D60;" d="M111.496,50.427l-0.598-0.03c-0.015,0.584-0.06,1.167-0.105,1.761l0.584,0.045
				C111.42,51.615,111.468,51.023,111.496,50.427z"/>
			<path style="fill:#806D60;" d="M35.281,70.26l-0.505,0.324c0.327,0.5,0.65,0.996,0.987,1.488l0.479-0.34
				C35.911,71.257,35.592,70.768,35.281,70.26z"/>
			<path style="fill:#806D60;" d="M110.333,55.645l0.576,0.098c0.104-0.579,0.194-1.164,0.271-1.756l-0.58-0.081
				C110.524,54.491,110.435,55.066,110.333,55.645z"/>
			<path style="fill:#806D60;" d="M106.097,69.117c0.286-0.52,0.574-1.04,0.85-1.563l-0.524-0.266
				c-0.269,0.524-0.556,1.037-0.833,1.541L106.097,69.117z"/>
			<path style="fill:#806D60;" d="M37.297,23.913l-0.461-0.357c-0.36,0.466-0.709,0.958-1.046,1.442l0.478,0.333
				C36.6,24.854,36.943,24.371,37.297,23.913z"/>
			<path style="fill:#806D60;" d="M33.559,29.857l-0.525-0.269c-0.271,0.528-0.532,1.065-0.78,1.61l0.538,0.243
				C33.033,30.906,33.29,30.376,33.559,29.857z"/>
			<path style="fill:#806D60;" d="M35.3,26.799l-0.495-0.306c-0.312,0.499-0.625,1.007-0.915,1.525l0.515,0.297
				C34.686,27.807,34.994,27.306,35.3,26.799z"/>
			<path style="fill:#806D60;" d="M47.533,14.315l-0.325-0.488c-0.494,0.325-0.979,0.662-1.471,1.01l0.343,0.482
				C46.563,14.972,47.042,14.634,47.533,14.315z"/>
			<path style="fill:#806D60;" d="M44.67,16.371l-0.354-0.452c-0.474,0.358-0.938,0.743-1.388,1.136l0.386,0.438
				C43.763,17.116,44.218,16.738,44.67,16.371z"/>
			<path style="fill:#806D60;" d="M42.003,18.676l-0.397-0.43c-0.435,0.403-0.859,0.817-1.285,1.244l0.431,0.42
				C41.159,19.49,41.575,19.072,42.003,18.676z"/>
			<path style="fill:#806D60;" d="M39.538,21.192l-0.433-0.397c-0.402,0.438-0.784,0.893-1.167,1.358l0.458,0.379
				C38.758,22.075,39.147,21.628,39.538,21.192z"/>
			<path style="fill:#806D60;" d="M29.396,43.24l-0.581-0.073c-0.074,0.584-0.139,1.178-0.194,1.782l0.583,0.044
				C29.263,44.41,29.322,43.825,29.396,43.24z"/>
			<path style="fill:#806D60;" d="M29.101,46.778l-0.598-0.02c-0.016,0.589-0.033,1.199-0.033,1.79h0.586
				C29.056,47.957,29.071,47.357,29.101,46.778z"/>
			<path style="fill:#806D60;" d="M30.903,36.363l-0.571-0.176c-0.177,0.576-0.342,1.149-0.488,1.727l0.57,0.149
				C30.568,37.485,30.729,36.928,30.903,36.363z"/>
			<path style="fill:#806D60;" d="M32.09,33.048l-0.548-0.219c-0.22,0.557-0.433,1.102-0.633,1.671l0.548,0.2
				C31.658,34.145,31.874,33.591,32.09,33.048z"/>
			<path style="fill:#806D60;" d="M29.996,39.77l-0.569-0.117c-0.134,0.577-0.238,1.158-0.343,1.743l0.576,0.103
				C29.763,40.923,29.881,40.348,29.996,39.77z"/>
			<path style="fill:#806D60;" d="M57.031,9.7l-0.189-0.551c-0.56,0.179-1.131,0.385-1.676,0.606l0.201,0.539
				C55.92,10.093,56.479,9.89,57.031,9.7z"/>
			<path style="fill:#806D60;" d="M70.001,7.602c0.302,0,0.601,0.003,0.906,0.011l0.006-0.584c-0.288-0.008-0.586-0.012-0.868-0.012
				c-0.314-0.003-0.611,0.002-0.919,0.011l0.014,0.584C69.431,7.605,69.709,7.602,70.001,7.602z"/>
			<path style="fill:#806D60;" d="M78.016,7.787c-0.585-0.115-1.177-0.207-1.767-0.296l-0.086,0.578
				c0.578,0.088,1.167,0.19,1.734,0.298L78.016,7.787z"/>
			<path style="fill:#806D60;" d="M74.476,7.251c-0.589-0.058-1.181-0.103-1.773-0.149l-0.046,0.584
				c0.602,0.046,1.182,0.089,1.757,0.159L74.476,7.251z"/>
			<path style="fill:#806D60;" d="M50.568,12.509l-0.284-0.519c-0.526,0.287-1.045,0.574-1.553,0.888l0.292,0.503
				C49.535,13.072,50.052,12.792,50.568,12.509z"/>
			<path style="fill:#806D60;" d="M84.875,9.757c-0.562-0.208-1.114-0.415-1.688-0.606l-0.188,0.565
				c0.563,0.188,1.124,0.388,1.659,0.591L84.875,9.757z"/>
			<path style="fill:#806D60;" d="M88.14,11.177c-0.536-0.26-1.064-0.506-1.613-0.738l-0.23,0.535
				c0.524,0.237,1.06,0.481,1.586,0.735L88.14,11.177z"/>
			<path style="fill:#806D60;" d="M81.488,8.627c-0.581-0.172-1.151-0.321-1.726-0.454L79.615,8.74
				c0.582,0.146,1.142,0.293,1.712,0.453L81.488,8.627z"/>
			<path style="fill:#806D60;" d="M91.279,12.883c-0.51-0.314-1.023-0.606-1.55-0.884l-0.281,0.517
				c0.514,0.281,1.022,0.562,1.538,0.87L91.279,12.883z"/>
			<path style="fill:#806D60;" d="M53.735,10.97l-0.231-0.544c-0.553,0.234-1.099,0.481-1.625,0.74L52.14,11.7
				C52.662,11.442,53.19,11.199,53.735,10.97z"/>
			<path style="fill:#806D60;" d="M63.873,8.061l-0.086-0.578c-0.591,0.089-1.175,0.188-1.753,0.296l0.1,0.586
				C62.718,8.25,63.291,8.149,63.873,8.061z"/>
			<path style="fill:#806D60;" d="M60.415,8.729l-0.13-0.567C59.7,8.295,59.124,8.454,58.559,8.62l0.159,0.56
				C59.275,9.021,59.851,8.876,60.415,8.729z"/>
			<path style="fill:#806D60;" d="M67.377,7.684l-0.029-0.583c-0.606,0.044-1.199,0.088-1.787,0.147l0.059,0.596
				C66.212,7.771,66.791,7.727,67.377,7.684z"/>
		</g>
		<g>
			<g>
				<path style="fill:#FF7040;" d="M40.696,85.945c0,0.849-0.115,1.642-0.343,2.373c-0.223,0.716-0.552,1.351-0.985,1.888
					c-0.423,0.535-0.936,0.951-1.536,1.245c-0.602,0.303-1.272,0.45-2.028,0.45c-1.642,0-3.492-0.198-5.564-0.624v-3.569V77.412
					c-0.281-0.042-0.515-0.087-0.69-0.121c-0.174-0.019-0.289-0.043-0.362-0.056c-0.079-0.014-0.134-0.024-0.163-0.03
					c-0.368-0.077-0.555-0.303-0.555-0.695v-1.309h1.769h2.73v6.521c0.454-0.477,0.963-0.866,1.528-1.139
					c0.575-0.292,1.233-0.431,2-0.431c0.615,0,1.19,0.121,1.702,0.373c0.512,0.257,0.957,0.635,1.335,1.117
					c0.362,0.5,0.653,1.104,0.863,1.814C40.591,84.179,40.696,85.015,40.696,85.945z M37.876,85.945
					c0-0.664-0.064-1.238-0.163-1.704c-0.107-0.453-0.261-0.836-0.459-1.129c-0.206-0.278-0.444-0.499-0.734-0.623
					c-0.285-0.144-0.606-0.206-0.972-0.206c-0.562,0-1.051,0.127-1.455,0.362c-0.397,0.239-0.778,0.578-1.125,1.016v5.945
					c0.746,0.135,1.476,0.203,2.212,0.203c0.411,0,0.787-0.077,1.118-0.23c0.331-0.151,0.618-0.387,0.845-0.714
					c0.227-0.313,0.409-0.718,0.54-1.206C37.802,87.182,37.876,86.598,37.876,85.945z"/>
				<path style="fill:#FF7040;" d="M47.799,90.427v1.308h-1.67h-2.746h-1.671v-1.308c0-0.374,0.175-0.617,0.548-0.696
					c0.037-0.008,0.076-0.015,0.146-0.018c0.058-0.01,0.171-0.033,0.328-0.065c0.16-0.021,0.37-0.065,0.649-0.109v-7.011
					c-0.279-0.042-0.49-0.089-0.649-0.114c-0.156-0.026-0.27-0.048-0.328-0.062c-0.071-0.014-0.109-0.022-0.146-0.023
					c-0.374-0.085-0.548-0.313-0.548-0.695v-1.307h1.671h2.746v9.212c0.276,0.044,0.493,0.089,0.648,0.109
					c0.157,0.034,0.271,0.056,0.328,0.065c0.071,0.003,0.111,0.01,0.147,0.018C47.622,89.81,47.799,90.053,47.799,90.427z
					 M46.396,77.665c-0.098,0.213-0.233,0.396-0.389,0.55c-0.158,0.151-0.346,0.282-0.56,0.374
					c-0.212,0.089-0.437,0.135-0.694,0.135c-0.231,0-0.449-0.046-0.667-0.135c-0.205-0.092-0.386-0.223-0.553-0.374
					c-0.153-0.153-0.268-0.337-0.362-0.55c-0.092-0.204-0.146-0.43-0.146-0.664c0-0.24,0.055-0.481,0.146-0.688
					c0.094-0.224,0.209-0.411,0.362-0.562c0.167-0.154,0.348-0.284,0.553-0.375c0.217-0.089,0.436-0.136,0.667-0.136
					c0.257,0,0.482,0.047,0.694,0.136c0.214,0.091,0.403,0.221,0.56,0.375c0.156,0.151,0.291,0.339,0.389,0.562
					c0.094,0.206,0.139,0.447,0.139,0.688C46.535,77.235,46.49,77.461,46.396,77.665z"/>
				<path style="fill:#FF7040;" d="M50.72,91.08c-0.534-0.566-0.801-1.339-0.801-2.321v-6.373h-1.157
					c-0.144,0-0.271-0.055-0.375-0.146c-0.109-0.09-0.159-0.245-0.159-0.434v-1.091l1.827-0.3l0.575-3.122
					c0.032-0.143,0.099-0.261,0.205-0.343c0.103-0.081,0.245-0.112,0.405-0.112h1.421v3.583h2.99v1.966h-2.99v6.189
					c0,0.356,0.086,0.623,0.259,0.825c0.175,0.205,0.421,0.311,0.709,0.311c0.167,0,0.32-0.025,0.425-0.074
					c0.12-0.032,0.221-0.082,0.307-0.119c0.084-0.054,0.158-0.088,0.221-0.138c0.077-0.031,0.141-0.055,0.204-0.055
					c0.08,0,0.144,0.022,0.205,0.055c0.045,0.05,0.104,0.105,0.166,0.188l0.811,1.341c-0.392,0.33-0.854,0.58-1.372,0.751
					c-0.517,0.169-1.054,0.255-1.599,0.255C52.008,91.915,51.254,91.631,50.72,91.08z"/>
				<path style="fill:#FF7040;" d="M66.182,90.041c-0.309,0.359-0.637,0.646-0.991,0.889c-0.357,0.249-0.713,0.437-1.099,0.586
					c-0.388,0.137-0.774,0.242-1.174,0.296c-0.419,0.073-0.816,0.091-1.217,0.091c-0.695,0-1.366-0.124-1.988-0.388
					c-0.62-0.265-1.152-0.655-1.62-1.156c-0.467-0.5-0.826-1.12-1.092-1.855c-0.271-0.721-0.415-1.562-0.415-2.495
					c0-0.831,0.126-1.608,0.362-2.327c0.237-0.718,0.591-1.341,1.062-1.863c0.472-0.522,1.042-0.929,1.729-1.229
					c0.686-0.291,1.478-0.437,2.378-0.437c0.914,0,2.103,0.265,3.582,0.818v3.518h-0.096h-0.27h-0.92
					c-0.279,0-0.454-0.147-0.518-0.422c-0.023-0.179-0.092-0.721-0.177-1.609c-0.573-0.14-1.062-0.218-1.439-0.218
					c-0.487,0-0.908,0.089-1.273,0.262c-0.35,0.175-0.657,0.431-0.894,0.753c-0.238,0.322-0.417,0.723-0.541,1.178
					c-0.123,0.47-0.178,0.995-0.178,1.578c0,0.606,0.062,1.153,0.198,1.617c0.122,0.481,0.311,0.875,0.552,1.209
					c0.252,0.316,0.542,0.559,0.891,0.725c0.346,0.165,0.747,0.249,1.182,0.249c0.437,0,0.787-0.048,1.049-0.159
					c0.269-0.11,0.505-0.22,0.691-0.358c0.177-0.119,0.344-0.244,0.476-0.356c0.135-0.096,0.295-0.158,0.464-0.158
					c0.214,0,0.38,0.084,0.495,0.255L66.182,90.041z"/>
				<path style="fill:#FF7040;" d="M78.213,90.409v1.304h-1.387h-0.292h-0.927c-0.264,0-0.465-0.033-0.611-0.111
					c-0.157-0.073-0.258-0.235-0.344-0.478l-0.239-0.803c-0.286,0.259-0.564,0.482-0.846,0.682
					c-0.277,0.188-0.568,0.363-0.856,0.491c-0.304,0.132-0.608,0.229-0.939,0.303c-0.338,0.068-0.704,0.092-1.121,0.092
					c-0.473,0-0.918-0.062-1.319-0.182c-0.417-0.141-0.766-0.339-1.049-0.599c-0.297-0.261-0.52-0.581-0.681-0.959
					c-0.165-0.393-0.253-0.85-0.253-1.359c0-0.433,0.114-0.855,0.347-1.273c0.221-0.416,0.602-0.803,1.127-1.14
					c0.525-0.335,1.223-0.622,2.091-0.837c0.869-0.233,1.953-0.347,3.244-0.347v-0.67c0-0.769-0.157-1.331-0.474-1.704
					c-0.335-0.375-0.792-0.562-1.403-0.562c-0.447,0-0.82,0.062-1.108,0.157c-0.301,0.103-0.556,0.226-0.781,0.346
					c-0.21,0.139-0.416,0.26-0.605,0.353c-0.177,0.106-0.379,0.166-0.611,0.166c-0.173,0-0.341-0.056-0.467-0.153
					c-0.142-0.098-0.236-0.206-0.317-0.357l-0.51-0.876c1.309-1.205,2.888-1.804,4.742-1.804c0.658,0,1.25,0.113,1.771,0.328
					c0.519,0.225,0.963,0.521,1.328,0.916c0.365,0.385,0.643,0.854,0.835,1.399c0.179,0.544,0.27,1.136,0.27,1.772v5.058
					c0.257,0.053,0.45,0.077,0.598,0.108c0.129,0.03,0.205,0.042,0.232,0.042C78.03,89.8,78.213,90.025,78.213,90.409z
					 M74.157,86.875c-0.803,0-1.462,0.056-2,0.148c-0.538,0.101-0.97,0.24-1.29,0.393c-0.322,0.155-0.562,0.339-0.692,0.555
					c-0.13,0.2-0.211,0.436-0.211,0.679c0,0.48,0.15,0.826,0.427,1.044c0.287,0.2,0.663,0.307,1.124,0.307
					c0.27,0,0.528-0.024,0.775-0.073c0.233-0.046,0.449-0.126,0.667-0.226c0.216-0.105,0.41-0.24,0.609-0.385
					c0.2-0.144,0.388-0.321,0.59-0.532V86.875z"/>
				<path style="fill:#FF7040;" d="M98.906,90.427v1.309h-1.668h-2.746v-7.257c0-0.734-0.157-1.282-0.469-1.64
					c-0.329-0.372-0.783-0.557-1.397-0.557c-0.286,0-0.547,0.045-0.781,0.139c-0.248,0.098-0.454,0.247-0.638,0.428
					c-0.183,0.173-0.317,0.407-0.425,0.685c-0.106,0.271-0.151,0.586-0.151,0.944v5.06c0.273,0.045,0.49,0.089,0.647,0.106
					c0.156,0.035,0.271,0.058,0.327,0.068c0.071,0.001,0.111,0.01,0.148,0.018c0.367,0.079,0.544,0.322,0.544,0.696v1.308h-1.665
					h-2.762v-7.256c0-0.762-0.15-1.323-0.448-1.672c-0.315-0.35-0.774-0.523-1.368-0.523c-0.384,0-0.756,0.1-1.099,0.301
					c-0.343,0.185-0.659,0.454-0.959,0.793v6.161c0.278,0.044,0.487,0.089,0.648,0.106c0.169,0.035,0.268,0.058,0.341,0.068
					c0.055,0.001,0.095,0.01,0.131,0.018c0.374,0.079,0.563,0.319,0.563,0.695v1.308h-1.684h-2.742h-1.672v-1.308
					c-0.001-0.373,0.187-0.616,0.544-0.695c0.039-0.008,0.082-0.017,0.147-0.018c0.057-0.011,0.171-0.033,0.329-0.068
					c0.156-0.018,0.384-0.062,0.651-0.106v-7.011c-0.268-0.044-0.495-0.089-0.651-0.114c-0.158-0.026-0.272-0.05-0.329-0.063
					c-0.065-0.013-0.108-0.021-0.147-0.021c-0.357-0.087-0.545-0.313-0.544-0.695v-1.307h1.672h1.674c0.356,0,0.586,0.17,0.7,0.502
					l0.177,0.842c0.206-0.215,0.404-0.425,0.631-0.614c0.21-0.187,0.454-0.344,0.699-0.47c0.244-0.144,0.513-0.25,0.8-0.325
					c0.275-0.08,0.596-0.108,0.936-0.108c0.723,0,1.308,0.184,1.773,0.579c0.451,0.383,0.796,0.901,1.036,1.551
					c0.178-0.384,0.392-0.706,0.66-0.977c0.266-0.272,0.564-0.486,0.877-0.655c0.312-0.169,0.647-0.305,1.009-0.387
					c0.36-0.081,0.724-0.112,1.089-0.112c0.628,0,1.18,0.091,1.672,0.278c0.486,0.196,0.893,0.482,1.224,0.854
					c0.34,0.362,0.599,0.819,0.77,1.354c0.175,0.537,0.262,1.149,0.262,1.838v5.062c0.267,0.041,0.488,0.089,0.646,0.105
					c0.158,0.036,0.272,0.058,0.326,0.069c0.073,0.001,0.112,0.009,0.151,0.017C98.725,89.81,98.906,90.053,98.906,90.427z"/>
				<path style="fill:#FF7040;" d="M111.53,85.945c0,0.849-0.115,1.642-0.343,2.374c-0.224,0.716-0.559,1.351-0.985,1.887
					c-0.424,0.535-0.935,0.951-1.536,1.245c-0.605,0.306-1.273,0.45-2.027,0.45c-0.634,0-1.185-0.101-1.633-0.284
					c-0.452-0.201-0.845-0.476-1.201-0.827v2.476c0.28,0.041,0.49,0.088,0.655,0.104c0.166,0.034,0.264,0.059,0.335,0.073
					c0.056,0.008,0.099,0.008,0.132,0.013c0.374,0.082,0.562,0.319,0.562,0.697v1.307h-1.685h-2.735h-1.68v-1.307
					c0-0.376,0.186-0.615,0.552-0.697c0.031-0.005,0.085-0.005,0.143-0.013c0.056-0.015,0.169-0.039,0.326-0.073
					c0.156-0.018,0.384-0.063,0.659-0.104V82.528c-0.276-0.043-0.503-0.089-0.659-0.115c-0.157-0.026-0.271-0.048-0.326-0.062
					c-0.058-0.014-0.112-0.021-0.143-0.023c-0.366-0.085-0.552-0.312-0.552-0.695v-1.307h1.68h1.666
					c0.179,0,0.336,0.038,0.459,0.119c0.134,0.079,0.215,0.215,0.24,0.384l0.23,1.059c0.449-0.525,0.975-0.951,1.574-1.291
					c0.601-0.321,1.301-0.482,2.087-0.482c0.619,0,1.195,0.127,1.708,0.387c0.514,0.262,0.957,0.635,1.335,1.131
					c0.363,0.494,0.656,1.104,0.864,1.823C111.426,84.178,111.53,85.015,111.53,85.945z M108.711,85.945
					c0-0.664-0.065-1.236-0.169-1.704c-0.101-0.453-0.257-0.836-0.454-1.129c-0.205-0.277-0.442-0.499-0.732-0.623
					c-0.288-0.142-0.609-0.206-0.974-0.206c-0.561,0-1.051,0.127-1.454,0.363c-0.396,0.238-0.778,0.577-1.123,1.015v5.114
					c0.308,0.393,0.655,0.665,1.008,0.812c0.369,0.147,0.771,0.222,1.189,0.222c0.41,0,0.791-0.077,1.126-0.23
					c0.332-0.151,0.623-0.387,0.85-0.714c0.228-0.313,0.408-0.718,0.542-1.206C108.637,87.182,108.711,86.599,108.711,85.945z"/>
			</g>
		</g>
	</g>
</g>
<g id="Layer_1">
</g>
</svg>
