<?xml version="1.0" encoding="iso-8859-1"?>
<!-- Generator: Adobe Illustrator 18.1.0, SVG Export Plug-In . SVG Version: 6.00 Build 0)  -->
<!DOCTYPE svg PUBLIC "-//W3C//DTD SVG 1.1//EN" "http://www.w3.org/Graphics/SVG/1.1/DTD/svg11.dtd">
<svg version="1.1" xmlns="http://www.w3.org/2000/svg" xmlns:xlink="http://www.w3.org/1999/xlink" x="0px" y="0px"
	 viewBox="0 0 140 105" style="enable-background:new 0 0 140 105;" xml:space="preserve">
<g id="spothauc">
	<g>
		<path style="fill-rule:evenodd;clip-rule:evenodd;fill:#61308D;" d="M69.671,50.22c0-2.88,0.007-5.76-0.009-8.64
			c-0.002-0.359,0.12-0.436,0.444-0.43c0.869,0.016,1.739,0.019,2.608-0.001c0.306-0.007,0.391,0.08,0.389,0.387
			c-0.013,2.244,0,4.489-0.013,6.733c-0.003,0.449,0.114,0.539,0.526,0.537c2.646-0.011,5.293-0.011,7.939-0.001
			c0.416,0.002,0.545-0.054,0.541-0.56c-0.014-2.231,0.002-4.463-0.014-6.694c-0.002-0.332,0.095-0.412,0.413-0.403
			c0.83,0.022,1.661,0.024,2.491-0.001c0.34-0.01,0.436,0.079,0.434,0.428c-0.016,2.724-0.009,5.449-0.009,8.173
			c0,3.036-0.005,6.072,0.007,9.107c0.001,0.318-0.07,0.421-0.402,0.411c-0.856-0.025-1.713-0.022-2.568-0.001
			c-0.293,0.007-0.367-0.075-0.365-0.366c0.013-2.192,0.001-4.385,0.014-6.578c0.002-0.303-0.074-0.397-0.384-0.396
			c-2.75,0.011-5.501,0.012-8.251-0.001c-0.324-0.001-0.374,0.119-0.373,0.406c0.01,2.153-0.008,4.307,0.017,6.46
			c0.005,0.413-0.122,0.488-0.496,0.475c-0.829-0.028-1.661-0.022-2.491-0.002c-0.339,0.008-0.462-0.066-0.46-0.443
			C69.679,55.955,69.671,53.087,69.671,50.22z"/>
		<path style="fill-rule:evenodd;clip-rule:evenodd;fill:#61308D;" d="M25.446,54.582c-0.19,1.832-1.145,3.157-2.734,4.024
			c-1.033,0.563-2.141,0.925-3.334,0.966c-0.252,0.129-0.524,0.043-0.785,0.067c-0.162,0.015-0.331-0.035-0.481,0.065
			c-0.103,0-0.205,0.001-0.308,0.001c-0.331-0.134-0.677-0.035-1.015-0.065c-0.186-0.017-0.383,0.044-0.556-0.072
			c-0.89,0.016-1.707-0.268-2.535-0.557c-0.909-0.317-1.656-0.861-2.323-1.515c-0.589-0.577-0.982-1.309-1.346-2.047
			c-0.098-0.198,0.076-0.294,0.191-0.354c0.802-0.42,1.618-0.813,2.417-1.238c0.234-0.125,0.272,0.111,0.297,0.167
			c0.515,1.145,1.457,1.813,2.574,2.233c0.526,0.198,1.089,0.356,1.67,0.361c0.52,0.103,1.041,0.105,1.561-0.002
			c1.072-0.137,2.105-0.366,2.843-1.258c0.224-0.271,0.386-0.577,0.437-0.931c0.105-0.314,0.102-0.627,0.002-0.941
			c-0.155-0.771-0.699-1.228-1.351-1.534c-0.836-0.393-1.741-0.55-2.662-0.673c-0.761-0.102-1.528-0.193-2.283-0.386
			c-0.585-0.15-1.165-0.309-1.726-0.519c-1.326-0.498-2.37-1.319-2.907-2.683c-0.154-0.39-0.255-0.791-0.306-1.206
			c-0.104-0.468-0.105-0.936,0.001-1.405c0.207-1.226,0.754-2.223,1.767-3.005c0.83-0.64,1.773-0.975,2.724-1.325
			c0.215-0.079,0.459-0.072,0.679-0.091c0.835-0.073,1.658-0.365,2.513-0.153c0.222,0.055,0.463,0.038,0.695,0.053
			c1.675,0.112,3.188,0.668,4.453,1.773c0.478,0.417,0.882,0.942,1.176,1.527c0.122,0.243-0.085,0.332-0.218,0.405
			c-0.521,0.283-1.047,0.56-1.59,0.797c-0.249,0.109-0.451,0.362-0.737,0.334c-0.307-0.031-0.351-0.387-0.563-0.555
			c-0.68-0.539-1.411-0.949-2.262-1.178c-0.91-0.245-1.826-0.21-2.726-0.109c-1.005,0.113-1.906,0.514-2.404,1.506
			c-0.056,0.111-0.055,0.218-0.085,0.325c-0.097,0.317-0.105,0.634,0.005,0.95c0.183,0.653,0.689,0.999,1.263,1.222
			c0.73,0.283,1.498,0.427,2.284,0.514c0.906,0.101,1.811,0.257,2.701,0.458c1.358,0.306,2.659,0.791,3.685,1.767
			c0.587,0.558,0.995,1.274,1.138,2.101c0.045,0.263,0.193,0.504,0.162,0.781C25.551,53.645,25.548,54.114,25.446,54.582z"/>
		<path style="fill-rule:evenodd;clip-rule:evenodd;fill:#61308D;" d="M31.357,48.035c0.247-0.017,0.315-0.252,0.463-0.387
			c0.747-0.685,1.597-1.141,2.601-1.348c0.432-0.089,0.852-0.134,1.286-0.114c0.299,0.166,0.651-0.039,0.949,0.136
			c0.793-0.003,1.48,0.333,2.153,0.694c1.31,0.703,2.172,1.817,2.768,3.145c0.183,0.408,0.25,0.868,0.37,1.304
			c0.171,0.301-0.034,0.655,0.136,0.956c0,0.298-0.001,0.596-0.001,0.894c-0.168,0.302,0.034,0.655-0.134,0.956
			c-0.343,1.695-1.089,3.165-2.536,4.168c-0.747,0.518-1.577,0.909-2.522,0.996c-0.3,0.027-0.595,0.124-0.906,0.127
			c-1.739,0.014-3.359-0.285-4.634-1.784c0,0.241,0,0.389,0,0.537c0,1.959-0.008,3.918,0.008,5.877
			c0.002,0.314-0.09,0.386-0.389,0.379c-0.817-0.02-1.635-0.016-2.452-0.001c-0.243,0.004-0.304-0.073-0.304-0.309
			c0.006-5.824,0.005-11.649,0.003-17.474c0-0.182-0.008-0.321,0.253-0.315c0.855,0.019,1.711,0.016,2.567,0.022
			c0.108,0.073,0.055,0.223,0.147,0.305c0.007,0.05,0.015,0.101,0.023,0.151c0.097,0.134,0.057,0.29,0.067,0.437
			C31.303,47.601,31.194,47.836,31.357,48.035z"/>
		<path style="fill-rule:evenodd;clip-rule:evenodd;fill:#61308D;" d="M98.312,57.558c-0.059,0.424-0.407,0.653-0.686,0.883
			c-0.748,0.62-1.63,0.979-2.593,1.132c-0.52,0.108-1.041,0.105-1.562,0.002c-1.275-0.101-2.415-0.527-3.441-1.313
			c-0.869-0.666-1.395-1.562-1.817-2.524c-0.199-0.454-0.243-0.975-0.357-1.466c-0.139-0.196,0.009-0.45-0.13-0.646
			c0-0.507,0-1.013,0-1.52c0.14-0.196-0.009-0.45,0.131-0.645c0.282-1.674,0.998-3.077,2.43-4.077
			c0.824-0.575,1.695-0.98,2.703-1.066c0.3-0.17,0.653,0.032,0.954-0.135c0.103-0.009,0.205-0.018,0.308-0.027
			c0.157-0.084,0.314-0.086,0.47,0.002c1.402,0.093,2.597,0.606,3.51,1.707c0.046,0.055,0.066,0.102,0.076,0.164
			c0.231,0.134,0.214-0.043,0.227-0.181c0.029-0.304-0.065-0.617,0.068-0.913c-0.075-0.369,0.061-0.487,0.445-0.469
			c0.737,0.033,1.476,0.018,2.214,0.005c0.241-0.004,0.334,0.047,0.334,0.315c-0.009,4.054-0.007,8.108-0.004,12.162
			c0,0.188-0.004,0.314-0.258,0.308c-0.854-0.019-1.709-0.015-2.563-0.019c-0.106-0.072-0.054-0.22-0.146-0.298
			c-0.008-0.051-0.016-0.102-0.024-0.152c-0.095-0.14-0.055-0.3-0.065-0.453c0-0.184,0-0.369,0-0.552
			C98.499,57.669,98.635,57.385,98.312,57.558z"/>
		<path style="fill-rule:evenodd;clip-rule:evenodd;fill:#61308D;" d="M57.027,52.092c0.009,0.128,0.019,0.257,0.028,0.385
			c0.088,0.287,0.104,0.573-0.002,0.859c-0.008,0.102-0.017,0.204-0.026,0.306c-0.139,0.196,0.007,0.45-0.13,0.647
			c-0.099,0.976-0.511,1.823-1.059,2.619c-0.776,1.128-1.877,1.823-3.123,2.293c-0.306,0.115-0.658,0.176-1,0.228
			c-0.549,0.084-1.096,0.164-1.647,0.115c-1.536-0.138-2.941-0.568-4.136-1.635c-0.839-0.749-1.374-1.661-1.768-2.669
			c-0.113-0.289-0.24-0.62-0.219-0.96c-0.087-0.133-0.055-0.283-0.062-0.427c-0.018-0.174,0.047-0.359-0.065-0.521
			c-0.009-0.102-0.018-0.204-0.027-0.307c-0.069-0.105-0.069-0.21,0-0.315c0.009-0.102,0.018-0.205,0.027-0.307
			c0.112-0.162,0.047-0.346,0.065-0.52c0.007-0.144-0.025-0.295,0.063-0.427c0.251-1.494,0.966-2.726,2.1-3.72
			c0.712-0.625,1.535-1.029,2.451-1.274c0.772-0.207,1.552-0.341,2.345-0.268c2.043,0.189,3.771,0.966,4.989,2.706
			c0.546,0.779,0.937,1.604,1.064,2.549C57.037,51.643,56.887,51.897,57.027,52.092z"/>
		<path style="fill-rule:evenodd;clip-rule:evenodd;fill:#61308D;" d="M113.396,57.699c-0.216-0.048-0.315,0.124-0.442,0.237
			c-0.725,0.648-1.527,1.149-2.504,1.316c-0.238,0.175-0.544-0.02-0.784,0.142c-0.465,0.043-0.93,0.022-1.394-0.003
			c-0.14-0.12-0.344-0.007-0.482-0.135c-0.665-0.043-1.209-0.385-1.716-0.76c-0.924-0.683-1.541-1.597-1.88-2.701
			c-0.137-0.448-0.285-0.89-0.3-1.364c-0.116-0.214-0.045-0.445-0.064-0.668c-0.012-0.148,0.029-0.305-0.068-0.44
			c-0.001-2.164,0.005-4.328-0.011-6.492c-0.002-0.302,0.092-0.368,0.371-0.363c0.79,0.016,1.582,0.029,2.371-0.005
			c0.37-0.016,0.414,0.124,0.412,0.441c-0.013,1.957-0.042,3.914,0.01,5.87c0.022,0.849,0.069,1.732,0.578,2.482
			c0.671,0.986,1.645,1.431,2.795,1.309c1.242-0.132,2.185-0.777,2.668-1.993c0.14-0.352,0.277-0.7,0.305-1.082
			c0.099-0.154,0.064-0.327,0.064-0.492c0.003-2.006,0-4.012,0.003-6.018c0-0.163-0.045-0.339,0.079-0.485
			c0.919-0.007,1.837-0.007,2.756-0.025c0.279-0.006,0.233,0.171,0.233,0.334c0.001,1.127,0,2.253,0,3.38
			c0,2.862-0.01,5.724,0.011,8.586c0.003,0.421-0.125,0.513-0.515,0.495c-0.723-0.035-1.449-0.02-2.174-0.025
			c-0.108-0.073-0.055-0.223-0.146-0.304c-0.008-0.05-0.015-0.1-0.023-0.151c-0.097-0.134-0.057-0.29-0.067-0.437
			C113.451,58.133,113.561,57.897,113.396,57.699z"/>
		<path style="fill-rule:evenodd;clip-rule:evenodd;fill:#61308D;" d="M121.645,53.808c0.22,1.173,0.885,1.997,1.969,2.479
			c0.513,0.228,1.051,0.37,1.623,0.304c0.248-0.155,0.552,0.027,0.799-0.134c0.665,0.017,1.173-0.347,1.662-0.722
			c0.202-0.155,0.322-0.137,0.482,0.021c0.563,0.554,1.132,1.101,1.693,1.658c0.092,0.092,0.215,0.18,0.035,0.354
			c-0.8,0.771-1.741,1.289-2.789,1.627c-0.096,0.031-0.206,0.015-0.31,0.02c-0.14,0.122-0.344,0.012-0.485,0.133
			c-0.153,0.009-0.306,0.018-0.459,0.026c-0.49,0.136-0.99,0.036-1.484,0.057c-0.318-0.137-0.668-0.127-1-0.198
			c-1.445-0.309-2.645-0.999-3.584-2.132c-0.536-0.647-0.906-1.385-1.121-2.204c-0.058-0.221-0.158-0.43-0.139-0.666
			c-0.15-0.19,0.006-0.445-0.136-0.637c0-0.62,0-1.239,0-1.858c0.142-0.192-0.014-0.447,0.136-0.637
			c0.044-0.733,0.359-1.374,0.682-2.012c0.49-0.968,1.26-1.687,2.164-2.231c0.578-0.348,1.22-0.611,1.906-0.742
			c0.337-0.065,0.667-0.158,1.013-0.156c0.546-0.11,1.092-0.099,1.638-0.001c1.41,0.064,2.558,0.716,3.602,1.603
			c0.182,0.154,0.178,0.273,0.008,0.446c-0.514,0.523-1.034,1.044-1.507,1.603c-0.241,0.285-0.385,0.245-0.631,0.031
			c-0.485-0.421-1.082-0.61-1.705-0.723c-0.312-0.106-0.625-0.102-0.938-0.002c-1.325,0.104-2.612,1.059-2.99,2.37
			c-0.16,0.555-0.294,1.1-0.264,1.678C121.652,53.36,121.504,53.613,121.645,53.808z"/>
		<path style="fill-rule:evenodd;clip-rule:evenodd;fill:#61308D;" d="M61.403,43.07c0.203-0.007,0.405-0.014,0.607-0.02
			c0.245-0.162,0.549,0.021,0.795-0.134c0.102-0.009,0.203-0.017,0.305-0.026c0.32-0.14,0.39,0.038,0.391,0.306
			c0.002,0.942-0.002,1.885,0.003,2.827c0.001,0.15-0.041,0.313,0.08,0.444c1.036,0.006,2.072,0.021,3.108,0.011
			c0.258-0.003,0.325,0.074,0.319,0.325c-0.017,0.686-0.016,1.374,0,2.06c0.005,0.238-0.063,0.311-0.303,0.307
			c-0.92-0.013-1.84-0.006-2.76-0.005c-0.475,0.001-0.516,0.041-0.516,0.497c0,1.659,0.009,3.317-0.008,4.976
			c-0.003,0.331,0.085,0.634,0.173,0.934c0.165,0.557,0.982,1.102,1.561,0.991c0.498-0.096,1.021-0.132,1.467-0.386
			c0.277,0.8,0.539,1.582,0.821,2.356c0.15,0.412-0.194,0.471-0.405,0.518c-0.729,0.163-1.449,0.416-2.216,0.344
			c-0.214-0.121-0.447-0.046-0.67-0.064c-0.15-0.012-0.306,0.023-0.443-0.069c-1.277-0.091-2.177-0.757-2.779-1.853
			c-0.266-0.483-0.499-0.986-0.479-1.561c-0.164-0.303,0.032-0.655-0.132-0.958c-0.004-1.749-0.022-3.499-0.003-5.247
			c0.004-0.403-0.112-0.513-0.503-0.486c-0.529,0.035-1.062,0.002-1.593,0.012c-0.198,0.004-0.274-0.057-0.271-0.264
			c0.01-0.726,0.012-1.451-0.001-2.177c-0.004-0.226,0.1-0.248,0.281-0.246c0.57,0.008,1.142-0.019,1.71,0.011
			c0.323,0.017,0.379-0.101,0.373-0.391c-0.018-0.868,0.002-1.736-0.012-2.605c-0.004-0.24,0.061-0.339,0.302-0.292
			C60.853,43.045,61.157,43.227,61.403,43.07z"/>
		<path style="fill-rule:evenodd;clip-rule:evenodd;fill:#784E9E;" d="M113.408,46.497c0,2.188,0.002,4.377-0.005,6.566
			c-0.001,0.147,0.099,0.351-0.141,0.429c-0.001-2.252-0.002-4.504,0-6.757C113.262,46.635,113.205,46.481,113.408,46.497z"/>
		<path style="fill-rule:evenodd;clip-rule:evenodd;fill:#E5DDEC;" d="M63.584,46.466c-0.261-0.003-0.143-0.205-0.144-0.313
			c-0.01-0.969-0.016-1.938,0.001-2.906c0.004-0.26-0.055-0.389-0.329-0.358c0.054-0.208,0.22-0.151,0.348-0.127
			c0.156,0.029,0.123,0.177,0.123,0.288C63.584,44.188,63.584,45.327,63.584,46.466z"/>
		<path style="fill-rule:evenodd;clip-rule:evenodd;fill:#E7DFEE;" d="M125.94,46.158c-0.546,0-1.092,0.001-1.638,0.001
			c0.016-0.034,0.029-0.096,0.05-0.099c0.505-0.067,1.01-0.098,1.513,0.013C125.894,46.08,125.915,46.129,125.94,46.158z"/>
		<path style="fill-rule:evenodd;clip-rule:evenodd;fill:#764C9D;" d="M18.739,56.616c-0.015,0.067-0.045,0.133-0.119,0.134
			c-0.441,0.004-0.882,0.004-1.323,0c-0.074,0-0.105-0.066-0.12-0.133C17.699,56.618,18.219,56.617,18.739,56.616z"/>
		<path style="fill-rule:evenodd;clip-rule:evenodd;fill:#6A3C94;" d="M16.233,59.568c0.421-0.002,0.843-0.006,1.264-0.004
			c0.12,0.001,0.269-0.044,0.307,0.142c-0.426-0.002-0.853-0.002-1.279-0.006C16.411,59.698,16.286,59.71,16.233,59.568z"/>
		<path style="fill-rule:evenodd;clip-rule:evenodd;fill:#E4DCEB;" d="M93.472,59.575c0.521-0.001,1.041-0.001,1.562-0.002
			c-0.015,0.065-0.043,0.134-0.114,0.135c-0.444,0.005-0.889,0.005-1.333,0C93.517,59.708,93.487,59.641,93.472,59.575z"/>
		<path style="fill-rule:evenodd;clip-rule:evenodd;fill:#DFD6E8;" d="M124.38,59.632c0.49-0.137,0.99-0.028,1.484-0.057
			c-0.017,0.035-0.031,0.097-0.051,0.099C125.334,59.724,124.853,59.807,124.38,59.632z"/>
		<path style="fill-rule:evenodd;clip-rule:evenodd;fill:#E7DFED;" d="M25.446,54.582c-0.001-0.469-0.001-0.937-0.002-1.406
			c0.106,0.019,0.143,0.088,0.143,0.19c-0.001,0.342-0.001,0.684,0.001,1.025C25.589,54.492,25.553,54.563,25.446,54.582z"/>
		<path style="fill-rule:evenodd;clip-rule:evenodd;fill:#EBE5F1;" d="M10.785,45.08c0,0.468-0.001,0.936-0.001,1.405
			c-0.107-0.019-0.144-0.088-0.143-0.19c0.001-0.342,0.001-0.684,0-1.026C10.641,45.167,10.679,45.099,10.785,45.08z"/>
		<path style="fill-rule:evenodd;clip-rule:evenodd;fill:#8964AB;" d="M98.603,46.936c0.003,0.355,0.007,0.711,0.008,1.066
			c0,0.096-0.025,0.176-0.143,0.186c-0.116,0.009-0.162-0.049-0.16-0.158c0.241-0.011,0.124-0.201,0.153-0.315
			C98.528,47.459,98.355,47.159,98.603,46.936z"/>
		<path style="fill-rule:evenodd;clip-rule:evenodd;fill:#784E9E;" d="M18.112,59.704c0.03-0.161,0.157-0.143,0.27-0.142
			c0.332,0.002,0.664,0.006,0.996,0.01c-0.079,0.202-0.258,0.12-0.394,0.127C18.694,59.714,18.403,59.704,18.112,59.704z"/>
		<path style="fill-rule:evenodd;clip-rule:evenodd;fill:#B49DC9;" d="M103.762,53.325c0.245,0.16,0.108,0.411,0.139,0.618
			c0.023,0.16-0.003,0.327-0.007,0.49c-0.255-0.125-0.113-0.358-0.137-0.541C103.731,53.707,103.758,53.514,103.762,53.325z"/>
		<path style="fill-rule:evenodd;clip-rule:evenodd;fill:#6B3D94;" d="M63.714,59.26c0.281-0.003,0.563-0.007,0.844-0.009
			c0.114-0.001,0.24-0.019,0.269,0.143c-0.279,0.001-0.559,0.005-0.839,0.002C63.879,59.395,63.75,59.416,63.714,59.26z"/>
		<path style="fill-rule:evenodd;clip-rule:evenodd;fill:#E2D8EA;" d="M41.948,54.271c0.039-0.32-0.118-0.667,0.134-0.956
			c0.004,0.242,0.008,0.485,0.012,0.727C42.096,54.15,42.081,54.248,41.948,54.271z"/>
		<path style="fill-rule:evenodd;clip-rule:evenodd;fill:#825BA5;" d="M22.02,53.486c0.211,0.226,0.211,0.714-0.002,0.941
			C22.019,54.114,22.02,53.8,22.02,53.486z"/>
		<path style="fill-rule:evenodd;clip-rule:evenodd;fill:#794F9E;" d="M60.323,54.889c0.272,0.118,0.109,0.357,0.141,0.539
			c0.024,0.135-0.004,0.279-0.01,0.419C60.195,55.557,60.36,55.209,60.323,54.889z"/>
		<path style="fill-rule:evenodd;clip-rule:evenodd;fill:#754A9C;" d="M93.944,46.184c-0.102,0.265-0.329,0.113-0.497,0.14
			c-0.148,0.024-0.304-0.002-0.456-0.006C93.277,46.051,93.625,46.225,93.944,46.184z"/>
		<path style="fill-rule:evenodd;clip-rule:evenodd;fill:#72469A;" d="M36.657,46.321c-0.228,0.002-0.455,0.006-0.683,0.006
			c-0.113,0-0.237,0.017-0.266-0.142C36.026,46.218,36.372,46.055,36.657,46.321z"/>
		<path style="fill-rule:evenodd;clip-rule:evenodd;fill:#A589BF;" d="M14.212,46.334c-0.213-0.236-0.216-0.719-0.005-0.95
			C14.209,45.7,14.211,46.017,14.212,46.334z"/>
		<path style="fill-rule:evenodd;clip-rule:evenodd;fill:#EBE5F1;" d="M42.083,52.421c-0.251-0.29-0.098-0.637-0.136-0.956
			c0.269,0.099,0.116,0.329,0.144,0.498C42.115,52.111,42.087,52.268,42.083,52.421z"/>
		<path style="fill-rule:evenodd;clip-rule:evenodd;fill:#73489B;" d="M124.77,49.117c0.223-0.207,0.717-0.206,0.938,0.002
			C125.395,49.118,125.082,49.117,124.77,49.117z"/>
		<path style="fill-rule:evenodd;clip-rule:evenodd;fill:#E6DEED;" d="M57.053,53.336c0.001-0.286,0.002-0.573,0.002-0.859
			C57.26,52.755,57.26,53.112,57.053,53.336z"/>
		<path style="fill-rule:evenodd;clip-rule:evenodd;fill:#ECE6F1;" d="M126.036,56.457c-0.229,0.266-0.531,0.099-0.799,0.134
			C125.461,56.295,125.77,56.505,126.036,56.457z"/>
		<path style="fill-rule:evenodd;clip-rule:evenodd;fill:#74499C;" d="M109.666,59.395c0.216-0.299,0.525-0.084,0.784-0.142
			C110.228,59.514,109.931,59.367,109.666,59.395z"/>
		<path style="fill-rule:evenodd;clip-rule:evenodd;fill:#8059A3;" d="M61.403,43.07c-0.223,0.293-0.53,0.097-0.797,0.134
			C60.838,42.956,61.135,43.1,61.403,43.07z"/>
		<path style="fill-rule:evenodd;clip-rule:evenodd;fill:#8661A8;" d="M62.806,42.915c-0.223,0.29-0.528,0.099-0.795,0.134
			C62.243,42.81,62.536,42.935,62.806,42.915z"/>
		<path style="fill-rule:evenodd;clip-rule:evenodd;fill:#8A67AC;" d="M31.357,48.035c-0.326-0.141-0.113-0.416-0.157-0.627
			c0.055-0.035,0.104-0.04,0.135,0.031C31.343,47.638,31.35,47.837,31.357,48.035z"/>
		<path style="fill-rule:evenodd;clip-rule:evenodd;fill:#8F6DAF;" d="M118.537,51.301c-0.026,0.216,0.138,0.474-0.136,0.637
			C118.42,51.72,118.293,51.471,118.537,51.301z"/>
		<path style="fill-rule:evenodd;clip-rule:evenodd;fill:#8864AA;" d="M113.396,57.699c0.327,0.14,0.113,0.416,0.157,0.627
			c-0.055,0.035-0.104,0.04-0.135-0.031C113.411,58.096,113.403,57.898,113.396,57.699z"/>
		<path style="fill-rule:evenodd;clip-rule:evenodd;fill:#B097C6;" d="M98.605,57.704c-0.001,0.207-0.003,0.413-0.004,0.62
			c-0.051,0.039-0.097,0.039-0.136-0.017c-0.001-0.205-0.001-0.411-0.002-0.616C98.515,57.648,98.563,57.648,98.605,57.704z"/>
		<path style="fill-rule:evenodd;clip-rule:evenodd;fill:#815BA5;" d="M57.027,52.092c-0.278-0.167-0.102-0.426-0.132-0.643
			C57.154,51.619,57,51.874,57.027,52.092z"/>
		<path style="fill-rule:evenodd;clip-rule:evenodd;fill:#D5C8E1;" d="M87.857,51.461c-0.02,0.22,0.104,0.469-0.131,0.645
			C87.745,51.887,87.581,51.629,87.857,51.461z"/>
		<path style="fill-rule:evenodd;clip-rule:evenodd;fill:#9E80B9;" d="M121.645,53.808c-0.278-0.168-0.111-0.424-0.129-0.644
			C121.763,53.338,121.619,53.59,121.645,53.808z"/>
		<path style="fill-rule:evenodd;clip-rule:evenodd;fill:#7E57A2;" d="M56.897,54.289c0.028-0.219-0.149-0.479,0.13-0.647
			C56.999,53.861,57.155,54.117,56.897,54.289z"/>
		<path style="fill-rule:evenodd;clip-rule:evenodd;fill:#D6C9E1;" d="M87.727,53.627c0.236,0.176,0.11,0.425,0.13,0.646
			C87.581,54.104,87.746,53.847,87.727,53.627z"/>
		<path style="fill-rule:evenodd;clip-rule:evenodd;fill:#8F6DAF;" d="M118.401,53.796c0.274,0.163,0.11,0.42,0.136,0.637
			C118.293,54.263,118.42,54.014,118.401,53.796z"/>
		<path style="fill-rule:evenodd;clip-rule:evenodd;fill:#7D54A2;" d="M43.819,53.331c0.259,0.101,0.103,0.316,0.134,0.481
			c-0.051,0.036-0.096,0.035-0.135-0.018C43.818,53.64,43.818,53.485,43.819,53.331z"/>
		<path style="fill-rule:evenodd;clip-rule:evenodd;fill:#8A66AB;" d="M126.324,59.549c0.105-0.251,0.316-0.115,0.485-0.133
			C126.699,59.649,126.495,59.538,126.324,59.549z"/>
		<path style="fill-rule:evenodd;clip-rule:evenodd;fill:#8D6BAE;" d="M107.79,59.258c0.166,0.025,0.379-0.117,0.482,0.135
			C108.103,59.38,107.895,59.501,107.79,59.258z"/>
		<path style="fill-rule:evenodd;clip-rule:evenodd;fill:#B7A0CB;" d="M43.947,51.456c0.002,0.155,0.004,0.31,0.006,0.466
			c-0.038,0.057-0.084,0.057-0.135,0.019C43.838,51.773,43.691,51.561,43.947,51.456z"/>
		<path style="fill-rule:evenodd;clip-rule:evenodd;fill:#E5DDEC;" d="M113.418,58.295c0.045,0.01,0.09,0.021,0.135,0.031
			c-0.001,0.153-0.003,0.307-0.004,0.46C113.288,58.681,113.441,58.464,113.418,58.295z"/>
		<path style="fill-rule:evenodd;clip-rule:evenodd;fill:#E5DCEC;" d="M98.465,58.306c0.045,0.006,0.091,0.011,0.136,0.017
			c0,0.154,0,0.309,0,0.463C98.341,58.687,98.498,58.47,98.465,58.306z"/>
		<path style="fill-rule:evenodd;clip-rule:evenodd;fill:#7D55A1;" d="M98.605,57.704c-0.047-0.005-0.094-0.009-0.142-0.014
			c-0.013-0.086-0.043-0.154-0.151-0.132c-0.007-0.13,0.063-0.193,0.181-0.163C98.667,57.439,98.603,57.587,98.605,57.704z"/>
		<path style="fill-rule:evenodd;clip-rule:evenodd;fill:#E6DEED;" d="M31.336,47.439c-0.045-0.01-0.09-0.021-0.135-0.031
			c0.001-0.153,0.002-0.307,0.004-0.46C31.467,47.054,31.313,47.27,31.336,47.439z"/>
		<path style="fill-rule:evenodd;clip-rule:evenodd;fill:#ECE7F2;" d="M94.722,46.159c-0.157-0.001-0.314-0.002-0.47-0.002
			C94.409,45.939,94.567,45.941,94.722,46.159z"/>
		<path style="fill-rule:evenodd;clip-rule:evenodd;fill:#B39CC9;" d="M43.818,53.794c0.045,0.006,0.09,0.012,0.135,0.018
			c-0.002,0.156-0.004,0.312-0.007,0.468C43.691,54.173,43.839,53.961,43.818,53.794z"/>
		<path style="fill-rule:evenodd;clip-rule:evenodd;fill:#7E56A2;" d="M43.817,51.94c0.045-0.006,0.09-0.012,0.135-0.019
			c-0.029,0.165,0.124,0.38-0.134,0.481C43.818,52.249,43.818,52.095,43.817,51.94z"/>
		<path style="fill-rule:evenodd;clip-rule:evenodd;fill:#8058A4;" d="M31.182,46.798c-0.19-0.034-0.132-0.187-0.147-0.305
			C31.292,46.495,31.168,46.679,31.182,46.798z"/>
		<path style="fill-rule:evenodd;clip-rule:evenodd;fill:#6E4197;" d="M98.624,58.938c0.191,0.03,0.132,0.182,0.146,0.298
			C98.507,59.243,98.644,59.052,98.624,58.938z"/>
		<path style="fill-rule:evenodd;clip-rule:evenodd;fill:#8058A4;" d="M113.573,58.937c0.19,0.034,0.131,0.187,0.146,0.304
			C113.462,59.239,113.587,59.055,113.573,58.937z"/>
		<path style="fill-rule:evenodd;clip-rule:evenodd;fill:#EBE5F1;" d="M43.792,52.71c0,0.105,0,0.21,0,0.315
			C43.587,52.92,43.587,52.814,43.792,52.71z"/>
		<path style="fill-rule:evenodd;clip-rule:evenodd;fill:#FEFEFE;" d="M31.671,53.33c-0.008-0.102-0.016-0.204-0.024-0.305
			c-0.069-0.105-0.069-0.21,0-0.316c0.048-1.06,0.419-1.966,1.246-2.665c0.546-0.462,1.179-0.694,1.88-0.77
			c0.313-0.103,0.625-0.1,0.938-0.002c1.61,0.121,2.786,1.236,3.122,2.814c0.147,0.491,0.032,0.993,0.063,1.489
			c-0.259,0.657-0.477,1.335-1.004,1.848c-0.611,0.594-1.329,0.953-2.18,1.037c-0.313,0.099-0.626,0.102-0.938-0.002
			c-1.291-0.184-2.225-0.863-2.798-2.033c-0.094-0.192-0.201-0.384-0.169-0.612C31.684,53.674,31.797,53.469,31.671,53.33z"/>
		<path style="fill-rule:evenodd;clip-rule:evenodd;fill:#79509F;" d="M38.896,53.576c-0.139-0.491-0.023-0.994-0.063-1.489
			c0.041,0.027,0.117,0.051,0.119,0.08C38.975,52.638,39.063,53.113,38.896,53.576z"/>
		<path style="fill-rule:evenodd;clip-rule:evenodd;fill:#754A9C;" d="M34.773,56.46c0.313,0.001,0.625,0.001,0.938,0.002
			C35.488,56.669,34.995,56.668,34.773,56.46z"/>
		<path style="fill-rule:evenodd;clip-rule:evenodd;fill:#764C9D;" d="M35.711,49.273c-0.313,0.001-0.625,0.001-0.938,0.002
			C34.995,49.066,35.489,49.065,35.711,49.273z"/>
		<path style="fill-rule:evenodd;clip-rule:evenodd;fill:#CFC1DD;" d="M31.671,53.33c0.249,0.104,0.115,0.316,0.136,0.484
			C31.562,53.709,31.686,53.5,31.671,53.33z"/>
		<path style="fill-rule:evenodd;clip-rule:evenodd;fill:#74499B;" d="M31.647,52.709c0,0.105,0,0.21,0,0.316
			C31.443,52.92,31.442,52.815,31.647,52.709z"/>
		<path style="fill-rule:evenodd;clip-rule:evenodd;fill:#FEFEFE;" d="M94.567,48.987c0.102,0,0.204,0.001,0.306,0.001
			c0.242,0.159,0.547-0.033,0.786,0.14c0.427,0.056,0.816,0.219,1.157,0.473c0.83,0.62,1.4,1.405,1.498,2.473
			c0.133,0.355,0.036,0.725,0.066,1.086c-0.011,0.168,0.033,0.343-0.067,0.499c-0.107,1.417-1.464,2.842-2.801,2.956
			c-0.528,0.111-1.056,0.103-1.585,0.004c-1.108-0.155-1.917-0.729-2.489-1.693c-0.256-0.431-0.319-0.918-0.526-1.357
			c0.024-0.494-0.08-0.994,0.06-1.483c0.218-1.318,0.925-2.261,2.156-2.799c0.208-0.091,0.412-0.2,0.652-0.161
			C94.02,48.956,94.324,49.146,94.567,48.987z"/>
		<path style="fill-rule:evenodd;clip-rule:evenodd;fill:#C2AFD4;" d="M93.926,56.619c0.528-0.001,1.056-0.003,1.585-0.004
			c-0.025,0.108-0.104,0.133-0.201,0.134c-0.395,0.001-0.791,0.003-1.186,0.005C94.027,56.754,93.945,56.733,93.926,56.619z"/>
		<path style="fill-rule:evenodd;clip-rule:evenodd;fill:#7A51A0;" d="M90.971,52.086c-0.031,0.494,0.075,0.993-0.06,1.483
			C90.802,53.07,90.695,52.57,90.971,52.086z"/>
		<path style="fill-rule:evenodd;clip-rule:evenodd;fill:#CCBCDB;" d="M98.31,53.179c0.001-0.368,0.003-0.737,0.004-1.105
			c0.258,0.122,0.113,0.356,0.138,0.537c0.026,0.185-0.003,0.378-0.008,0.568C98.4,53.224,98.355,53.224,98.31,53.179z"/>
		<path style="fill-rule:evenodd;clip-rule:evenodd;fill:#E6DEED;" d="M94.567,48.987c-0.219,0.296-0.527,0.087-0.788,0.139
			C94.002,48.857,94.302,49.021,94.567,48.987z"/>
		<path style="fill-rule:evenodd;clip-rule:evenodd;fill:#DDD2E7;" d="M95.659,49.128c-0.262-0.049-0.568,0.153-0.786-0.14
			C95.139,49.011,95.434,48.872,95.659,49.128z"/>
		<path style="fill-rule:evenodd;clip-rule:evenodd;fill:#CABAD9;" d="M98.31,53.179c0.045,0,0.09,0,0.135-0.001
			c-0.03,0.164,0.112,0.375-0.132,0.48C98.312,53.498,98.311,53.339,98.31,53.179z"/>
		<path style="fill-rule:evenodd;clip-rule:evenodd;fill:#FEFEFE;" d="M53.783,53.661c-0.042,1.292-1.307,2.645-2.343,2.791
			c-0.134,0.133-0.341,0.016-0.478,0.138c-0.102,0.009-0.203,0.017-0.304,0.026c-0.156,0.089-0.313,0.089-0.469,0
			c-0.102-0.009-0.203-0.017-0.304-0.026c-0.138-0.122-0.344-0.005-0.478-0.138c-0.952-0.204-1.566-0.835-2.006-1.649
			c-0.188-0.347-0.383-0.715-0.337-1.142c-0.132-0.356-0.035-0.725-0.065-1.088c0.011-0.168-0.032-0.343,0.066-0.5
			c0.065-1.382,1.451-2.903,2.967-2.955c0.209-0.1,0.419-0.094,0.63-0.005c1.398,0.03,2.598,1.137,2.983,2.378
			c0.061,0.195,0.137,0.379,0.135,0.585C53.894,52.605,53.886,53.133,53.783,53.661z"/>
		<path style="fill-rule:evenodd;clip-rule:evenodd;fill:#CDBDDB;" d="M53.783,53.661c-0.001-0.528-0.003-1.056-0.004-1.584
			c0.107,0.023,0.136,0.099,0.136,0.198c0,0.396,0.001,0.792,0.003,1.188C53.918,53.561,53.895,53.642,53.783,53.661z"/>
		<path style="fill-rule:evenodd;clip-rule:evenodd;fill:#CDBDDB;" d="M47.068,52.555c-0.002,0.369-0.003,0.737-0.005,1.106
			c-0.234-0.096-0.122-0.304-0.136-0.461c-0.019-0.213,0.002-0.429,0.006-0.644C46.978,52.509,47.022,52.51,47.068,52.555z"/>
		<path style="fill-rule:evenodd;clip-rule:evenodd;fill:#845FA7;" d="M50.661,49.114c-0.21,0.002-0.42,0.003-0.63,0.005
			C50.239,48.894,50.449,48.885,50.661,49.114z"/>
		<path style="fill-rule:evenodd;clip-rule:evenodd;fill:#6F4398;" d="M50.188,56.615c0.157,0,0.313,0,0.469,0
			C50.501,56.837,50.345,56.837,50.188,56.615z"/>
		<path style="fill-rule:evenodd;clip-rule:evenodd;fill:#CCBCDA;" d="M50.962,56.59c0.101-0.248,0.313-0.111,0.478-0.138
			C51.335,56.687,51.133,56.585,50.962,56.59z"/>
		<path style="fill-rule:evenodd;clip-rule:evenodd;fill:#CCBCDA;" d="M49.406,56.452c0.165,0.027,0.377-0.111,0.478,0.138
			C49.713,56.586,49.511,56.686,49.406,56.452z"/>
		<path style="fill-rule:evenodd;clip-rule:evenodd;fill:#CCBCDB;" d="M47.068,52.555c-0.045,0-0.09,0-0.135,0
			c0.03-0.164-0.112-0.375,0.131-0.482C47.065,52.234,47.066,52.395,47.068,52.555z"/>
	</g>
</g>
<g id="Layer_1">
</g>
</svg>
