<?xml version="1.0" encoding="iso-8859-1"?>
<!-- Generator: Adobe Illustrator 18.1.0, SVG Export Plug-In . SVG Version: 6.00 Build 0)  -->
<!DOCTYPE svg PUBLIC "-//W3C//DTD SVG 1.1//EN" "http://www.w3.org/Graphics/SVG/1.1/DTD/svg11.dtd">
<svg version="1.1" xmlns="http://www.w3.org/2000/svg" xmlns:xlink="http://www.w3.org/1999/xlink" x="0px" y="0px"
	 viewBox="0 0 140 105" style="enable-background:new 0 0 140 105;" xml:space="preserve">
<g id="researchconnection">
	<path style="fill:#2DC1C1;" d="M16.594,40.669c1.061,0,1.89,0.26,2.488,0.78c0.598,0.52,0.897,1.232,0.897,2.137
		c0,0.676-0.154,1.269-0.46,1.778c-0.307,0.51-0.798,0.858-1.474,1.045v0.031c0.322,0.062,0.584,0.167,0.788,0.312
		c0.203,0.146,0.364,0.32,0.483,0.522c0.12,0.203,0.208,0.429,0.265,0.679c0.057,0.25,0.102,0.51,0.133,0.78
		c0.021,0.271,0.036,0.546,0.046,0.827c0.01,0.281,0.037,0.557,0.078,0.827c0.042,0.271,0.102,0.528,0.179,0.772
		c0.078,0.245,0.195,0.46,0.351,0.647h-1.653c-0.104-0.114-0.174-0.271-0.21-0.468c-0.037-0.198-0.06-0.418-0.07-0.663
		c-0.01-0.244-0.021-0.507-0.031-0.788c-0.01-0.281-0.042-0.556-0.093-0.827c-0.042-0.271-0.094-0.528-0.156-0.772
		c-0.062-0.244-0.161-0.458-0.296-0.64c-0.135-0.182-0.312-0.328-0.53-0.437c-0.218-0.109-0.51-0.164-0.874-0.164h-3.619v4.757
		h-1.481V40.669H16.594z M16.906,45.723c0.312-0.052,0.585-0.153,0.819-0.304c0.234-0.15,0.421-0.354,0.562-0.608
		c0.14-0.254,0.21-0.585,0.21-0.99c0-0.562-0.156-1.019-0.468-1.373c-0.312-0.354-0.816-0.53-1.513-0.53h-3.681v3.884h3.088
		C16.267,45.801,16.594,45.775,16.906,45.723z"/>
	<path style="fill:#2DC1C1;" d="M29.727,40.669v1.248h-6.208v3.541h5.787v1.248h-5.787v3.852h6.255v1.248h-7.736V40.669H29.727z"/>
	<path style="fill:#2DC1C1;" d="M37.144,42.19c-0.494-0.359-1.126-0.538-1.896-0.538c-0.311,0-0.619,0.031-0.92,0.093
		c-0.302,0.062-0.569,0.167-0.803,0.312c-0.234,0.146-0.421,0.341-0.562,0.585c-0.141,0.245-0.211,0.548-0.211,0.913
		c0,0.343,0.101,0.621,0.304,0.834c0.203,0.213,0.473,0.387,0.811,0.522c0.338,0.135,0.72,0.247,1.146,0.336
		c0.426,0.088,0.86,0.184,1.303,0.288c0.441,0.104,0.875,0.226,1.302,0.366c0.426,0.141,0.808,0.33,1.146,0.569
		c0.338,0.239,0.608,0.541,0.811,0.905c0.203,0.364,0.304,0.821,0.304,1.373c0,0.593-0.133,1.1-0.398,1.521
		c-0.265,0.421-0.606,0.764-1.021,1.029c-0.416,0.265-0.881,0.458-1.396,0.577c-0.515,0.119-1.027,0.179-1.537,0.179
		c-0.624,0-1.214-0.078-1.77-0.234c-0.557-0.156-1.045-0.393-1.466-0.71c-0.421-0.317-0.754-0.722-0.998-1.216
		c-0.245-0.494-0.367-1.079-0.367-1.755h1.404c0,0.468,0.091,0.871,0.273,1.209c0.182,0.338,0.421,0.616,0.717,0.835
		c0.296,0.218,0.642,0.379,1.038,0.483c0.395,0.104,0.8,0.156,1.216,0.156c0.333,0,0.668-0.031,1.006-0.094
		c0.337-0.062,0.642-0.169,0.912-0.32c0.271-0.15,0.489-0.356,0.655-0.616c0.166-0.26,0.25-0.593,0.25-0.998
		c0-0.385-0.102-0.697-0.304-0.936c-0.203-0.239-0.473-0.434-0.811-0.585c-0.338-0.15-0.72-0.273-1.146-0.366
		c-0.426-0.094-0.86-0.19-1.302-0.289c-0.442-0.099-0.876-0.213-1.302-0.343c-0.427-0.13-0.809-0.302-1.146-0.515
		c-0.338-0.213-0.608-0.489-0.811-0.827c-0.203-0.338-0.304-0.762-0.304-1.271c0-0.562,0.114-1.047,0.343-1.458
		c0.229-0.411,0.533-0.749,0.913-1.014c0.379-0.265,0.811-0.462,1.295-0.593c0.483-0.13,0.979-0.195,1.489-0.195
		c0.572,0,1.102,0.068,1.591,0.203c0.489,0.135,0.918,0.349,1.287,0.64c0.369,0.291,0.66,0.658,0.873,1.1
		c0.213,0.442,0.33,0.97,0.351,1.583h-1.404C37.926,43.128,37.638,42.548,37.144,42.19z"/>
	<path style="fill:#2DC1C1;" d="M49.364,40.669v1.248h-6.208v3.541h5.787v1.248h-5.787v3.852h6.255v1.248h-7.736V40.669H49.364z"/>
	<path style="fill:#2DC1C1;" d="M55.869,40.669l4.352,11.137h-1.638l-1.217-3.354h-4.711l-1.247,3.354h-1.513l4.336-11.137H55.869z
		 M56.898,47.205l-1.856-5.194h-0.031l-1.887,5.194H56.898z"/>
	<path style="fill:#2DC1C1;" d="M66.553,40.669c1.06,0,1.89,0.26,2.488,0.78c0.598,0.52,0.897,1.232,0.897,2.137
		c0,0.676-0.154,1.269-0.46,1.778c-0.307,0.51-0.798,0.858-1.474,1.045v0.031c0.322,0.062,0.584,0.167,0.788,0.312
		c0.203,0.146,0.364,0.32,0.483,0.522c0.12,0.203,0.208,0.429,0.265,0.679c0.057,0.25,0.102,0.51,0.133,0.78
		c0.021,0.271,0.036,0.546,0.046,0.827c0.01,0.281,0.037,0.557,0.078,0.827c0.042,0.271,0.102,0.528,0.179,0.772
		c0.078,0.245,0.195,0.46,0.351,0.647h-1.653c-0.104-0.114-0.174-0.271-0.21-0.468c-0.037-0.198-0.06-0.418-0.07-0.663
		c-0.01-0.244-0.021-0.507-0.031-0.788c-0.01-0.281-0.042-0.556-0.093-0.827c-0.042-0.271-0.094-0.528-0.156-0.772
		c-0.062-0.244-0.161-0.458-0.296-0.64c-0.135-0.182-0.312-0.328-0.53-0.437c-0.218-0.109-0.51-0.164-0.873-0.164h-3.619v4.757
		h-1.481V40.669H66.553z M66.865,45.723c0.312-0.052,0.585-0.153,0.819-0.304c0.234-0.15,0.421-0.354,0.562-0.608
		c0.14-0.254,0.21-0.585,0.21-0.99c0-0.562-0.156-1.019-0.468-1.373c-0.312-0.354-0.816-0.53-1.513-0.53h-3.681v3.884h3.088
		C66.225,45.801,66.553,45.775,66.865,45.723z"/>
	<path style="fill:#2DC1C1;" d="M78.726,42.244c-0.566-0.395-1.24-0.592-2.02-0.592c-0.666,0-1.234,0.125-1.709,0.374
		c-0.473,0.249-0.863,0.585-1.168,1.006c-0.309,0.421-0.533,0.902-0.68,1.442c-0.146,0.541-0.219,1.102-0.219,1.685
		c0,0.635,0.072,1.235,0.219,1.802c0.146,0.567,0.371,1.061,0.68,1.482c0.305,0.421,0.699,0.757,1.176,1.006
		c0.479,0.25,1.051,0.375,1.717,0.375c0.488,0,0.922-0.081,1.303-0.242c0.379-0.161,0.707-0.384,0.982-0.671
		c0.275-0.286,0.49-0.626,0.646-1.022c0.156-0.395,0.25-0.821,0.281-1.279h1.482c-0.146,1.404-0.629,2.496-1.451,3.275
		c-0.822,0.78-1.945,1.17-3.369,1.17c-0.863,0-1.617-0.148-2.262-0.444c-0.644-0.296-1.18-0.705-1.607-1.225
		c-0.426-0.52-0.746-1.133-0.959-1.84c-0.213-0.707-0.318-1.466-0.318-2.277c0-0.811,0.113-1.573,0.342-2.285
		c0.229-0.712,0.565-1.333,1.006-1.864c0.443-0.53,0.994-0.949,1.654-1.256c0.66-0.307,1.416-0.46,2.27-0.46
		c0.582,0,1.133,0.078,1.652,0.234c0.521,0.156,0.984,0.385,1.389,0.687c0.406,0.302,0.744,0.678,1.014,1.131
		c0.271,0.452,0.447,0.975,0.531,1.567h-1.482C79.66,43.232,79.293,42.64,78.726,42.244z"/>
	<path style="fill:#2DC1C1;" d="M84.74,40.669v4.789h5.865v-4.789h1.48v11.137h-1.48v-5.101H84.74v5.101h-1.482V40.669H84.74z"/>
	<path style="fill:#8CCF82;" d="M35.241,54.785c-0.567-0.395-1.24-0.592-2.02-0.592c-0.666,0-1.235,0.125-1.708,0.374
		c-0.473,0.25-0.863,0.585-1.17,1.006c-0.307,0.421-0.533,0.902-0.679,1.442c-0.146,0.541-0.218,1.103-0.218,1.685
		c0,0.635,0.073,1.235,0.218,1.802c0.146,0.566,0.372,1.061,0.679,1.481c0.307,0.421,0.699,0.757,1.178,1.006
		c0.478,0.25,1.05,0.375,1.716,0.375c0.488,0,0.922-0.081,1.302-0.242c0.379-0.161,0.707-0.385,0.982-0.671
		c0.275-0.285,0.492-0.626,0.647-1.021c0.156-0.395,0.25-0.821,0.281-1.278h1.482c-0.146,1.403-0.629,2.495-1.451,3.275
		c-0.822,0.779-1.945,1.17-3.369,1.17c-0.863,0-1.617-0.148-2.262-0.445c-0.645-0.296-1.18-0.704-1.606-1.224
		c-0.426-0.521-0.746-1.134-0.959-1.841c-0.213-0.707-0.319-1.467-0.319-2.277c0-0.812,0.114-1.572,0.343-2.285
		c0.229-0.712,0.564-1.333,1.006-1.864c0.442-0.53,0.993-0.949,1.653-1.256c0.66-0.307,1.416-0.46,2.27-0.46
		c0.582,0,1.133,0.078,1.653,0.234c0.52,0.156,0.982,0.385,1.388,0.687c0.405,0.302,0.743,0.678,1.014,1.131
		c0.271,0.452,0.447,0.975,0.53,1.567h-1.482C36.175,55.773,35.808,55.181,35.241,54.785z"/>
	<path style="fill:#8CCF82;" d="M39.484,56.587c0.223-0.702,0.559-1.323,1.006-1.864c0.447-0.541,1.003-0.972,1.669-1.295
		c0.666-0.322,1.44-0.483,2.324-0.483c0.884,0,1.658,0.161,2.324,0.483c0.666,0.323,1.222,0.754,1.669,1.295
		c0.447,0.541,0.783,1.162,1.006,1.864c0.223,0.702,0.335,1.432,0.335,2.191c0,0.759-0.112,1.489-0.335,2.191
		c-0.224,0.702-0.559,1.323-1.006,1.864c-0.447,0.54-1.003,0.97-1.669,1.286c-0.666,0.317-1.44,0.477-2.324,0.477
		c-0.884,0-1.659-0.159-2.324-0.477c-0.666-0.316-1.222-0.746-1.669-1.286c-0.447-0.541-0.783-1.162-1.006-1.864
		c-0.224-0.702-0.335-1.433-0.335-2.191C39.148,58.019,39.259,57.289,39.484,56.587z M40.848,60.439
		c0.146,0.546,0.374,1.037,0.686,1.474c0.312,0.438,0.712,0.788,1.201,1.053c0.489,0.266,1.071,0.398,1.747,0.398
		c0.676,0,1.258-0.133,1.746-0.398c0.489-0.265,0.889-0.615,1.201-1.053c0.312-0.437,0.541-0.928,0.687-1.474
		c0.146-0.546,0.218-1.1,0.218-1.661c0-0.562-0.073-1.115-0.218-1.661c-0.146-0.545-0.375-1.037-0.687-1.474
		c-0.312-0.437-0.712-0.788-1.201-1.053c-0.489-0.265-1.071-0.397-1.746-0.397c-0.676,0-1.258,0.132-1.747,0.397
		c-0.489,0.265-0.889,0.616-1.201,1.053c-0.312,0.437-0.541,0.928-0.686,1.474c-0.146,0.546-0.218,1.1-0.218,1.661
		C40.63,59.339,40.702,59.893,40.848,60.439z"/>
	<path style="fill:#8CCF82;" d="M53.186,53.21l5.865,9.031h0.031V53.21h1.404v11.136h-1.622l-5.818-8.937h-0.031v8.937h-1.404V53.21
		H53.186z"/>
	<path style="fill:#8CCF82;" d="M64.447,53.21l5.865,9.031h0.031V53.21h1.403v11.136h-1.621l-5.818-8.937h-0.031v8.937h-1.404V53.21
		H64.447z"/>
	<path style="fill:#8CCF82;" d="M81.838,53.21v1.248h-6.207v3.54h5.787v1.248h-5.787v3.852h6.254v1.248h-7.736V53.21H81.838z"/>
	<path style="fill:#8CCF82;" d="M90.41,54.785c-0.568-0.395-1.24-0.592-2.021-0.592c-0.664,0-1.234,0.125-1.707,0.374
		c-0.473,0.25-0.863,0.585-1.17,1.006c-0.307,0.421-0.533,0.902-0.678,1.442c-0.146,0.541-0.219,1.103-0.219,1.685
		c0,0.635,0.072,1.235,0.219,1.802c0.145,0.566,0.371,1.061,0.678,1.481c0.307,0.421,0.699,0.757,1.178,1.006
		c0.479,0.25,1.051,0.375,1.715,0.375c0.49,0,0.924-0.081,1.303-0.242c0.381-0.161,0.707-0.385,0.982-0.671
		c0.275-0.285,0.492-0.626,0.648-1.021c0.156-0.395,0.25-0.821,0.281-1.278h1.48c-0.145,1.403-0.629,2.495-1.451,3.275
		c-0.82,0.779-1.943,1.17-3.367,1.17c-0.863,0-1.617-0.148-2.262-0.445c-0.646-0.296-1.182-0.704-1.607-1.224
		c-0.426-0.521-0.746-1.134-0.959-1.841c-0.213-0.707-0.32-1.467-0.32-2.277c0-0.812,0.115-1.572,0.344-2.285
		c0.229-0.712,0.564-1.333,1.006-1.864c0.441-0.53,0.992-0.949,1.652-1.256c0.66-0.307,1.418-0.46,2.27-0.46
		c0.584,0,1.135,0.078,1.654,0.234c0.52,0.156,0.982,0.385,1.389,0.687c0.404,0.302,0.742,0.678,1.014,1.131
		c0.27,0.452,0.447,0.975,0.529,1.567h-1.48C91.342,55.773,90.976,55.181,90.41,54.785z"/>
	<path style="fill:#8CCF82;" d="M93.754,54.458V53.21h8.906v1.248h-3.711v9.888h-1.482v-9.888H93.754z"/>
	<path style="fill:#8CCF82;" d="M105.437,53.21v11.136h-1.482V53.21H105.437z"/>
	<path style="fill:#8CCF82;" d="M107.644,56.587c0.223-0.702,0.559-1.323,1.006-1.864c0.447-0.541,1.004-0.972,1.67-1.295
		c0.664-0.322,1.439-0.483,2.322-0.483c0.885,0,1.66,0.161,2.324,0.483c0.666,0.323,1.223,0.754,1.67,1.295
		c0.447,0.541,0.781,1.162,1.006,1.864c0.223,0.702,0.336,1.432,0.336,2.191c0,0.759-0.113,1.489-0.336,2.191
		c-0.225,0.702-0.559,1.323-1.006,1.864c-0.447,0.54-1.004,0.97-1.67,1.286c-0.664,0.317-1.439,0.477-2.324,0.477
		c-0.883,0-1.658-0.159-2.322-0.477c-0.666-0.316-1.223-0.746-1.67-1.286c-0.447-0.541-0.783-1.162-1.006-1.864
		c-0.225-0.702-0.336-1.433-0.336-2.191C107.308,58.019,107.42,57.289,107.644,56.587z M109.009,60.439
		c0.145,0.546,0.373,1.037,0.686,1.474c0.312,0.438,0.713,0.788,1.201,1.053c0.488,0.266,1.07,0.398,1.746,0.398
		c0.676,0,1.26-0.133,1.748-0.398c0.488-0.265,0.889-0.615,1.201-1.053c0.311-0.437,0.541-0.928,0.686-1.474
		c0.146-0.546,0.219-1.1,0.219-1.661c0-0.562-0.072-1.115-0.219-1.661c-0.145-0.545-0.375-1.037-0.686-1.474
		c-0.312-0.437-0.713-0.788-1.201-1.053c-0.488-0.265-1.072-0.397-1.748-0.397c-0.676,0-1.258,0.132-1.746,0.397
		c-0.488,0.265-0.889,0.616-1.201,1.053c-0.312,0.437-0.541,0.928-0.686,1.474c-0.146,0.546-0.219,1.1-0.219,1.661
		C108.791,59.339,108.863,59.893,109.009,60.439z"/>
	<path style="fill:#8CCF82;" d="M121.345,53.21l5.865,9.031h0.031V53.21h1.404v11.136h-1.623l-5.818-8.937h-0.031v8.937h-1.402
		V53.21H121.345z"/>
	<circle style="fill:#8CCF82;" cx="97.132" cy="50.13" r="1.448"/>
	<circle style="fill:#2DC1C1;" cx="98.414" cy="44.874" r="2.124"/>
	<circle style="fill:#8CCF82;" cx="103.271" cy="44.607" r="1.448"/>
	<circle style="fill:#2DC1C1;" cx="102.128" cy="50.283" r="2.124"/>
</g>
<g id="Layer_1">
</g>
</svg>
