<?xml version="1.0" encoding="iso-8859-1"?>
<!-- Generator: Adobe Illustrator 18.1.0, SVG Export Plug-In . SVG Version: 6.00 Build 0)  -->
<!DOCTYPE svg PUBLIC "-//W3C//DTD SVG 1.1//EN" "http://www.w3.org/Graphics/SVG/1.1/DTD/svg11.dtd">
<svg version="1.1" xmlns="http://www.w3.org/2000/svg" xmlns:xlink="http://www.w3.org/1999/xlink" x="0px" y="0px"
	 viewBox="0 0 140 105" style="enable-background:new 0 0 140 105;" xml:space="preserve">
<g id="rushgreek">
	<g>
		<path style="fill:#636363;" d="M116.904,39.518c1.438-0.403,2.924-0.707,4.422-0.698c0.128,4.379-0.026,8.766,0.079,13.149
			c1.198-1.572,2.172-3.292,3.242-4.949c0.378-0.503,0.702-1.157,1.352-1.347c0.515-0.068,1.04-0.029,1.56-0.041
			c0.749,0.012,1.515-0.074,2.247,0.13c-0.011,0.332,0.05,0.696-0.143,0.991c-0.42,0.702-0.915,1.356-1.314,2.072
			c-0.556,0.799-1.016,1.66-1.564,2.463c-0.307,0.447-0.565,0.924-0.797,1.413c1.196,2.431,2.819,4.625,4.014,7.054
			c-0.083,0.134-0.165,0.27-0.243,0.405c-1.302,0.255-2.617,0.026-3.926,0.002c-0.181-0.128-0.362-0.254-0.545-0.378
			c-0.613-0.974-1.196-1.965-1.78-2.955c-0.663-1.14-1.394-2.238-2.046-3.381c-0.134,0.541-0.288,1.084-0.278,1.648
			c-0.008,1.722,0.012,3.445-0.005,5.168c-1.418,0.048-2.836,0.011-4.254,0.026c-0.071-3.544-0.011-7.091-0.03-10.637
			C116.897,46.273,116.88,42.896,116.904,39.518L116.904,39.518z"/>
		<path style="fill:#636363;" d="M52.359,39.097c0.921-0.122,1.885-0.414,2.792-0.068c0.035,2.224-0.05,4.45,0.048,6.673
			c1.94-0.316,3.956-0.556,5.895-0.101c1.015,0.358,1.989,1.031,2.472,2.021c0.258,0.642,0.257,1.352,0.302,2.031
			c0.008,3.117-0.003,6.234,0.005,9.351c0.003,0.488-0.045,0.973-0.076,1.459c-1.486-0.006-2.973,0.023-4.458-0.018
			c1.453-0.044,2.907,0.026,4.36-0.03c-0.012-0.041-0.036-0.124-0.048-0.166c-1.416-0.11-2.844-0.008-4.265-0.053
			c-0.002-3.167,0.002-6.333,0.002-9.5c-0.002-0.618-0.231-1.341-0.856-1.584c-1.077-0.323-2.271-0.121-3.245,0.418
			c-0.202,1.185-0.113,2.391-0.131,3.585c0.014,2.486-0.035,4.973,0.039,7.455c-1.358-0.267-2.754-0.006-4.127-0.13
			c1.291-0.036,2.587,0.045,3.875-0.066c0.024-0.027,0.072-0.08,0.095-0.107c-0.273-0.106-0.58-0.056-0.865-0.069
			c-1.182,0.027-2.366-0.038-3.546,0.051c0.014-6.35,0.003-12.7,0.006-19.05c0.008-0.553-0.027-1.105,0.027-1.657
			C51.163,39.235,51.791,39.217,52.359,39.097L52.359,39.097z"/>
		<path style="fill:#636363;" d="M10.007,45.338c1.279,0.035,2.609-0.169,3.827,0.338c0.103,0.21,0.207,0.418,0.31,0.628
			c1.108-0.322,2.209-0.681,3.345-0.895c0.529-0.11,1.066-0.02,1.587,0.088c0.251,1.146,0.378,2.323,0.334,3.497
			c-1.669,0.109-3.352,0.412-4.866,1.148c-0.059,3.371-0.014,6.746-0.021,10.118c-1.504-0.006-3.01-0.012-4.514,0.002
			C9.995,55.286,10.001,50.312,10.007,45.338L10.007,45.338z"/>
		<path style="fill:#636363;" d="M37.805,46.745c1.256-1.074,2.963-1.46,4.585-1.415c1.78,0.018,3.579-0.11,5.346,0.178
			c0.293,1.179,0.477,2.41,0.311,3.624c-0.429,0.044-0.861,0.036-1.288-0.015c-1.49-0.172-3.02-0.379-4.509-0.089
			c-0.462,0.05-0.79,0.391-1.039,0.754c0.076,0.304,0.237,0.568,0.439,0.802c2.105,0.803,4.49,0.991,6.317,2.418
			c0.473,0.468,0.855,1.089,0.865,1.773c0.03,1.066,0.104,2.202-0.409,3.179c-0.646,1.13-1.827,1.891-3.087,2.156
			c-0.773,0.101-1.557,0.115-2.336,0.166c-1.936,0.009-3.89,0.059-5.802-0.304c-0.264-1.119-0.464-2.277-0.381-3.432
			c0.095-0.056,0.287-0.169,0.384-0.225c1.139,0.002,2.247,0.308,3.384,0.331c1.006,0.03,2.042,0.127,3.02-0.165
			c0.328-0.091,0.495-0.415,0.711-0.646c-0.184-0.331-0.378-0.701-0.772-0.811c-1.613-0.616-3.371-0.832-4.909-1.645
			c-0.826-0.426-1.599-1.089-1.877-2.005C36.36,49.793,36.583,47.922,37.805,46.745L37.805,46.745z"/>
		<path style="fill:#636363;" d="M80.562,45.338c1.184-0.012,2.368-0.018,3.552,0.008c0.297,0.272,0.544,0.592,0.713,0.959
			c1.583-0.379,3.141-1.151,4.807-0.926l0.098,0.074c0.074,1.124,0.012,2.253,0.027,3.38c-0.098,0.088-0.196,0.175-0.291,0.263
			c-1.469,0.077-2.939,0.423-4.258,1.077c-0.217,3.368-0.069,6.747-0.121,10.119c-1.51-0.032-3.02-0.011-4.53-0.014
			C80.582,55.298,80.574,50.318,80.562,45.338L80.562,45.338z"/>
		<path style="fill:#04ADF0;" d="M112.003,45.392c1.124-0.017,2.25,0.041,3.374-0.041c0.231,1.25,0.036,2.529,0.095,3.793
			c-0.85,0.08-1.705,0.047-2.557,0.047c-1.05-0.023-2.096,0.118-3.146,0.057c1.119,0.947,1.934,2.193,3.073,3.115
			c0.035,0.162,0.069,0.325,0.107,0.488c-1.208,1.169-2.167,2.567-3.325,3.783c1.9,0.027,3.799,0.026,5.699-0.009
			c0.11,0.329,0.181,0.672,0.163,1.022c-0.021,0.944,0.027,1.891-0.044,2.833c-3.78-0.045-7.564,0.053-11.344-0.05
			c0.042-1.077-0.041-2.159,0.03-3.232c0.495-0.651,1.056-1.252,1.551-1.903c0.748-0.82,1.406-1.725,2.239-2.463
			c-1.213-1.454-2.572-2.78-3.836-4.189c0.023-0.994,0.05-1.989,0.008-2.982c0.035-0.072,0.101-0.219,0.134-0.291
			C106.817,45.419,109.41,45.379,112.003,45.392L112.003,45.392z"/>
		<path style="fill:#636363;" d="M21.322,55.543c-0.008-3.39-0.026-6.78,0.006-10.169c1.5,0.015,3.001-0.002,4.502,0.003
			c0.021,3.135,0,6.27,0.009,9.405c-0.009,0.631,0.18,1.421,0.858,1.64c1.134,0.402,2.398,0.151,3.448-0.378
			c0.08-0.501,0.098-1.007,0.1-1.513c0.02-3.049,0-6.098,0.018-9.145c1.509-0.017,3.017,0,4.526-0.011
			c0.011,4.944,0.014,9.888-0.002,14.831c-1.346,0.026-2.732,0.14-4.038-0.254c-0.06-0.183-0.121-0.364-0.181-0.545
			c-1.901,0.752-3.966,1.318-6.021,0.945c-1.37-0.305-2.588-1.338-3.028-2.683C21.411,56.964,21.31,56.257,21.322,55.543
			L21.322,55.543z"/>
		<path style="fill:#04ADF0;" d="M91.252,45.385c2.889-0.057,5.779-0.011,8.668-0.024c0.917,0.023,1.842-0.083,2.748,0.104
			c-0.042,1.256-0.012,2.513-0.021,3.769c-1.882-0.079-3.768-0.05-5.649,0.017c0.414,0.427,0.809,0.873,1.232,1.293
			c0.03,0.044,0.094,0.128,0.124,0.171c0.593,0.58,1.175,1.178,1.711,1.811c-0.003,0.072-0.009,0.217-0.012,0.29
			c-0.681,0.963-1.54,1.786-2.265,2.715c-0.302,0.382-0.648,0.725-0.977,1.083c1.77,0.072,3.546-0.053,5.313,0.076
			c0.168-0.05,0.34-0.094,0.513-0.13c0.036,1.288-0.038,2.578,0.056,3.863c-0.516,0.048-1.034,0.068-1.552,0.066
			c-3.221-0.011-6.441,0.006-9.66-0.008c-0.231,0.042-0.21-0.269-0.228-0.408c-0.006-0.906-0.009-1.811,0-2.715
			c-0.006-0.26,0.205-0.442,0.347-0.634c0.556-0.648,1.098-1.308,1.664-1.948c0.581-0.69,1.217-1.335,1.764-2.055
			c-0.64-0.571-1.164-1.252-1.776-1.85c-0.664-0.748-1.42-1.415-2.01-2.227C91.266,47.556,91.243,46.47,91.252,45.385L91.252,45.385
			z"/>
		<path style="fill:#636363;" d="M75.331,45.498c-0.086,0.236-0.171,0.471-0.254,0.708c-1.169-0.329-2.298-0.892-3.538-0.868
			c-1.333-0.017-2.845-0.076-3.922,0.847c-1.259,1.015-1.777,2.662-1.873,4.225c-0.06,1.658-0.051,3.318-0.026,4.976
			c0.011,0.941,0.177,1.876,0.465,2.77c0.427,0.747,1.102,1.296,1.871,1.667c0.823,0.314,1.709,0.402,2.584,0.435
			c1.302,0.023,2.616-0.057,3.882-0.371c-0.023,0.569,0.044,1.185-0.252,1.699c-0.22,0.385-0.636,0.613-1.063,0.684
			c-1.4,0.266-2.833,0.121-4.242,0.023c-0.784-0.054-1.58-0.131-2.351,0.066c0.002,1.077-0.139,2.179,0.134,3.235
			c1.995,0.584,4.092,0.63,6.155,0.565c0.989-0.059,1.962-0.291,2.898-0.609c0.501-0.237,0.953-0.556,1.379-0.908
			c0.233-0.237,0.495-0.447,0.699-0.713l0.036,0.002c0.367-0.663,0.758-1.33,0.918-2.081c0.266-0.972,0.24-1.989,0.281-2.987
			c0.002-4.502-0.002-9.003,0.002-13.505C77.856,45.419,76.569,45.211,75.331,45.498z M74.525,55.862
			c-0.957,0.642-2.156,0.864-3.275,0.584c-0.334-0.118-0.562-0.4-0.815-0.63c-0.35-1.213-0.276-2.496-0.267-3.744
			c0.054-0.818,0.003-1.755,0.593-2.406c0.713-0.619,1.729-0.445,2.591-0.376c0.384,0.13,0.772,0.249,1.16,0.368
			C74.588,51.726,74.558,53.796,74.525,55.862z"/>
	</g>
</g>
<g id="Layer_1">
</g>
</svg>
