<?xml version="1.0" encoding="iso-8859-1"?>
<!-- Generator: Adobe Illustrator 18.1.0, SVG Export Plug-In . SVG Version: 6.00 Build 0)  -->
<!DOCTYPE svg PUBLIC "-//W3C//DTD SVG 1.1//EN" "http://www.w3.org/Graphics/SVG/1.1/DTD/svg11.dtd">
<svg version="1.1" xmlns="http://www.w3.org/2000/svg" xmlns:xlink="http://www.w3.org/1999/xlink" x="0px" y="0px"
	 viewBox="0 0 140 105" style="enable-background:new 0 0 140 105;" xml:space="preserve">
<g id="sweetbuds">
	<g>
		<path style="fill:#046799;" d="M69.951,71.457c-21.811,0-39.554-13.222-39.554-29.479c0-16.256,17.744-29.479,39.554-29.479
			c21.811,0,39.554,13.223,39.554,29.479C109.505,58.235,91.762,71.457,69.951,71.457L69.951,71.457z M69.951,13.847
			c-21.068,0-38.205,12.618-38.205,28.131c0,15.514,17.137,28.135,38.205,28.135c21.064,0,38.206-12.621,38.206-28.135
			C108.157,26.465,91.016,13.847,69.951,13.847L69.951,13.847z"/>
		<ellipse style="fill:#D85E97;" cx="69.952" cy="41.979" rx="36.187" ry="26.11"/>
		<g>
			<g>
				<g>
					<path style="fill:#FFFFFF;" d="M51.694,47.595c-0.022-0.751-0.275-1.355-0.457-1.795c-0.063-0.155-0.146-0.353-0.176-0.468
						c0.083-0.046,0.291-0.146,0.777-0.251c0.334-0.071,0.564-0.374,0.546-0.714c-0.021-0.339-0.285-0.616-0.625-0.647
						c-2.724-0.266-3.948,0.871-4.478,1.813c-0.892,1.575-0.492,3.619,0.077,4.566c0.126,0.212,0.353,0.339,0.591,0.339
						c0.021,0,0.043-0.001,0.063-0.005C49.413,50.305,51.758,49.56,51.694,47.595z"/>
				</g>
				<g>
					<path style="fill:#FFFFFF;" d="M41.616,43.71c0.667,0.263,0.792,0.43,0.802,0.43c-0.001,0.108-0.187,0.429-0.318,0.664
						c-0.326,0.563-0.77,1.336-0.881,2.393c-0.104,0.972,0.127,1.777,0.687,2.4c0.96,1.073,2.618,1.233,3.518,1.233
						c0.303,0,0.494-0.021,0.494-0.021c0.289-0.025,0.53-0.231,0.603-0.511c0.074-0.278-0.034-0.576-0.27-0.742
						c-0.858-0.601-0.593-1.872-0.091-3.741l0.042-0.149c0.207-0.779,0.075-1.507-0.388-2.11c-0.864-1.125-2.705-1.535-3.733-1.535
						c-0.711,0-1.118,0.231-1.206,0.688C40.819,43.009,40.9,43.427,41.616,43.71z"/>
				</g>
			</g>
			<g>
				<path style="fill:#FFFFFF;" d="M69.336,49.515c-0.173-1.322-0.636-2.931-1.466-4.181c-2.4-3.625-6.696-4.804-10.486-5.84
					c-4.995-1.367-8.05-2.41-8.05-6.442c0-3.033,1.644-5.194,4.509-5.925c3.205-0.817,7.788,0.372,9.621,3.722
					c0.183,0.337,0.602,0.461,0.938,0.274c0.333-0.182,0.457-0.6,0.275-0.937c-0.252-0.46-0.548-0.88-0.875-1.273
					c1.317,0.065,2.554-0.306,3.54-1.113c0.671-0.55,1.177-1.271,1.462-2.085c0.947-2.72-2.005-4.756-2.129-4.838
					c-0.259-0.174-0.592-0.155-0.826,0.038c-0.017,0.008-0.027,0.021-0.041,0.035c-0.236,0.224-0.282,0.583-0.111,0.86
					c0.697,1.134,0.438,3.325-0.937,4.449c-0.804,0.655-1.868,0.878-3.169,0.663c-0.065-0.012-0.13-0.01-0.192-0.003
					c-2.433-1.396-5.46-1.755-7.895-1.131c-3.476,0.888-6.196,3.615-6.473,7.265c-0.488,6.34,5.531,8.397,9.988,9.618
					c3.73,1.022,11.709,4.388,9.324,11.185c-1.093,3.121-4.072,4.717-8.028,4.717c-8.403,0-9.969-6.727-10.032-7.013
					c-0.08-0.371-0.448-0.607-0.82-0.527c-0.375,0.079-0.611,0.445-0.532,0.819c0.02,0.08,1.839,8.107,11.384,8.107
					c2.792,0,5.574-0.724,7.575-2.144C68.735,55.676,69.685,52.162,69.336,49.515z"/>
				<g>
					<path style="fill:#FFFFFF;" d="M64.943,32.098c-0.23-0.084-0.484-0.037-0.672,0.115c-0.015,0.014-0.031,0.028-0.048,0.043
						c-0.997,0.984-2.347,3.044-1.05,4.527c0.495,0.566,1.07,0.876,1.491,1.099c0.146,0.08,0.338,0.182,0.429,0.251
						c-0.033,0.089-0.13,0.298-0.442,0.687c-0.212,0.266-0.199,0.648,0.031,0.897c0.23,0.253,0.61,0.299,0.896,0.107
						c2.275-1.518,2.498-3.175,2.317-4.24C67.587,33.802,65.983,32.474,64.943,32.098z"/>
				</g>
				<g>
					<path style="fill:#FFFFFF;" d="M74.644,33.717c-0.146-0.268-0.476-0.54-1.21-0.305c-0.682,0.217-0.884,0.165-0.89,0.173
						c-0.07-0.085-0.128-0.449-0.175-0.714c-0.106-0.641-0.252-1.521-0.832-2.412c-0.538-0.816-1.227-1.295-2.054-1.422
						c-1.423-0.222-2.803,0.705-3.501,1.273c-0.235,0.192-0.37,0.327-0.37,0.327c-0.207,0.202-0.263,0.515-0.143,0.777
						c0.12,0.263,0.391,0.424,0.678,0.402c1.043-0.078,1.645,1.075,2.438,2.841l0.064,0.142c0.333,0.735,0.896,1.215,1.633,1.39
						c1.383,0.321,3.063-0.527,3.859-1.177C74.696,34.561,74.864,34.123,74.644,33.717z"/>
				</g>
			</g>
		</g>
		<path style="fill:#FFFFFF;" d="M97.034,41.883l-15.606-0.405v-8.72c0-3.315,0.89-6.013,4.857-6.013
			c3.965,0,5.244,2.698,5.244,6.013c0,3.316-1.279,7.593-5.244,7.593c-1.125,0-2.2-0.211-3.198-0.625
			c-0.369-0.15-0.8-0.026-0.979,0.277c-0.177,0.302-0.028,0.669,0.327,0.817c1.208,0.499,2.499,0.752,3.851,0.752
			c4.773,0,8.656-4.826,8.656-8.815c0-3.988-3.883-7.233-8.656-7.233c-4.774,0-9.641,3.245-9.641,7.233v8.595l-4.717-0.122
			c-0.26-1.662-0.991-2.864-1.855-2.878v8.435c0.86-0.012,1.59-1.208,1.853-2.861l4.719-0.125v8.579
			c0,3.988,4.866,7.236,9.641,7.236c4.773,0,8.656-3.248,8.656-7.236c0-3.99-3.883-8.79-8.656-8.79
			c-1.352,0-2.643,0.255-3.851,0.752c-0.355,0.149-0.504,0.516-0.327,0.816c0.18,0.302,0.61,0.431,0.979,0.277
			c0.998-0.415,2.073-0.622,3.198-0.622c3.965,0,5.244,4.251,5.244,7.566c0,3.314-1.279,6.015-5.244,6.015
			c-3.968,0-4.857-2.7-4.857-6.015v-8.707l15.606-0.417c0.412,0,0.747-0.308,0.747-0.688C97.781,42.191,97.446,41.883,97.034,41.883
			z"/>
		<g>
			<path style="fill:#046799;" d="M26.249,86.148c-0.185-0.096-0.424-0.247-0.717-0.435c-0.295-0.193-0.583-0.439-0.864-0.736
				c-0.282-0.294-0.525-0.652-0.726-1.074c-0.203-0.422-0.307-0.913-0.307-1.483c0-0.616,0.116-1.166,0.345-1.643
				c0.229-0.475,0.54-0.871,0.932-1.188c0.394-0.317,0.854-0.553,1.384-0.714c0.531-0.163,1.104-0.242,1.719-0.242
				c0.76,0,1.41,0.099,1.954,0.297c0.542,0.193,0.992,0.438,1.346,0.725c0.354,0.29,0.615,0.601,0.786,0.934
				c0.168,0.333,0.255,0.639,0.255,0.914c0,0.395-0.133,0.723-0.401,0.981c-0.27,0.264-0.606,0.393-1.013,0.393
				c-0.419,0-0.722-0.103-0.911-0.314c-0.19-0.206-0.373-0.464-0.54-0.765c-0.055-0.105-0.126-0.226-0.218-0.362
				c-0.09-0.141-0.201-0.274-0.325-0.401c-0.123-0.135-0.268-0.241-0.43-0.326c-0.165-0.086-0.357-0.126-0.582-0.126
				c-0.34,0-0.628,0.111-0.864,0.34c-0.235,0.229-0.352,0.543-0.352,0.937c0,0.265,0.044,0.485,0.137,0.674
				c0.092,0.183,0.242,0.363,0.451,0.538c0.209,0.173,0.492,0.351,0.845,0.538c0.354,0.184,0.786,0.409,1.297,0.666
				c0.354,0.175,0.728,0.375,1.129,0.605c0.399,0.23,0.766,0.507,1.1,0.836c0.333,0.33,0.608,0.723,0.824,1.18
				c0.216,0.457,0.324,1.008,0.324,1.652c0,0.706-0.133,1.309-0.402,1.806c-0.27,0.504-0.622,0.914-1.059,1.23
				c-0.439,0.314-0.943,0.547-1.514,0.696c-0.569,0.148-1.148,0.221-1.738,0.221c-0.839,0-1.551-0.117-2.14-0.352
				c-0.59-0.234-1.071-0.533-1.444-0.884c-0.375-0.357-0.646-0.73-0.817-1.131c-0.17-0.401-0.254-0.763-0.254-1.092
				c0-0.257,0.049-0.487,0.147-0.674c0.1-0.193,0.219-0.347,0.364-0.462c0.143-0.12,0.3-0.207,0.471-0.258
				c0.17-0.05,0.327-0.077,0.471-0.077c0.249,0,0.462,0.046,0.638,0.135c0.178,0.093,0.334,0.21,0.471,0.346
				c0.14,0.136,0.257,0.29,0.353,0.461c0.1,0.173,0.189,0.336,0.268,0.493c0.065,0.13,0.142,0.272,0.235,0.429
				c0.09,0.159,0.202,0.304,0.334,0.447c0.13,0.136,0.288,0.247,0.471,0.339c0.183,0.095,0.394,0.139,0.628,0.139
				c0.339,0,0.641-0.109,0.903-0.333c0.262-0.222,0.395-0.548,0.395-0.984c0-0.27-0.051-0.505-0.15-0.705
				c-0.097-0.195-0.237-0.384-0.421-0.559c-0.184-0.168-0.416-0.338-0.698-0.497c-0.283-0.161-0.611-0.342-0.993-0.537
				L26.249,86.148z"/>
			<path style="fill:#046799;" d="M40.251,87.847l-1.336,4.24c-0.065,0.186-0.125,0.298-0.175,0.346
				c-0.055,0.043-0.172,0.067-0.354,0.067H36.54c-0.171,0-0.287-0.024-0.344-0.067c-0.06-0.048-0.122-0.153-0.186-0.324
				l-2.674-9.153c-0.038-0.104-0.06-0.178-0.068-0.216c-0.006-0.041-0.011-0.078-0.011-0.118c0-0.144,0.046-0.229,0.14-0.252
				c0.09-0.03,0.168-0.043,0.236-0.043h2.336c0.183,0,0.307,0.024,0.372,0.068c0.065,0.049,0.118,0.161,0.157,0.345l1.455,5.989
				l1.768-5.989c0.05-0.156,0.1-0.266,0.147-0.324c0.046-0.059,0.139-0.089,0.285-0.089h0.962c0.092,0.029,0.152,0.065,0.185,0.121
				c0.032,0.051,0.068,0.142,0.108,0.272l1.808,6.009l1.472-5.951c0.053-0.181,0.104-0.304,0.149-0.362
				c0.045-0.059,0.153-0.089,0.323-0.089h1.572c0.104,0,0.202,0.013,0.295,0.043c0.09,0.022,0.136,0.108,0.136,0.252
				c0,0.04-0.003,0.077-0.01,0.118c-0.004,0.038-0.036,0.143-0.086,0.315l-2.672,9.032c-0.065,0.172-0.125,0.285-0.175,0.334
				c-0.054,0.051-0.158,0.079-0.315,0.079h-1.789c-0.168,0-0.29-0.028-0.362-0.079c-0.073-0.049-0.142-0.155-0.208-0.312
				L40.251,87.847z"/>
			<path style="fill:#046799;" d="M50.229,87.507c0.025,0.135,0.058,0.289,0.097,0.467c0.04,0.177,0.112,0.347,0.218,0.518
				c0.222,0.39,0.522,0.696,0.903,0.923c0.379,0.227,0.812,0.337,1.295,0.337c0.459,0,0.857-0.098,1.199-0.283
				c0.341-0.192,0.608-0.384,0.804-0.581c0.198-0.223,0.34-0.369,0.433-0.441c0.093-0.07,0.21-0.11,0.354-0.11
				c0.157,0,0.297,0.063,0.422,0.189c0.125,0.123,0.186,0.311,0.186,0.56c0,0.104-0.021,0.258-0.068,0.474
				c-0.046,0.206-0.125,0.436-0.235,0.683c-0.111,0.251-0.262,0.509-0.45,0.778c-0.191,0.271-0.43,0.512-0.718,0.739
				c-0.29,0.222-0.633,0.396-1.033,0.539c-0.397,0.136-0.86,0.203-1.384,0.203c-0.865,0-1.595-0.146-2.19-0.443
				c-0.595-0.299-1.076-0.689-1.442-1.172c-0.369-0.485-0.628-1.037-0.786-1.657c-0.158-0.618-0.236-1.247-0.236-1.878
				c0-0.915,0.139-1.694,0.413-2.334c0.273-0.64,0.635-1.154,1.08-1.553c0.445-0.398,0.939-0.688,1.482-0.866
				c0.542-0.181,1.082-0.271,1.619-0.271c0.786,0,1.433,0.146,1.936,0.44c0.504,0.292,0.904,0.632,1.198,1.022
				c0.295,0.388,0.497,0.783,0.61,1.19c0.11,0.408,0.165,0.723,0.165,0.941c0,0.195-0.025,0.352-0.079,0.465
				c-0.05,0.118-0.122,0.207-0.204,0.265c-0.086,0.061-0.175,0.104-0.268,0.126c-0.089,0.026-0.176,0.047-0.253,0.06L50.229,87.507z
				 M53.079,85.941c-0.041-0.433-0.122-0.767-0.247-1.013c-0.126-0.241-0.262-0.418-0.412-0.527
				c-0.152-0.113-0.295-0.18-0.433-0.199c-0.138-0.021-0.239-0.027-0.305-0.027c-0.287,0-0.537,0.063-0.745,0.186
				c-0.21,0.127-0.382,0.289-0.511,0.502c-0.131,0.208-0.229,0.447-0.296,0.717c-0.066,0.266-0.097,0.539-0.097,0.813L53.079,85.941
				z"/>
			<path style="fill:#046799;" d="M59.637,87.507c0.025,0.135,0.056,0.289,0.097,0.467c0.039,0.177,0.112,0.347,0.217,0.518
				c0.223,0.39,0.522,0.696,0.905,0.923c0.379,0.227,0.81,0.337,1.295,0.337c0.459,0,0.858-0.098,1.199-0.283
				c0.34-0.192,0.608-0.384,0.804-0.581c0.196-0.223,0.341-0.369,0.433-0.441c0.091-0.07,0.21-0.11,0.354-0.11
				c0.157,0,0.297,0.063,0.422,0.189c0.124,0.123,0.188,0.311,0.188,0.56c0,0.104-0.024,0.258-0.07,0.474
				c-0.046,0.206-0.125,0.436-0.235,0.683c-0.112,0.251-0.262,0.509-0.452,0.778c-0.189,0.271-0.429,0.512-0.718,0.739
				c-0.286,0.222-0.631,0.396-1.03,0.539c-0.399,0.136-0.86,0.203-1.384,0.203c-0.865,0-1.595-0.146-2.19-0.443
				c-0.597-0.299-1.076-0.689-1.443-1.172c-0.369-0.485-0.63-1.037-0.786-1.657c-0.158-0.618-0.236-1.247-0.236-1.878
				c0-0.915,0.138-1.694,0.414-2.334c0.275-0.64,0.632-1.154,1.079-1.553c0.446-0.398,0.939-0.688,1.482-0.866
				c0.543-0.181,1.082-0.271,1.622-0.271c0.783,0,1.43,0.146,1.934,0.44c0.504,0.292,0.903,0.632,1.198,1.022
				c0.295,0.388,0.499,0.783,0.61,1.19c0.11,0.408,0.166,0.723,0.166,0.941c0,0.195-0.028,0.352-0.079,0.465
				c-0.052,0.118-0.12,0.207-0.207,0.265c-0.085,0.061-0.174,0.104-0.264,0.126c-0.092,0.026-0.178,0.047-0.257,0.06L59.637,87.507z
				 M62.485,85.941c-0.039-0.433-0.122-0.767-0.247-1.013c-0.125-0.241-0.261-0.418-0.411-0.527
				c-0.152-0.113-0.296-0.18-0.432-0.199c-0.14-0.021-0.239-0.027-0.305-0.027c-0.288,0-0.539,0.063-0.746,0.186
				c-0.21,0.127-0.381,0.289-0.511,0.502c-0.132,0.208-0.229,0.447-0.295,0.717c-0.065,0.266-0.097,0.539-0.097,0.813L62.485,85.941
				z"/>
			<path style="fill:#046799;" d="M70.163,83.626v5.426c0,0.151,0.007,0.325,0.02,0.519c0.015,0.197,0.061,0.385,0.148,0.558
				c0.086,0.177,0.217,0.325,0.392,0.447c0.179,0.117,0.429,0.189,0.758,0.217c0.078,0,0.164,0.004,0.265,0.012
				c0.097,0.006,0.187,0.023,0.265,0.067c0.076,0.035,0.147,0.101,0.206,0.179c0.059,0.077,0.09,0.193,0.09,0.349
				c0,0.158-0.071,0.302-0.209,0.437c-0.136,0.129-0.312,0.244-0.528,0.352c-0.217,0.106-0.463,0.185-0.737,0.233
				c-0.275,0.051-0.556,0.079-0.844,0.079c-0.117,0-0.26-0.004-0.433-0.021c-0.17-0.012-0.356-0.044-0.56-0.1
				c-0.203-0.06-0.411-0.144-0.628-0.249c-0.216-0.107-0.415-0.257-0.597-0.45c-0.329-0.339-0.521-0.695-0.58-1.056
				c-0.06-0.359-0.089-0.708-0.089-1.041v-5.957c-0.092,0-0.196,0-0.314,0c-0.104,0-0.217,0-0.335,0
				c-0.104,0-0.196-0.004-0.275-0.011c-0.079-0.008-0.122-0.011-0.137-0.011c-0.102-0.014-0.165-0.05-0.185-0.112
				c-0.021-0.058-0.03-0.136-0.03-0.229c0-0.226,0-0.399,0-0.518c0-0.121,0.007-0.207,0.02-0.27
				c0.015-0.061,0.036-0.094,0.069-0.107c0.032-0.014,0.074-0.03,0.126-0.043c0.026,0,0.165,0,0.412,0c0.25,0,0.466,0,0.649,0
				v-1.022c0-0.179,0.02-0.314,0.058-0.393c0.039-0.077,0.146-0.169,0.315-0.271l2.002-1.023c0.054-0.027,0.105-0.049,0.158-0.078
				c0.053-0.026,0.111-0.041,0.176-0.041c0.171,0,0.271,0.073,0.307,0.219c0.032,0.143,0.047,0.262,0.047,0.353v2.258h1.318
				c0.129,0,0.229,0.01,0.293,0.03c0.064,0.022,0.11,0.084,0.14,0.186v0.728c0,0.157-0.036,0.257-0.109,0.293
				c-0.071,0.042-0.181,0.063-0.323,0.063H70.163z"/>
			<path style="fill:#046799;" d="M97.391,89.883c0,0.393-0.035,0.728-0.1,1.006c-0.064,0.27-0.272,0.537-0.608,0.791
				c-0.289,0.203-0.745,0.391-1.366,0.562c-0.622,0.171-1.364,0.258-2.228,0.258c-0.878,0-1.593-0.082-2.142-0.248
				c-0.552-0.166-0.979-0.393-1.295-0.679c-0.314-0.284-0.529-0.624-0.64-1.011c-0.113-0.39-0.168-0.804-0.168-1.235v-6.634
				c0-0.181,0.045-0.287,0.137-0.315c0.092-0.035,0.192-0.052,0.298-0.052h2.217c0.129,0,0.246,0.019,0.346,0.057
				c0.095,0.039,0.146,0.156,0.146,0.343v6.422c0,0.11,0.007,0.247,0.022,0.398c0.011,0.153,0.059,0.29,0.137,0.415
				c0.078,0.129,0.194,0.235,0.353,0.322c0.155,0.091,0.377,0.138,0.669,0.138c0.26,0,0.468-0.039,0.618-0.117
				c0.15-0.074,0.259-0.17,0.324-0.283c0.065-0.115,0.103-0.235,0.115-0.372c0.014-0.133,0.021-0.254,0.021-0.372v-6.53
				c0-0.14,0.025-0.245,0.068-0.313c0.045-0.068,0.155-0.106,0.326-0.106h2.295c0.133,0,0.238,0.021,0.325,0.057
				c0.085,0.039,0.13,0.15,0.13,0.326V89.883z"/>
			<path style="fill:#046799;" d="M107.624,90.255c-0.015,0.295-0.053,0.561-0.111,0.798c-0.057,0.236-0.236,0.456-0.54,0.661
				c-0.129,0.089-0.312,0.183-0.549,0.278c-0.236,0.095-0.506,0.182-0.816,0.259c-0.308,0.076-0.638,0.135-1.001,0.184
				c-0.358,0.041-0.727,0.065-1.108,0.065c-0.839,0-1.563-0.117-2.173-0.352c-0.608-0.234-1.108-0.567-1.499-0.997
				c-0.392-0.424-0.687-0.938-0.874-1.531c-0.191-0.597-0.288-1.248-0.288-1.953c0-0.709,0.097-1.379,0.288-2.018
				c0.188-0.639,0.469-1.209,0.833-1.704c0.365-0.496,0.821-0.889,1.357-1.179c0.536-0.294,1.145-0.44,1.823-0.44
				c0.421,0,0.751,0.051,0.985,0.137c0.236,0.093,0.423,0.179,0.566,0.257v-4.669c0-0.234,0.053-0.379,0.15-0.434
				c0.095-0.056,0.22-0.082,0.362-0.082h2.062c0.185,0.01,0.316,0.035,0.401,0.07c0.085,0.027,0.131,0.147,0.131,0.35V90.255z
				 M104.518,84.211c-0.104-0.059-0.218-0.111-0.342-0.162c-0.127-0.047-0.28-0.072-0.459-0.072c-0.33,0-0.613,0.093-0.856,0.273
				c-0.242,0.177-0.444,0.423-0.601,0.728c-0.158,0.307-0.27,0.663-0.341,1.062c-0.071,0.398-0.11,0.804-0.11,1.226
				c0,0.425,0.039,0.829,0.11,1.229c0.071,0.399,0.183,0.75,0.341,1.051c0.156,0.301,0.354,0.541,0.59,0.725
				c0.236,0.177,0.509,0.268,0.824,0.268c0.212,0,0.371-0.034,0.481-0.106c0.114-0.077,0.194-0.161,0.246-0.274
				c0.051-0.107,0.085-0.223,0.099-0.351c0.014-0.127,0.018-0.234,0.018-0.332V84.211z"/>
			<path style="fill:#046799;" d="M114.299,86.61c0.199,0.087,0.424,0.202,0.681,0.342c0.251,0.143,0.494,0.326,0.724,0.546
				c0.229,0.221,0.427,0.495,0.592,0.813c0.162,0.321,0.246,0.709,0.246,1.162c0,0.323-0.06,0.659-0.168,1.017
				c-0.113,0.356-0.308,0.683-0.591,0.976c-0.28,0.295-0.659,0.543-1.139,0.741c-0.478,0.193-1.082,0.293-1.817,0.293
				c-0.706,0-1.309-0.085-1.808-0.255c-0.494-0.172-0.894-0.384-1.194-0.639c-0.306-0.254-0.523-0.526-0.66-0.813
				c-0.138-0.287-0.204-0.553-0.204-0.786c0-0.354,0.108-0.665,0.331-0.923c0.223-0.261,0.527-0.392,0.904-0.392
				c0.146,0,0.322,0.036,0.53,0.115c0.207,0.079,0.428,0.27,0.649,0.572c0.022,0.051,0.094,0.155,0.214,0.313
				c0.116,0.157,0.19,0.263,0.216,0.313c0.064,0.106,0.185,0.238,0.356,0.403c0.165,0.165,0.387,0.246,0.646,0.246
				c0.223,0,0.429-0.08,0.616-0.239c0.192-0.16,0.29-0.38,0.29-0.666c0-0.366-0.137-0.646-0.405-0.829
				c-0.271-0.184-0.653-0.392-1.146-0.624l-0.849-0.387c-0.167-0.073-0.38-0.179-0.627-0.313c-0.246-0.137-0.486-0.307-0.715-0.518
				c-0.229-0.207-0.424-0.473-0.58-0.785c-0.16-0.312-0.238-0.688-0.238-1.131c0-0.159,0.035-0.398,0.102-0.718
				c0.063-0.319,0.221-0.638,0.471-0.949c0.248-0.314,0.618-0.586,1.111-0.819c0.488-0.233,1.153-0.351,1.99-0.351
				c0.63,0,1.156,0.072,1.593,0.216c0.431,0.147,0.782,0.324,1.048,0.544c0.271,0.215,0.462,0.454,0.58,0.711
				c0.116,0.266,0.18,0.507,0.18,0.729c0,0.302-0.097,0.574-0.288,0.818c-0.187,0.241-0.476,0.361-0.854,0.361
				c-0.378,0-0.651-0.099-0.822-0.294c-0.171-0.199-0.328-0.413-0.472-0.649c-0.105-0.186-0.239-0.374-0.402-0.571
				c-0.165-0.196-0.39-0.296-0.677-0.296c-0.306,0-0.524,0.099-0.661,0.288c-0.136,0.192-0.204,0.389-0.204,0.603
				c0,0.193,0.041,0.366,0.127,0.504c0.086,0.143,0.197,0.268,0.334,0.374c0.137,0.101,0.287,0.194,0.451,0.274
				c0.164,0.08,0.324,0.151,0.481,0.21L114.299,86.61z"/>
		</g>
		<g>
			<path style="fill:#046799;" d="M86.823,86.549c-0.445-0.635-1.12-1.073-2.023-1.316c-0.062-0.028-0.132-0.044-0.208-0.058
				c-0.072-0.012-0.142-0.027-0.206-0.04c0.17-0.064,0.314-0.127,0.436-0.188c0.551-0.257,1.027-0.622,1.44-1.102
				c0.413-0.477,0.617-1.085,0.617-1.827c0-0.66-0.148-1.205-0.45-1.635c-0.299-0.426-0.662-0.768-1.077-1.022
				c-0.525-0.307-1.14-0.502-1.841-0.591c-0.7-0.09-1.46-0.138-2.284-0.138c-0.764,0-1.439,0.034-2.034,0.097
				c-0.598,0.064-1.007,0.138-1.229,0.214c-0.169,0.064-0.287,0.147-0.353,0.244c-0.064,0.105-0.099,0.266-0.099,0.481v4.805H74.81
				c-0.435,0-0.786,0.358-0.786,0.801c0,0.445,0.352,0.802,0.786,0.802h1.053h1.65h3.615c0.078,0,0.17,0,0.273,0
				c0.379,0,0.698,0.034,0.962,0.099c0.023,0.006,0.041,0.014,0.06,0.019c0.232,0.061,0.435,0.131,0.591,0.217
				c0.172,0.098,0.307,0.191,0.41,0.293c0.031,0.032,0.041,0.055,0.068,0.081l0.006-0.005c0.066,0.071,0.124,0.143,0.161,0.21
				c0.147,0.216,0.245,0.444,0.308,0.693c0.058,0.245,0.083,0.485,0.083,0.726c0,0.254-0.046,0.541-0.146,0.861
				c-0.095,0.324-0.317,0.595-0.654,0.809c-0.266,0.151-0.533,0.246-0.809,0.282c-0.272,0.041-0.506,0.061-0.687,0.061
				c-0.25,0-0.542-0.021-0.885-0.062v-2.945h-3.357v3.953c0.015,0.27,0.044,0.469,0.088,0.598c0.044,0.125,0.194,0.224,0.44,0.286
				c0.144,0.041,0.351,0.073,0.612,0.106c0.261,0.03,0.545,0.056,0.846,0.077c0.3,0.021,0.614,0.032,0.941,0.044
				c0.324,0.018,0.63,0.021,0.902,0.021c0.993,0,1.783-0.039,2.366-0.131c0.581-0.09,1.077-0.226,1.483-0.406
				c0.694-0.294,1.251-0.719,1.666-1.27c0.422-0.553,0.63-1.222,0.63-2.021C87.488,87.895,87.267,87.185,86.823,86.549z
				 M80.87,80.615c0.236-0.034,0.479-0.056,0.729-0.056c0.235,0,0.489,0.026,0.754,0.086c0.271,0.055,0.516,0.188,0.739,0.403
				c0.337,0.349,0.507,0.819,0.507,1.411c0,0.525-0.107,0.93-0.334,1.209c-0.222,0.278-0.484,0.481-0.793,0.6
				c-0.308,0.12-0.615,0.185-0.915,0.19c-0.301,0.006-0.53,0.003-0.688-0.011V80.615z"/>
		</g>
	</g>
</g>
<g id="Layer_1">
</g>
</svg>
