<?xml version="1.0" encoding="iso-8859-1"?>
<!-- Generator: Adobe Illustrator 18.1.0, SVG Export Plug-In . SVG Version: 6.00 Build 0)  -->
<!DOCTYPE svg PUBLIC "-//W3C//DTD SVG 1.1//EN" "http://www.w3.org/Graphics/SVG/1.1/DTD/svg11.dtd">
<svg version="1.1" xmlns="http://www.w3.org/2000/svg" xmlns:xlink="http://www.w3.org/1999/xlink" x="0px" y="0px"
	 viewBox="0 0 140 105" style="enable-background:new 0 0 140 105;" xml:space="preserve">
<g id="m3d">
	<path style="fill:#231F20;" d="M43.013,50.102c0,0,0.481-0.283,0.481,0.207v-0.502L43.013,50.102z"/>
	<g>
		<path style="fill:#373839;" d="M51.532,40.994c0,0,0.058-0.623,0.619-0.623h32.029c0,0,4.806,0.263,4.806,5.392v13.993
			c0,0,0.198,4.741-4.806,4.741H52.026c0,0-0.494-0.088-0.494-0.554v-3.56c0,0,0.011-0.628,0.514-0.628h30.751
			c0,0,0.633-0.053,0.633-0.479v-3.52c0,0-0.04-0.544-0.633-0.544H63.06c0,0-0.593-0.059-0.593-0.583v-3.718
			c0,0,0.09-0.465,0.475-0.465h19.845c0,0,0.652,0.041,0.652-0.604v-3.44c0,0-0.089-0.641-0.623-0.641H52.145
			c0,0-0.612-0.041-0.612-0.725V40.994z"/>
		<path style="fill:#373839;" d="M130,56.74v-7.865c0-8.504-9.018-8.355-9.018-8.355s-26.088,0-26.598,0
			c-1.513,0-1.513,1.543-1.513,1.543s0,20.442,0,21.011c0,1.424,1.295,1.424,1.295,1.424s18.382,0,26.776,0
			C130.079,64.497,130,56.74,130,56.74z M120.577,59.148l-21.238-0.03c0,0-0.801-0.044-0.801-0.859l0.029-11.243
			c0,0,0.015-0.563,0.801-0.563l21.18-0.029c0,0,3.23-0.136,3.23,3.562l0.008,5.831C123.786,55.815,123.751,59.148,120.577,59.148z"
			/>
		<g>
			<g>
				<path style="fill:#27ACD9;" d="M48.185,41.047c-0.041,0-0.08-0.008-0.126,0.007c-0.045,0.015-0.088,0.036-0.125,0.057
					L29.282,52.348L10.682,41.162c0.001,0,0.003,0.001,0.003,0.001l-0.089-0.053l-0.063-0.039l0.062,0.038
					c-0.036-0.02-0.079-0.042-0.124-0.056c-0.045-0.015-0.084-0.007-0.126-0.007c0,0-0.138-0.004-0.138,0.259v22.56
					c0,0,0,0.632,0.638,0.632h3.524c0.594,0,0.617-0.632,0.617-0.632V49.512c0-0.409,0.328-0.289,0.446-0.232l13.637,8.488
					l0.213,0.133l0.229-0.142l13.991-8.598v14.654c0,0,0,0.682,0.643,0.682h3.49c0.688,0,0.688-0.682,0.688-0.682v-22.51
					C48.323,41.043,48.185,41.047,48.185,41.047z"/>
			</g>
		</g>
	</g>
</g>
<g id="Layer_1">
</g>
</svg>
